<?xml version="1.0" standalone="no"?>
<!DOCTYPE svg PUBLIC "-//W3C//DTD SVG 1.1//EN" "http://www.w3.org/Graphics/SVG/1.1/DTD/svg11.dtd" >
<svg xmlns="http://www.w3.org/2000/svg" xmlns:xlink="http://www.w3.org/1999/xlink" version="1.1">
<metadata>
Created by FontForge 20170731 at Fri Jul 10 16:21:13 2020
 By Aleksey,,,
Copyright (c) 2005 by Telenor ASA. All rights reserved.
</metadata>
<defs>
<font id="Telenor-Light" horiz-adv-x="1130" >
  <font-face 
    font-family="Telenor"
    font-weight="300"
    font-stretch="normal"
    units-per-em="2048"
    panose-1="2 0 0 0 0 0 0 0 0 0"
    ascent="1638"
    descent="-410"
    x-height="1104"
    cap-height="1509"
    bbox="-55.5455 -561.235 2087 1982"
    underline-thickness="102"
    underline-position="-307"
    unicode-range="U+0020-FB02"
  />
<missing-glyph horiz-adv-x="2048" 
 />
    <glyph glyph-name=".notdef" horiz-adv-x="2048" 
 />
    <glyph glyph-name=".null" horiz-adv-x="0" 
 />
    <glyph glyph-name="nonmarkingreturn" horiz-adv-x="682" 
 />
    <glyph glyph-name="space" unicode=" " horiz-adv-x="440" 
 />
    <glyph glyph-name="exclam" unicode="!" horiz-adv-x="518" 
d="M328 1491l-17 -1028q0 -14 -51 -14q-49 0 -49 14l-16 1028q0 18 67 18q66 0 66 -18zM258 -8q-57 0 -57 12v195q0 12 57 12t57 -12v-195q0 -12 -57 -12z" />
    <glyph glyph-name="quotedbl" unicode="&#x22;" horiz-adv-x="702" 
d="M549 1497l-25 -508q0 -12 -41 -12q-39 0 -39 12l-24 508q0 12 65 12q64 0 64 -12zM283 1497l-25 -508q0 -12 -41 -12q-39 0 -39 12l-24 508q0 12 63 12q66 0 66 -12z" />
    <glyph glyph-name="numbersign" unicode="#" horiz-adv-x="1253" 
d="M1229 987q-9 -39 -23 -39h-211l-77 -368h208q19 0 9 -43q-12 -39 -23 -39h-213l-102 -494q-2 -12 -49 -12h-17t-15.5 1t-14 4t-3.5 7l103 494h-363l-102 -494q-2 -12 -53 -12h-16t-14.5 1t-12 4t-2.5 7l102 494h-231q-14 0 -5 45q7 37 17 37h237l78 368h-233q-13 0 -4 45
q9 39 18 39h238l96 465q2 12 49 12h17t15 -1t13.5 -4t3.5 -7l-94 -465h360l101 465q2 12 47 12h17.5t16 -1t14 -4t3.5 -7l-100 -465h209q17 0 6 -45zM897 948h-362l-78 -368h362z" />
    <glyph glyph-name="dollar" unicode="$" horiz-adv-x="1304" 
d="M590 -145v184q-102 7 -204.5 46t-180.5 95q-9 6 1.5 34t27.5 51t24 18q73 -54 174.5 -96t198.5 -42q158 0 256 84t98 228q0 59 -25 104t-67.5 74t-98 51t-116.5 40t-121.5 37.5t-116 47t-98 64t-67.5 93.5t-25 130q0 145 89 239t249 117v188q0 13 59 13q58 0 58 -13v-182
q169 -5 335 -92q7 -8 1 -32.5t-21.5 -48t-24.5 -17.5q-66 39 -151 62.5t-162 23.5q-139 0 -226 -67t-87 -187q0 -58 25.5 -101.5t68 -70.5t98.5 -47t117.5 -37t122.5 -35.5t117 -46t98.5 -65t68 -98t25.5 -138.5q0 -175 -114 -287t-289 -133v-188q0 -13 -58 -13
q-59 0 -59 13z" />
    <glyph glyph-name="percent" unicode="%" horiz-adv-x="1523" 
d="M406 778q-248 0 -248 205v317q0 209 248 209q251 0 251 -209v-317q0 -205 -251 -205zM1210 1497l-774 -1485q-6 -12 -63 -12h-21.5t-21 1t-18 4t-3.5 7l774 1485q6 12 64 12h20t20.5 -1t18.5 -4t4 -7zM1157 -33q-246 0 -246 209v340q0 209 248 209q250 0 250 -209v-340
q0 -209 -252 -209zM547 1300q0 119 -141 119q-64 0 -102 -25.5t-38 -93.5v-317q0 -67 37.5 -91t102.5 -24q66 0 103.5 24t37.5 91v317zM1298 516q0 119 -141 119q-64 0 -101.5 -25.5t-37.5 -93.5v-340q0 -67 37 -92t102 -25t103 25t38 92v340z" />
    <glyph glyph-name="ampersand" unicode="&#x26;" horiz-adv-x="1331" 
d="M1233 588l-172 -293l184 -223q7 -11 -13.5 -37t-47.5 -42.5t-35 -4.5l-160 202q-22 -29 -52.5 -59t-83 -68.5t-127 -63t-155.5 -24.5q-444 0 -444 365v113q0 57 24 109.5t74 102.5t98.5 88t125.5 91q-96 93 -148.5 171t-52.5 156v64q0 44 7 82t28 78t54 68.5t90 46.5
t132 18q74 0 131 -20t89 -50t52 -70.5t26.5 -75.5t6.5 -71v-70q0 -52 -14.5 -93.5t-49.5 -83t-80 -78t-120 -89.5l387 -452l125 213q8 12 59 12h20t20.5 -1t18 -4t3.5 -7zM559 1436q-100 0 -149.5 -49.5t-49.5 -153.5v-45q0 -24 5 -47.5t18 -47.5t22 -40.5t31.5 -42.5
t31.5 -36.5t36 -38.5t33 -34q110 69 161.5 135.5t51.5 151.5v45q0 87 -46.5 145t-144.5 58zM922 281l-408 487l-113 -84q-161 -120 -161 -258v-59q0 -70 21 -123.5t53.5 -85t78 -52t88 -27.5t90.5 -7q57 0 112 19t89.5 40.5t71 58t48 51.5t30.5 40z" />
    <glyph glyph-name="quotesingle" unicode="'" horiz-adv-x="333" 
d="M231 1497l-24 -508q0 -12 -41 -12q-39 0 -39 12l-25 508q0 12 64 12q65 0 65 -12z" />
    <glyph glyph-name="parenleft" unicode="(" horiz-adv-x="729" 
d="M461 1571q9 12 50.5 -17t33.5 -41q-42 -56 -83 -132.5t-83 -182.5t-68 -242t-26 -276q0 -128 26.5 -262t67.5 -242t83.5 -190t82.5 -136q8 -12 -33.5 -40.5t-50.5 -16.5q-38 41 -83 119t-92.5 190.5t-78.5 267t-31 312.5t31 312.5t78.5 267t92.5 190.5t83 119z" />
    <glyph glyph-name="parenright" unicode=")" horiz-adv-x="729" 
d="M260 1571q38 -41 83 -119t92.5 -190.5t78.5 -267t31 -312.5t-31 -312.5t-78.5 -267t-92.5 -190.5t-83 -119q-10 -10 -51 17.5t-33 39.5q40 54 82.5 136t83.5 190t67.5 242t26.5 262q0 140 -26 276t-68 242t-83 182.5t-83 132.5q-8 12 33 40t51 18z" />
    <glyph glyph-name="asterisk" unicode="*" horiz-adv-x="821" 
d="M166 1350l219 -90l-18 237q0 12 51 12t51 -12l-18 -237l221 90q5 2 13 -13q20 -37 21 -71q1 -12 -4 -13l-231 -55l154 -184q5 -7 -13.5 -24.5t-41 -29.5t-27.5 -4l-125 203l-127 -203q-6 -8 -27.5 5t-39.5 31.5t-13 23.5l154 182l-232 57q-6 2 -6 13t4.5 25t10.5 27.5
t12.5 22.5t11.5 7z" />
    <glyph glyph-name="plus" unicode="+" horiz-adv-x="1304" 
d="M1167 463h-469v-459q0 -12 -53 -12q-51 0 -51 12v459h-455q-12 0 -12 49t12 49h455v465q0 12 51 12q53 0 53 -12v-465h469q13 0 13 -49t-13 -49z" />
    <glyph glyph-name="comma" unicode="," horiz-adv-x="501" 
d="M143 -199q-29 21 -16 37q63 70 78.5 137.5t15.5 247.5q0 13 55 13q56 0 56 -13q0 -158 -36 -257.5t-112 -174.5q-15 -12 -41 10z" />
    <glyph glyph-name="hyphen" unicode="-" horiz-adv-x="960" 
d="M176 559q-12 0 -12 49t12 49h608q13 0 13 -49t-13 -49h-608z" />
    <glyph glyph-name="period" unicode="." horiz-adv-x="444" 
d="M221 -8q-57 0 -57 12v244q0 12 57 12q58 0 58 -12v-244q0 -12 -58 -12z" />
    <glyph glyph-name="slash" unicode="/" horiz-adv-x="800" 
d="M778 1497l-643 -1493q-6 -12 -57 -12h-18.5t-18.5 1t-15.5 4t-2.5 7l643 1493q6 12 55 12h18.5t19 -1t16.5 -4t3 -7z" />
    <glyph glyph-name="zero" unicode="0" horiz-adv-x="1304" 
d="M664 -25q-231 0 -351 96t-120 306v743q0 211 120.5 308.5t350.5 97.5q227 0 337.5 -96.5t110.5 -309.5v-743q0 -211 -110.5 -306.5t-337.5 -95.5zM993 1116q0 160 -77 230.5t-252 70.5q-183 0 -268 -71.5t-85 -229.5v-735q0 -159 84.5 -228t268.5 -69q176 0 252.5 68.5
t76.5 228.5v735z" />
    <glyph glyph-name="one" unicode="1" horiz-adv-x="737" 
d="M408 -8q-58 0 -58 12v1370q-47 -23 -118.5 -43t-94.5 -20q-14 0 -14 43q0 49 12 51q112 22 252 96h80v-1497q0 -12 -59 -12z" />
    <glyph glyph-name="two" unicode="2" horiz-adv-x="1175" 
d="M676 690q-112 -61 -182 -106.5t-121 -91.5t-76 -97t-36 -107.5t-11 -137.5v-50h772q12 0 12 -51q0 -49 -12 -49h-891v141q0 96 17 171t48.5 134t89 113t124.5 99t168 100q117 64 181.5 106t106 87.5t54 88.5t12.5 107q0 125 -87.5 200.5t-240.5 75.5q-180 0 -356 -104
q-9 -6 -25.5 16.5t-23 46t1.5 33.5q80 48 185.5 79.5t215.5 31.5q212 0 327 -102.5t115 -276.5q0 -59 -9.5 -106.5t-32 -88t-50 -73t-73.5 -66t-90.5 -60.5t-112.5 -63z" />
    <glyph glyph-name="three" unicode="3" horiz-adv-x="1091" 
d="M152 193q180 -109 358 -109q136 0 218.5 69.5t82.5 194.5v98q0 265 -317 265h-82q-13 0 -13 55q0 53 13 53h106q132 0 213.5 65t81.5 191v86q0 121 -83 189.5t-208 68.5q-189 0 -344 -102q-8 -5 -26 17.5t-27 46t0 34.5q65 45 175 78t220 33q60 0 116.5 -12.5t110 -41
t93.5 -69.5t64 -103.5t24 -138.5v-90q0 -128 -76 -205t-186 -100q107 -20 183.5 -101.5t76.5 -207.5v-105q0 -170 -113.5 -273.5t-302.5 -103.5q-32 0 -65 3t-60.5 7.5t-56 12t-51 14.5t-45 16t-38.5 16t-32.5 15.5t-25 13t-18.5 9.5l-9 6q-10 10 -4 35.5t22 50t25 19.5z
" />
    <glyph glyph-name="four" unicode="4" horiz-adv-x="1163" 
d="M1044 338h-182v-334q0 -12 -55 -12q-57 0 -57 12v334h-654q-6 0 -6 41q0 33 6 45l682 1077q6 8 43 8q41 0 41 -8v-1061h182q13 0 13 -51t-13 -51zM225 440h525v830z" />
    <glyph glyph-name="five" unicode="5" horiz-adv-x="1148" 
d="M555 -25q-227 0 -403 152q-9 6 4 31t33 45.5t28 13.5q162 -131 332 -131q315 0 315 328v129q0 156 -67 239.5t-201 83.5q-88 0 -151 -32.5t-119 -96.5h-103v764h733q13 0 13 -51t-13 -51h-620v-522q110 98 270 98q183 0 281 -112.5t98 -319.5v-133q0 -197 -111.5 -316
t-318.5 -119z" />
    <glyph glyph-name="six" unicode="6" horiz-adv-x="1263" 
d="M655 -25q-222 0 -342 135t-120 365v600q0 96 26 175t80.5 142t148.5 98.5t220 35.5q198 0 370 -88q7 -4 -1.5 -30.5t-22.5 -50.5t-21 -20q-137 84 -327 84q-183 0 -269 -92t-86 -252v-295q31 75 129 139t238 64q209 0 325.5 -110.5t116.5 -317.5v-145q0 -201 -121.5 -319
t-343.5 -118zM1006 406v137q0 165 -84.5 252.5t-255.5 87.5q-157 0 -256 -92.5t-99 -239.5v-117q0 -165 93 -262.5t251 -97.5q157 0 254 83.5t97 248.5z" />
    <glyph glyph-name="seven" unicode="7" horiz-adv-x="1056" 
d="M289 4l532 1395h-755q-13 0 -13 51t13 51h874q10 0 10 -35q0 -39 -6 -57l-530 -1405q-4 -12 -62 -12h-19.5t-20 1t-18.5 4t-5 7z" />
    <glyph glyph-name="eight" unicode="8" horiz-adv-x="1226" 
d="M614 -25q-207 0 -331.5 105t-124.5 287v45q0 64 16.5 118.5t41.5 91.5t60 67t66.5 46.5t65.5 28.5q-22 9 -48.5 26t-58 48t-56.5 68t-42 90.5t-17 111.5v27q0 188 108 289.5t320 101.5q213 0 320.5 -101.5t107.5 -289.5v-21q0 -75 -20.5 -137t-55 -103t-69.5 -66.5
t-74 -41.5q45 -15 84.5 -40t78.5 -66t62 -105.5t23 -144.5v-39q0 -182 -124.5 -289t-332.5 -107zM614 719q-157 0 -251.5 -74.5t-94.5 -234.5v-41q0 -143 97 -222t249 -79q147 0 247 80t100 223v39q0 309 -347 309zM295 1141v-33q0 -148 87.5 -224.5t231.5 -76.5
q151 0 235.5 75.5t84.5 225.5v27q0 160 -85 228.5t-235 68.5q-319 0 -319 -291z" />
    <glyph glyph-name="nine" unicode="9" horiz-adv-x="1267" 
d="M612 1526q221 0 342 -128.5t121 -334.5v-637q0 -96 -26 -175t-80.5 -142t-148.5 -98.5t-220 -35.5q-199 0 -371 88q-7 4 1.5 30.5t22.5 50.5t21 20q137 -84 328 -84q184 0 270 92t86 252v295q-19 -46 -63.5 -90t-125.5 -78.5t-177 -34.5q-205 0 -325 117t-120 311v146
q0 201 121.5 318.5t343.5 117.5zM262 1096v-138q0 -160 92 -251t248 -91q155 0 255.5 93t100.5 231v154q0 149 -94.5 241t-251.5 92t-253.5 -83t-96.5 -248z" />
    <glyph glyph-name="colon" unicode=":" horiz-adv-x="464" 
d="M258 -8q-57 0 -57 12v244q0 12 57 12t57 -12v-244q0 -12 -57 -12zM258 850q-57 0 -57 12v244q0 12 57 12t57 -12v-244q0 -12 -57 -12z" />
    <glyph glyph-name="semicolon" unicode=";" horiz-adv-x="464" 
d="M98 -199q-28 21 -16 37q63 70 78.5 137.5t15.5 247.5q0 13 55 13q56 0 56 -13q0 -158 -36 -257.5t-112 -174.5q-15 -12 -41 10zM227 850q-57 0 -57 12v244q0 12 57 12q58 0 58 -12v-244q0 -12 -58 -12z" />
    <glyph glyph-name="less" unicode="&#x3c;" horiz-adv-x="1087" 
d="M211 557l688 256q4 1 7 -3.5t4 -15.5t1 -18v-18q0 -58 -12 -62l-586 -204l586 -193q12 -4 12 -55v-19t-1 -19t-4 -17t-7 -3l-688 252q-12 5 -12 60q0 53 12 59z" />
    <glyph glyph-name="equal" unicode="=" horiz-adv-x="1087" 
d="M190 600q-12 0 -12 49t12 49h736q12 0 12 -49t-12 -49h-736zM190 311q-12 0 -12 49q0 50 12 50h736q12 0 12 -50q0 -49 -12 -49h-736z" />
    <glyph glyph-name="greater" unicode="&#x3e;" horiz-adv-x="1087" 
d="M223 813l688 -256q15 -6 15 -59q0 -54 -15 -60l-688 -252q-9 -4 -11 22q-1 7 -1 36q0 51 12 55l586 193l-586 204q-12 4 -12 62v18t1 18t4 15.5t7 3.5z" />
    <glyph glyph-name="question" unicode="?" horiz-adv-x="919" 
d="M432 1421q-115 0 -237 -88q-9 -6 -26 15.5t-27 48t-1 33.5q137 96 303 96q92 0 162 -30t110 -81.5t59.5 -112.5t19.5 -131q0 -67 -25.5 -129t-64 -108t-83.5 -96.5t-83.5 -93.5t-64 -99.5t-25.5 -114.5v-69q0 -12 -54 -12q-51 0 -51 12v71q0 78 34.5 150t83.5 127t98 109
t83.5 118t34.5 131q0 107 -61.5 180.5t-184.5 73.5zM395 -8q-57 0 -57 12v244q0 12 57 12q58 0 58 -12v-244q0 -12 -58 -12z" />
    <glyph glyph-name="at" unicode="@" horiz-adv-x="1779" 
d="M1337 150q-80 0 -136 36t-79 86q-12 -16 -29.5 -33t-51 -42t-83.5 -40.5t-106 -15.5q-126 0 -206.5 74t-80.5 178v74q0 62 22 106.5t62.5 73t107 45t145 23t188.5 6.5q0 120 -49.5 181t-161.5 61q-94 0 -222 -64q-13 -6 -29 14t-20.5 41.5t4.5 30.5q55 30 134 50t141 20
q138 0 223.5 -77t85.5 -243v-368q0 -49 35.5 -91.5t109.5 -42.5q79 0 129 62t50 162v342q0 39 -7.5 80t-27.5 88.5t-50.5 90.5t-80.5 83.5t-114 70t-154 47t-197 17.5q-132 0 -237 -28.5t-175.5 -77.5t-117 -118.5t-67 -148.5t-20.5 -170v-272q0 -89 19 -167.5t63 -149
t110.5 -121t167 -80t226.5 -29.5q105 0 202.5 18.5t141 34.5t107.5 43q12 5 26 -19t17.5 -47.5t-4.5 -29.5q-24 -10 -56 -21t-99.5 -30t-155.5 -31t-177 -12q-130 0 -237 26t-181.5 72t-129.5 106t-86.5 132.5t-46.5 145.5t-15 151v288q0 138 48 253t138 199t228 130.5
t311 46.5q127 0 233 -21t179.5 -56t130.5 -83.5t91 -99.5t55.5 -108.5t29.5 -106t8 -96.5v-332q0 -136 -71.5 -226.5t-207.5 -90.5zM1092 635q-169 0 -217 -5q-181 -18 -204 -123q-3 -16 -3 -34v-74q0 -72 56 -119t142 -47q71 0 131 38t95 91v273z" />
    <glyph glyph-name="A" unicode="A" horiz-adv-x="1140" 
d="M571 1509q60 0 64 -12l452 -1493q1 -4 -5 -7t-18.5 -4t-20 -1h-19.5q-59 0 -63 12l-109 369h-571l-113 -369q-4 -12 -57 -12h-18.5t-19 1t-16.5 4t-4 7l457 1493q4 12 61 12zM311 475h512l-252 871z" />
    <glyph glyph-name="B" unicode="B" horiz-adv-x="1210" 
d="M1067 467v-115q0 -163 -104 -257.5t-306 -94.5h-454v1501h420q198 0 303.5 -89t105.5 -255v-72q0 -113 -63.5 -193t-163.5 -106q113 -25 187.5 -107t74.5 -212zM918 1092v51q0 258 -314 258h-285v-565h314q59 0 108.5 13.5t90 42.5t63.5 80t23 120zM950 356v107
q0 127 -82 199.5t-233 72.5h-316v-635h312q70 0 123.5 11.5t99.5 38.5t71 79t25 127z" />
    <glyph glyph-name="C" unicode="C" horiz-adv-x="1134" 
d="M1065 1448q8 -8 2.5 -32t-20 -48t-23.5 -20q-168 77 -324 77q-81 0 -149.5 -16t-126 -50.5t-90.5 -97t-33 -147.5v-735q0 -73 23.5 -128t60.5 -87.5t91.5 -53t108.5 -27.5t120 -7q196 0 329 65q5 2 11.5 -7.5t12 -23.5t9.5 -30t4 -27t-4 -14q-56 -27 -163 -45.5
t-199 -18.5q-521 0 -521 404v735q0 412 518 412q87 0 192.5 -23t170.5 -55z" />
    <glyph glyph-name="D" unicode="D" horiz-adv-x="1327" 
d="M1143 1081v-682q0 -204 -109 -301.5t-348 -97.5h-483v1501h465q249 0 362 -104.5t113 -315.5zM1026 399v684q0 156 -85 236t-267 80h-355v-1297h373q172 0 253 70t81 227z" />
    <glyph glyph-name="E" unicode="E" horiz-adv-x="1044" 
d="M942 53q0 -53 -12 -53h-727v1501h723q12 0 12 -53q0 -51 -12 -51h-607v-561h531q12 0 12 -52q0 -51 -12 -51h-531v-629h611q12 0 12 -51z" />
    <glyph glyph-name="F" unicode="F" horiz-adv-x="980" 
d="M915 1448q0 -51 -12 -51h-584v-572h531q12 0 12 -53t-12 -53h-531v-715q0 -12 -59 -12q-57 0 -57 12v1497h700q12 0 12 -53z" />
    <glyph glyph-name="G" unicode="G" horiz-adv-x="1355" 
d="M1075 385v299h-295q-12 0 -12 53q0 54 12 54h412v-406q0 -105 -37 -184.5t-104.5 -128.5t-158 -73t-202.5 -24q-232 0 -369 101t-137 305v733q0 412 518 412q87 0 193.5 -23.5t171.5 -54.5q8 -8 2.5 -32t-20 -48t-23.5 -20q-159 73 -326 73q-52 0 -100.5 -6.5t-105 -26
t-97.5 -51.5t-68.5 -88t-27.5 -129v-727q0 -76 26.5 -134.5t66 -91.5t94.5 -54t103 -28t99 -7t98 6t101.5 26t93.5 52.5t65.5 89.5t26.5 133z" />
    <glyph glyph-name="H" unicode="H" horiz-adv-x="1386" 
d="M1184 4q0 -12 -58 -12q-59 0 -59 12v729h-748v-729q0 -12 -57 -12q-59 0 -59 12v1493q0 12 59 12q57 0 57 -12v-655h748v655q0 12 59 12q58 0 58 -12v-1493z" />
    <glyph glyph-name="I" unicode="I" horiz-adv-x="538" 
d="M338 4q0 -12 -59 -12q-58 0 -58 12v1493q0 12 58 12q59 0 59 -12v-1493z" />
    <glyph glyph-name="J" unicode="J" horiz-adv-x="645" 
d="M444 1497v-1247q0 -250 -282 -250h-105q-12 0 -12 53q0 51 12 51h111q84 0 122 35t38 117v1241q0 12 57 12q59 0 59 -12z" />
    <glyph glyph-name="K" unicode="K" horiz-adv-x="1140" 
d="M317 565l2 -561q0 -12 -59 -12q-57 0 -57 12v1493q0 12 61 12q55 0 55 -12v-778l611 778q10 12 71 12h22t24.5 -1t22 -4t3.5 -7l-534 -680l551 -813q3 -4 -3.5 -7t-22 -4t-24.5 -1h-22q-64 0 -74 12l-489 729z" />
    <glyph glyph-name="L" unicode="L" horiz-adv-x="985" 
d="M975 55q0 -55 -12 -55h-760v1497q0 12 57 12q59 0 59 -12v-1386h644q12 0 12 -56z" />
    <glyph glyph-name="M" unicode="M" horiz-adv-x="1591" 
d="M1389 4q0 -12 -60 -12q-53 0 -53 12v1112q0 162 6 230h-2l-422 -1342q-4 -12 -65 -12q-58 0 -62 12l-420 1346h-2q8 -93 8 -230v-1116q0 -12 -55 -12q-59 0 -59 12v1493q0 12 88 12q77 0 82 -14l280 -891q107 -342 144 -483q32 126 143 483l277 893q4 12 75 12
q97 0 97 -12v-1493z" />
    <glyph glyph-name="N" unicode="N" horiz-adv-x="1411" 
d="M1208 4q0 -12 -88 -12q-72 0 -78 12l-493 936q-39 72 -116 218.5t-116 219.5h-2q4 -129 4 -393v-981q0 -12 -57 -12q-59 0 -59 12v1493q0 12 88 12q84 0 90 -12l467 -897q41 -78 123 -234.5t123 -234.5h2q-4 258 -4 389v977q0 12 57 12q59 0 59 -12v-1493z" />
    <glyph glyph-name="O" unicode="O" horiz-adv-x="1386" 
d="M1202 377q0 -139 -65.5 -230.5t-177 -131.5t-267.5 -40q-238 0 -373 98t-135 304v743q0 206 136 306t372 100q238 0 374 -100t136 -306v-743zM1085 377v743q0 156 -105 229.5t-288 73.5t-287 -73.5t-104 -229.5v-743q0 -154 104.5 -227.5t286.5 -73.5t287.5 74t105.5 227
z" />
    <glyph glyph-name="P" unicode="P" horiz-adv-x="1153" 
d="M1040 1104v-133q0 -90 -23.5 -162t-73 -127t-133.5 -85t-198 -30h-293v-563q0 -12 -59 -12t-59 12v1497h411q225 0 326.5 -102.5t101.5 -294.5zM924 969v135q0 155 -76 226t-246 71h-283v-733h283q169 0 245.5 74.5t76.5 226.5z" />
    <glyph glyph-name="Q" unicode="Q" horiz-adv-x="1427" 
d="M1307 -184q14 0 14 -45q0 -37 -15.5 -48.5t-50.5 -11.5q-63 0 -135 20t-126 44.5t-116 44.5t-106 20q-17 0 -39.5 -4t-25.5 -4q-13 0 -13 47t13 49q41 9 77 9q49 0 114 -19.5t118.5 -43t117 -43t109.5 -19.5q16 0 39 2t25 2zM1210 377q0 -139 -65.5 -230.5t-177 -131.5
t-267.5 -40q-238 0 -372.5 98t-134.5 304v743q0 206 135.5 306t371.5 100q238 0 374 -100t136 -306v-743zM1094 377v743q0 156 -105.5 229.5t-288.5 73.5t-287 -73.5t-104 -229.5v-743q0 -154 104.5 -227.5t286.5 -73.5t288 74t106 227z" />
    <glyph glyph-name="R" unicode="R" horiz-adv-x="1206" 
d="M788 621l295 -617q2 -4 -4.5 -7t-21 -4t-23 -1h-20.5q-60 0 -66 12l-276 596h-344v-596q0 -12 -60 -12q-59 0 -59 12v1497h412q225 0 326.5 -102.5t101.5 -294.5v-100q0 -316 -261 -383zM932 1001v103q0 155 -76 226t-246 71h-282v-701h282q170 0 246 72t76 229z" />
    <glyph glyph-name="S" unicode="S" horiz-adv-x="1095" 
d="M993 401q0 -130 -66.5 -228.5t-174 -148t-238.5 -49.5q-110 0 -223.5 40.5t-202.5 103.5q-9 6 1.5 33.5t27.5 50.5t24 18q73 -53 174.5 -95t198.5 -42q158 0 256 83.5t98 227.5q0 30 -5.5 56.5t-13 48t-24 43t-29 36.5t-37.5 33.5t-41 29t-48 27.5t-50 26t-55 26.5
t-55 26.5q-51 25 -77.5 38.5t-73 40.5t-72.5 48t-60 54.5t-51.5 66t-30 76t-12.5 91.5q0 165 116 264t316 99q183 0 359 -92q7 -8 1 -32.5t-21.5 -48.5t-24.5 -18q-65 39 -151 62.5t-163 23.5q-141 0 -227 -67t-86 -187q0 -29 5.5 -55.5t20 -49.5t27 -41.5t38 -38t41 -31.5
t48 -29t47.5 -24.5t51.5 -25t47.5 -22.5q159 -76 218 -115q164 -107 191 -263q6 -34 6 -71z" />
    <glyph glyph-name="T" unicode="T" horiz-adv-x="1001" 
d="M991 1452q0 -51 -12 -51h-414v-1397q0 -12 -57 -12q-59 0 -59 12v1397h-426q-13 0 -13 51q0 49 13 49h956q12 0 12 -49z" />
    <glyph glyph-name="U" unicode="U" horiz-adv-x="1320" 
d="M1133 385q0 -85 -27.5 -157t-82.5 -129.5t-149 -90.5t-217 -33t-216 33t-147 90.5t-80 129.5t-26 157v1112q0 12 60 12q57 0 57 -12v-1122q0 -143 89 -221t263 -78q175 0 268 78.5t93 220.5v1122q0 12 55 12q60 0 60 -12v-1112z" />
    <glyph glyph-name="V" unicode="V" horiz-adv-x="1140" 
d="M1092 1497l-453 -1493q-4 -12 -70 -12q-71 0 -75 12l-457 1493q-1 4 4.5 7t17.5 4t19.5 1h19.5q62 0 66 -12l229 -782q127 -435 172 -600h4q37 136 172 598l230 784q4 12 59 12h19.5t20 -1t18 -4t4.5 -7z" />
    <glyph glyph-name="W" unicode="W" horiz-adv-x="1744" 
d="M1671 1497l-332 -1493q-2 -12 -73 -12q-70 0 -72 12l-195 811q-103 434 -122 522h-3q-75 -371 -106 -510l-182 -823q-2 -12 -72 -12t-72 12l-368 1493q-1 4 4.5 7t17.5 4t19.5 1h19.5q60 0 62 -12l178 -752q10 -43 44.5 -191t55.5 -246t39 -191h2q34 204 125 626l166 754
q2 12 65 12q64 0 66 -12l182 -752q13 -53 48 -193t58 -241.5t40 -193.5h2q17 94 39 199.5t48.5 232t41.5 199.5l153 749q2 12 60 12h18.5t19.5 -1t18 -4t5 -7z" />
    <glyph glyph-name="X" unicode="X" horiz-adv-x="1134" 
d="M575 662l-401 -658q-8 -12 -63 -12h-21t-23 1t-20.5 4t-3.5 7l469 748l-459 745q-3 4 2.5 7t18.5 4t21 1h20q63 0 71 -12l392 -653l385 653q8 12 59 12h20.5t22 -1t19.5 -4t3 -7l-446 -737l451 -756q3 -4 -3 -7t-19 -4t-21.5 -1h-20.5q-59 0 -67 12z" />
    <glyph glyph-name="Y" unicode="Y" horiz-adv-x="1075" 
d="M1042 1495l-452 -856v-635q0 -12 -58 -12q-59 0 -59 12v635l-440 858q-2 4 3.5 7t18 4t20 1h19.5q62 0 68 -12l373 -749l385 749q6 12 67 12q11 0 18.5 -0.5t19 -1.5t16 -4t1.5 -8z" />
    <glyph glyph-name="Z" unicode="Z" horiz-adv-x="1093" 
d="M1022 51q0 -51 -12 -51h-938v66l784 1329h-750q-12 0 -12 55q0 51 12 51h898v-69l-779 -1326h785q12 0 12 -55z" />
    <glyph glyph-name="bracketleft" unicode="[" horiz-adv-x="661" 
d="M537 -276h-340v1837h340q12 0 12 -45q0 -48 -12 -48h-228v-1652h228q12 0 12 -47q0 -45 -12 -45z" />
    <glyph glyph-name="backslash" unicode="\" horiz-adv-x="860" 
d="M100 1497q-1 4 5 7t18.5 4t20.5 1h20q61 0 65 -12q90 -249 271.5 -747.5t271.5 -747.5q1 -3 -4.5 -5.5t-17 -3.5t-18.5 -1h-17q-64 0 -68 12q-91 249 -273.5 746.5t-273.5 746.5z" />
    <glyph glyph-name="bracketright" unicode="]" horiz-adv-x="661" 
d="M465 -276h-340q-12 0 -12 45q0 47 12 47h227v1650h-227q-12 0 -12 47q0 46 12 46h340v-1835z" />
    <glyph glyph-name="asciicircum" unicode="^" horiz-adv-x="1087" 
d="M606 1460l275 -696q1 -4 -4.5 -7t-17 -4t-19.5 -1h-19q-57 0 -61 12l-221 592l-211 -592q-5 -12 -60 -12q-56 0 -57 9q-1 1 0 3l268 696q6 13 58 13h6h6q50 -1 57 -13z" />
    <glyph glyph-name="underscore" unicode="_" horiz-adv-x="835" 
d="M20 -256v123h795v-123h-795z" />
    <glyph glyph-name="grave" unicode="`" horiz-adv-x="983" 
d="M522 1241l-207 281q-14 18 22 22l34 2q51 0 59 -12l182 -289q9 -13 -15 -15q-8 -1 -24 -1q-41 0 -51 12z" />
    <glyph glyph-name="a" unicode="a" horiz-adv-x="1083" 
d="M920 4q0 -12 -56 -12q-53 0 -53 12v121q-167 -150 -354 -150q-163 0 -257 88t-94 242v53q0 393 703 297v90q0 152 -62.5 218.5t-205.5 66.5q-176 0 -301 -67q-12 -7 -27 17t-18 49t8 34q62 30 156 50t186 20q375 0 375 -379v-750zM809 227v340q-308 43 -450 -10
t-142 -201v-51q0 -112 72.5 -170.5t183.5 -58.5q97 0 184 42t152 109z" />
    <glyph glyph-name="b" unicode="b" horiz-adv-x="1128" 
d="M995 733v-358q0 -192 -110.5 -296t-309.5 -104q-196 0 -303.5 103.5t-107.5 292.5v1151q0 12 55 12t55 -12v-594q50 94 142 149.5t217 55.5q160 0 261 -104.5t101 -295.5zM885 395v320q0 162 -78 238.5t-199 76.5q-146 0 -240 -98t-94 -234v-303q0 -169 76.5 -245
t224.5 -76q152 0 231 74.5t79 246.5z" />
    <glyph glyph-name="c" unicode="c" horiz-adv-x="983" 
d="M545 -25q-192 0 -301 104.5t-109 295.5v358q0 192 109 296t301 104q183 0 340 -115q11 -13 4.5 -35.5t-24 -41.5t-27.5 -11q-1 0 -10.5 7t-15.5 11t-20 12.5t-25 14l-28 14t-32 14t-34.5 12t-37.5 10.5t-39.5 6.5t-42.5 2.5q-150 0 -228.5 -80t-78.5 -239v-322
q0 -158 79 -238.5t228 -80.5q152 0 293 106q9 8 25.5 -8.5t25.5 -39t0 -30.5q-56 -52 -152 -89.5t-200 -37.5z" />
    <glyph glyph-name="d" unicode="d" horiz-adv-x="1144" 
d="M518 1133q122 0 209 -47.5t127 -118.5v555q0 12 55 12q56 0 56 -12v-1518q0 -12 -56 -12q-53 0 -53 12v154q-43 -75 -128.5 -129t-203.5 -54q-179 0 -285 103.5t-106 296.5v358q0 193 105 296.5t280 103.5zM557 78q124 0 210.5 83t86.5 195v383q0 135 -89.5 215
t-227.5 80q-293 0 -293 -319v-322q0 -315 313 -315z" />
    <glyph glyph-name="e" unicode="e" horiz-adv-x="1093" 
d="M961 500h-717v-107q0 -151 80 -234t235 -83q108 0 184.5 23t151.5 63q8 4 24 -17.5t23.5 -43.5t-0.5 -31q-167 -95 -379 -95q-203 0 -316.5 108.5t-113.5 301.5v338q0 184 116 297t292 113q190 0 305 -116t115 -317v-200zM850 590v121q0 157 -87.5 241t-221.5 84
q-128 0 -212.5 -83t-84.5 -236v-127h606z" />
    <glyph glyph-name="f" unicode="f" horiz-adv-x="616" 
d="M535 1034q0 -47 -13 -47h-188v-983q0 -12 -55 -12q-56 0 -56 12v983h-151q-13 0 -13 47q0 45 13 45h151v221q0 102 58 164t159 62h115q5 0 7 -2.5t3.5 -13.5t1.5 -33q0 -21 -1.5 -31.5t-3.5 -13t-7 -2.5h-98q-123 0 -123 -150v-201h188q13 0 13 -45z" />
    <glyph glyph-name="g" unicode="g" horiz-adv-x="1140" 
d="M856 -4v147q-41 -71 -127.5 -119.5t-208.5 -48.5q-175 0 -280 103.5t-105 296.5v358q0 193 106 296.5t285 103.5q119 0 205 -48t127 -118v139q0 12 53 12q56 0 56 -12v-1067q0 -230 -107.5 -347.5t-310.5 -117.5q-89 0 -180 28t-154 62q-8 9 -1 33.5t24 47.5t26 17
q151 -88 295 -88q142 0 219.5 78.5t77.5 243.5zM543 1030q-136 0 -216.5 -75.5t-80.5 -239.5v-322q0 -167 79 -243t214 -76q138 0 227.5 81t89.5 216v383q0 112 -90 194t-223 82z" />
    <glyph glyph-name="h" unicode="h" 
d="M967 4q0 -12 -56 -12q-55 0 -55 12v772q0 117 -60.5 181.5t-152.5 64.5q-33 0 -65.5 -8.5t-60.5 -22t-55 -32t-49 -38.5t-41.5 -40t-34 -38t-25 -32t-16.5 -21l-5 -8v-778q0 -12 -55 -12q-56 0 -56 12v1518q0 12 58 12q53 0 53 -12v-615q71 101 170 163.5t215 62.5
q133 0 212 -90.5t79 -237.5v-801z" />
    <glyph glyph-name="i" unicode="i" horiz-adv-x="471" 
d="M236 -8q-56 0 -56 12v1102q0 12 56 12q55 0 55 -12v-1102q0 -12 -55 -12zM236 1292q-56 0 -56 13v217q0 12 56 12q55 0 55 -12v-217q0 -13 -55 -13z" />
    <glyph glyph-name="j" unicode="j" horiz-adv-x="489" 
d="M127 -418h-119q-12 0 -12 47t12 47h84q107 0 107 99v1329q0 12 55 12t55 -12v-1329q0 -90 -46 -141.5t-136 -51.5zM254 1292q-55 0 -55 13v217q0 12 55 12t55 -12v-217q0 -13 -55 -13z" />
    <glyph glyph-name="k" unicode="k" horiz-adv-x="946" 
d="M885 1106l-447 -506l475 -596q3 -4 -4 -7t-22 -4t-24 -1h-21q-60 0 -68 12l-418 524l-65 -69v-455q0 -12 -58 -12q-53 0 -53 12v1518q0 12 56 12q55 0 55 -12v-928l457 512q10 12 65 12h22t24.5 -1t22 -4t3.5 -7z" />
    <glyph glyph-name="l" unicode="l" horiz-adv-x="528" 
d="M471 0h-84q-109 0 -160 57t-51 154v1311q0 12 55 12q56 0 56 -12v-1307q0 -64 30.5 -92.5t98.5 -28.5h55q11 0 14.5 -7.5t3.5 -37.5q0 -32 -3.5 -40.5t-14.5 -8.5z" />
    <glyph glyph-name="m" unicode="m" horiz-adv-x="1658" 
d="M893 770v-766q0 -12 -55 -12q-56 0 -56 12v772q0 115 -53 179.5t-135 64.5q-81 0 -163.5 -78t-139.5 -178v-760q0 -12 -55 -12q-56 0 -56 12v1102q0 12 53 12q56 0 56 -12v-213q63 102 148.5 171t183.5 69q109 0 175.5 -73t82.5 -167q69 107 155.5 173.5t179.5 66.5
q127 0 204 -84.5t77 -229.5v-815q0 -12 -55 -12q-56 0 -56 12v772q0 121 -48 182.5t-136 61.5q-84 0 -165 -71t-142 -179z" />
    <glyph glyph-name="n" unicode="n" 
d="M967 4q0 -12 -56 -12q-55 0 -55 12v752q0 134 -55.5 200t-157.5 66q-98 0 -191 -69t-161 -169v-780q0 -12 -55 -12q-56 0 -56 12v1102q0 12 56 12q53 0 53 -12v-199q71 101 171 163.5t216 62.5q133 0 212 -90.5t79 -237.5v-801z" />
    <glyph glyph-name="o" unicode="o" horiz-adv-x="1122" 
d="M559 -25q-203 0 -314.5 104t-111.5 296v358q0 193 111.5 296.5t314.5 103.5q205 0 317.5 -103.5t112.5 -296.5v-358q0 -191 -112.5 -295.5t-317.5 -104.5zM879 715q0 167 -82 242t-238 75q-155 0 -235 -74.5t-80 -242.5v-322q0 -168 80.5 -243.5t234.5 -75.5
q157 0 238.5 74.5t81.5 244.5v322z" />
    <glyph glyph-name="p" unicode="p" horiz-adv-x="1144" 
d="M627 -25q-122 0 -208.5 48.5t-127.5 119.5v-549q0 -12 -55 -12q-56 0 -56 12v1512q0 12 56 12q53 0 53 -12v-156q43 75 128.5 129t203.5 54q179 0 285 -103.5t106 -296.5v-358q0 -193 -105 -296.5t-280 -103.5zM588 1030q-124 0 -210.5 -83t-86.5 -195v-381
q0 -135 89.5 -216t227.5 -81q293 0 293 319v322q0 315 -313 315z" />
    <glyph glyph-name="q" unicode="q" horiz-adv-x="1144" 
d="M518 -25q-175 0 -280 103.5t-105 296.5v358q0 193 106 296.5t285 103.5q118 0 203.5 -54t128.5 -129v156q0 12 53 12q56 0 56 -12v-1512q0 -12 -56 -12q-55 0 -55 12v549q-41 -71 -127.5 -119.5t-208.5 -48.5zM557 1030q-313 0 -313 -315v-322q0 -319 293 -319
q138 0 227.5 81t89.5 216v381q0 112 -86.5 195t-210.5 83z" />
    <glyph glyph-name="r" unicode="r" horiz-adv-x="669" 
d="M633 999h-66q-65 0 -127 -59t-151 -195v-741q0 -12 -56 -12q-53 0 -53 12v1102q0 12 53 12q52 0 52 -12v-248q66 100 109.5 151t92 78t109.5 27h41q12 0 12 -59q0 -56 -16 -56z" />
    <glyph glyph-name="s" unicode="s" horiz-adv-x="870" 
d="M416 -25q-75 0 -167.5 25t-150.5 59q-8 5 1.5 30.5t24.5 47.5t23 17q140 -80 269 -80q113 0 181.5 63.5t68.5 153.5q0 56 -23.5 100t-62 72t-87.5 54t-100.5 45.5t-100.5 47.5t-87.5 59t-62 80.5t-23.5 112.5q0 120 90.5 195.5t245.5 75.5q149 0 262 -48q7 -8 2.5 -30
t-16 -45t-17.5 -21q-66 24 -117 34.5t-123 10.5q-101 0 -159 -50.5t-58 -123.5q0 -43 23.5 -78t62 -58.5t87.5 -48t100.5 -45.5t100.5 -52.5t87.5 -67.5t62 -92t23.5 -125q0 -128 -97 -223t-263 -95z" />
    <glyph glyph-name="t" unicode="t" horiz-adv-x="690" 
d="M571 0h-139q-110 0 -160.5 57t-50.5 154v776h-155q-15 0 -15 45q0 47 15 47h155v269q0 12 55 12q56 0 56 -12v-269h241q13 0 13 -47q0 -45 -13 -45h-241v-772q0 -64 29.5 -91.5t97.5 -27.5h112q11 0 15 -8t4 -37q0 -32 -4 -41.5t-15 -9.5z" />
    <glyph glyph-name="u" unicode="u" 
d="M164 1106q0 12 55 12t55 -12v-774q0 -117 60.5 -181.5t152.5 -64.5q41 0 83 13.5t76 35t65 47.5t54 51.5t40.5 47.5t26.5 35l8 12v778q0 12 55 12t55 -12v-1102q0 -12 -55 -12q-53 0 -53 12v199q-72 -102 -171.5 -165t-215.5 -63q-133 0 -212 90.5t-79 237.5v803z" />
    <glyph glyph-name="v" unicode="v" horiz-adv-x="917" 
d="M885 1106l-363 -1102q-4 -12 -67 -12q-60 0 -64 12l-358 1102q-1 4 4.5 7t17 4t19 1h18.5q58 0 62 -12l182 -586q63 -205 123 -420h4q65 239 123 422l182 584q4 12 59 12h18.5t19 -1t16.5 -4t4 -7z" />
    <glyph glyph-name="w" unicode="w" horiz-adv-x="1343" 
d="M862 4l-131 598q-45 225 -63 342h-4q-29 -169 -70 -344l-139 -596q-2 -12 -68 -12q-59 0 -61 12l-263 1102q-1 4 5 7t17.5 4t19 1h18.5q57 0 59 -12l125 -574q54 -240 84 -417h4q23 128 88 420l131 571q2 12 56 12q55 0 57 -12l123 -574q55 -254 82 -415h4q16 90 92 418
l135 571q2 12 58 12h18.5t19 -1t17 -4t4.5 -7l-287 -1102q-4 -12 -67 -12q-62 0 -64 12z" />
    <glyph glyph-name="x" unicode="x" horiz-adv-x="894" 
d="M811 1106l-303 -545l313 -557q2 -4 -3 -7t-16.5 -4t-19 -1h-18.5q-49 0 -57 12l-263 477l-258 -477q-6 -12 -57 -12h-19.5t-19 1t-16.5 4t-2 7l315 559l-324 543q-2 4 3.5 7t18 4t20.5 1h20q53 0 59 -12l267 -457l247 457q7 12 56 12h18.5t19 -1t16.5 -4t3 -7z" />
    <glyph glyph-name="y" unicode="y" horiz-adv-x="946" 
d="M920 1106l-529 -1505q-4 -13 -59 -13q-61 1 -60 13l148 411l-385 1094q-1 4 4.5 7t17 4t19 1h18.5q58 0 62 -12l323 -956l318 956q4 12 63 12q9 0 18.5 -0.5t20 -1.5t16.5 -3.5t5 -6.5z" />
    <glyph glyph-name="z" unicode="z" horiz-adv-x="880" 
d="M66 57l583 949h-545q-12 0 -12 49t12 49h697v-57l-586 -949h608q13 0 13 -49q0 -17 -3.5 -33t-9.5 -16h-757v57z" />
    <glyph glyph-name="braceleft" unicode="{" horiz-adv-x="694" 
d="M188 643v-6q101 -14 163.5 -81t62.5 -173v-313v-125q0 -57 29.5 -89t82.5 -32h74q12 0 12 -47q0 -53 -12 -53h-92q-60 0 -101 20.5t-63 60.5t-30.5 88.5t-8.5 114.5v377q0 85 -57 136t-158 65q-12 2 -12 53q0 49 12 51q102 14 158.5 67t56.5 144v311q0 49 1 81t5.5 72
t12.5 65.5t23 52t36.5 42t52.5 25t72 9.5h92q12 0 12 -50q0 -49 -12 -49h-74q-52 0 -82 -33t-30 -90v-444q0 -106 -61.5 -171t-164.5 -79z" />
    <glyph glyph-name="bar" unicode="|" horiz-adv-x="462" 
d="M229 -539q-53 0 -53 13v2152q0 12 53 12q56 0 56 -10v-2154q0 -13 -56 -13z" />
    <glyph glyph-name="braceright" unicode="}" horiz-adv-x="694" 
d="M506 647q-103 14 -164 79t-61 171v440q0 57 -30.5 90t-82.5 33h-74q-12 0 -12 49q0 50 12 50h92q41 0 72 -9.5t52.5 -24.5t36.5 -41.5t23 -52t12.5 -65.5t5.5 -71.5t1 -80.5v-309q0 -91 56.5 -144t158.5 -67q12 -2 12 -51q0 -51 -12 -53q-101 -14 -158 -65t-57 -136v-379
q0 -66 -8.5 -114.5t-30.5 -88.5t-63 -60.5t-101 -20.5h-92q-12 0 -12 53q0 47 12 47h74q53 0 83 32t30 89v127v313q0 106 62 173t163 81v6z" />
    <glyph glyph-name="asciitilde" unicode="~" horiz-adv-x="1087" 
d="M920 637q-26 -58 -86 -113t-129 -55q-50 0 -94.5 19.5t-71.5 43t-61.5 43t-65.5 19.5q-50 0 -82 -25.5t-60 -79.5q-4 -7 -20.5 3.5t-30 26.5t-10.5 24q19 43 73.5 93t123.5 50q46 0 90.5 -19.5t73.5 -43t65 -43t67 -19.5q17 0 32.5 4.5t28 11t25 17.5t20.5 20t17.5 21.5
t13.5 19.5l10 17.5t7 11.5q5 8 22 -1t31 -23.5t11 -22.5z" />
    <glyph glyph-name="nbspace" unicode="&#xa0;" horiz-adv-x="221" 
 />
    <glyph glyph-name="exclamdown" unicode="&#xa1;" horiz-adv-x="518" 
d="M311 1038l17 -1028q0 -18 -66 -18q-67 0 -67 18l16 1028q0 15 49 15q51 0 51 -15zM258 1509q57 0 57 -12v-194q0 -13 -57 -13t-57 13v194q0 12 57 12z" />
    <glyph glyph-name="cent" unicode="&#xa2;" horiz-adv-x="1191" 
d="M696 1290v-157q146 -12 287 -113q11 -13 3.5 -35.5t-26 -41.5t-28.5 -11l-14 10q-13 9 -21.5 14.5t-27.5 16.5t-34.5 18t-38.5 16.5t-44.5 15t-48 9.5t-52.5 4q-150 0 -228.5 -80t-78.5 -239v-324q0 -158 79 -238.5t228 -80.5q65 0 126 19.5t93 38.5t70 48q9 8 26.5 -8.5
t27.5 -39t1 -30.5q-47 -44 -128 -78.5t-171 -43.5v-158q0 -12 -55 -12q-53 0 -53 12v155q-164 14 -259.5 117t-95.5 281v360q0 177 93 280t260 118v157q0 13 55 13t55 -13z" />
    <glyph glyph-name="sterling" unicode="&#xa3;" horiz-adv-x="1304" 
d="M1073 1356q-27 -45 -41 -35q-89 56 -161.5 81t-168.5 25q-53 0 -101.5 -15t-91.5 -46t-69 -86.5t-26 -128.5q0 -54 7 -111t19.5 -135.5t18.5 -130.5h336q5 0 7.5 -3t3.5 -9t1.5 -10.5t0 -14t-0.5 -12.5q0 -49 -12 -49h-332q7 -286 -107 -578h678q13 0 13 -49t-13 -49
h-829q69 165 109.5 350t33.5 326h-158q-3 0 -5 1t-3.5 3t-2.5 4.5t-1.5 6.5t-1 6.5t-0.5 7.5v7.5v7.5v7q0 47 12 47h154q-3 39 -21 168.5t-18 204.5q0 190 115 284.5t303 94.5q63 0 129.5 -15t116 -37t78.5 -37t42 -24q7 -9 2 -25t-16 -32z" />
    <glyph glyph-name="currency" unicode="&#xa4;" horiz-adv-x="1304" 
d="M1161 1448q8 -8 2.5 -32t-20 -48t-23.5 -20q-168 77 -325 77q-65 0 -118 -7t-107.5 -27.5t-91 -53.5t-60 -90t-23.5 -133v-186h482q12 0 12 -47t-12 -47h-482v-191h482q12 0 12 -47t-12 -47h-482v-170q0 -73 23 -128t60 -87.5t91 -53t107.5 -27.5t118.5 -7q192 0 325 65
q5 2 11.5 -7.5t12 -23.5t9.5 -30t4 -27t-4 -14q-56 -27 -161.5 -45.5t-196.5 -18.5q-516 0 -516 404v170h-138q-12 0 -12 47t12 47h138v191h-138q-12 0 -12 47t12 47h138v186q0 412 518 412q87 0 193 -23t171 -55z" />
    <glyph glyph-name="yen" unicode="&#xa5;" horiz-adv-x="1304" 
d="M285 485q-13 0 -13 50q0 49 13 49h303v55q-73 144 -220 429.5t-221 428.5q-2 4 3.5 7t18 4t20.5 1h20q59 0 65 -12q62 -125 186 -374.5t187 -374.5q64 125 192 374.5t193 374.5q6 12 70 12q11 0 18.5 -0.5t19 -1.5t16 -4t1.5 -8q-76 -142 -226 -428t-226 -428v-55h315
q12 0 12 -49q0 -50 -12 -50h-315v-481q0 -12 -58 -12q-59 0 -59 12v481h-303z" />
    <glyph glyph-name="brokenbar" unicode="&#xa6;" horiz-adv-x="1531" 
d="M289 662q-53 0 -53 12v952q0 12 55 12q53 0 53 -12v-952q0 -12 -55 -12zM289 -543q-53 0 -53 13v952q0 12 55 12q53 0 53 -12v-952q0 -13 -55 -13z" />
    <glyph glyph-name="section" unicode="&#xa7;" horiz-adv-x="999" 
d="M799 694q0 -63 -24.5 -117.5t-61 -87.5t-74.5 -51t-68 -16q111 -48 181.5 -125t70.5 -174q0 -135 -99 -226.5t-251 -91.5q-180 0 -321 82q-9 5 0 32.5t25 50.5t24 16q84 -50 127 -64q59 -20 129 -20q48 0 92.5 12t81.5 36t59.5 64.5t22.5 91.5q0 96 -64.5 156t-204.5 119
q-137 59 -198.5 136.5t-61.5 184.5q0 97 64 180t174 99q-266 90 -266 297q0 119 91 194.5t249 75.5q150 0 254 -49q7 -8 2 -29.5t-18.5 -43.5t-22.5 -19q-130 47 -222 47q-112 0 -168.5 -50.5t-56.5 -129.5q0 -76 51 -127t199 -109q152 -59 218.5 -141.5t66.5 -202.5z
M496 907q-87 1 -148.5 -58.5t-64.5 -146.5q-2 -85 59 -147.5t147 -62.5t148.5 58t62.5 144q0 88 -58 149t-146 64z" />
    <glyph glyph-name="dieresis" unicode="&#xa8;" horiz-adv-x="1116" 
d="M391 1282q-57 0 -57 14v191q0 14 57 14q58 0 58 -14v-191q0 -14 -58 -14zM725 1282q-57 0 -57 14v191q0 14 57 14t57 -14v-191q0 -14 -57 -14z" />
    <glyph glyph-name="copyright" unicode="&#xa9;" horiz-adv-x="1597" 
d="M1528 731q0 -148 -58 -283.5t-156 -233.5t-233.5 -156t-283.5 -58t-283.5 58t-233.5 156t-156 233.5t-58 283.5t58 283.5t156 233.5t233.5 156t283.5 58t283.5 -58t233.5 -156t156 -233.5t58 -283.5zM1444 731q0 175 -87 323.5t-236 235t-324 86.5t-323.5 -86.5
t-235 -235t-86.5 -323.5t86.5 -324t235 -236t323.5 -87t324 87t236 236t87 324zM797 283q-143 0 -224 78t-81 221v268q0 143 81 221t224 78q137 0 256 -86q8 -7 -0.5 -29.5t-23 -40t-21.5 -10.5q-108 72 -199 72q-115 0 -166 -53t-51 -171v-233q0 -115 52 -169t165 -54
q107 0 205 74q7 7 21.5 -9t23.5 -36.5t2 -26.5q-42 -39 -114 -66.5t-150 -27.5z" />
    <glyph glyph-name="ordfeminine" unicode="&#xaa;" horiz-adv-x="880" 
d="M678 733q-47 0 -47 12v91q-44 -51 -113.5 -83t-138.5 -32q-115 0 -183.5 60t-68.5 159v61q0 211 367 211h137q0 116 -42.5 164.5t-150.5 48.5q-121 0 -233 -59q-9 -4 -17.5 4.5t-13.5 24.5l-2.5 7.5l-2.5 7.5t-2 7.5t-1.5 7.5l-1 6t0 5.5t2 4.5t3.5 3q123 65 274 65
q283 0 283 -276v-488q0 -12 -49 -12zM631 1141h-123q-146 0 -213.5 -32t-67.5 -105v-56q0 -67 45 -105t121 -38q139 0 238 117v219z" />
    <glyph glyph-name="guillemotleft" unicode="&#xab;" horiz-adv-x="1148" 
d="M498 647l327 469q4 7 30.5 -7.5t50 -34t18.5 -25.5l-283 -402l283 -399q5 -7 -18.5 -26.5t-50 -34t-30.5 -7.5zM92 647l328 469q4 7 30.5 -7.5t49.5 -34t18 -25.5l-282 -402l282 -399q5 -7 -18 -26.5t-49.5 -34t-30.5 -7.5z" />
    <glyph glyph-name="logicalnot" unicode="&#xac;" horiz-adv-x="1304" 
d="M1071 291q-49 0 -49 12v346h-856q-12 0 -12 49q0 50 12 50h948v-445q0 -12 -43 -12z" />
    <glyph glyph-name="uni00AD" unicode="&#xad;" horiz-adv-x="960" 
d="M176 559q-12 0 -12 49t12 49h608q13 0 13 -49t-13 -49h-608z" />
    <glyph glyph-name="registered" unicode="&#xae;" horiz-adv-x="1124" 
d="M991 1096q0 -179 -125 -304.5t-303 -125.5q-179 0 -304.5 126t-125.5 304t125.5 304t304.5 126q178 0 303 -125.5t125 -304.5zM924 1096q0 150 -106 256t-255 106q-151 0 -256.5 -105.5t-105.5 -256.5q0 -150 105.5 -255.5t256.5 -105.5q149 0 255 106t106 255zM657 1051
l84 -160l1.5 -7.5t-4 -4t-11.5 -2t-20 -0.5q-36 0 -41 10l-76 149h-101v-149q0 -13 -38 -13q-37 0 -37 13v444h161q79 0 115.5 -31t36.5 -104v-31q0 -83 -70 -114zM653 1165v31q0 40 -17 54t-63 14h-86v-164h86q46 0 63 14t17 51z" />
    <glyph glyph-name="macron" unicode="&#xaf;" horiz-adv-x="983" 
d="M346 1354q-12 0 -12 49t12 49h453q5 0 7.5 -3t3.5 -9t1.5 -10.5t0 -14t-0.5 -12.5q0 -49 -12 -49h-453z" />
    <glyph glyph-name="degree" unicode="&#xb0;" horiz-adv-x="878" 
d="M756 1208q0 -130 -92.5 -222.5t-223.5 -92.5t-224 92.5t-93 222.5q0 132 93 225t224 93t223.5 -93t92.5 -225zM653 1206q0 90 -62.5 152.5t-152.5 62.5q-88 0 -150.5 -62.5t-62.5 -152.5q0 -88 62.5 -149.5t150.5 -61.5q89 0 152 61.5t63 149.5z" />
    <glyph glyph-name="plusminus" unicode="&#xb1;" horiz-adv-x="1304" 
d="M1165 543h-469v-439h467q13 0 13 -53q0 -51 -13 -51h-1026q-12 0 -12 51q0 53 12 53h455v439h-455q-12 0 -12 49t12 49h455v465q0 12 51 12q53 0 53 -12v-465h469q13 0 13 -49t-13 -49z" />
    <glyph glyph-name="twosuperior" unicode="&#xb2;" horiz-adv-x="706" 
d="M356 1526q102 0 171 -55t69 -150q0 -97 -53 -154.5t-201 -122.5q-39 -17 -65.5 -37.5t-40.5 -39t-21 -44.5t-8.5 -44t-1.5 -48h377q12 0 12 -47q0 -51 -12 -51h-482v101q0 116 49 185.5t179 123.5q96 41 131.5 77.5t34.5 98.5q-2 56 -39 85.5t-107 29.5q-72 0 -178 -52
q-11 -6 -24 14.5t-16.5 42.5t3.5 31q40 23 105 39.5t118 16.5z" />
    <glyph glyph-name="threesuperior" unicode="&#xb3;" horiz-adv-x="706" 
d="M565 930q0 -88 -68.5 -150.5t-172.5 -62.5q-54 0 -109.5 15t-82.5 28t-36 20q-7 4 1 27.5t21 44.5t19 18q1 0 13.5 -7.5l17.5 -10.5t19 -10.5t22.5 -11t23.5 -9.5t26 -8.5t25 -5t27 -2.5q34 0 58 8q41 12 65.5 42.5t24.5 74.5v37q0 36 -38 71t-112 35h-47q-12 0 -12 53
q0 54 12 54h80q50 0 80.5 33.5t30.5 62.5v55q0 55 -37.5 81t-91.5 26q-22 0 -43.5 -4.5t-42 -13.5t-31.5 -14.5t-30 -17.5l-19 -12q-15 -7 -37 35t-8 51q95 64 198 64q246 0 246 -223v-27q0 -37 -14 -67t-36 -48t-34.5 -25.5t-21.5 -11.5q56 -19 83 -53q31 -39 31 -96v-45z
" />
    <glyph glyph-name="acute" unicode="&#xb4;" horiz-adv-x="983" 
d="M610 1522l-207 -281q-10 -12 -51 -12q-42 0 -42 10l3 6l183 289q8 12 59 12q60 0 59 -15q0 -4 -4 -9z" />
    <glyph glyph-name="mu" unicode="&#xb5;" horiz-adv-x="1144" 
d="M180 1106q0 12 53 12q56 0 56 -12v-727q0 -126 80 -209.5t184 -83.5q39 0 76.5 13.5t66.5 35t55 47.5t44.5 51.5t32 47.5t20.5 35l6 12v778q0 12 55 12q56 0 56 -12v-1102q0 -12 -56 -12q-53 0 -53 12v199q-115 -228 -303 -228q-87 0 -159 47t-103 121v-549
q0 -12 -55 -12q-56 0 -56 12v1512z" />
    <glyph glyph-name="paragraph" unicode="&#xb6;" horiz-adv-x="974" 
d="M590 1448v-1606q0 -10 -58 -10q-47 0 -47 10v854h-14q-66 0 -130.5 24.5t-119.5 70.5t-90.5 121t-38.5 167q-2 68 14.5 131.5t56 121.5t99 100.5t150 68t202.5 25.5q128 0 211 -13v-1671q0 -10 -49 -10q-57 0 -57 10v1606h-129z" />
    <glyph glyph-name="periodcentered" unicode="&#xb7;" horiz-adv-x="464" 
d="M221 492q-57 0 -57 12v244q0 12 57 12q58 0 58 -12v-244q0 -12 -58 -12z" />
    <glyph glyph-name="cedilla" unicode="&#xb8;" horiz-adv-x="983" 
d="M496 -408q-89 0 -164 56q-5 6 -1 21.5t16.5 29.5t21.5 8q73 -47 127 -47q108 0 108 82v25q0 90 -162 77v203h78v-145q79 -1 123.5 -36t44.5 -91v-45q0 -59 -49 -98.5t-143 -39.5z" />
    <glyph glyph-name="onesuperior" unicode="&#xb9;" horiz-adv-x="567" 
d="M328 1507v-772q0 -12 -54 -12q-53 0 -53 12v643h-100q-12 0 -12 41v8v7.5t0.5 6t1 6t2 4.5t3.5 4.5t5 2.5l127 49h80z" />
    <glyph glyph-name="ordmasculine" unicode="&#xba;" horiz-adv-x="937" 
d="M467 733q-138 0 -214.5 71.5t-76.5 203.5v245q0 131 76 202t215 71q140 0 217.5 -71t77.5 -202v-245q0 -132 -77.5 -203.5t-217.5 -71.5zM670 1235q0 203 -203 203q-98 0 -149.5 -47.5t-51.5 -155.5v-213q0 -205 201 -205q98 0 150.5 48.5t52.5 156.5v213z" />
    <glyph glyph-name="guillemotright" unicode="&#xbb;" horiz-adv-x="1148" 
d="M723 1116l328 -469l-328 -467q-4 -7 -30.5 7t-49.5 34t-18 27l282 399l-282 402q-4 7 19 26.5t49 33.5t30 7zM317 1116l328 -469l-328 -467q-4 -7 -30.5 7t-49.5 34t-18 27l283 399l-283 402q-4 7 19 26.5t49 33.5t30 7z" />
    <glyph glyph-name="onequarter" unicode="&#xbc;" horiz-adv-x="1564" 
d="M377 1444v-772q0 -13 -53 -13q-54 0 -54 13v643h-100q-12 0 -12 41v8v7.5t0.5 6t1 6t2 4.5t3.5 4.5t5 2.5l127 49h80zM1149 1497l-776 -1497q-6 -12 -54 -12h-19.5t-18 1t-15 4t-2.5 7l776 1497q6 12 56 12h18t17.5 -1t15 -4t2.5 -7zM1360 289q0 -45 -12 -45h-88v-150
q0 -12 -54 -12q-53 0 -53 12v150h-348v88l346 528q7 12 55 12q54 0 54 -12v-526h88q12 0 12 -45zM1153 713l-246 -379h246v379z" />
    <glyph glyph-name="onehalf" unicode="&#xbd;" horiz-adv-x="1564" 
d="M377 1444v-772q0 -13 -53 -13q-54 0 -54 13v643h-100q-12 0 -12 41v8v7.5t0.5 6t1 6t2 4.5t3.5 4.5t5 2.5l127 49h80zM1149 1497l-776 -1497q-6 -12 -54 -12h-19.5t-18 1t-15 4t-2.5 7l776 1497q6 12 56 12h18t17.5 -1t15 -4t2.5 -7zM1221 905q102 0 170.5 -56t68.5 -151
q0 -100 -53.5 -158t-200.5 -118q-38 -15 -65 -35.5t-41 -39t-21 -45t-8.5 -45t-1.5 -48.5h377q12 0 12 -47q0 -51 -12 -51h-481v100q0 116 48.5 184.5t178.5 122.5q95 40 131 78t35 100q-2 56 -39 85.5t-107 29.5q-74 0 -178 -51q-11 -6 -24 14.5t-16.5 42.5t3.5 31
q40 23 106 40t118 17z" />
    <glyph glyph-name="threequarters" unicode="&#xbe;" horiz-adv-x="1564" 
d="M1444 289q0 -45 -12 -45h-89v-150q0 -12 -53 -12t-53 12v150h-348v88l346 528q7 12 55 12q53 0 53 -12v-526h89q12 0 12 -45zM1276 1497l-776 -1497q-6 -12 -54 -12h-19.5t-18 1t-15 4t-2.5 7l776 1497q6 12 56 12h18t17.5 -1t15 -4t2.5 -7zM602 854q0 -88 -69 -150.5
t-173 -62.5q-54 0 -109.5 15t-82 28.5t-35.5 20.5q-7 4 1 27.5t21 44.5t19 18q1 -1 15.5 -9.5t21 -12t22.5 -12t27.5 -12.5t27 -9.5t31 -8t29.5 -2.5q61 0 104.5 32.5t43.5 92.5v37q0 36 -38 71t-112 35h-47q-12 0 -12 54q0 53 12 53h80q50 0 80 33t30 63v55q0 55 -37.5 81
t-91.5 26q-22 0 -43.5 -4.5t-41.5 -13.5t-31.5 -15t-29.5 -17t-19 -12q-15 -7 -37 35t-8 51q95 64 198 64q246 0 246 -223v-27q0 -37 -14.5 -67t-36.5 -47.5t-34 -25t-22 -11.5q70 -23 97 -74q18 -34 18 -76v-45zM1237 713l-246 -379h246v379z" />
    <glyph glyph-name="questiondown" unicode="&#xbf;" horiz-adv-x="919" 
d="M483 -311q116 0 238 88q9 6 26 -15.5t26.5 -47.5t0.5 -33q-138 -97 -303 -97q-92 0 -162 30t-109.5 81.5t-59 112.5t-19.5 131q0 67 25.5 129t64 108t83.5 96.5t83.5 93.5t64 99.5t25.5 114.5v69q0 13 53 13q51 0 51 -13v-71q0 -78 -34.5 -150t-83.5 -127t-97.5 -109
t-83 -118t-34.5 -131q0 -107 61 -180.5t184 -73.5zM520 1118q58 0 58 -12v-244q0 -12 -58 -12q-57 0 -57 12v244q0 12 57 12z" />
    <glyph glyph-name="Agrave" unicode="&#xc0;" horiz-adv-x="1181" 
d="M592 1509q59 0 63 -12l453 -1493q1 -4 -5 -7t-18.5 -4t-20.5 -1h-20q-59 0 -63 12l-109 369h-571l-113 -369q-4 -12 -57 -12h-18.5t-18.5 1t-16 4t-4 7l456 1493q4 12 62 12zM332 475h512l-252 871zM528 1651l-206 280q-14 19 23 24l32 1q51 0 59 -12l182 -289
q10 -13 -15 -16q-9 -1 -23 -1q-42 0 -52 13z" />
    <glyph glyph-name="Aacute" unicode="&#xc1;" horiz-adv-x="1181" 
d="M592 1509q59 0 63 -12l453 -1493q1 -4 -5 -7t-18.5 -4t-20.5 -1h-20q-59 0 -63 12l-109 369h-571l-113 -369q-4 -12 -57 -12h-18.5t-18.5 1t-16 4t-4 7l456 1493q4 12 62 12zM332 475h512l-252 871zM856 1931l-207 -280q-10 -13 -51 -13q-42 0 -42 10q0 3 3 7l182 289
q8 12 60 12q60 0 59 -16q0 -4 -4 -9z" />
    <glyph glyph-name="Acircumflex" unicode="&#xc2;" horiz-adv-x="1181" 
d="M592 1509q59 0 63 -12l453 -1493q1 -4 -5 -7t-18.5 -4t-20.5 -1h-20q-59 0 -63 12l-109 369h-571l-113 -369q-4 -12 -57 -12h-18.5t-18.5 1t-16 4t-4 7l456 1493q4 12 62 12zM332 475h512l-252 871zM768 1675q-42 0 -51 13l-125 200l-127 -200q-8 -13 -51 -13
q-10 0 -17.5 0.5t-17 1.5t-13.5 4t-1 7l165 254q8 12 62 12q53 0 61 -12l164 -254q3 -4 -1 -7t-13.5 -4t-17 -1.5t-17.5 -0.5z" />
    <glyph glyph-name="Atilde" unicode="&#xc3;" horiz-adv-x="1181" 
d="M592 1509q59 0 63 -12l453 -1493q1 -4 -5 -7t-18.5 -4t-20.5 -1h-20q-59 0 -63 12l-109 369h-571l-113 -369q-4 -12 -57 -12h-18.5t-18.5 1t-16 4t-4 7l456 1493q4 12 62 12zM332 475h512l-252 871zM883 1845q-20 -55 -69 -96t-107 -41q-45 0 -88 25t-79.5 50t-64.5 25
q-37 0 -64 -19.5t-53 -62.5q-3 -6 -19 4.5t-29.5 25t-10.5 20.5q17 42 64.5 82t105.5 40q47 0 90 -25t79.5 -50t68.5 -25q75 0 116 92q4 7 20 -1.5t29.5 -22.5t10.5 -21z" />
    <glyph glyph-name="Adieresis" unicode="&#xc4;" horiz-adv-x="1181" 
d="M592 1509q59 0 63 -12l453 -1493q1 -4 -5 -7t-18.5 -4t-20.5 -1h-20q-59 0 -63 12l-109 369h-571l-113 -369q-4 -12 -57 -12h-18.5t-18.5 1t-16 4t-4 7l456 1493q4 12 62 12zM332 475h512l-252 871zM424 1692q-57 0 -57 14v190q0 15 57 15t57 -15v-190q0 -14 -57 -14z
M758 1692q-58 0 -58 14v190q0 15 58 15q57 0 57 -15v-190q0 -14 -57 -14z" />
    <glyph glyph-name="Aring" unicode="&#xc5;" horiz-adv-x="1181" 
d="M592 1509q59 0 63 -12l453 -1493q1 -4 -5 -7t-18.5 -4t-20.5 -1h-20q-59 0 -63 12l-109 369h-571l-113 -369q-4 -12 -57 -12h-18.5t-18.5 1t-16 4t-4 7l456 1493q4 12 62 12zM332 475h512l-252 871zM750 1759q0 -64 -46.5 -110.5t-111.5 -46.5q-66 0 -112 46t-46 111
q0 66 46 112t112 46q65 0 111.5 -46t46.5 -112zM678 1759q0 35 -25.5 60.5t-60.5 25.5t-60.5 -25.5t-25.5 -60.5t25.5 -60.5t60.5 -25.5t60.5 25.5t25.5 60.5z" />
    <glyph glyph-name="AE" unicode="&#xc6;" horiz-adv-x="1693" 
d="M846 0v373h-473l-176 -369q-6 -12 -62 -12h-19.5t-20 1t-18 4t-3.5 7l721 1497h776q12 0 12 -53q0 -51 -12 -51h-606v-561h530q12 0 12 -52q0 -51 -12 -51h-530v-629h610q12 0 12 -51q0 -53 -12 -53h-729zM846 475v895l-418 -895h418z" />
    <glyph glyph-name="Ccedilla" unicode="&#xc7;" horiz-adv-x="1185" 
d="M694 -408q-89 0 -164 56q-5 6 -1 21.5t16.5 29.5t21.5 8q73 -47 127 -47q109 0 109 82v25q0 90 -162 77v133q-457 22 -457 402v735q0 412 518 412q87 0 192.5 -23t170.5 -55q8 -8 2.5 -32t-20 -48t-23.5 -20q-168 77 -324 77q-81 0 -149.5 -16t-126 -50.5t-90.5 -97
t-33 -147.5v-735q0 -73 23.5 -128t60.5 -87.5t91.5 -53t108.5 -27.5t120 -7q196 0 329 65q5 2 11.5 -7.5t12 -23.5t9.5 -30t4 -27t-4 -14q-53 -27 -154.5 -44.5t-193.5 -19.5v-73q79 -1 123.5 -36t44.5 -91v-45q0 -58 -49.5 -98t-143.5 -40z" />
    <glyph glyph-name="Egrave" unicode="&#xc8;" horiz-adv-x="1054" 
d="M942 53q0 -53 -12 -53h-727v1501h723q12 0 12 -53q0 -51 -12 -51h-607v-561h531q12 0 12 -52q0 -51 -12 -51h-531v-629h611q12 0 12 -51zM584 1651l-207 280q-14 19 23 24l32 1q52 0 60 -12l182 -289q9 -13 -15 -16q-9 -1 -24 -1q-41 0 -51 13z" />
    <glyph glyph-name="Eacute" unicode="&#xc9;" horiz-adv-x="1054" 
d="M942 53q0 -53 -12 -53h-727v1501h723q12 0 12 -53q0 -51 -12 -51h-607v-561h531q12 0 12 -52q0 -51 -12 -51h-531v-629h611q12 0 12 -51zM786 1931l-206 -280q-10 -13 -52 -13t-42 10q0 3 3 7l183 289q8 12 59 12q60 0 59 -16q0 -4 -4 -9z" />
    <glyph glyph-name="Ecircumflex" unicode="&#xca;" horiz-adv-x="1054" 
d="M942 53q0 -53 -12 -53h-727v1501h723q12 0 12 -53q0 -51 -12 -51h-607v-561h531q12 0 12 -52q0 -51 -12 -51h-531v-629h611q12 0 12 -51zM735 1675q-42 0 -51 13l-125 200l-127 -200q-8 -13 -51 -13q-10 0 -17.5 0.5t-17 1.5t-13.5 4t-1 7l166 254q8 12 61 12
q54 0 62 -12l163 -254q3 -4 -1 -7t-13.5 -4t-17 -1.5t-17.5 -0.5z" />
    <glyph glyph-name="Edieresis" unicode="&#xcb;" horiz-adv-x="1054" 
d="M942 53q0 -53 -12 -53h-727v1501h723q12 0 12 -53q0 -51 -12 -51h-607v-561h531q12 0 12 -52q0 -51 -12 -51h-531v-629h611q12 0 12 -51zM389 1692q-57 0 -57 14v190q0 15 57 15t57 -15v-190q0 -14 -57 -14zM723 1692q-57 0 -57 14v190q0 15 57 15t57 -15v-190
q0 -14 -57 -14z" />
    <glyph glyph-name="Igrave" unicode="&#xcc;" horiz-adv-x="538" 
d="M338 4q0 -12 -59 -12q-58 0 -58 12v1493q0 12 58 12q59 0 59 -12v-1493zM223 1651l-207 280q-14 19 22 23q14 2 34 2q51 0 59 -12l182 -289q9 -13 -15 -16q-9 -1 -24 -1q-41 0 -51 13z" />
    <glyph glyph-name="Iacute" unicode="&#xcd;" horiz-adv-x="538" 
d="M338 4q0 -12 -59 -12q-58 0 -58 12v1493q0 12 58 12q59 0 59 -12v-1493zM543 1931l-207 -280q-10 -13 -51 -13q-42 0 -42 10q0 3 3 7l182 289q8 12 59 12q61 0 60 -16q0 -4 -4 -9z" />
    <glyph glyph-name="Icircumflex" unicode="&#xce;" horiz-adv-x="538" 
d="M338 4q0 -12 -59 -12q-58 0 -58 12v1493q0 12 58 12q59 0 59 -12v-1493zM451 1675q-43 0 -52 13l-125 200l-127 -200q-8 -13 -51 -13q-10 0 -17.5 0.5t-17 1.5t-13.5 4t-1 7l166 254q8 12 61 12q54 0 62 -12l164 -254q3 -4 -1 -7t-13.5 -4t-17 -1.5t-17.5 -0.5z" />
    <glyph glyph-name="Idieresis" unicode="&#xcf;" horiz-adv-x="538" 
d="M338 4q0 -12 -59 -12q-58 0 -58 12v1493q0 12 58 12q59 0 59 -12v-1493zM115 1692q-58 0 -58 14v190q0 15 58 15q57 0 57 -15v-190q0 -14 -57 -14zM449 1692q-58 0 -58 14v190q0 15 58 15q57 0 57 -15v-190q0 -14 -57 -14z" />
    <glyph glyph-name="Eth" unicode="&#xd0;" horiz-adv-x="1327" 
d="M55 719q-12 0 -12 49t12 49h148v684h465q249 0 362 -104.5t113 -315.5v-682q0 -204 -109 -301.5t-348 -97.5h-483v719h-148zM1026 399v684q0 156 -85 236t-267 80h-355v-582h338q13 0 13 -49t-13 -49h-338v-617h373q172 0 253 70t81 227z" />
    <glyph glyph-name="Ntilde" unicode="&#xd1;" horiz-adv-x="1411" 
d="M1208 4q0 -12 -88 -12q-72 0 -78 12l-493 936q-39 72 -116 218.5t-116 219.5h-2q4 -129 4 -393v-981q0 -12 -57 -12q-59 0 -59 12v1493q0 12 88 12q84 0 90 -12l467 -897q41 -78 123 -234.5t123 -234.5h2q-4 258 -4 389v977q0 12 57 12q59 0 59 -12v-1493zM997 1845
q-20 -55 -69 -96t-107 -41q-36 0 -71 15.5t-58 34.5t-51 34.5t-51 15.5q-37 0 -64 -19.5t-53 -62.5q-3 -6 -19 4.5t-29.5 25t-10.5 20.5q17 42 64.5 82t105.5 40q37 0 72.5 -15.5t58.5 -34.5t51.5 -34.5t54.5 -15.5q76 0 117 92q4 7 20 -1.5t29 -22.5t10 -21z" />
    <glyph glyph-name="Ograve" unicode="&#xd2;" horiz-adv-x="1386" 
d="M1202 377q0 -139 -65.5 -230.5t-177 -131.5t-267.5 -40q-238 0 -373 98t-135 304v743q0 206 136 306t372 100q238 0 374 -100t136 -306v-743zM1085 377v743q0 156 -105 229.5t-288 73.5t-287 -73.5t-104 -229.5v-743q0 -154 104.5 -227.5t286.5 -73.5t287.5 74t105.5 227
zM641 1651l-207 280q-14 19 23 24l32 1q52 0 60 -12l182 -289q9 -13 -15 -16q-9 -1 -24 -1q-41 0 -51 13z" />
    <glyph glyph-name="Oacute" unicode="&#xd3;" horiz-adv-x="1386" 
d="M1202 377q0 -139 -65.5 -230.5t-177 -131.5t-267.5 -40q-238 0 -373 98t-135 304v743q0 206 136 306t372 100q238 0 374 -100t136 -306v-743zM1085 377v743q0 156 -105 229.5t-288 73.5t-287 -73.5t-104 -229.5v-743q0 -154 104.5 -227.5t286.5 -73.5t287.5 74t105.5 227
zM934 1931l-207 -280q-10 -13 -51 -13q-42 0 -42 10q0 3 3 7l182 289q8 12 60 12q60 0 59 -16q0 -4 -4 -9z" />
    <glyph glyph-name="Ocircumflex" unicode="&#xd4;" horiz-adv-x="1386" 
d="M1202 377q0 -139 -65.5 -230.5t-177 -131.5t-267.5 -40q-238 0 -373 98t-135 304v743q0 206 136 306t372 100q238 0 374 -100t136 -306v-743zM1085 377v743q0 156 -105 229.5t-288 73.5t-287 -73.5t-104 -229.5v-743q0 -154 104.5 -227.5t286.5 -73.5t287.5 74t105.5 227
zM870 1675q-42 0 -51 13l-125 200l-127 -200q-8 -13 -51 -13q-10 0 -17.5 0.5t-17 1.5t-13.5 4t-1 7l166 254q8 12 61 12q54 0 62 -12l164 -254q3 -4 -1 -7t-13.5 -4t-17.5 -1.5t-18 -0.5z" />
    <glyph glyph-name="Otilde" unicode="&#xd5;" horiz-adv-x="1386" 
d="M1202 377q0 -139 -65.5 -230.5t-177 -131.5t-267.5 -40q-238 0 -373 98t-135 304v743q0 206 136 306t372 100q238 0 374 -100t136 -306v-743zM1085 377v743q0 156 -105 229.5t-288 73.5t-287 -73.5t-104 -229.5v-743q0 -154 104.5 -227.5t286.5 -73.5t287.5 74t105.5 227
zM985 1845q-20 -55 -69 -96t-107 -41q-36 0 -71 15.5t-58 34.5t-51 34.5t-51 15.5q-37 0 -64 -19.5t-53 -62.5q-3 -6 -19 4.5t-30 25t-11 20.5q17 42 64.5 82t105.5 40q47 0 90 -25t79.5 -50t68.5 -25q76 0 117 92q4 7 20 -1.5t29 -22.5t10 -21z" />
    <glyph glyph-name="Odieresis" unicode="&#xd6;" horiz-adv-x="1386" 
d="M1202 377q0 -139 -65.5 -230.5t-177 -131.5t-267.5 -40q-238 0 -373 98t-135 304v743q0 206 136 306t372 100q238 0 374 -100t136 -306v-743zM1085 377v743q0 156 -105 229.5t-288 73.5t-287 -73.5t-104 -229.5v-743q0 -154 104.5 -227.5t286.5 -73.5t287.5 74t105.5 227
zM526 1692q-57 0 -57 14v190q0 15 57 15q58 0 58 -15v-190q0 -14 -58 -14zM860 1692q-57 0 -57 14v190q0 15 57 15q58 0 58 -15v-190q0 -14 -58 -14z" />
    <glyph glyph-name="multiply" unicode="&#xd7;" horiz-adv-x="1531" 
d="M907 770l-295 -295l295 -295q17 -17 -23 -55t-55 -23l-294 295l-295 -295q-9 -9 -33 6t-40 38t-5 34l295 295l-295 295q-8 8 9 31t39.5 39t29.5 8l295 -295l294 295q8 8 31 -8t39 -39t8 -31z" />
    <glyph glyph-name="Oslash" unicode="&#xd8;" horiz-adv-x="1386" 
d="M1192 383q0 -34 -8 -88q-28 -160 -159.5 -236.5t-342.5 -76.5q-249 0 -373 96q-8 -14 -25.5 -39t-25.5 -39q-6 -12 -59 -12h-18.5t-19.5 1t-17 4t-3 7q16 26 49 76t50 76q-40 56 -53 125t-13 188v579q0 258 120.5 373t387.5 115q247 0 381 -107q9 14 26.5 40t26.5 40
q6 13 58 13q10 0 19 -0.5t20 -1.5t16.5 -4t3.5 -7q-17 -25 -50.5 -77t-49.5 -78q36 -58 47.5 -125.5t11.5 -180.5v-661zM291 383q0 -71 20 -121q115 177 345.5 532.5t344.5 532.5q-100 103 -319 103q-183 0 -287 -74t-104 -230v-743zM1075 383v743q0 59 -16 109
q-115 -177 -344.5 -530.5t-343.5 -530.5q102 -92 311 -92q182 0 287.5 74t105.5 227z" />
    <glyph glyph-name="Ugrave" unicode="&#xd9;" horiz-adv-x="1320" 
d="M1133 385q0 -85 -27.5 -157t-82.5 -129.5t-149 -90.5t-217 -33t-216 33t-147 90.5t-80 129.5t-26 157v1112q0 12 60 12q57 0 57 -12v-1122q0 -143 89 -221t263 -78q175 0 268 78.5t93 220.5v1122q0 12 55 12q60 0 60 -12v-1112zM653 1651l-207 280q-14 19 22 23l34 2
q51 0 59 -12l182 -289q10 -13 -15 -16q-9 -1 -23 -1q-42 0 -52 13z" />
    <glyph glyph-name="Uacute" unicode="&#xda;" horiz-adv-x="1320" 
d="M1133 385q0 -85 -27.5 -157t-82.5 -129.5t-149 -90.5t-217 -33t-216 33t-147 90.5t-80 129.5t-26 157v1112q0 12 60 12q57 0 57 -12v-1122q0 -143 89 -221t263 -78q175 0 268 78.5t93 220.5v1122q0 12 55 12q60 0 60 -12v-1112zM864 1931l-207 -280q-10 -13 -51 -13
q-42 0 -42 10q0 3 3 7l183 289q8 12 59 12q60 0 59 -16q0 -4 -4 -9z" />
    <glyph glyph-name="Ucircumflex" unicode="&#xdb;" horiz-adv-x="1320" 
d="M1133 385q0 -85 -27.5 -157t-82.5 -129.5t-149 -90.5t-217 -33t-216 33t-147 90.5t-80 129.5t-26 157v1112q0 12 60 12q57 0 57 -12v-1122q0 -143 89 -221t263 -78q175 0 268 78.5t93 220.5v1122q0 12 55 12q60 0 60 -12v-1112zM838 1675q-43 0 -52 13l-124 200
l-127 -200q-8 -13 -52 -13q-10 0 -17.5 0.5t-17 1.5t-13.5 4t-1 7l166 254q8 12 62 12q53 0 61 -12l164 -254q3 -4 -1 -7t-13.5 -4t-17 -1.5t-17.5 -0.5z" />
    <glyph glyph-name="Udieresis" unicode="&#xdc;" horiz-adv-x="1320" 
d="M1133 385q0 -85 -27.5 -157t-82.5 -129.5t-149 -90.5t-217 -33t-216 33t-147 90.5t-80 129.5t-26 157v1112q0 12 60 12q57 0 57 -12v-1122q0 -143 89 -221t263 -78q175 0 268 78.5t93 220.5v1122q0 12 55 12q60 0 60 -12v-1112zM494 1692q-58 0 -58 14v190q0 15 58 15
q57 0 57 -15v-190q0 -14 -57 -14zM827 1692q-57 0 -57 14v190q0 15 57 15q58 0 58 -15v-190q0 -14 -58 -14z" />
    <glyph glyph-name="Yacute" unicode="&#xdd;" horiz-adv-x="1095" 
d="M1053 1495l-453 -856v-635q0 -12 -57 -12q-60 0 -60 12v635l-440 858q-2 4 3.5 7t18 4t20 1h19.5q62 0 68 -12l373 -749l385 749q6 12 67 12q12 0 19 -0.5t18.5 -1.5t16.5 -4t2 -8zM788 1931l-206 -280q-10 -13 -52 -13q-41 0 -41 10q0 3 3 7l182 289q8 12 59 12
q60 0 59 -16q0 -4 -4 -9z" />
    <glyph glyph-name="Thorn" unicode="&#xde;" horiz-adv-x="1306" 
d="M1116 700q0 -221 -108.5 -314t-343.5 -93h-345v-289q0 -12 -59 -12t-59 12v1493q0 12 57 12q59 0 59 -12v-266h345q233 0 343.5 -96t110.5 -310v-125zM999 698v127q0 168 -84.5 234.5t-267.5 66.5h-328v-725h381q299 0 299 297z" />
    <glyph glyph-name="germandbls" unicode="&#xdf;" horiz-adv-x="1185" 
d="M918 1022q-102 12 -170 -6q-67 -18 -101.5 -61.5t-34.5 -104.5q0 -41 20 -74.5t52.5 -56t74.5 -46t85.5 -44t85.5 -52t74.5 -67.5t52.5 -92t20 -125q0 -61 -21.5 -117t-62.5 -101.5t-108.5 -72.5t-151.5 -27q-74 0 -161 24.5t-146 59.5q-8 5 1.5 30.5t24.5 47.5t23 17
q140 -80 258 -80q71 0 129 30q51 28 78 78t27 109q0 63 -26 111.5t-67 79t-90.5 57t-99.5 53.5t-91 60.5t-67 86.5t-26 123q0 117 89 185t242 67q8 61 -1.5 115t-37 99.5t-82.5 72t-132 26.5q-283 0 -283 -327v-1096q0 -12 -57 -12q-58 0 -58 12v1118q0 181 99.5 292.5
t287.5 111.5q99 0 173.5 -32t116.5 -84t63 -118.5t19 -135t-21 -134.5z" />
    <glyph glyph-name="agrave" unicode="&#xe0;" horiz-adv-x="1083" 
d="M920 4q0 -12 -56 -12q-53 0 -53 12v121q-167 -150 -354 -150q-163 0 -257 88t-94 242v53q0 393 703 297v90q0 152 -62.5 218.5t-205.5 66.5q-176 0 -301 -67q-12 -7 -27 17t-18 49t8 34q62 30 156 50t186 20q375 0 375 -379v-750zM809 227v340q-308 43 -450 -10
t-142 -201v-51q0 -112 72.5 -170.5t183.5 -58.5q97 0 184 42t152 109zM535 1241l-207 281q-14 18 21 22q13 2 34 2q51 0 59 -12l183 -289q9 -13 -15 -15q-8 -1 -24 -1q-41 0 -51 12z" />
    <glyph glyph-name="aacute" unicode="&#xe1;" horiz-adv-x="1083" 
d="M920 4q0 -12 -56 -12q-53 0 -53 12v121q-167 -150 -354 -150q-163 0 -257 88t-94 242v53q0 393 703 297v90q0 152 -62.5 218.5t-205.5 66.5q-176 0 -301 -67q-12 -7 -27 17t-18 49t8 34q62 30 156 50t186 20q375 0 375 -379v-750zM809 227v340q-308 43 -450 -10
t-142 -201v-51q0 -112 72.5 -170.5t183.5 -58.5q97 0 184 42t152 109zM784 1522l-206 -281q-10 -12 -52 -12t-42 10l3 6l183 289q8 12 59 12q60 0 59 -15q0 -4 -4 -9z" />
    <glyph glyph-name="acircumflex" unicode="&#xe2;" horiz-adv-x="1083" 
d="M920 4q0 -12 -56 -12q-53 0 -53 12v121q-167 -150 -354 -150q-163 0 -257 88t-94 242v53q0 393 703 297v90q0 152 -62.5 218.5t-205.5 66.5q-176 0 -301 -67q-12 -7 -27 17t-18 49t8 34q62 30 156 50t186 20q375 0 375 -379v-750zM809 227v340q-308 43 -450 -10
t-142 -201v-51q0 -112 72.5 -170.5t183.5 -58.5q97 0 184 42t152 109zM721 1266q-43 0 -51 12l-125 201l-127 -201q-7 -12 -51 -12h-18t-17 1t-14 4t-1 7l166 254q8 12 62 12q53 0 61 -12l164 -254q3 -4 -1 -7t-14 -4t-16.5 -1h-17.5z" />
    <glyph glyph-name="atilde" unicode="&#xe3;" horiz-adv-x="1083" 
d="M920 4q0 -12 -56 -12q-53 0 -53 12v121q-167 -150 -354 -150q-163 0 -257 88t-94 242v53q0 393 703 297v90q0 152 -62.5 218.5t-205.5 66.5q-176 0 -301 -67q-12 -7 -27 17t-18 49t8 34q62 30 156 50t186 20q375 0 375 -379v-750zM809 227v340q-308 43 -450 -10
t-142 -201v-51q0 -112 72.5 -170.5t183.5 -58.5q97 0 184 42t152 109zM834 1436q-20 -55 -69.5 -96.5t-107.5 -41.5q-36 0 -71 16t-58 34.5t-51 34.5t-51 16q-37 0 -64 -19.5t-53 -62.5q-3 -6 -19 4t-29.5 24.5t-10.5 20.5q17 42 64.5 82.5t105.5 40.5q37 0 72.5 -15.5
t58.5 -34.5t51.5 -34.5t54.5 -15.5q76 0 117 92q4 7 20 -1.5t29.5 -22.5t10.5 -21z" />
    <glyph glyph-name="adieresis" unicode="&#xe4;" horiz-adv-x="1083" 
d="M920 4q0 -12 -56 -12q-53 0 -53 12v121q-167 -150 -354 -150q-163 0 -257 88t-94 242v53q0 393 703 297v90q0 152 -62.5 218.5t-205.5 66.5q-176 0 -301 -67q-12 -7 -27 17t-18 49t8 34q62 30 156 50t186 20q375 0 375 -379v-750zM809 227v340q-308 43 -450 -10
t-142 -201v-51q0 -112 72.5 -170.5t183.5 -58.5q97 0 184 42t152 109zM375 1282q-58 0 -58 14v191q0 14 58 14q57 0 57 -14v-191q0 -14 -57 -14zM709 1282q-58 0 -58 14v191q0 14 58 14q57 0 57 -14v-191q0 -14 -57 -14z" />
    <glyph glyph-name="aring" unicode="&#xe5;" horiz-adv-x="1083" 
d="M920 4q0 -12 -56 -12q-53 0 -53 12v121q-167 -150 -354 -150q-163 0 -257 88t-94 242v53q0 393 703 297v90q0 152 -62.5 218.5t-205.5 66.5q-176 0 -301 -67q-12 -7 -27 17t-18 49t8 34q62 30 156 50t186 20q375 0 375 -379v-750zM809 227v340q-308 43 -450 -10
t-142 -201v-51q0 -112 72.5 -170.5t183.5 -58.5q97 0 184 42t152 109zM692 1415q0 -65 -46.5 -111.5t-110.5 -46.5q-66 0 -112 46.5t-46 111.5q0 66 46 112t112 46q65 0 111 -46t46 -112zM621 1415q0 35 -25.5 60.5t-60.5 25.5t-60.5 -25.5t-25.5 -60.5t25.5 -60.5
t60.5 -25.5t60.5 25.5t25.5 60.5z" />
    <glyph glyph-name="ae" unicode="&#xe6;" horiz-adv-x="1775" 
d="M1636 524h-716v-145q0 -141 81.5 -222t233.5 -81q108 0 184.5 23t151.5 63q8 4 24 -17.5t23.5 -43.5t-0.5 -31q-167 -95 -379 -95q-261 0 -369 172q-177 -172 -413 -172q-163 0 -257 88t-94 242v43q0 188 171.5 254t531.5 19v147q0 260 -268 260q-176 0 -301 -67
q-12 -7 -27 17t-18 49t8 34q62 29 155.5 49t186.5 20q253 0 329 -188q50 94 140.5 143.5t202.5 49.5q190 0 304.5 -115.5t114.5 -317.5v-178zM473 76q187 0 354 170q-18 62 -18 139v147q-312 44 -452 0t-140 -186v-41q0 -112 72.5 -170.5t183.5 -58.5zM1526 614v99
q0 157 -87.5 241t-221.5 84q-128 0 -212.5 -83t-84.5 -236v-105h606z" />
    <glyph glyph-name="ccedilla" unicode="&#xe7;" horiz-adv-x="983" 
d="M549 -408q-89 0 -164 56q-5 6 -1 21.5t16.5 29.5t21.5 8q73 -47 127 -47q108 0 108 82v25q0 90 -161 77v133q-171 14 -266 117t-95 281v360q0 192 109 296t301 104q183 0 340 -115q11 -13 3.5 -35.5t-26 -41.5t-28.5 -11l-14 10q-13 9 -21.5 14.5t-27.5 16.5t-34.5 18
t-38.5 16.5t-44.5 15t-48 9.5t-52.5 4q-150 0 -228.5 -80t-78.5 -239v-324q0 -158 79 -238.5t228 -80.5q65 0 126 19.5t93 38.5t70 48q9 8 26.5 -8.5t27.5 -39t1 -30.5q-51 -48 -139.5 -84.5t-184.5 -40.5v-75q79 -1 123.5 -36t44.5 -91v-45q0 -59 -49 -98.5t-143 -39.5z
" />
    <glyph glyph-name="egrave" unicode="&#xe8;" horiz-adv-x="1099" 
d="M961 500h-717v-107q0 -151 80 -234t235 -83q108 0 184.5 23t151.5 63q8 4 24 -17.5t23.5 -43.5t-0.5 -31q-167 -95 -379 -95q-203 0 -316.5 108.5t-113.5 301.5v338q0 184 116 297t292 113q190 0 305 -116t115 -317v-200zM850 590v121q0 157 -87.5 241t-221.5 84
q-128 0 -212.5 -83t-84.5 -236v-127h606zM518 1241l-207 281q-14 18 22 22l34 2q51 0 59 -12l182 -289q9 -13 -15 -15q-8 -1 -24 -1q-41 0 -51 12z" />
    <glyph glyph-name="eacute" unicode="&#xe9;" horiz-adv-x="1099" 
d="M961 500h-717v-107q0 -151 80 -234t235 -83q108 0 184.5 23t151.5 63q8 4 24 -17.5t23.5 -43.5t-0.5 -31q-167 -95 -379 -95q-203 0 -316.5 108.5t-113.5 301.5v338q0 184 116 297t292 113q190 0 305 -116t115 -317v-200zM850 590v121q0 157 -87.5 241t-221.5 84
q-128 0 -212.5 -83t-84.5 -236v-127h606zM801 1522l-207 -281q-10 -12 -51 -12q-42 0 -42 10l3 6l182 289q8 12 59 12q61 0 60 -15q0 -4 -4 -9z" />
    <glyph glyph-name="ecircumflex" unicode="&#xea;" horiz-adv-x="1099" 
d="M961 500h-717v-107q0 -151 80 -234t235 -83q108 0 184.5 23t151.5 63q8 4 24 -17.5t23.5 -43.5t-0.5 -31q-167 -95 -379 -95q-203 0 -316.5 108.5t-113.5 301.5v338q0 184 116 297t292 113q190 0 305 -116t115 -317v-200zM850 590v121q0 157 -87.5 241t-221.5 84
q-128 0 -212.5 -83t-84.5 -236v-127h606zM723 1266q-43 0 -51 12l-125 201l-127 -201q-7 -12 -51 -12h-18t-17 1t-14 4t-1 7l166 254q8 12 62 12q53 0 61 -12l164 -254q3 -4 -1 -7t-14 -4t-16.5 -1h-17.5z" />
    <glyph glyph-name="edieresis" unicode="&#xeb;" horiz-adv-x="1099" 
d="M961 500h-717v-107q0 -151 80 -234t235 -83q108 0 184.5 23t151.5 63q8 4 24 -17.5t23.5 -43.5t-0.5 -31q-167 -95 -379 -95q-203 0 -316.5 108.5t-113.5 301.5v338q0 184 116 297t292 113q190 0 305 -116t115 -317v-200zM850 590v121q0 157 -87.5 241t-221.5 84
q-128 0 -212.5 -83t-84.5 -236v-127h606zM379 1282q-57 0 -57 14v191q0 14 57 14t57 -14v-191q0 -14 -57 -14zM713 1282q-58 0 -58 14v191q0 14 58 14q57 0 57 -14v-191q0 -14 -57 -14z" />
    <glyph glyph-name="igrave" unicode="&#xec;" horiz-adv-x="471" 
d="M231 -8q-55 0 -55 12v1102q0 12 55 12q56 0 56 -12v-1102q0 -12 -56 -12zM176 1241l-207 281q-14 18 22 22q14 2 34 2q51 0 59 -12l182 -289q9 -13 -15 -15q-8 -1 -24 -1q-41 0 -51 12z" />
    <glyph glyph-name="iacute" unicode="&#xed;" horiz-adv-x="471" 
d="M231 -8q-55 0 -55 12v1102q0 12 55 12q56 0 56 -12v-1102q0 -12 -56 -12zM487 1522l-206 -281q-10 -12 -52 -12t-42 10l3 6l183 289q8 12 59 12q60 0 59 -15q0 -4 -4 -9z" />
    <glyph glyph-name="icircumflex" unicode="&#xee;" horiz-adv-x="471" 
d="M231 -8q-55 0 -55 12v1102q0 12 55 12q56 0 56 -12v-1102q0 -12 -56 -12zM410 1266q-44 0 -52 12l-125 201l-127 -201q-7 -12 -51 -12h-17.5t-16.5 1t-14 4t-1 7l166 254q8 12 61 12q54 0 62 -12l164 -254q3 -4 -1 -7t-14 -4t-16.5 -1h-17.5z" />
    <glyph glyph-name="idieresis" unicode="&#xef;" horiz-adv-x="471" 
d="M231 -8q-55 0 -55 12v1102q0 12 55 12q56 0 56 -12v-1102q0 -12 -56 -12zM66 1282q-58 0 -58 14v191q0 14 58 14q57 0 57 -14v-191q0 -14 -57 -14zM399 1282q-57 0 -57 14v191q0 14 57 14q58 0 58 -14v-191q0 -14 -58 -14z" />
    <glyph glyph-name="eth" unicode="&#xf0;" horiz-adv-x="1204" 
d="M584 1044q89 0 173 -32.5t146 -93.5q-22 90 -72.5 176.5t-121.5 154.5l-101 -100q-7 -7 -26.5 8t-33.5 36t-7 28l98 98q-20 21 -131 127q-11 11 27 51.5t51 30.5q48 -41 131 -129l102 102q5 5 24.5 -10t35 -35t8.5 -26l-103 -103q35 -40 50.5 -58.5t49 -64t50 -79
t40.5 -91.5t36 -115.5t21 -137.5t9 -169v-239q0 -194 -119.5 -296t-328.5 -102q-212 0 -330.5 102.5t-118.5 297.5v270q0 194 117 296.5t324 102.5zM254 627v-234q0 -86 26 -149t73 -99.5t106.5 -53.5t132.5 -17q72 0 131 17t106.5 53.5t74 99.5t26.5 149v219
q0 144 -99.5 238t-238.5 94q-154 0 -246 -76.5t-92 -240.5z" />
    <glyph glyph-name="ntilde" unicode="&#xf1;" 
d="M967 4q0 -12 -56 -12q-55 0 -55 12v752q0 134 -55.5 200t-157.5 66q-98 0 -191 -69t-161 -169v-780q0 -12 -55 -12q-56 0 -56 12v1102q0 12 56 12q53 0 53 -12v-199q71 101 171 163.5t216 62.5q133 0 212 -90.5t79 -237.5v-801zM860 1436q-20 -55 -69 -96.5t-107 -41.5
q-36 0 -71 16t-58 34.5t-51 34.5t-51 16q-37 0 -64 -19.5t-53 -62.5q-3 -6 -19 4t-30 24.5t-11 20.5q17 42 64.5 82.5t105.5 40.5q47 0 90 -25t79.5 -50t68.5 -25q76 0 117 92q4 7 20 -1.5t29 -22.5t10 -21z" />
    <glyph glyph-name="ograve" unicode="&#xf2;" horiz-adv-x="1122" 
d="M559 -25q-203 0 -314.5 104t-111.5 296v358q0 193 111.5 296.5t314.5 103.5q205 0 317.5 -103.5t112.5 -296.5v-358q0 -191 -112.5 -295.5t-317.5 -104.5zM879 715q0 167 -82 242t-238 75q-155 0 -235 -74.5t-80 -242.5v-322q0 -168 80.5 -243.5t234.5 -75.5
q157 0 238.5 74.5t81.5 244.5v322zM530 1241l-206 281q-14 18 21 22q13 2 34 2q51 0 59 -12l183 -289q9 -13 -15 -15q-8 -1 -24 -1q-42 0 -52 12z" />
    <glyph glyph-name="oacute" unicode="&#xf3;" horiz-adv-x="1122" 
d="M559 -25q-203 0 -314.5 104t-111.5 296v358q0 193 111.5 296.5t314.5 103.5q205 0 317.5 -103.5t112.5 -296.5v-358q0 -191 -112.5 -295.5t-317.5 -104.5zM879 715q0 167 -82 242t-238 75q-155 0 -235 -74.5t-80 -242.5v-322q0 -168 80.5 -243.5t234.5 -75.5
q157 0 238.5 74.5t81.5 244.5v322zM786 1522l-206 -281q-10 -12 -52 -12t-42 10l3 6l183 289q8 12 59 12q60 0 59 -15q0 -4 -4 -9z" />
    <glyph glyph-name="ocircumflex" unicode="&#xf4;" horiz-adv-x="1122" 
d="M559 -25q-203 0 -314.5 104t-111.5 296v358q0 193 111.5 296.5t314.5 103.5q205 0 317.5 -103.5t112.5 -296.5v-358q0 -191 -112.5 -295.5t-317.5 -104.5zM879 715q0 167 -82 242t-238 75q-155 0 -235 -74.5t-80 -242.5v-322q0 -168 80.5 -243.5t234.5 -75.5
q157 0 238.5 74.5t81.5 244.5v322zM737 1266q-43 0 -51 12l-125 201l-127 -201q-7 -12 -51 -12h-17.5t-16.5 1t-14 4t-1 7l166 254q8 12 61 12q54 0 62 -12l163 -254q3 -4 -1 -7t-14 -4t-16.5 -1h-17.5z" />
    <glyph glyph-name="otilde" unicode="&#xf5;" horiz-adv-x="1122" 
d="M559 -25q-203 0 -314.5 104t-111.5 296v358q0 193 111.5 296.5t314.5 103.5q205 0 317.5 -103.5t112.5 -296.5v-358q0 -191 -112.5 -295.5t-317.5 -104.5zM879 715q0 167 -82 242t-238 75q-155 0 -235 -74.5t-80 -242.5v-322q0 -168 80.5 -243.5t234.5 -75.5
q157 0 238.5 74.5t81.5 244.5v322zM852 1436q-20 -55 -69 -96.5t-107 -41.5q-36 0 -71 16t-58.5 34.5t-51.5 34.5t-51 16q-37 0 -63.5 -19.5t-52.5 -62.5q-3 -6 -19 4t-30 24.5t-11 20.5q17 42 64.5 82.5t105.5 40.5q47 0 90 -25t79.5 -50t68.5 -25q76 0 117 92q4 7 20 -1.5
t29 -22.5t10 -21z" />
    <glyph glyph-name="odieresis" unicode="&#xf6;" horiz-adv-x="1122" 
d="M559 -25q-203 0 -314.5 104t-111.5 296v358q0 193 111.5 296.5t314.5 103.5q205 0 317.5 -103.5t112.5 -296.5v-358q0 -191 -112.5 -295.5t-317.5 -104.5zM879 715q0 167 -82 242t-238 75q-155 0 -235 -74.5t-80 -242.5v-322q0 -168 80.5 -243.5t234.5 -75.5
q157 0 238.5 74.5t81.5 244.5v322zM393 1282q-57 0 -57 14v191q0 14 57 14q58 0 58 -14v-191q0 -14 -58 -14zM727 1282q-57 0 -57 14v191q0 14 57 14t57 -14v-191q0 -14 -57 -14z" />
    <glyph glyph-name="divide" unicode="&#xf7;" horiz-adv-x="1304" 
d="M139 537h1026q13 0 13 -54q0 -51 -13 -51h-1026q-12 0 -12 51q0 54 12 54zM659 -12q-57 0 -57 12v244q0 12 57 12q58 0 58 -12v-244q0 -12 -58 -12zM657 733q-57 0 -57 12v244q0 12 57 12q58 0 58 -12v-244q0 -12 -58 -12z" />
    <glyph glyph-name="oslash" unicode="&#xf8;" horiz-adv-x="1122" 
d="M559 -25q-133 0 -231 48l-37 -66q-6 -12 -58 -12h-18.5t-18.5 1t-15.5 4t-2.5 7l68 121q-113 104 -113 297v360q0 193 111.5 296.5t314.5 103.5q145 0 252 -58l33 60q6 12 55 12h18.5t19 -1t16.5 -4t3 -7l-67 -119q100 -103 100 -283v-360q0 -191 -112.5 -295.5
t-317.5 -104.5zM244 393q0 -142 57 -217l459 811q-75 47 -201 47q-155 0 -235 -74.5t-80 -242.5v-324zM879 717q0 122 -48 198l-454 -804q73 -37 182 -37q157 0 238.5 74.5t81.5 244.5v324z" />
    <glyph glyph-name="ugrave" unicode="&#xf9;" 
d="M164 1106q0 12 55 12t55 -12v-774q0 -117 60.5 -181.5t152.5 -64.5q41 0 83 13.5t76 35t65 47.5t54 51.5t40.5 47.5t26.5 35l8 12v778q0 12 55 12t55 -12v-1102q0 -12 -55 -12q-53 0 -53 12v199q-72 -102 -171.5 -165t-215.5 -63q-133 0 -212 90.5t-79 237.5v803z
M561 1241l-207 281q-14 18 22 22l34 2q51 0 59 -12l182 -289q9 -13 -15 -15q-8 -1 -24 -1q-41 0 -51 12z" />
    <glyph glyph-name="uacute" unicode="&#xfa;" 
d="M164 1106q0 12 55 12t55 -12v-774q0 -117 60.5 -181.5t152.5 -64.5q41 0 83 13.5t76 35t65 47.5t54 51.5t40.5 47.5t26.5 35l8 12v778q0 12 55 12t55 -12v-1102q0 -12 -55 -12q-53 0 -53 12v199q-72 -102 -171.5 -165t-215.5 -63q-133 0 -212 90.5t-79 237.5v803z
M793 1522l-207 -281q-10 -12 -51 -12q-42 0 -42 10l3 6l182 289q8 12 59 12q61 0 60 -15q0 -4 -4 -9z" />
    <glyph glyph-name="ucircumflex" unicode="&#xfb;" 
d="M164 1106q0 12 55 12t55 -12v-774q0 -117 60.5 -181.5t152.5 -64.5q41 0 83 13.5t76 35t65 47.5t54 51.5t40.5 47.5t26.5 35l8 12v778q0 12 55 12t55 -12v-1102q0 -12 -55 -12q-53 0 -53 12v199q-72 -102 -171.5 -165t-215.5 -63q-133 0 -212 90.5t-79 237.5v803z
M739 1266q-43 0 -51 12l-125 201l-127 -201q-7 -12 -51 -12h-17.5t-16.5 1t-14 4t-1 7l166 254q8 12 61 12q54 0 62 -12l163 -254q3 -4 -1 -7t-14 -4t-16.5 -1h-17.5z" />
    <glyph glyph-name="udieresis" unicode="&#xfc;" 
d="M164 1106q0 12 55 12t55 -12v-774q0 -117 60.5 -181.5t152.5 -64.5q41 0 83 13.5t76 35t65 47.5t54 51.5t40.5 47.5t26.5 35l8 12v778q0 12 55 12t55 -12v-1102q0 -12 -55 -12q-53 0 -53 12v199q-72 -102 -171.5 -165t-215.5 -63q-133 0 -212 90.5t-79 237.5v803z
M395 1282q-57 0 -57 14v191q0 14 57 14q58 0 58 -14v-191q0 -14 -58 -14zM729 1282q-57 0 -57 14v191q0 14 57 14t57 -14v-191q0 -14 -57 -14z" />
    <glyph glyph-name="yacute" unicode="&#xfd;" horiz-adv-x="946" 
d="M920 1106l-529 -1505q-4 -13 -59 -13q-61 1 -60 13l148 411l-385 1094q-1 4 4.5 7t17 4t19 1h18.5q58 0 62 -12l323 -956l318 956q4 12 63 12q9 0 18.5 -0.5t20 -1.5t16.5 -3.5t5 -6.5zM707 1522l-207 -281q-10 -12 -51 -12q-42 0 -42 10l3 6l182 289q8 12 59 12
q61 0 60 -15q0 -4 -4 -9z" />
    <glyph glyph-name="thorn" unicode="&#xfe;" horiz-adv-x="1150" 
d="M623 -25q-122 0 -208.5 48.5t-127.5 119.5v-549q0 -12 -56 -12q-55 0 -55 12v1919q0 13 55 13q54 0 54 -13v-561q43 75 128 129t203 54q180 0 286 -103.5t106 -296.5v-360q0 -193 -105 -296.5t-280 -103.5zM584 1032q-124 0 -210.5 -83t-86.5 -195v-383q0 -135 89.5 -216
t227.5 -81q293 0 293 319v324q0 315 -313 315z" />
    <glyph glyph-name="ydieresis" unicode="&#xff;" horiz-adv-x="946" 
d="M920 1106l-529 -1505q-4 -13 -59 -13q-61 1 -60 13l148 411l-385 1094q-1 4 4.5 7t17 4t19 1h18.5q58 0 62 -12l323 -956l318 956q4 12 63 12q9 0 18.5 -0.5t20 -1.5t16.5 -3.5t5 -6.5zM307 1282q-57 0 -57 14v191q0 14 57 14q58 0 58 -14v-191q0 -14 -58 -14zM641 1282
q-57 0 -57 14v191q0 14 57 14t57 -14v-191q0 -14 -57 -14z" />
    <glyph glyph-name="Amacron" unicode="&#x100;" horiz-adv-x="1140" 
d="M571 1509q60 0 64 -12l452 -1493q1 -4 -5 -7t-18.5 -4t-20 -1h-19.5q-59 0 -63 12l-109 369h-571l-113 -369q-4 -12 -57 -12h-18.5t-19 1t-16.5 4t-4 7l457 1493q4 12 61 12zM311 475h512l-252 871zM342 1763q-12 0 -12 49q0 50 12 50h453q5 0 7.5 -3t3.5 -9.5t1.5 -11
t0 -14t-0.5 -12.5q0 -49 -12 -49h-453z" />
    <glyph glyph-name="amacron" unicode="&#x101;" horiz-adv-x="1083" 
d="M920 4q0 -12 -56 -12q-53 0 -53 12v121q-167 -150 -354 -150q-163 0 -257 88t-94 242v53q0 393 703 297v90q0 152 -62.5 218.5t-205.5 66.5q-176 0 -301 -67q-12 -7 -27 17t-18 49t8 34q62 30 156 50t186 20q375 0 375 -379v-750zM809 227v340q-308 43 -450 -10
t-142 -201v-51q0 -112 72.5 -170.5t183.5 -58.5q97 0 184 42t152 109zM313 1354q-12 0 -12 49t12 49h453q5 0 7.5 -3t3.5 -9t1.5 -10.5t0 -14t-0.5 -12.5q0 -49 -12 -49h-453z" />
    <glyph glyph-name="Abreve" unicode="&#x102;" horiz-adv-x="1140" 
d="M571 1509q60 0 64 -12l452 -1493q1 -4 -5 -7t-18.5 -4t-20 -1h-19.5q-59 0 -63 12l-109 369h-571l-113 -369q-4 -12 -57 -12h-18.5t-19 1t-16.5 4t-4 7l457 1493q4 12 61 12zM311 475h512l-252 871zM791 1950q0 -97 -65 -165.5t-157 -68.5q-91 0 -155 68.5t-64 165.5
q0 8 49 8q26 0 28 -4q1 -1 1 -4q0 -60 43 -109t102 -49q58 0 102 49t44 109q0 10 29 10q43 0 43 -10z" />
    <glyph glyph-name="abreve" unicode="&#x103;" horiz-adv-x="1083" 
d="M920 4q0 -12 -56 -12q-53 0 -53 12v121q-167 -150 -354 -150q-163 0 -257 88t-94 242v53q0 393 703 297v90q0 152 -62.5 218.5t-205.5 66.5q-176 0 -301 -67q-12 -7 -27 17t-18 49t8 34q62 30 156 50t186 20q375 0 375 -379v-750zM809 227v340q-308 43 -450 -10
t-142 -201v-51q0 -112 72.5 -170.5t183.5 -58.5q97 0 184 42t152 109zM762 1540q0 -97 -64.5 -165t-156.5 -68q-91 0 -155 68t-64 165q0 8 49 8q25 0 27 -4q1 -1 1 -4q0 -60 43.5 -109t102.5 -49q57 0 101 49t44 109q0 10 29 10q43 0 43 -10z" />
    <glyph glyph-name="Aogonek" unicode="&#x104;" horiz-adv-x="1140" 
d="M571 1509q60 0 64 -12l452 -1493q1 -3 -4.5 -5.5t-13.5 -4.5q-19 -13 -64.5 -50.5t-64.5 -56.5q-98 -98 -98 -153q0 -30 11.5 -51.5t31 -31t37 -13t36.5 -3.5q30 0 72.5 15.5t46.5 21.5q13 6 29 -27.5t4 -39.5q-7 -5 -21 -12.5t-56 -20t-85 -12.5q-52 0 -95.5 14
t-76.5 54t-33 102q0 45 18 84t48 66t59 47t60 39t43 30q-10 3 -10 8l-109 369h-571l-113 -369q-4 -12 -57 -12h-18.5t-19 1t-16.5 4t-4 7l457 1493q4 12 61 12zM311 475h512l-252 871z" />
    <glyph glyph-name="aogonek" unicode="&#x105;" horiz-adv-x="1083" 
d="M920 4q0 -4 -13 -8q-5 -4 -33.5 -25.5t-42 -33t-41.5 -35t-43 -41t-33 -40.5t-26 -44.5t-8 -42.5q0 -40 21.5 -63.5t45 -29.5t50.5 -6q30 0 72 15.5t46 21.5q13 6 29 -27.5t4 -39.5q-7 -5 -21 -12.5t-56 -20t-85 -12.5q-38 0 -71 8q-59 13 -96 53t-37 109q0 46 19 85.5
t49.5 67t61 48t60.5 39t41 30.5q-2 0 -2 4v121q-167 -150 -354 -150q-163 0 -257 88t-94 242v53q0 393 703 297v90q0 152 -62.5 218.5t-205.5 66.5q-176 0 -301 -67q-12 -7 -27 17t-18 49t8 34q62 30 156 50t186 20q91 0 157 -20.5t108 -57.5t66.5 -96t34 -127.5t9.5 -161.5
v-666zM809 227v340q-308 43 -450 -10t-142 -201v-51q0 -112 72.5 -170.5t183.5 -58.5q97 0 184 42t152 109z" />
    <glyph glyph-name="Cacute" unicode="&#x106;" horiz-adv-x="1134" 
d="M1065 1448q8 -8 2.5 -32t-20 -48t-23.5 -20q-168 77 -324 77q-81 0 -149.5 -16t-126 -50.5t-90.5 -97t-33 -147.5v-735q0 -73 23.5 -128t60.5 -87.5t91.5 -53t108.5 -27.5t120 -7q196 0 329 65q5 2 11.5 -7.5t12 -23.5t9.5 -30t4 -27t-4 -14q-56 -27 -163 -45.5
t-199 -18.5q-521 0 -521 404v735q0 412 518 412q87 0 192.5 -23t170.5 -55zM940 1931l-207 -280q-10 -13 -51 -13q-42 0 -42 10q0 3 3 7l182 289q8 12 60 12q60 0 59 -16q0 -4 -4 -9z" />
    <glyph glyph-name="cacute" unicode="&#x107;" horiz-adv-x="983" 
d="M545 -25q-192 0 -301 104.5t-109 295.5v358q0 192 109 296t301 104q183 0 340 -115q11 -13 4.5 -35.5t-24 -41.5t-27.5 -11q-1 0 -10.5 7t-15.5 11t-20 12.5t-25 14l-28 14t-32 14t-34.5 12t-37.5 10.5t-39.5 6.5t-42.5 2.5q-150 0 -228.5 -80t-78.5 -239v-322
q0 -158 79 -238.5t228 -80.5q152 0 293 106q9 8 25.5 -8.5t25.5 -39t0 -30.5q-56 -52 -152 -89.5t-200 -37.5zM782 1522l-207 -281q-10 -12 -51 -12q-42 0 -42 10l3 6l183 289q8 12 59 12q60 0 59 -15q0 -4 -4 -9z" />
    <glyph glyph-name="Ccaron" unicode="&#x10c;" horiz-adv-x="1134" 
d="M1065 1448q8 -8 2.5 -32t-20 -48t-23.5 -20q-168 77 -324 77q-81 0 -149.5 -16t-126 -50.5t-90.5 -97t-33 -147.5v-735q0 -73 23.5 -128t60.5 -87.5t91.5 -53t108.5 -27.5t120 -7q196 0 329 65q5 2 11.5 -7.5t12 -23.5t9.5 -30t4 -27t-4 -14q-56 -27 -163 -45.5
t-199 -18.5q-521 0 -521 404v735q0 412 518 412q87 0 192.5 -23t170.5 -55zM522 1962q43 0 51 -12l125 -201l127 201q7 12 52 12h17.5t16.5 -1t14 -4t1 -7l-166 -254q-9 -13 -62 -13q-52 0 -61 13l-164 254q-3 4 1 7t14 4t16.5 1h17.5z" />
    <glyph glyph-name="ccaron" unicode="&#x10d;" horiz-adv-x="983" 
d="M545 -25q-192 0 -301 104.5t-109 295.5v358q0 192 109 296t301 104q183 0 340 -115q11 -13 4.5 -35.5t-24 -41.5t-27.5 -11q-1 0 -10.5 7t-15.5 11t-20 12.5t-25 14l-28 14t-32 14t-34.5 12t-37.5 10.5t-39.5 6.5t-42.5 2.5q-150 0 -228.5 -80t-78.5 -239v-322
q0 -158 79 -238.5t228 -80.5q152 0 293 106q9 8 25.5 -8.5t25.5 -39t0 -30.5q-56 -52 -152 -89.5t-200 -37.5zM369 1552q43 0 51 -12l125 -201l127 201q7 12 51 12h17.5t16.5 -1t14 -4t1 -7l-166 -254q-8 -12 -61 -12q-54 0 -62 12l-164 254q-3 4 1 7t14 4t17 1h18z" />
    <glyph glyph-name="Dcaron" unicode="&#x10e;" horiz-adv-x="1327" 
d="M1143 1081v-682q0 -204 -109 -301.5t-348 -97.5h-483v1501h465q249 0 362 -104.5t113 -315.5zM1026 399v684q0 156 -85 236t-267 80h-355v-1297h373q172 0 253 70t81 227zM455 1962q43 0 51 -12l125 -201l127 201q7 12 51 12h17.5t16.5 -1t14 -4t1 -7l-166 -254
q-9 -13 -61 -13q-53 0 -62 13l-163 254q-3 4 1 7t14 4t16.5 1h17.5z" />
    <glyph glyph-name="dcaron" unicode="&#x10f;" horiz-adv-x="1320" 
d="M518 1133q122 0 209 -47.5t127 -118.5v555q0 12 55 12q56 0 56 -12v-1518q0 -12 -56 -12q-53 0 -53 12v154q-43 -75 -128.5 -129t-203.5 -54q-179 0 -285 103.5t-106 296.5v358q0 193 105 296.5t280 103.5zM557 78q124 0 210.5 83t86.5 195v383q0 135 -89.5 215
t-227.5 80q-293 0 -293 -319v-322q0 -315 313 -315zM1083 1104q-29 21 -16 37q63 70 78.5 137.5t15.5 247.5q0 12 56 12q55 0 55 -12q0 -158 -36 -257.5t-112 -174.5q-15 -12 -41 10z" />
    <glyph glyph-name="Dcroat" unicode="&#x110;" horiz-adv-x="1327" 
d="M55 719q-12 0 -12 49t12 49h148v684h465q249 0 362 -104.5t113 -315.5v-682q0 -204 -109 -301.5t-348 -97.5h-483v719h-148zM1026 399v684q0 156 -85 236t-267 80h-355v-582h338q13 0 13 -49t-13 -49h-338v-617h373q172 0 253 70t81 227z" />
    <glyph glyph-name="dcroat" unicode="&#x111;" horiz-adv-x="1144" 
d="M524 1255q-12 0 -12 50q0 49 12 49h330v168q0 12 55 12q56 0 56 -12v-168h168q12 0 12 -49q0 -50 -12 -50h-168v-1251q0 -12 -56 -12q-53 0 -53 12v154q-43 -75 -128.5 -129t-203.5 -54q-179 0 -285 103.5t-106 296.5v358q0 193 105 296.5t280 103.5q122 0 209 -47.5
t127 -118.5v288h-330zM557 78q124 0 210.5 83t86.5 195v383q0 135 -89.5 215t-227.5 80q-293 0 -293 -319v-322q0 -315 313 -315z" />
    <glyph glyph-name="Emacron" unicode="&#x112;" horiz-adv-x="1044" 
d="M942 53q0 -53 -12 -53h-727v1501h723q12 0 12 -53q0 -51 -12 -51h-607v-561h531q12 0 12 -52q0 -51 -12 -51h-531v-629h611q12 0 12 -51zM295 1763q-12 0 -12 49q0 50 12 50h453q5 0 7.5 -3t3.5 -9.5t1.5 -11t0 -14t-0.5 -12.5q0 -49 -12 -49h-453z" />
    <glyph glyph-name="emacron" unicode="&#x113;" horiz-adv-x="1093" 
d="M961 500h-717v-107q0 -151 80 -234t235 -83q108 0 184.5 23t151.5 63q8 4 24 -17.5t23.5 -43.5t-0.5 -31q-167 -95 -379 -95q-203 0 -316.5 108.5t-113.5 301.5v338q0 184 116 297t292 113q190 0 305 -116t115 -317v-200zM850 590v121q0 157 -87.5 241t-221.5 84
q-128 0 -212.5 -83t-84.5 -236v-127h606zM319 1354q-12 0 -12 49t12 49h453q5 0 7.5 -3t3.5 -9t1.5 -10.5t0 -14t-0.5 -12.5q0 -49 -12 -49h-453z" />
    <glyph glyph-name="Edotaccent" unicode="&#x116;" horiz-adv-x="1044" 
d="M942 53q0 -53 -12 -53h-727v1501h723q12 0 12 -53q0 -51 -12 -51h-607v-561h531q12 0 12 -52q0 -51 -12 -51h-531v-629h611q12 0 12 -51zM520 1741q-86 0 -86 22v135q0 23 88 23t88 -23v-135q0 -22 -90 -22z" />
    <glyph glyph-name="edotaccent" unicode="&#x117;" horiz-adv-x="1093" 
d="M961 500h-717v-107q0 -151 80 -234t235 -83q108 0 184.5 23t151.5 63q8 4 24 -17.5t23.5 -43.5t-0.5 -31q-167 -95 -379 -95q-203 0 -316.5 108.5t-113.5 301.5v338q0 184 116 297t292 113q190 0 305 -116t115 -317v-200zM850 590v121q0 157 -87.5 241t-221.5 84
q-128 0 -212.5 -83t-84.5 -236v-127h606zM545 1331q-29 0 -57.5 5.5t-28.5 17.5v135q0 22 88 22t88 -22v-135q0 -23 -90 -23z" />
    <glyph glyph-name="Eogonek" unicode="&#x118;" horiz-adv-x="1044" 
d="M942 53q0 -53 -12 -53q-29 -18 -63 -45t-75 -64t-67.5 -79t-26.5 -76q0 -30 11.5 -51t31.5 -30.5t37.5 -13t36.5 -3.5q30 0 72.5 15t46.5 21q13 6 29 -27.5t4 -39.5q-7 -5 -21 -12.5t-56 -20t-85 -12.5q-52 0 -95.5 14t-76.5 54t-33 102q0 56 30 103.5t65 72.5t78.5 52.5
t55.5 39.5h-626v1501h723q12 0 12 -53q0 -51 -12 -51h-607v-561h531q12 0 12 -52q0 -51 -12 -51h-531v-629h611q12 0 12 -51v0z" />
    <glyph glyph-name="eogonek" unicode="&#x119;" horiz-adv-x="1093" 
d="M961 500h-717v-107q0 -150 79.5 -233.5t235.5 -83.5q108 0 184.5 23t151.5 63q8 4 24 -17.5t23.5 -43.5t-0.5 -31q-104 -60 -229 -80q-2 -2 -29 -22.5t-36 -27.5t-35 -28.5t-37.5 -33.5t-30.5 -33t-27.5 -37t-16 -36t-7.5 -38q0 -30 11.5 -51.5t31 -31t37 -13t36.5 -3.5
q30 0 72.5 15.5t46.5 21.5q13 6 29 -27.5t4 -39.5q-7 -5 -21 -12.5t-56 -20t-85 -12.5q-51 0 -94 14q-50 16 -80.5 55t-30.5 101q0 33 11 63.5t25.5 51.5t39.5 43.5t42 34t45.5 30t37.5 24.5q-5 0 -16.5 -1t-16.5 -1q-203 0 -316.5 108.5t-113.5 301.5v338q0 184 116 297
t292 113q190 0 305 -116t115 -317v-200zM850 590v121q0 157 -87.5 241t-221.5 84q-128 0 -212.5 -83t-84.5 -236v-127h606z" />
    <glyph glyph-name="Ecaron" unicode="&#x11a;" horiz-adv-x="1044" 
d="M942 53q0 -53 -12 -53h-727v1501h723q12 0 12 -53q0 -51 -12 -51h-607v-561h531q12 0 12 -52q0 -51 -12 -51h-531v-629h611q12 0 12 -51zM408 1962q43 0 51 -12l125 -201l127 201q7 12 51 12h17.5t16.5 -1t14 -4t1 -7l-166 -254q-9 -13 -61 -13q-53 0 -62 13l-164 254
q-3 4 1 7t14 4t17 1h18z" />
    <glyph glyph-name="ecaron" unicode="&#x11b;" horiz-adv-x="1093" 
d="M961 500h-717v-107q0 -151 80 -234t235 -83q108 0 184.5 23t151.5 63q8 4 24 -17.5t23.5 -43.5t-0.5 -31q-167 -95 -379 -95q-203 0 -316.5 108.5t-113.5 301.5v338q0 184 116 297t292 113q190 0 305 -116t115 -317v-200zM850 590v121q0 157 -87.5 241t-221.5 84
q-128 0 -212.5 -83t-84.5 -236v-127h606zM371 1552q43 0 51 -12l125 -201l127 201q7 12 51 12h17.5t16.5 -1t14 -4t1 -7l-166 -254q-8 -12 -61 -12q-54 0 -62 12l-163 254q-3 4 1 7t14 4t16.5 1h17.5z" />
    <glyph glyph-name="Gbreve" unicode="&#x11e;" horiz-adv-x="1355" 
d="M1075 385v299h-295q-12 0 -12 53q0 54 12 54h412v-406q0 -105 -37 -184.5t-104.5 -128.5t-158 -73t-202.5 -24q-232 0 -369 101t-137 305v733q0 412 518 412q87 0 193.5 -23.5t171.5 -54.5q8 -8 2.5 -32t-20 -48t-23.5 -20q-159 73 -326 73q-52 0 -100.5 -6.5t-105 -26
t-97.5 -51.5t-68.5 -88t-27.5 -129v-727q0 -76 26.5 -134.5t66 -91.5t94.5 -54t103 -28t99 -7t98 6t101.5 26t93.5 52.5t65.5 89.5t26.5 133zM897 1950q0 -97 -64.5 -165.5t-156.5 -68.5q-91 0 -155 68.5t-64 165.5q0 8 49 8q26 0 28 -4q1 -1 1 -4q0 -60 43 -109t102 -49
q57 0 101 49t44 109q0 10 29 10q43 0 43 -10z" />
    <glyph glyph-name="gbreve" unicode="&#x11f;" horiz-adv-x="1140" 
d="M856 143v-147q0 -165 -77.5 -243.5t-219.5 -78.5q-144 0 -295 88q-9 6 -26 -17t-24 -47.5t1 -33.5q63 -34 154 -62t180 -28q203 0 310.5 117.5t107.5 347.5v1067q0 12 -56 12q-53 0 -53 -12v-139q-41 70 -127 118t-205 48q-179 0 -285 -103.5t-106 -296.5v-358
q0 -193 105 -296.5t280 -103.5q122 0 208.5 48.5t127.5 119.5zM543 1030q133 0 223 -82t90 -194v-383q0 -135 -89.5 -216t-227.5 -81q-135 0 -214 76t-79 243v322q0 164 80.5 239.5t216.5 75.5zM791 1540q0 -97 -65 -165t-157 -68q-91 0 -155 68t-64 165q0 8 49 8
q26 0 28 -4q1 -1 1 -4q0 -60 43 -109t102 -49q58 0 102 49t44 109q0 10 29 10q43 0 43 -10z" />
    <glyph glyph-name="Gcommaaccent" unicode="&#x122;" horiz-adv-x="1355" 
d="M1075 385v299h-295q-12 0 -12 53q0 54 12 54h412v-406q0 -105 -37 -184.5t-104.5 -128.5t-158 -73t-202.5 -24q-232 0 -369 101t-137 305v733q0 412 518 412q87 0 193.5 -23.5t171.5 -54.5q8 -8 2.5 -32t-20 -48t-23.5 -20q-159 73 -326 73q-52 0 -100.5 -6.5t-105 -26
t-97.5 -51.5t-68.5 -88t-27.5 -129v-727q0 -76 26.5 -134.5t66 -91.5t94.5 -54t103 -28t99 -7t98 6t101.5 26t93.5 52.5t65.5 89.5t26.5 133zM553 -547q-29 21 -16 37q63 70 78.5 137.5t15.5 247.5q0 12 55 12t55 -12q0 -158 -35.5 -257.5t-111.5 -174.5q-15 -12 -41 10z
" />
    <glyph glyph-name="gcommaaccent" unicode="&#x123;" horiz-adv-x="1140" 
d="M856 143v-147q0 -165 -77.5 -243.5t-219.5 -78.5q-144 0 -295 88q-9 6 -26 -17t-24 -47.5t1 -33.5q63 -34 154 -62t180 -28q203 0 310.5 117.5t107.5 347.5v1067q0 12 -56 12q-53 0 -53 -12v-139q-41 70 -127 118t-205 48q-179 0 -285 -103.5t-106 -296.5v-358
q0 -193 105 -296.5t280 -103.5q122 0 208.5 48.5t127.5 119.5zM543 1030q133 0 223 -82t90 -194v-383q0 -135 -89.5 -216t-227.5 -81q-135 0 -214 76t-79 243v322q0 164 80.5 239.5t216.5 75.5zM686 1675q28 -21 16 -37q-63 -70 -78.5 -137.5t-15.5 -247.5q0 -12 -55 -12
t-55 12q0 158 35.5 258.5t111.5 174.5q15 12 41 -11z" />
    <glyph glyph-name="Itilde" unicode="&#x128;" horiz-adv-x="538" 
d="M338 4q0 -12 -59 -12q-58 0 -58 12v1493q0 12 58 12q59 0 59 -12v-1493zM561 1845q-20 -55 -69 -96t-107 -41q-36 0 -71 15.5t-58 34.5t-51 34.5t-51 15.5q-37 0 -64 -19.5t-53 -62.5q-3 -6 -19 4.5t-30 25t-11 20.5q17 42 64.5 82t105.5 40q47 0 90 -25t79.5 -50
t68.5 -25q76 0 117 92q4 7 20 -1.5t29 -22.5t10 -21z" />
    <glyph glyph-name="itilde" unicode="&#x129;" horiz-adv-x="471" 
d="M236 -8q-56 0 -56 12v1102q0 12 56 12q55 0 55 -12v-1102q0 -12 -55 -12zM528 1436q-20 -55 -69 -96.5t-107 -41.5q-36 0 -71 16t-58 34.5t-51 34.5t-51 16q-37 0 -64 -19.5t-53 -62.5q-3 -6 -19 4t-29.5 24.5t-10.5 20.5q17 42 64.5 82.5t105.5 40.5q37 0 72.5 -15.5
t58.5 -34.5t51.5 -34.5t54.5 -15.5q76 0 117 92q4 7 20 -1.5t29 -22.5t10 -21z" />
    <glyph glyph-name="uni012A" unicode="&#x12a;" horiz-adv-x="538" 
d="M338 4q0 -12 -59 -12q-58 0 -58 12v1493q0 12 58 12q59 0 59 -12v-1493zM41 1763q-12 0 -12 49q0 50 12 50h453q5 0 7.5 -3t3.5 -9.5t1.5 -11t0 -14t-0.5 -12.5q0 -49 -12 -49h-453z" />
    <glyph glyph-name="imacron" unicode="&#x12b;" horiz-adv-x="471" 
d="M236 -8q-56 0 -56 12v1102q0 12 56 12q55 0 55 -12v-1102q0 -12 -55 -12zM8 1354q-12 0 -12 49t12 49h453q5 0 7.5 -3t3.5 -9t1.5 -10.5t0 -14t-0.5 -12.5q0 -49 -12 -49h-453z" />
    <glyph glyph-name="Iogonek" unicode="&#x12e;" horiz-adv-x="538" 
d="M338 4q0 -4 -14 -8q-100 -80 -129 -109q-99 -99 -99 -153q0 -40 21.5 -63.5t45 -29.5t50.5 -6q30 0 72.5 15.5t46.5 21.5q13 6 29 -27.5t4 -39.5q-7 -5 -21 -12.5t-56 -20t-85 -12.5q-52 0 -95.5 14t-76.5 54t-33 102q0 56 29.5 103.5t64.5 72.5t78 52.5t55 39.5
q-4 4 -4 6v1493q0 12 58 12q59 0 59 -12v-1493z" />
    <glyph glyph-name="iogonek" unicode="&#x12f;" horiz-adv-x="471" 
d="M291 4q-9 -7 -43.5 -33t-54 -41.5t-50.5 -43.5t-48 -50t-30.5 -49.5t-13.5 -52.5q0 -73 68 -92q28 -7 49 -7q30 0 72.5 15.5t46.5 21.5q13 6 28.5 -27.5t3.5 -39.5q-7 -5 -20.5 -12.5t-55.5 -20t-85 -12.5q-52 0 -95.5 14t-76.5 54t-33 102q0 56 30 103.5t65 72.5
t78.5 52.5t55.5 39.5q-2 2 -2 6v1102q0 12 56 12q55 0 55 -12v-1102zM236 1292q-56 0 -56 13v217q0 12 56 12q55 0 55 -12v-217q0 -13 -55 -13z" />
    <glyph glyph-name="Idotaccent" unicode="&#x130;" horiz-adv-x="538" 
d="M338 4q0 -12 -59 -12q-58 0 -58 12v1493q0 12 58 12q59 0 59 -12v-1493zM279 1741q-86 0 -86 22v135q0 23 88 23t88 -23v-135q0 -22 -90 -22z" />
    <glyph glyph-name="dotlessi" unicode="&#x131;" horiz-adv-x="471" 
d="M231 -8q-55 0 -55 12v1102q0 12 55 12q56 0 56 -12v-1102q0 -12 -56 -12z" />
    <glyph glyph-name="Kcommaaccent" unicode="&#x136;" horiz-adv-x="1140" 
d="M317 565l2 -561q0 -12 -59 -12q-57 0 -57 12v1493q0 12 61 12q55 0 55 -12v-778l611 778q10 12 71 12h22t24.5 -1t22 -4t3.5 -7l-534 -680l551 -813q3 -4 -3.5 -7t-22 -4t-24.5 -1h-22q-64 0 -74 12l-489 729zM492 -526q-29 22 -17 37q63 70 78.5 137.5t15.5 247.5
q0 12 56 12q55 0 55 -12q0 -158 -36 -258t-112 -175q-14 -11 -40 11z" />
    <glyph glyph-name="kcommaaccent" unicode="&#x137;" horiz-adv-x="946" 
d="M885 1106l-447 -506l475 -596q3 -4 -4 -7t-22 -4t-24 -1h-21q-60 0 -68 12l-418 524l-65 -69v-455q0 -12 -58 -12q-53 0 -53 12v1518q0 12 56 12q55 0 55 -12v-928l457 512q10 12 65 12h22t24.5 -1t22 -4t3.5 -7zM389 -526q-29 21 -16 37q63 70 78.5 137.5t15.5 247.5
q0 12 55 12q56 0 56 -12q0 -158 -36 -258t-112 -175q-15 -12 -41 11z" />
    <glyph glyph-name="kgreenlandic" unicode="&#x138;" horiz-adv-x="946" 
d="M885 1106l-447 -506l475 -596q3 -4 -4 -7t-22 -4t-24 -1h-21q-60 0 -68 12l-418 524l-65 -69v-455q0 -12 -58 -12q-53 0 -53 12v1102q0 12 56 12q55 0 55 -12v-512l457 512q10 12 65 12h22t24.5 -1t22 -4t3.5 -7z" />
    <glyph glyph-name="Lacute" unicode="&#x139;" horiz-adv-x="985" 
d="M975 55q0 -55 -12 -55h-760v1497q0 12 57 12q59 0 59 -12v-1386h644q12 0 12 -56zM537 1931l-207 -280q-10 -13 -51 -13q-42 0 -42 10q0 3 3 7l182 289q8 12 59 12q61 0 60 -16q0 -4 -4 -9z" />
    <glyph glyph-name="lacute" unicode="&#x13a;" horiz-adv-x="528" 
d="M471 0h-84q-109 0 -160 57t-51 154v1311q0 12 55 12q56 0 56 -12v-1307q0 -64 30.5 -92.5t98.5 -28.5h55q11 0 14.5 -7.5t3.5 -37.5q0 -32 -3.5 -40.5t-14.5 -8.5zM494 1931l-207 -280q-10 -13 -51 -13q-42 0 -42 10q0 3 3 7l182 289q8 12 59 12q61 0 60 -16q0 -4 -4 -9z
" />
    <glyph glyph-name="Lcommaaccent" unicode="&#x13b;" horiz-adv-x="985" 
d="M975 55q0 -55 -12 -55h-760v1497q0 12 57 12q59 0 59 -12v-1386h644q12 0 12 -56zM451 -506q-29 22 -17 37q63 70 78.5 137.5t15.5 247.5q0 12 56 12q55 0 55 -12q0 -158 -35.5 -257.5t-111.5 -174.5q-15 -12 -41 10z" />
    <glyph glyph-name="lcommaaccent" unicode="&#x13c;" horiz-adv-x="528" 
d="M471 0h-84q-109 0 -160 57t-51 154v1311q0 12 55 12q56 0 56 -12v-1307q0 -64 30.5 -92.5t98.5 -28.5h55q11 0 14.5 -7.5t3.5 -37.5q0 -32 -3.5 -40.5t-14.5 -8.5zM205 -506q-29 22 -17 37q63 70 79 138t16 247q0 12 55 12t55 -12q0 -158 -35.5 -257.5t-111.5 -174.5
q-15 -12 -41 10z" />
    <glyph glyph-name="Lcaron" unicode="&#x13d;" horiz-adv-x="985" 
d="M975 55q0 -55 -12 -55h-760v1497q0 12 57 12q59 0 59 -12v-1386h644q12 0 12 -56zM512 1073q-28 21 -16 37q63 70 78.5 137.5t15.5 247.5q0 12 55 12t55 -12q0 -158 -35.5 -257.5t-111.5 -174.5q-15 -12 -41 10z" />
    <glyph glyph-name="lcaron" unicode="&#x13e;" horiz-adv-x="684" 
d="M471 0h-84q-109 0 -160 57t-51 154v1311q0 12 55 12q56 0 56 -12v-1307q0 -64 30.5 -92.5t98.5 -28.5h55q11 0 14.5 -7.5t3.5 -37.5q0 -32 -3.5 -40.5t-14.5 -8.5zM446 1104q-28 21 -16 37q63 70 78.5 137.5t15.5 247.5q0 12 56 12q55 0 55 -12q0 -158 -36 -257.5
t-112 -174.5q-15 -12 -41 10z" />
    <glyph glyph-name="Lslash" unicode="&#x141;" horiz-adv-x="993" 
d="M211 745v752q0 12 57 12q60 0 60 -12v-690l237 137q7 4 21 -15t23 -41t3 -26l-284 -164v-598h643q12 0 12 -51q0 -49 -12 -49h-760v637l-123 -70q-7 -4 -21.5 15t-23.5 41t-2 26z" />
    <glyph glyph-name="lslash" unicode="&#x142;" horiz-adv-x="462" 
d="M285 4q0 -12 -56 -12q-55 0 -55 12v629q-25 -14 -73 -40.5t-72 -39.5q-7 -4 -21.5 15t-23.5 41t-2 26q31 18 95.5 53.5t96.5 52.5v756q0 12 55 12q56 0 56 -12v-694q25 14 76 43t77 43q7 4 21 -15t23 -41t3 -26q-34 -18 -100 -56t-100 -57v-690z" />
    <glyph glyph-name="Nacute" unicode="&#x143;" horiz-adv-x="1411" 
d="M1208 4q0 -12 -88 -12q-72 0 -78 12l-493 936q-39 72 -116 218.5t-116 219.5h-2q4 -129 4 -393v-981q0 -12 -57 -12q-59 0 -59 12v1493q0 12 88 12q84 0 90 -12l467 -897q41 -78 123 -234.5t123 -234.5h2q-4 258 -4 389v977q0 12 57 12q59 0 59 -12v-1493zM954 1931
l-206 -280q-10 -13 -52 -13t-42 10q0 3 3 7l183 289q8 12 59 12q60 0 59 -16q0 -4 -4 -9z" />
    <glyph glyph-name="nacute" unicode="&#x144;" 
d="M967 4q0 -12 -56 -12q-55 0 -55 12v752q0 134 -55.5 200t-157.5 66q-98 0 -191 -69t-161 -169v-780q0 -12 -55 -12q-56 0 -56 12v1102q0 12 56 12q53 0 53 -12v-199q71 101 171 163.5t216 62.5q133 0 212 -90.5t79 -237.5v-801zM815 1522l-207 -281q-10 -12 -51 -12
q-42 0 -42 10l3 6l182 289q8 12 60 12q60 0 59 -15q0 -4 -4 -9z" />
    <glyph glyph-name="Ncommaaccent" unicode="&#x145;" horiz-adv-x="1411" 
d="M1208 4q0 -12 -88 -12q-72 0 -78 12l-493 936q-39 72 -116 218.5t-116 219.5h-2q4 -129 4 -393v-981q0 -12 -57 -12q-59 0 -59 12v1493q0 12 88 12q84 0 90 -12l467 -897q41 -78 123 -234.5t123 -234.5h2q-4 258 -4 389v977q0 12 57 12q59 0 59 -12v-1493zM573 -506
q-29 21 -16 37q63 70 78.5 137.5t15.5 247.5q0 12 56 12q55 0 55 -12q0 -158 -36 -257.5t-112 -174.5q-15 -12 -41 10z" />
    <glyph glyph-name="ncommaaccent" unicode="&#x146;" 
d="M967 4q0 -12 -56 -12q-55 0 -55 12v752q0 134 -55.5 200t-157.5 66q-98 0 -191 -69t-161 -169v-780q0 -12 -55 -12q-56 0 -56 12v1102q0 12 56 12q53 0 53 -12v-199q71 101 171 163.5t216 62.5q133 0 212 -90.5t79 -237.5v-801zM451 -506q-29 22 -17 37q63 70 78.5 137.5
t15.5 247.5q0 12 56 12q55 0 55 -12q0 -158 -35.5 -257.5t-111.5 -174.5q-15 -12 -41 10z" />
    <glyph glyph-name="Ncaron" unicode="&#x147;" horiz-adv-x="1411" 
d="M1208 4q0 -12 -88 -12q-72 0 -78 12l-493 936q-39 72 -116 218.5t-116 219.5h-2q4 -129 4 -393v-981q0 -12 -57 -12q-59 0 -59 12v1493q0 12 88 12q84 0 90 -12l467 -897q41 -78 123 -234.5t123 -234.5h2q-4 258 -4 389v977q0 12 57 12q59 0 59 -12v-1493zM528 1962
q44 0 52 -12l125 -201l126 201q7 12 52 12h17.5t16.5 -1t14 -4t1 -7l-166 -254q-9 -13 -61 -13q-53 0 -62 13l-164 254q-3 4 1 7t14 4t16.5 1h17.5z" />
    <glyph glyph-name="ncaron" unicode="&#x148;" 
d="M967 4q0 -12 -56 -12q-55 0 -55 12v752q0 134 -55.5 200t-157.5 66q-98 0 -191 -69t-161 -169v-780q0 -12 -55 -12q-56 0 -56 12v1102q0 12 56 12q53 0 53 -12v-199q71 101 171 163.5t216 62.5q133 0 212 -90.5t79 -237.5v-801zM408 1552q43 0 51 -12l125 -201l127 201
q7 12 51 12h17.5t16.5 -1t14 -4t1 -7l-166 -254q-8 -12 -61 -12q-54 0 -62 12l-164 254q-3 4 1 7t14 4t17 1h18z" />
    <glyph glyph-name="Eng" unicode="&#x14a;" horiz-adv-x="1411" 
d="M1026 -418h-119q-12 0 -12 47t12 47h84q107 0 107 99v217q-52 4 -56 12q-679 1287 -725 1374h-2q4 -134 4 -612v-762q0 -12 -57 -12q-59 0 -59 12v1493q0 12 88 12q84 0 90 -12q69 -133 207.5 -398.5t208.5 -398.5q107 -212 297 -569h2q-4 236 -4 715v651q0 12 57 12
q59 0 59 -12v-1610q0 -46 -0.5 -73t-4.5 -64t-11 -57.5t-20 -45t-32 -36.5t-48 -20.5t-66 -8.5z" />
    <glyph glyph-name="eng" unicode="&#x14b;" 
d="M784 -418h-118q-13 0 -13 47t13 47h84q106 0 106 99v981q0 134 -55.5 200t-157.5 66q-98 0 -191 -69t-161 -169v-780q0 -12 -55 -12q-56 0 -56 12v1102q0 12 56 12q53 0 53 -12v-199q71 101 171 163.5t216 62.5q133 0 212 -90.5t79 -237.5v-955q0 -53 -3.5 -90t-14.5 -73
t-30.5 -57.5t-53 -34.5t-81.5 -13z" />
    <glyph glyph-name="Omacron" unicode="&#x14c;" horiz-adv-x="1386" 
d="M1202 377q0 -139 -65.5 -230.5t-177 -131.5t-267.5 -40q-238 0 -373 98t-135 304v743q0 206 136 306t372 100q238 0 374 -100t136 -306v-743zM1085 377v743q0 156 -105 229.5t-288 73.5t-287 -73.5t-104 -229.5v-743q0 -154 104.5 -227.5t286.5 -73.5t287.5 74t105.5 227
zM465 1763q-12 0 -12 49q0 50 12 50h453q5 0 7.5 -3t3.5 -9.5t1.5 -11t0 -14t-0.5 -12.5q0 -49 -12 -49h-453z" />
    <glyph glyph-name="omacron" unicode="&#x14d;" horiz-adv-x="1122" 
d="M559 -25q-203 0 -314.5 104t-111.5 296v358q0 193 111.5 296.5t314.5 103.5q205 0 317.5 -103.5t112.5 -296.5v-358q0 -191 -112.5 -295.5t-317.5 -104.5zM879 715q0 167 -82 242t-238 75q-155 0 -235 -74.5t-80 -242.5v-322q0 -168 80.5 -243.5t234.5 -75.5
q157 0 238.5 74.5t81.5 244.5v322zM334 1354q-12 0 -12 49t12 49h452q3 0 5.5 -1.5t4 -5t2.5 -6.5t1 -8.5v-9v-9.5v-9q0 -49 -13 -49h-452z" />
    <glyph glyph-name="Ohungarumlaut" unicode="&#x150;" horiz-adv-x="1386" 
d="M1202 377q0 -139 -65.5 -230.5t-177 -131.5t-267.5 -40q-238 0 -373 98t-135 304v743q0 206 136 306t372 100q238 0 374 -100t136 -306v-743zM1085 377v743q0 156 -105 229.5t-288 73.5t-287 -73.5t-104 -229.5v-743q0 -154 104.5 -227.5t286.5 -73.5t287.5 74t105.5 227
zM1096 1933l-207 -280q-10 -13 -51 -13q-42 0 -42 10q0 3 3 7l182 289q8 12 59 12q61 0 60 -16q0 -4 -4 -9zM791 1933l-207 -280q-10 -13 -52 -13q-41 0 -41 10q0 3 3 7l182 289q8 12 59 12q61 0 60 -16q0 -4 -4 -9z" />
    <glyph glyph-name="ohungarumlaut" unicode="&#x151;" horiz-adv-x="1122" 
d="M559 -25q-203 0 -314.5 104t-111.5 296v358q0 193 111.5 296.5t314.5 103.5q205 0 317.5 -103.5t112.5 -296.5v-358q0 -191 -112.5 -295.5t-317.5 -104.5zM879 715q0 167 -82 242t-238 75q-155 0 -235 -74.5t-80 -242.5v-322q0 -168 80.5 -243.5t234.5 -75.5
q157 0 238.5 74.5t81.5 244.5v322zM965 1524l-207 -281q-10 -12 -51 -12q-42 0 -42 10l3 6l182 289q8 12 59 12q61 0 60 -15q0 -4 -4 -9zM659 1524l-206 -281q-10 -12 -52 -12t-42 10l3 6l183 289q8 12 59 12q60 0 59 -15q0 -4 -4 -9z" />
    <glyph glyph-name="OE" unicode="&#x152;" horiz-adv-x="2011" 
d="M1110 113q-3 -6 -10 -15t-38 -33t-72 -42t-117 -33t-168 -15q-116 0 -209.5 23t-164 70.5t-109 126t-38.5 182.5v743q0 138 68.5 231t183 134t269.5 41q83 0 155 -13.5t116 -33t76 -39.5t45 -34l13 -13v108h745q13 0 13 -51q0 -49 -13 -49h-628v-567h526q12 0 12 -50
q0 -49 -12 -49h-526v-635h659q12 0 12 -49q0 -51 -12 -51h-776v113zM1110 377v743q0 66 -23 119t-62 87.5t-92 57t-109.5 32t-118.5 9.5q-53 0 -102.5 -6t-106.5 -26t-98.5 -52t-69 -89t-27.5 -132v-743q0 -75 28 -131.5t69 -88t98.5 -50.5t106 -25t102.5 -6q63 0 118 8
t109 29.5t92.5 54.5t62 86.5t23.5 122.5z" />
    <glyph glyph-name="oe" unicode="&#x153;" horiz-adv-x="1855" 
d="M569 -25q-203 0 -314.5 104t-111.5 296v360q0 193 111.5 296.5t314.5 103.5q136 0 232.5 -47t146.5 -136q54 87 145 135t203 48q190 0 305 -116t115 -317v-202h-717v-107q0 -151 80 -234t236 -83q108 0 184.5 23t151.5 63q8 4 24 -17.5t23.5 -43.5t-0.5 -31
q-167 -95 -379 -95q-131 0 -226.5 46t-146.5 133q-104 -179 -377 -179zM889 733q-4 158 -86.5 229.5t-233.5 71.5q-155 0 -235 -74.5t-80 -242.5v-324q0 -168 80.5 -243.5t234.5 -75.5q152 0 234 71t86 230v358zM1606 590v123q0 157 -88 241t-222 84q-125 0 -209 -79.5
t-88 -225.5v-143h607z" />
    <glyph glyph-name="Racute" unicode="&#x154;" horiz-adv-x="1206" 
d="M788 621l295 -617q2 -4 -4.5 -7t-21 -4t-23 -1h-20.5q-60 0 -66 12l-276 596h-344v-596q0 -12 -60 -12q-59 0 -59 12v1497h412q225 0 326.5 -102.5t101.5 -294.5v-100q0 -316 -261 -383zM932 1001v103q0 155 -76 226t-246 71h-282v-701h282q170 0 246 72t76 229z
M831 1931l-206 -280q-10 -13 -52 -13q-41 0 -41 10q0 3 3 7l182 289q8 12 59 12q60 0 59 -16q0 -4 -4 -9z" />
    <glyph glyph-name="racute" unicode="&#x155;" horiz-adv-x="669" 
d="M633 999h-66q-65 0 -127 -59t-151 -195v-741q0 -12 -56 -12q-53 0 -53 12v1102q0 12 53 12q52 0 52 -12v-248q66 100 109.5 151t92 78t109.5 27h41q12 0 12 -59q0 -56 -16 -56zM627 1522l-207 -281q-10 -12 -51 -12q-42 0 -42 10l3 6l182 289q8 12 59 12q61 0 60 -15
q0 -4 -4 -9z" />
    <glyph glyph-name="Rcommaaccent" unicode="&#x156;" horiz-adv-x="1206" 
d="M788 621l295 -617q2 -4 -4.5 -7t-21 -4t-23 -1h-20.5q-60 0 -66 12l-276 596h-344v-596q0 -12 -60 -12q-59 0 -59 12v1497h412q225 0 326.5 -102.5t101.5 -294.5v-100q0 -316 -261 -383zM932 1001v103q0 155 -76 226t-246 71h-282v-701h282q170 0 246 72t76 229z
M492 -526q-29 22 -17 37q63 70 78.5 137.5t15.5 247.5q0 12 56 12q55 0 55 -12q0 -158 -36 -258t-112 -175q-14 -11 -40 11z" />
    <glyph glyph-name="rcommaaccent" unicode="&#x157;" horiz-adv-x="669" 
d="M633 999h-66q-65 0 -127 -59t-151 -195v-741q0 -12 -56 -12q-53 0 -53 12v1102q0 12 53 12q52 0 52 -12v-248q66 100 109.5 151t92 78t109.5 27h41q12 0 12 -59q0 -56 -16 -56zM102 -526q-28 21 -16 37q63 70 78.5 137.5t15.5 247.5q0 12 56 12q55 0 55 -12
q0 -158 -36 -258t-112 -175q-15 -12 -41 11z" />
    <glyph glyph-name="Rcaron" unicode="&#x158;" horiz-adv-x="1206" 
d="M788 621l295 -617q2 -4 -4.5 -7t-21 -4t-23 -1h-20.5q-60 0 -66 12l-276 596h-344v-596q0 -12 -60 -12q-59 0 -59 12v1497h412q225 0 326.5 -102.5t101.5 -294.5v-100q0 -316 -261 -383zM932 1001v103q0 155 -76 226t-246 71h-282v-701h282q170 0 246 72t76 229z
M426 1962q43 0 51 -12l125 -201l127 201q7 12 51 12h17.5t16.5 -1t14 -4t1 -7l-165 -254q-9 -13 -62 -13q-52 0 -61 13l-164 254q-3 4 1 7t14 4t16.5 1h17.5z" />
    <glyph glyph-name="rcaron" unicode="&#x159;" horiz-adv-x="669" 
d="M633 999h-66q-65 0 -127 -59t-151 -195v-741q0 -12 -56 -12q-53 0 -53 12v1102q0 12 53 12q52 0 52 -12v-248q66 100 109.5 151t92 78t109.5 27h41q12 0 12 -59q0 -56 -16 -56zM242 1552q43 0 51 -12l125 -201l127 201q7 12 51 12h17.5t16.5 -1t14 -4t1 -7l-166 -254
q-8 -12 -61 -12q-54 0 -62 12l-163 254q-3 4 1 7t14 4t16.5 1h17.5z" />
    <glyph glyph-name="Sacute" unicode="&#x15a;" horiz-adv-x="1095" 
d="M993 401q0 -130 -66.5 -228.5t-174 -148t-238.5 -49.5q-110 0 -223.5 40.5t-202.5 103.5q-9 6 1.5 33.5t27.5 50.5t24 18q73 -53 174.5 -95t198.5 -42q158 0 256 83.5t98 227.5q0 30 -5.5 56.5t-13 48t-24 43t-29 36.5t-37.5 33.5t-41 29t-48 27.5t-50 26t-55 26.5
t-55 26.5q-51 25 -77.5 38.5t-73 40.5t-72.5 48t-60 54.5t-51.5 66t-30 76t-12.5 91.5q0 165 116 264t316 99q183 0 359 -92q7 -8 1 -32.5t-21.5 -48.5t-24.5 -18q-65 39 -151 62.5t-163 23.5q-141 0 -227 -67t-86 -187q0 -29 5.5 -55.5t20 -49.5t27 -41.5t38 -38t41 -31.5
t48 -29t47.5 -24.5t51.5 -25t47.5 -22.5q159 -76 218 -115q164 -107 191 -263q6 -34 6 -71zM815 1931l-207 -280q-10 -13 -51 -13q-42 0 -42 10q0 3 3 7l182 289q8 12 60 12q60 0 59 -16q0 -4 -4 -9z" />
    <glyph glyph-name="sacute" unicode="&#x15b;" horiz-adv-x="870" 
d="M416 -25q-75 0 -167.5 25t-150.5 59q-8 5 1.5 30.5t24.5 47.5t23 17q140 -80 269 -80q113 0 181.5 63.5t68.5 153.5q0 56 -23.5 100t-62 72t-87.5 54t-100.5 45.5t-100.5 47.5t-87.5 59t-62 80.5t-23.5 112.5q0 120 90.5 195.5t245.5 75.5q149 0 262 -48q7 -8 2.5 -30
t-16 -45t-17.5 -21q-66 24 -117 34.5t-123 10.5q-101 0 -159 -50.5t-58 -123.5q0 -43 23.5 -78t62 -58.5t87.5 -48t100.5 -45.5t100.5 -52.5t87.5 -67.5t62 -92t23.5 -125q0 -128 -97 -223t-263 -95zM686 1522l-207 -281q-10 -12 -51 -12q-42 0 -42 10l3 6l182 289
q8 12 60 12q60 0 59 -15q0 -4 -4 -9z" />
    <glyph glyph-name="Scedilla" unicode="&#x15e;" horiz-adv-x="1095" 
d="M541 -408q-89 0 -164 56q-5 6 -1 21.5t16.5 29.5t21.5 8q73 -47 127 -47q108 0 108 82v25q0 90 -162 77v131q-104 6 -210.5 45.5t-188.5 98.5q-9 6 1.5 33.5t27.5 50.5t24 18q73 -53 174.5 -95t198.5 -42q158 0 256 83.5t98 227.5q0 30 -5.5 56.5t-13 48t-24 43t-29 36.5
t-37.5 33.5t-41 29t-48 27.5t-50 26t-55 26.5t-55 26.5q-51 25 -77.5 38.5t-73 40.5t-72.5 48t-60 54.5t-51.5 66t-30 76t-12.5 91.5q0 165 116 264t316 99q183 0 359 -92q7 -8 1 -32.5t-21.5 -48.5t-24.5 -18q-65 39 -151 62.5t-163 23.5q-141 0 -227 -67t-86 -187
q0 -29 5.5 -55.5t20 -49.5t27 -41.5t38 -38t41 -31.5t48 -29t47.5 -24.5t51.5 -25t47.5 -22.5q159 -76 218 -115q164 -107 191 -263q6 -34 6 -71q0 -182 -121.5 -295t-306.5 -129v-75q79 -1 123.5 -36t44.5 -91v-45q0 -59 -49 -98.5t-143 -39.5z" />
    <glyph glyph-name="scedilla" unicode="&#x15f;" horiz-adv-x="870" 
d="M428 -408q-89 0 -164 56q-5 6 -1 21.5t16.5 29.5t21.5 8q73 -47 127 -47q109 0 109 82v25q0 90 -162 77v133q-71 6 -149 29t-128 53q-8 5 1.5 30.5t24.5 47.5t23 17q140 -80 269 -80q113 0 181.5 63.5t68.5 153.5q0 56 -23.5 100t-62 72t-87.5 54t-100.5 45.5
t-100.5 47.5t-87.5 59t-62 80.5t-23.5 112.5q0 120 90.5 195.5t245.5 75.5q149 0 262 -48q7 -8 2.5 -30t-16 -45t-17.5 -21q-66 24 -117 34.5t-123 10.5q-101 0 -159 -50.5t-58 -123.5q0 -43 23.5 -78t62 -58.5t87.5 -48t100.5 -45.5t100.5 -52.5t87.5 -67.5t62 -92
t23.5 -125q0 -121 -86.5 -213.5t-236.5 -102.5v-75q79 -1 123.5 -36t44.5 -91v-45q0 -58 -49.5 -98t-143.5 -40z" />
    <glyph glyph-name="Scaron" unicode="&#x160;" horiz-adv-x="1085" 
d="M1004 401q0 -98 -38.5 -179.5t-104.5 -134.5t-153 -82.5t-184 -29.5q-110 0 -223.5 40.5t-202.5 103.5q-9 6 1.5 33.5t28 50.5t24.5 18q73 -54 174 -95.5t198 -41.5q158 0 256.5 83.5t98.5 227.5q0 30 -5.5 56.5t-13 48t-24 43t-29.5 37t-38 33.5t-41 29t-48 27.5
t-50 25.5t-55 26.5t-55 26.5q-51 25 -77.5 38.5t-73 40.5t-72.5 48t-60 54.5t-51.5 66t-30 76t-12.5 91.5q0 165 116 264t316 99q183 0 359 -92q7 -8 1 -32.5t-21.5 -48.5t-24.5 -18q-65 39 -151 62.5t-163 23.5q-141 0 -227 -67t-86 -187q0 -29 5.5 -55.5t20 -49.5
t27 -41.5t38 -38t41 -31.5t48 -29t47.5 -24.5t51.5 -25t47.5 -22.5q159 -76 217 -114q164 -107 193 -261q6 -35 6 -74zM381 1962q43 0 51 -12l125 -201l127 201q7 12 51 12h17.5t16.5 -1t14 -4t1 -7l-166 -254q-9 -13 -61 -13t-61 13l-164 254q-3 4 1 7t14 4t16.5 1h17.5z
" />
    <glyph glyph-name="scaron" unicode="&#x161;" horiz-adv-x="890" 
d="M426 -25q-75 0 -167 25t-150 59q-8 5 1.5 30.5t24.5 47.5t23 17q140 -80 268 -80q113 0 181.5 63.5t68.5 153.5q0 56 -23.5 100t-62 72t-87.5 54t-100.5 45.5t-100.5 47.5t-87.5 59t-62 80.5t-23.5 112.5q0 120 90.5 195.5t245.5 75.5q149 0 262 -48q7 -8 2.5 -30
t-16 -45t-17.5 -21q-67 24 -117.5 34.5t-121.5 10.5q-101 0 -159 -50.5t-58 -123.5q0 -49 30 -87t78.5 -64.5t106.5 -51.5t116 -56t106.5 -69t78.5 -99.5t30 -139.5q0 -128 -97 -223t-263 -95zM268 1552q43 0 51 -12l125 -201l127 201q7 12 52 12h17.5t16.5 -1t14 -4t1 -7
l-166 -254q-8 -12 -62 -12q-53 0 -61 12l-164 254q-3 4 1 7t14 4t16.5 1h17.5z" />
    <glyph glyph-name="Tcommaaccent" unicode="&#x162;" horiz-adv-x="1001" 
d="M991 1452q0 -51 -12 -51h-414v-1397q0 -12 -57 -12q-59 0 -59 12v1397h-426q-13 0 -13 51q0 49 13 49h956q12 0 12 -49zM373 -526q-29 22 -17 37q63 70 79 138t16 247q0 12 55 12t55 -12q0 -158 -35.5 -258.5t-111.5 -174.5q-15 -12 -41 11z" />
    <glyph glyph-name="tcommaaccent" unicode="&#x163;" horiz-adv-x="690" 
d="M571 0h-139q-110 0 -160.5 57t-50.5 154v776h-155q-15 0 -15 45q0 47 15 47h155v269q0 12 55 12q56 0 56 -12v-269h241q13 0 13 -47q0 -45 -13 -45h-241v-772q0 -64 29.5 -91.5t97.5 -27.5h112q11 0 15 -8t4 -37q0 -32 -4 -41.5t-15 -9.5zM246 -535q-29 22 -17 37
q63 70 79 138t16 247q0 13 55 13t55 -13q0 -158 -35.5 -257.5t-111.5 -174.5q-15 -12 -41 10z" />
    <glyph glyph-name="Tcaron" unicode="&#x164;" horiz-adv-x="1001" 
d="M991 1452q0 -51 -12 -51h-414v-1397q0 -12 -57 -12q-59 0 -59 12v1397h-426q-13 0 -13 51q0 49 13 49h956q12 0 12 -49zM328 1962q43 0 51 -12l125 -201l127 201q7 12 51 12h17.5t16.5 -1t14 -4t1 -7l-166 -254q-9 -13 -61 -13q-53 0 -62 13l-163 254q-3 4 1 7t14 4
t16.5 1h17.5z" />
    <glyph glyph-name="tcaron" unicode="&#x165;" horiz-adv-x="927" 
d="M571 0h-139q-110 0 -160.5 57t-50.5 154v776h-155q-15 0 -15 45q0 47 15 47h155v269q0 12 55 12q56 0 56 -12v-269h241q13 0 13 -47q0 -45 -13 -45h-241v-772q0 -64 29.5 -91.5t97.5 -27.5h112q11 0 15 -8t4 -37q0 -32 -4 -41.5t-15 -9.5zM690 1104q-28 21 -16 37
q63 70 78.5 137.5t15.5 247.5q0 12 55 12q56 0 56 -12q0 -158 -36 -257.5t-112 -174.5q-15 -12 -41 10z" />
    <glyph glyph-name="Tbar" unicode="&#x166;" horiz-adv-x="1001" 
d="M991 1452q0 -51 -12 -51h-414v-266h412q5 0 7.5 -3t3.5 -9.5t1.5 -11t0 -14t-0.5 -12.5q0 -49 -12 -49h-412v-1032q0 -12 -57 -12q-59 0 -59 12v1032h-416q-13 0 -13 49q0 50 13 50h416v266h-426q-13 0 -13 51q0 49 13 49h956q12 0 12 -49z" />
    <glyph glyph-name="tbar" unicode="&#x167;" horiz-adv-x="690" 
d="M92 745q-12 0 -12 46q0 45 12 45h129v151h-155q-15 0 -15 45q0 47 15 47h155v269q0 12 55 12q56 0 56 -12v-269h241q13 0 13 -47q0 -45 -13 -45h-241v-151h213q5 0 7.5 -2.5t3.5 -8.5t1.5 -10t0 -12.5t-0.5 -11.5q0 -46 -12 -46h-213v-530q0 -64 29.5 -91.5t97.5 -27.5
h112q11 0 15 -8t4 -37q0 -32 -4 -41.5t-15 -9.5h-139q-110 0 -160.5 57t-50.5 154v534h-129z" />
    <glyph glyph-name="Utilde" unicode="&#x168;" horiz-adv-x="1320" 
d="M1133 385q0 -85 -27.5 -157t-82.5 -129.5t-149 -90.5t-217 -33t-216 33t-147 90.5t-80 129.5t-26 157v1112q0 12 60 12q57 0 57 -12v-1122q0 -143 89 -221t263 -78q175 0 268 78.5t93 220.5v1122q0 12 55 12q60 0 60 -12v-1112zM952 1845q-20 -55 -69 -96t-107 -41
q-36 0 -71 15.5t-58 34.5t-51 34.5t-51 15.5q-37 0 -64 -19.5t-53 -62.5q-3 -6 -19 4.5t-29.5 25t-10.5 20.5q17 42 64.5 82t105.5 40q37 0 72.5 -15.5t58.5 -34.5t51.5 -34.5t54.5 -15.5q76 0 117 92q4 7 20 -1.5t29 -22.5t10 -21z" />
    <glyph glyph-name="utilde" unicode="&#x169;" 
d="M164 1106q0 12 55 12t55 -12v-774q0 -117 60.5 -181.5t152.5 -64.5q41 0 83 13.5t76 35t65 47.5t54 51.5t40.5 47.5t26.5 35l8 12v778q0 12 55 12t55 -12v-1102q0 -12 -55 -12q-53 0 -53 12v199q-72 -102 -171.5 -165t-215.5 -63q-133 0 -212 90.5t-79 237.5v803z
M856 1436q-20 -55 -69 -96.5t-107 -41.5q-36 0 -71 16t-58 34.5t-51 34.5t-51 16q-37 0 -64 -19.5t-53 -62.5q-3 -6 -19 4t-30 24.5t-11 20.5q17 42 64.5 82.5t105.5 40.5q47 0 90 -25t79.5 -50t68.5 -25q76 0 117 92q4 7 20 -1.5t29 -22.5t10 -21z" />
    <glyph glyph-name="Umacron" unicode="&#x16a;" horiz-adv-x="1320" 
d="M1133 385q0 -85 -27.5 -157t-82.5 -129.5t-149 -90.5t-217 -33t-216 33t-147 90.5t-80 129.5t-26 157v1112q0 12 60 12q57 0 57 -12v-1122q0 -143 89 -221t263 -78q175 0 268 78.5t93 220.5v1122q0 12 55 12q60 0 60 -12v-1112zM432 1763q-12 0 -12 49q0 50 12 50h453
q5 0 7.5 -3t3.5 -9.5t1.5 -11t0 -14t-0.5 -12.5q0 -49 -12 -49h-453z" />
    <glyph glyph-name="umacron" unicode="&#x16b;" 
d="M164 1106q0 12 55 12t55 -12v-774q0 -117 60.5 -181.5t152.5 -64.5q41 0 83 13.5t76 35t65 47.5t54 51.5t40.5 47.5t26.5 35l8 12v778q0 12 55 12t55 -12v-1102q0 -12 -55 -12q-53 0 -53 12v199q-72 -102 -171.5 -165t-215.5 -63q-133 0 -212 90.5t-79 237.5v803z
M338 1354q-12 0 -12 49t12 49h453q5 0 7.5 -3t3.5 -9t1.5 -10.5t0 -14t-0.5 -12.5q0 -49 -12 -49h-453z" />
    <glyph glyph-name="Uring" unicode="&#x16e;" horiz-adv-x="1320" 
d="M1133 385q0 -85 -27.5 -157t-82.5 -129.5t-149 -90.5t-217 -33t-216 33t-147 90.5t-80 129.5t-26 157v1112q0 12 60 12q57 0 57 -12v-1122q0 -143 89 -221t263 -78q175 0 268 78.5t93 220.5v1122q0 12 55 12q60 0 60 -12v-1112zM817 1825q0 -65 -46.5 -111.5
t-111.5 -46.5q-66 0 -111.5 46.5t-45.5 111.5q0 66 45.5 111.5t111.5 45.5q65 0 111.5 -45.5t46.5 -111.5zM745 1825q0 35 -25.5 60.5t-60.5 25.5t-60.5 -25.5t-25.5 -60.5t25.5 -60.5t60.5 -25.5t60.5 25.5t25.5 60.5z" />
    <glyph glyph-name="uring" unicode="&#x16f;" 
d="M164 1106q0 12 55 12t55 -12v-774q0 -117 60.5 -181.5t152.5 -64.5q41 0 83 13.5t76 35t65 47.5t54 51.5t40.5 47.5t26.5 35l8 12v778q0 12 55 12t55 -12v-1102q0 -12 -55 -12q-53 0 -53 12v199q-72 -102 -171.5 -165t-215.5 -63q-133 0 -212 90.5t-79 237.5v803z
M723 1415q0 -65 -46.5 -111.5t-111.5 -46.5q-66 0 -111.5 46.5t-45.5 111.5q0 66 45.5 112t111.5 46q65 0 111.5 -46t46.5 -112zM651 1415q0 35 -25.5 60.5t-60.5 25.5t-60.5 -25.5t-25.5 -60.5t25.5 -60.5t60.5 -25.5t60.5 25.5t25.5 60.5z" />
    <glyph glyph-name="Uhungarumlaut" unicode="&#x170;" horiz-adv-x="1320" 
d="M1133 385q0 -85 -27.5 -157t-82.5 -129.5t-149 -90.5t-217 -33t-216 33t-147 90.5t-80 129.5t-26 157v1112q0 12 60 12q57 0 57 -12v-1122q0 -143 89 -221t263 -78q175 0 268 78.5t93 220.5v1122q0 12 55 12q60 0 60 -12v-1112zM1042 1933l-206 -280q-10 -13 -52 -13
t-42 10q0 3 3 7l183 289q8 12 59 12q60 0 59 -16q0 -4 -4 -9zM737 1933l-207 -280q-10 -13 -51 -13q-42 0 -42 10q0 3 3 7l183 289q8 12 59 12q60 0 59 -16q0 -4 -4 -9z" />
    <glyph glyph-name="uhungarumlaut" unicode="&#x171;" 
d="M164 1106q0 12 55 12t55 -12v-774q0 -117 60.5 -181.5t152.5 -64.5q41 0 83 13.5t76 35t65 47.5t54 51.5t40.5 47.5t26.5 35l8 12v778q0 12 55 12t55 -12v-1102q0 -12 -55 -12q-53 0 -53 12v199q-72 -102 -171.5 -165t-215.5 -63q-133 0 -212 90.5t-79 237.5v803z
M936 1528l-207 -281q-10 -12 -51 -12q-42 0 -42 10l3 6l182 289q8 12 60 12q60 0 59 -15q0 -4 -4 -9zM631 1528l-207 -281q-10 -12 -51 -12q-42 0 -42 10l3 6l182 289q8 12 59 12q61 0 60 -15q0 -4 -4 -9z" />
    <glyph glyph-name="Uogonek" unicode="&#x172;" horiz-adv-x="1320" 
d="M1133 385q0 -140 -74 -245t-225 -144q-230 -159 -230 -262q0 -40 21.5 -63.5t45 -29.5t50.5 -6q30 0 72.5 15.5t46.5 21.5q13 6 28.5 -27.5t3.5 -39.5q-7 -5 -20.5 -12.5t-55.5 -20t-85 -12.5q-52 0 -95.5 14t-76.5 54t-33 102q0 33 11 63.5t25.5 51.5t40 43.5t43 34
t45.5 29.5t38 25q-16 -2 -52 -2q-123 0 -216 33t-147 90.5t-80 129.5t-26 157v123v989q0 12 60 12q57 0 57 -12v-1122q0 -144 88.5 -221.5t263.5 -77.5t268 78.5t93 220.5v1122q0 12 55 12q60 0 60 -12v-1112z" />
    <glyph glyph-name="uogonek" unicode="&#x173;" 
d="M164 1106q0 12 55 12t55 -12v-774q0 -117 60.5 -181.5t152.5 -64.5q41 0 83 13.5t76 35t65 47.5t54 51.5t40.5 47.5t26.5 35l8 12v778q0 12 55 12t55 -12v-1102q0 -4 -12 -8q-100 -80 -129 -109q-98 -98 -98 -153q0 -30 11.5 -51.5t31 -31t37 -13t36.5 -3.5
q30 0 72.5 15.5t46.5 21.5q13 6 29 -27.5t4 -39.5q-7 -5 -21 -12.5t-56 -20t-85 -12.5q-52 0 -95.5 14t-76.5 54t-33 102q0 57 31 105t67.5 73t79 52t54.5 40q-2 0 -2 4v199q-72 -102 -171.5 -165t-215.5 -63q-133 0 -212 90.5t-79 237.5v803z" />
    <glyph glyph-name="Ydieresis" unicode="&#x178;" horiz-adv-x="1095" 
d="M1053 1495l-453 -856v-635q0 -12 -57 -12q-60 0 -60 12v635l-440 858q-2 4 3.5 7t18 4t20 1h19.5q62 0 68 -12l373 -749l385 749q6 12 67 12q12 0 19 -0.5t18.5 -1.5t16.5 -4t2 -8zM377 1692q-58 0 -58 14v190q0 15 58 15q57 0 57 -15v-190q0 -14 -57 -14zM711 1692
q-58 0 -58 14v190q0 15 58 15q57 0 57 -15v-190q0 -14 -57 -14z" />
    <glyph glyph-name="Zacute" unicode="&#x179;" horiz-adv-x="1093" 
d="M1022 51q0 -51 -12 -51h-938v66l784 1329h-750q-12 0 -12 55q0 51 12 51h898v-69l-779 -1326h785q12 0 12 -55zM797 1931l-207 -280q-10 -13 -51 -13q-42 0 -42 10q0 3 3 7l182 289q8 12 59 12q61 0 60 -16q0 -4 -4 -9z" />
    <glyph glyph-name="zacute" unicode="&#x17a;" horiz-adv-x="880" 
d="M66 57l583 949h-545q-12 0 -12 49t12 49h697v-57l-586 -949h608q13 0 13 -49q0 -17 -3.5 -33t-9.5 -16h-757v57zM690 1522l-207 -281q-10 -12 -51 -12q-42 0 -42 10l3 6l182 289q8 12 60 12q60 0 59 -15q0 -4 -4 -9z" />
    <glyph glyph-name="Zdotaccent" unicode="&#x17b;" horiz-adv-x="1093" 
d="M1022 51q0 -51 -12 -51h-938v66l784 1329h-750q-12 0 -12 55q0 51 12 51h898v-69l-779 -1326h785q12 0 12 -55zM545 1741q-86 0 -86 22v135q0 23 88 23t88 -23v-135q0 -22 -90 -22z" />
    <glyph glyph-name="zdotaccent" unicode="&#x17c;" horiz-adv-x="880" 
d="M66 57l583 949h-545q-12 0 -12 49t12 49h697v-57l-586 -949h608q13 0 13 -49q0 -17 -3.5 -33t-9.5 -16h-757v57zM438 1331q-29 0 -57.5 5.5t-28.5 17.5v135q0 22 88 22t88 -22v-135q0 -23 -90 -23z" />
    <glyph glyph-name="Zcaron" unicode="&#x17d;" horiz-adv-x="1093" 
d="M1022 51q0 -51 -12 -51h-938v66l784 1329h-750q-12 0 -12 55q0 51 12 51h898v-69l-779 -1326h785q12 0 12 -55zM371 1962q43 0 51 -12l125 -201l127 201q7 12 51 12h17.5t16.5 -1t14 -4t1 -7l-166 -254q-9 -13 -61 -13q-53 0 -62 13l-163 254q-3 4 1 7t14 4t16.5 1h17.5z
" />
    <glyph glyph-name="zcaron" unicode="&#x17e;" horiz-adv-x="921" 
d="M78 57l584 949h-545q-13 0 -13 49t13 49h696v-57l-586 -949h609q12 0 12 -49t-12 -49h-758v57zM285 1552q43 0 51 -12l125 -201l127 201q7 12 51 12h17.5t16.5 -1t14 -4t1 -7l-166 -254q-8 -12 -61 -12q-54 0 -62 12l-163 254q-3 4 1 7t14 4t16.5 1h17.5z" />
    <glyph glyph-name="florin" unicode="&#x192;" horiz-adv-x="614" 
d="M336 -41q0 -96 -58 -156.5t-159 -60.5h-115q-5 0 -7 2.5t-3.5 13.5t-1.5 33q0 21 1.5 31.5t3.5 13t7 2.5h98q62 0 92.5 32.5t28.5 78.5v1063h-151q-13 0 -13 47q0 45 13 45h151v196q0 102 58 164t159 62h115q5 0 7 -2.5t3.5 -13.5t1.5 -33q0 -21 -1.5 -31.5t-3.5 -13
t-7 -2.5h-98q-123 0 -123 -150v-176h188q13 0 13 -45q0 -47 -13 -47h-186v-1053z" />
    <glyph glyph-name="Scommaaccent" unicode="&#x218;" horiz-adv-x="1095" 
d="M993 401q0 -130 -66.5 -228.5t-174 -148t-238.5 -49.5q-110 0 -223.5 40.5t-202.5 103.5q-9 6 1.5 33.5t27.5 50.5t24 18q73 -53 174.5 -95t198.5 -42q158 0 256 83.5t98 227.5q0 30 -5.5 56.5t-13 48t-24 43t-29 36.5t-37.5 33.5t-41 29t-48 27.5t-50 26t-55 26.5
t-55 26.5q-51 25 -77.5 38.5t-73 40.5t-72.5 48t-60 54.5t-51.5 66t-30 76t-12.5 91.5q0 165 116 264t316 99q183 0 359 -92q7 -8 1 -32.5t-21.5 -48.5t-24.5 -18q-65 39 -151 62.5t-163 23.5q-141 0 -227 -67t-86 -187q0 -29 5.5 -55.5t20 -49.5t27 -41.5t38 -38t41 -31.5
t48 -29t47.5 -24.5t51.5 -25t47.5 -22.5q159 -76 218 -115q164 -107 191 -263q6 -34 6 -71zM369 -526q-29 22 -17 37q63 70 78.5 137.5t15.5 247.5q0 12 56 12q55 0 55 -12q0 -158 -35.5 -258.5t-111.5 -174.5q-15 -12 -41 11z" />
    <glyph glyph-name="scommaaccent" unicode="&#x219;" horiz-adv-x="870" 
d="M416 -25q-75 0 -167.5 25t-150.5 59q-8 5 1.5 30.5t24.5 47.5t23 17q140 -80 269 -80q113 0 181.5 63.5t68.5 153.5q0 56 -23.5 100t-62 72t-87.5 54t-100.5 45.5t-100.5 47.5t-87.5 59t-62 80.5t-23.5 112.5q0 120 90.5 195.5t245.5 75.5q149 0 262 -48q7 -8 2.5 -30
t-16 -45t-17.5 -21q-66 24 -117 34.5t-123 10.5q-101 0 -159 -50.5t-58 -123.5q0 -43 23.5 -78t62 -58.5t87.5 -48t100.5 -45.5t100.5 -52.5t87.5 -67.5t62 -92t23.5 -125q0 -128 -97 -223t-263 -95zM307 -535q-29 21 -16 37q63 70 78.5 137.5t15.5 247.5q0 13 55 13
q56 0 56 -13q0 -158 -36 -257.5t-112 -174.5q-15 -12 -41 10z" />
    <glyph glyph-name="uni021A" unicode="&#x21a;" horiz-adv-x="1001" 
d="M991 1452q0 -51 -12 -51h-414v-1397q0 -12 -57 -12q-59 0 -59 12v1397h-426q-13 0 -13 51q0 49 13 49h956q12 0 12 -49zM373 -526q-29 22 -17 37q63 70 79 138t16 247q0 12 55 12t55 -12q0 -158 -35.5 -258.5t-111.5 -174.5q-15 -12 -41 11z" />
    <glyph glyph-name="uni021B" unicode="&#x21b;" horiz-adv-x="690" 
d="M571 0h-139q-110 0 -160.5 57t-50.5 154v776h-155q-15 0 -15 45q0 47 15 47h155v269q0 12 55 12q56 0 56 -12v-269h241q13 0 13 -47q0 -45 -13 -45h-241v-772q0 -64 29.5 -91.5t97.5 -27.5h112q11 0 15 -8t4 -37q0 -32 -4 -41.5t-15 -9.5zM246 -535q-29 22 -17 37
q63 70 79 138t16 247q0 13 55 13t55 -13q0 -158 -35.5 -257.5t-111.5 -174.5q-15 -12 -41 10z" />
    <glyph glyph-name="circumflex" unicode="&#x2c6;" horiz-adv-x="983" 
d="M739 1266q-43 0 -51 12l-125 201l-127 -201q-7 -12 -51 -12h-17.5t-16.5 1t-14 4t-1 7l166 254q8 12 61 12q54 0 62 -12l163 -254q3 -4 -1 -7t-14 -4t-16.5 -1h-17.5z" />
    <glyph glyph-name="caron" unicode="&#x2c7;" horiz-adv-x="983" 
d="M385 1552q43 0 51 -12l125 -201l127 201q7 12 51 12h17.5t16.5 -1t14 -4t1 -7l-165 -254q-8 -12 -62 -12q-53 0 -61 12l-164 254q-3 4 1 7t14 4t16.5 1h17.5z" />
    <glyph glyph-name="breve" unicode="&#x2d8;" horiz-adv-x="983" 
d="M776 1540q0 -97 -64.5 -165t-156.5 -68q-91 0 -155 68t-64 165q0 8 49 8q26 0 28 -4q1 -1 1 -4q0 -60 43 -109t102 -49q58 0 102 49t44 109q0 10 28 10q43 0 43 -10z" />
    <glyph glyph-name="dotaccent" unicode="&#x2d9;" horiz-adv-x="983" 
d="M518 1331q-29 0 -57.5 5.5t-28.5 17.5v135q0 22 88 22t88 -22v-135q0 -23 -90 -23z" />
    <glyph glyph-name="ring" unicode="&#x2da;" horiz-adv-x="1122" 
d="M719 1415q0 -65 -46.5 -111.5t-111.5 -46.5q-66 0 -112 46.5t-46 111.5q0 66 46 112t112 46q65 0 111.5 -46t46.5 -112zM647 1415q0 35 -25.5 60.5t-60.5 25.5t-60.5 -25.5t-25.5 -60.5t25.5 -60.5t60.5 -25.5t60.5 25.5t25.5 60.5z" />
    <glyph glyph-name="ogonek" unicode="&#x2db;" horiz-adv-x="983" 
d="M643 33q-106 -82 -137 -113q-98 -98 -98 -153q0 -30 11.5 -51.5t31 -31t37 -13t36.5 -3.5q30 0 72.5 15.5t46.5 21.5q13 6 29 -27.5t4 -39.5q-7 -5 -21 -12.5t-56 -20.5t-85 -13q-52 0 -95.5 14t-76.5 54t-33 102q0 57 31 105t67.5 73.5t79 52.5t54.5 40h102z" />
    <glyph glyph-name="tilde" unicode="&#x2dc;" horiz-adv-x="983" 
d="M803 1436q-20 -55 -69 -96.5t-107 -41.5q-36 0 -71 16t-58.5 34.5t-51.5 34.5t-51 16q-37 0 -63.5 -19.5t-52.5 -62.5q-3 -6 -19 4t-30 24.5t-11 20.5q17 42 64.5 82.5t105.5 40.5q47 0 90 -25t79.5 -50t68.5 -25q75 0 116 92q4 7 20 -1.5t29.5 -22.5t10.5 -21z" />
    <glyph glyph-name="hungarumlaut" unicode="&#x2dd;" horiz-adv-x="1142" 
d="M999 1524l-206 -281q-10 -12 -52 -12t-42 10l3 6l183 289q8 12 59 12q60 0 59 -15q0 -4 -4 -9zM694 1524l-207 -281q-10 -12 -51 -12q-42 0 -42 10l3 6l183 289q8 12 59 12q60 0 59 -15q0 -4 -4 -9z" />
    <glyph glyph-name="pi" unicode="&#x3c0;" horiz-adv-x="1597" 
d="M1001 1014v-830q0 -17 2 -29.5t9 -29.5t25 -26t46 -9h154q12 0 12 -45t-12 -45h-176q-94 0 -132 51t-38 146v817h-381v-1010q0 -12 -55 -12q-56 0 -56 12v1010h-200q-13 0 -13 47q0 51 13 51h1018q12 0 12 -49t-12 -49h-216z" />
    <glyph glyph-name="endash" unicode="&#x2013;" horiz-adv-x="1189" 
d="M176 541q-12 0 -12 49t12 49h838q12 0 12 -49t-12 -49h-838z" />
    <glyph glyph-name="emdash" unicode="&#x2014;" horiz-adv-x="2213" 
d="M176 541q-12 0 -12 49t12 49h1862q12 0 12 -49t-12 -49h-1862z" />
    <glyph glyph-name="afii00208" unicode="&#x2015;" horiz-adv-x="2213" 
d="M176 541q-12 0 -12 49t12 49h1862q12 0 12 -49t-12 -49h-1862z" />
    <glyph glyph-name="quoteleft" unicode="&#x2018;" horiz-adv-x="460" 
d="M317 1534q29 -22 17 -37q-63 -70 -78.5 -137.5t-15.5 -247.5q0 -12 -56 -12q-55 0 -55 12q0 158 35.5 257.5t111.5 174.5q15 12 41 -10z" />
    <glyph glyph-name="quoteright" unicode="&#x2019;" horiz-adv-x="460" 
d="M143 1104q-29 21 -16 37q63 70 78.5 137.5t15.5 247.5q0 12 55 12q56 0 56 -12q0 -158 -36 -257.5t-112 -174.5q-15 -12 -41 10z" />
    <glyph glyph-name="quotesinglbase" unicode="&#x201a;" horiz-adv-x="464" 
d="M147 -199q-29 21 -16 37q63 70 78.5 137.5t15.5 247.5q0 13 56 13q55 0 55 -13q0 -158 -36 -257.5t-112 -174.5q-15 -12 -41 10z" />
    <glyph glyph-name="quotedblleft" unicode="&#x201c;" horiz-adv-x="755" 
d="M612 1534q29 -22 17 -37q-63 -70 -78.5 -137.5t-15.5 -247.5q0 -12 -56 -12q-55 0 -55 12q0 158 35.5 257.5t111.5 174.5q15 12 41 -10zM317 1534q29 -22 17 -37q-63 -70 -78.5 -137.5t-15.5 -247.5q0 -12 -56 -12q-55 0 -55 12q0 158 35.5 257.5t111.5 174.5
q15 12 41 -10z" />
    <glyph glyph-name="quotedblright" unicode="&#x201d;" horiz-adv-x="749" 
d="M143 1073q-29 21 -16 37q63 70 78.5 137.5t15.5 247.5q0 12 55 12q56 0 56 -12q0 -158 -36 -257.5t-112 -174.5q-15 -12 -41 10zM438 1073q-28 21 -16 37q63 70 78.5 137.5t15.5 247.5q0 12 55 12q56 0 56 -12q0 -158 -36 -257.5t-112 -174.5q-15 -12 -41 10z" />
    <glyph glyph-name="quotedblbase" unicode="&#x201e;" horiz-adv-x="796" 
d="M143 -199q-29 21 -16 37q63 70 78.5 137.5t15.5 247.5q0 13 55 13q56 0 56 -13q0 -158 -36 -257.5t-112 -174.5q-15 -12 -41 10zM438 -199q-28 21 -16 37q63 70 78.5 137.5t15.5 247.5q0 13 55 13q56 0 56 -13q0 -158 -36 -257.5t-112 -174.5q-15 -12 -41 10z" />
    <glyph glyph-name="dagger" unicode="&#x2020;" horiz-adv-x="1087" 
d="M901 1032l-303 21l-14 -645q0 -11 -39 -11q-37 0 -37 11l-12 645l-303 -21q-4 -1 -7 4.5t-4 16t-1.5 20.5t-0.5 23q0 11 0.5 20.5t2.5 19.5t5.5 16t8.5 5l297 -22l-7 356q0 18 60 18q57 0 57 -18l-4 -356l299 22q14 0 14 -61q0 -56 -7 -62q-2 -2 -5 -2z" />
    <glyph glyph-name="daggerdbl" unicode="&#x2021;" horiz-adv-x="1087" 
d="M893 723l-313 22l-5 -378q0 -13 -32 -13q-31 0 -31 13l-6 378l-311 -22q-13 0 -13 63q0 13 0.5 22t1.5 19.5t4 16t7 4.5l311 -23l-8 230l-301 -23q-13 -2 -13 60v4q0 63 13 63l301 -24l-13 362q0 12 60 12q57 0 57 -12l-12 -362l303 24q12 0 12 -63q0 -64 -12 -64
l-305 23l-6 -230l311 23q4 1 7 -5t4 -18t1 -19.5v-19.5q0 -63 -12 -63z" />
    <glyph glyph-name="bullet" unicode="&#x2022;" horiz-adv-x="950" 
d="M260 651q0 88 62.5 150.5t150.5 62.5t150.5 -62.5t62.5 -150.5t-62.5 -150.5t-150.5 -62.5t-150.5 62.5t-62.5 150.5z" />
    <glyph glyph-name="ellipsis" unicode="&#x2026;" horiz-adv-x="1253" 
d="M221 -8q-57 0 -57 12v244q0 12 57 12q58 0 58 -12v-244q0 -12 -58 -12zM627 -8q-58 0 -58 12v244q0 12 58 12q57 0 57 -12v-244q0 -12 -57 -12zM1032 -8q-57 0 -57 12v244q0 12 57 12q58 0 58 -12v-244q0 -12 -58 -12z" />
    <glyph glyph-name="perthousand" unicode="&#x2030;" horiz-adv-x="2228" 
d="M406 778q-248 0 -248 205v340q0 209 248 209q251 0 251 -209v-340q0 -205 -251 -205zM1157 -33q-246 0 -246 209v340q0 209 248 209q250 0 250 -209v-340q0 -209 -252 -209zM1835 -33q-248 0 -248 209v340q0 209 250 209t250 -209v-340q0 -209 -252 -209zM1210 1497
l-774 -1493q-6 -12 -63 -12h-21.5t-21 1t-18 4t-3.5 7l774 1493q6 12 64 12h20t20.5 -1t18.5 -4t4 -7zM547 1323q0 119 -141 119q-64 0 -102 -25.5t-38 -93.5v-340q0 -67 37.5 -91t102.5 -24q66 0 103.5 24t37.5 91v340zM1976 516q0 119 -141 119q-64 0 -101.5 -25.5
t-37.5 -93.5v-340q0 -67 37 -92t102 -25t103 25t38 92v340zM1298 516q0 119 -141 119q-64 0 -101.5 -25.5t-37.5 -93.5v-340q0 -67 37 -92t102 -25t103 25t38 92v340z" />
    <glyph glyph-name="guilsinglleft" unicode="&#x2039;" horiz-adv-x="755" 
d="M127 647l328 469q4 7 30.5 -7.5t49.5 -34t18 -25.5l-283 -402l283 -399q5 -7 -18 -26.5t-49.5 -34t-30.5 -7.5z" />
    <glyph glyph-name="guilsinglright" unicode="&#x203a;" horiz-adv-x="755" 
d="M299 1116l328 -469l-328 -467q-4 -7 -30.5 7t-49.5 34t-18 27l282 399l-282 402q-4 7 19 26.5t49 33.5t30 7z" />
    <glyph glyph-name="fraction" unicode="&#x2044;" horiz-adv-x="958" 
d="M922 1497l-770 -1493q-6 -12 -58 -12h-18.5t-19 1t-16.5 4t-3 7q128 249 385 746.5t385 746.5q6 12 57 12h19t19 -1t17 -4t3 -7z" />
    <glyph glyph-name="Euro" unicode="&#x20ac;" horiz-adv-x="1304" 
d="M1161 1448q8 -8 2.5 -32t-20 -48t-23.5 -20q-168 77 -325 77q-65 0 -118 -7t-107.5 -27.5t-91 -53.5t-60 -90t-23.5 -133v-186h482q12 0 12 -47t-12 -47h-482v-191h482q12 0 12 -47t-12 -47h-482v-170q0 -73 23 -128t60 -87.5t91 -53t107.5 -27.5t118.5 -7q192 0 325 65
q5 2 11.5 -7.5t12 -23.5t9.5 -30t4 -27t-4 -14q-56 -27 -161.5 -45.5t-196.5 -18.5q-516 0 -516 404v170h-138q-12 0 -12 47t12 47h138v191h-138q-12 0 -12 47t12 47h138v186q0 412 518 412q87 0 193 -23t171 -55z" />
    <glyph glyph-name="trademark" unicode="&#x2122;" horiz-adv-x="1140" 
d="M768 934q-30 0 -35 12q-22 75 -68 225.5t-69 225.5q2 -25 2 -37v-416q0 -10 -35 -10t-35 10v553q0 8 47 8q52 0 54 -8q23 -77 69 -230.5t70 -230.5q23 77 69 230.5t70 230.5q2 8 54 8q53 0 53 -8v-553q0 -10 -39 -10t-39 10v416q0 33 4 37q-22 -75 -68 -225.5t-69 -225.5
q-4 -12 -35 -12zM285 1440v-498q0 -8 -39 -8q-37 0 -37 8v498h-156q-8 0 -8 30q0 31 8 31h391q9 0 9 -31q0 -30 -9 -30h-159z" />
    <glyph glyph-name="Omega" unicode="&#x2126;" horiz-adv-x="1531" 
d="M932 0v98q39 26 56.5 37.5t61 46.5t66.5 61t43.5 63t20.5 71v743q0 74 -28 130.5t-69.5 89t-98.5 53t-107 27.5t-103 7t-102.5 -6.5t-106 -27t-98 -53t-69 -89.5t-27.5 -131v-743q0 -35 20 -72.5t45 -65t65.5 -59t63.5 -46.5t56 -36v-98h-377q-13 0 -13 49t13 49h233
q-9 3 -24 9t-53.5 29.5t-68 52.5t-53.5 79.5t-24 108.5v743q0 104 38.5 183t109 127t164 72t208.5 24q116 0 210 -24t164.5 -72t109 -127t38.5 -183v-743q0 -58 -22.5 -108t-55 -80t-64.5 -52t-54 -31l-23 -8h230q2 0 4 -1t3 -3l2 -4t1.5 -5.5t1 -6.5t0.5 -7.5v-7v-7.5v-7
v-7v-7.5v-7t-0.5 -7.5t-1 -6.5t-1.5 -5.5l-2 -4t-3 -3t-4 -1h-375z" />
    <glyph glyph-name="partialdiff" unicode="&#x2202;" horiz-adv-x="1208" 
d="M1059 377q0 -99 -42.5 -178.5t-110 -126.5t-143 -72t-149.5 -25q-206 0 -327 117t-121 287v266q0 178 123 290t325 112q58 0 108.5 -11.5t81.5 -27.5t53.5 -32.5t32.5 -27.5l9 -12q-4 16 -13.5 44.5t-52.5 109t-102 153.5q-39 47 -116 118t-87 81q-9 9 27.5 50t48.5 32
q145 -115 203 -195q1 -2 19.5 -25.5t34 -45t41 -63t46 -82t43 -99t37.5 -117.5t24.5 -133.5t8.5 -151.5zM950 395v217q0 144 -99 238t-237 94q-50 0 -97.5 -10.5t-91.5 -35t-77 -60t-52.5 -90t-19.5 -121.5v-234q0 -68 20 -123.5t53 -91t77.5 -60t91 -34.5t96.5 -10
q83 0 158 36.5t126.5 111.5t51.5 173z" />
    <glyph glyph-name="Delta" unicode="&#x2206;" horiz-adv-x="1531" 
d="M174 0l590 1497q4 12 67 12q64 0 68 -12l596 -1497h-1321zM821 1368l-493 -1268h1001z" />
    <glyph glyph-name="product" unicode="&#x220f;" horiz-adv-x="1531" 
d="M1528 731q0 -148 -58 -283.5t-156 -233.5t-233.5 -156t-283.5 -58t-283.5 58t-233.5 156t-156 233.5t-58 283.5t58 283.5t156 233.5t233.5 156t283.5 58t283.5 -58t233.5 -156t156 -233.5t58 -283.5zM1444 731q0 175 -87 323.5t-236 235t-324 86.5t-323.5 -86.5
t-235 -235t-86.5 -323.5t86.5 -324t235 -236t323.5 -87t324 87t236 236t87 324zM864 621h-176v-271q0 -16 -47 -16q-45 0 -45 16v750h250q118 0 177.5 -49.5t59.5 -159.5v-62q0 -17 -1.5 -33t-13 -51t-32.5 -59.5t-65.5 -44.5t-106.5 -20zM995 891q0 41 -12.5 68t-37 39
t-48.5 16t-59 4h-152v-311h178q131 0 131 122v62z" />
    <glyph glyph-name="summation" unicode="&#x2211;" horiz-adv-x="1531" 
d="M1116 0h-930v76l539 702l-520 647v76h885q12 0 12 -49q0 -51 -12 -51h-713l493 -623l-514 -678h760q12 0 12 -47q0 -53 -12 -53z" />
    <glyph glyph-name="minus" unicode="&#x2212;" horiz-adv-x="1531" 
d="M217 573q-12 0 -12 50q0 49 12 49h660q12 0 12 -49q0 -50 -12 -50h-660z" />
    <glyph glyph-name="radical" unicode="&#x221a;" horiz-adv-x="1013" 
d="M930 1497l-420 -1493q-4 -12 -55 -12q-54 0 -58 12l-256 748q-1 4 3 7t13 4t15.5 1h17.5q58 0 62 -12l203 -621l364 1366q4 12 55 12h18t18 -1t16 -4t4 -7z" />
    <glyph glyph-name="infinity" unicode="&#x221e;" horiz-adv-x="1576" 
d="M1153 231q-77 0 -166 56.5t-207 179.5q-113 -117 -202 -176.5t-172 -59.5q-116 0 -186 80.5t-70 210.5q0 138 76 222.5t188 84.5q82 0 171.5 -56.5t205.5 -178.5q111 116 201 175.5t171 59.5q114 0 186 -86t72 -221q0 -132 -74 -211.5t-194 -79.5zM1155 735
q-36 0 -78.5 -20.5t-89 -59t-75 -65.5t-68.5 -68q97 -100 172.5 -147t144.5 -47q81 0 128.5 53.5t47.5 140.5q0 93 -49 153t-133 60zM410 735q-81 0 -129 -62.5t-48 -150.5q0 -93 48.5 -143.5t134.5 -50.5q67 0 140 47t171 147q-106 110 -181 161.5t-136 51.5z" />
    <glyph glyph-name="integral" unicode="&#x222b;" horiz-adv-x="702" 
d="M266 -33v1319q0 65 21 110.5t56 66.5t67.5 29.5t68.5 8.5h99q12 0 12 -45t-12 -45h-60q-15 0 -30 -2t-36.5 -10t-36.5 -22.5t-26.5 -42t-11.5 -64.5v-1188q0 -125 -10 -170q-26 -122 -145 -129h-15h-131q-13 0 -13 47t13 47h110q28 0 46 8.5t24.5 25t8 27.5t1.5 29z" />
    <glyph glyph-name="approxequal" unicode="&#x2248;" horiz-adv-x="1189" 
d="M920 756q-27 -59 -86.5 -113.5t-128.5 -54.5q-50 0 -94.5 19.5t-71.5 43t-61.5 43t-65.5 19.5q-25 0 -45 -7.5t-38.5 -26t-28.5 -31.5t-30 -42q-3 -5 -20 5.5t-31 25.5t-10 22q7 17 23 39.5t41 47t60.5 41t72.5 16.5q46 0 90.5 -19.5t73.5 -43t66 -43t69 -19.5
q15 0 28.5 3t25 9t21 12t17.5 15.5t14 16.5t11.5 17t8.5 15t7 14l4 8q8 8 26 4.5t36.5 -15.5t15.5 -21zM920 377q-28 -59 -87.5 -113.5t-127.5 -54.5q-50 0 -94.5 19.5t-71.5 43t-61.5 43t-65.5 19.5q-25 0 -45 -7.5t-38.5 -26t-28.5 -31.5t-30 -42q-3 -5 -20 6t-31 26
t-10 22q10 24 34 54.5t69.5 59.5t93.5 29q46 0 90.5 -19.5t73.5 -43t66 -43t69 -19.5q15 0 28.5 3t25 9t21 12.5t17.5 15.5t14 16t11.5 17.5t8.5 15.5t7 13t4 9q8 8 26 4t36.5 -16t15.5 -21z" />
    <glyph glyph-name="notequal" unicode="&#x2260;" horiz-adv-x="1087" 
d="M936 360q0 -49 -12 -49h-453q-27 -35 -80 -105.5t-80 -105.5q-5 -6 -24.5 5.5t-36 26.5t-12.5 20q20 26 59.5 79.5t58.5 79.5h-166q-12 0 -12 49q0 50 12 50h248q24 32 73 95t73 95h-394q-12 0 -12 51q0 47 12 47h467q27 36 81.5 107.5t82.5 107.5q7 8 26.5 -2.5
t34.5 -27t9 -23.5q-20 -26 -62.5 -81t-62.5 -81h158q12 0 12 -47q0 -51 -12 -51h-230q-24 -31 -72 -94.5t-73 -95.5h375q12 0 12 -50z" />
    <glyph glyph-name="lessequal" unicode="&#x2264;" horiz-adv-x="1165" 
d="M209 557l690 256q4 1 7 -4t4 -16t1 -18.5v-18.5q0 -56 -12 -60l-586 -204l586 -193q12 -4 12 -55v-19t-1 -19t-4 -17t-7 -3l-690 252q-12 4 -12 60q0 55 12 59zM207 100h696q12 0 12 -49q0 -51 -12 -51h-696q-12 0 -12 47q0 53 12 53z" />
    <glyph glyph-name="greaterequal" unicode="&#x2265;" horiz-adv-x="1116" 
d="M219 807l684 -244q12 -6 12 -61q0 -60 -12 -64l-690 -252q-9 -2 -11 19q-1 8 -1 39q0 50 12 55l586 199l-586 192q-10 3 -10 60q0 8 1 18t2.5 19.5t5 15t7.5 4.5zM207 100h696q12 0 12 -51q0 -49 -12 -49h-696q-12 0 -12 49q0 51 12 51z" />
    <glyph glyph-name="lozenge" unicode="&#x25ca;" horiz-adv-x="1531" 
d="M1378 745l-559 -741q-10 -12 -39 -12q-31 0 -39 12l-575 756l565 737q8 12 39 12t39 -12zM760 1350l-451 -586l475 -623l455 594z" />
    <glyph glyph-name="fi" unicode="&#xfb01;" horiz-adv-x="1028" 
d="M535 1034q0 -47 -13 -47h-188v-983q0 -12 -55 -12q-56 0 -56 12v983h-151q-13 0 -13 47q0 45 13 45h151v221q0 102 58 164t159 62h115q5 0 7 -2.5t3.5 -13.5t1.5 -33q0 -21 -1.5 -31.5t-3.5 -13t-7 -2.5h-98q-123 0 -123 -150v-201h188q13 0 13 -45zM850 -8q-55 0 -55 12
v1102q0 12 55 12t55 -12v-1102q0 -12 -55 -12zM850 1292q-55 0 -55 13v217q0 12 55 12t55 -12v-217q0 -13 -55 -13z" />
    <glyph glyph-name="fl" unicode="&#xfb02;" horiz-adv-x="1146" 
d="M535 1034q0 -47 -13 -47h-186v-983q0 -12 -57 -12q-56 0 -56 12v983h-151q-13 0 -13 47q0 45 13 45h151v221q0 102 58 164t159 62h115q5 0 7 -2.5t3.5 -13.5t1.5 -33q0 -21 -1.5 -31.5t-3.5 -13t-7 -2.5h-98q-123 0 -123 -150v-201h188q13 0 13 -45zM1090 0h-84
q-109 0 -160 57t-51 154v1311q0 12 55 12t55 -12v-1307q0 -64 30.5 -92.5t98.5 -28.5h56q11 0 14.5 -7.5t3.5 -37.5q0 -32 -3.5 -40.5t-14.5 -8.5z" />
    <glyph glyph-name="CR" horiz-adv-x="440" 
 />
    <glyph glyph-name="dummy1" horiz-adv-x="0" 
 />
    <glyph glyph-name="dummy2" horiz-adv-x="0" 
 />
    </font>
</defs>
</svg>
