<?xml version="1.0" standalone="no"?>
<!DOCTYPE svg PUBLIC "-//W3C//DTD SVG 1.1//EN" "http://www.w3.org/Graphics/SVG/1.1/DTD/svg11.dtd" >
<svg xmlns="http://www.w3.org/2000/svg" xmlns:xlink="http://www.w3.org/1999/xlink" version="1.1">
<metadata>
Created by FontForge 20170731 at Fri Jul 10 16:21:14 2020
 By Aleksey,,,
Copyright (c) 2005 by Telenor ASA. All rights reserved.
</metadata>
<defs>
<font id="Telenor-LightItalic" horiz-adv-x="1130" >
  <font-face 
    font-family="Telenor"
    font-weight="300"
    font-style="italic"
    font-stretch="normal"
    units-per-em="2048"
    panose-1="2 0 0 0 0 0 0 0 0 0"
    ascent="1638"
    descent="-410"
    x-height="1104"
    cap-height="1509"
    bbox="-93.6571 -561.694 2146.17 1982"
    underline-thickness="102"
    underline-position="-307"
    unicode-range="U+0020-FB02"
  />
<missing-glyph horiz-adv-x="2048" 
 />
    <glyph glyph-name=".notdef" horiz-adv-x="2048" 
 />
    <glyph glyph-name=".null" horiz-adv-x="0" 
 />
    <glyph glyph-name="nonmarkingreturn" horiz-adv-x="682" 
 />
    <glyph glyph-name="space" unicode=" " horiz-adv-x="440" 
 />
    <glyph glyph-name="exclam" unicode="!" horiz-adv-x="518" 
d="M563 1491l-180 -1028q-2 -14 -53 -14q-10 0 -17.5 0.5t-15 2t-11.5 4.5t-3 7l147 1028q2 18 70 18q66 0 63 -18zM256 -8h-18t-17.5 1t-15.5 4t-4 7l30 195q2 12 60 12h18t17.5 -1t15.5 -4t4 -7l-31 -195q-2 -12 -59 -12z" />
    <glyph glyph-name="quotedbl" unicode="&#x22;" horiz-adv-x="702" 
d="M784 1497l-104 -508q-2 -12 -43 -12q-8 0 -16.5 1.5t-15 4t-5.5 6.5l55 508q2 12 68 12h18.5t19.5 -1t18 -4t5 -7zM518 1497l-104 -508q-2 -12 -43 -12q-8 0 -16.5 1.5t-15 4t-5.5 6.5l55 508q2 12 66 12h19.5t19.5 -1t18.5 -4t5.5 -7z" />
    <glyph glyph-name="numbersign" unicode="#" horiz-adv-x="1253" 
d="M1296 987q-9 -39 -22 -39h-211l-78 -368h209q18 0 8 -43q-12 -39 -22 -39h-213l-103 -494q-2 -12 -49 -12h-17t-15 1t-13.5 4t-3.5 7l102 494h-362l-103 -494q-2 -12 -53 -12h-16t-14.5 1t-12 4t-2.5 7l103 494h-232q-13 0 -4 45q7 37 16 37h238l78 368h-234q-13 0 -4 45
q9 39 19 39h237l96 465q2 12 50 12h17t15 -1t13.5 -4t3.5 -7l-94 -465h360l100 465q2 12 47 12h17.5t16 -1t14.5 -4t4 -7l-101 -465h209q17 0 6 -45zM965 948h-363l-78 -368h363z" />
    <glyph glyph-name="dollar" unicode="$" horiz-adv-x="1304" 
d="M565 -145l31 184q-102 7 -198 45.5t-167 95.5q-7 7 8 34.5t35.5 50.5t26.5 18q65 -53 161.5 -94.5t194.5 -41.5q158 0 267.5 83t132.5 227q9 59 -9 104.5t-56.5 75t-90 52.5t-109.5 42.5t-115.5 40.5t-108 50.5t-87 67.5t-52 97t-3.5 135q21 128 125.5 218.5t265.5 113.5
l31 188q0 13 59 13q58 0 58 -13l-31 -182q170 -5 321 -92q9 -5 -2.5 -31.5t-30 -49.5t-26.5 -17q-60 39 -142 62.5t-159 23.5q-139 0 -236.5 -67t-115.5 -187q-8 -53 6.5 -94t46 -67t76 -48.5t95.5 -38t104.5 -35t104 -39.5t92.5 -51.5t71 -71.5t39.5 -99.5t-2.5 -135.5
q-26 -148 -157.5 -253t-305.5 -126l-31 -188q-2 -13 -59 -13q-10 0 -18.5 0.5t-18.5 1.5t-16 4t-5 7z" />
    <glyph glyph-name="percent" unicode="%" horiz-adv-x="1523" 
d="M481 778q-117 0 -173 61t-38 179l45 282q35 209 281 209q119 0 177 -60t38 -183l-45 -283q-34 -205 -285 -205zM1446 1497l-1010 -1485q-6 -12 -63 -12h-21.5t-21 1t-18 4t-3.5 7l1010 1485q8 12 65 12h20t21 -1t18.5 -4t2.5 -7zM1151 -33q-117 0 -172 60.5t-35 179.5
l47 309q35 209 283 209q114 0 171 -63t40 -168l-49 -318q-32 -209 -285 -209zM705 1300q11 67 -23.5 93t-99.5 26q-139 0 -158 -119l-49 -317q-11 -67 22.5 -91t98.5 -24t106.5 24t52.5 91zM1378 516q11 68 -23 93.5t-98 25.5q-140 0 -159 -119l-54 -340q-10 -67 23.5 -92
t97.5 -25q65 0 107.5 25t52.5 92z" />
    <glyph glyph-name="ampersand" unicode="&#x26;" horiz-adv-x="1331" 
d="M1325 588l-229 -307l161 -238q5 -11 -17.5 -31t-46.5 -29t-34 1l-141 206q-26 -29 -61.5 -59t-93.5 -68.5t-136.5 -63t-159.5 -24.5q-205 0 -307.5 111t-75.5 285l15 82q7 46 29.5 89.5t54.5 80t81 75.5t98.5 72t119.5 74q-41 56 -64.5 90.5t-48 81.5t-32 90.5t-1.5 87.5
l6 41q7 44 20 82t40.5 78t65.5 68.5t98 46.5t135 18q59 0 106 -15t74 -39t47 -55t25.5 -63t8.5 -62t-3 -53l-10 -70q-17 -100 -87.5 -175t-232.5 -177l307 -457l168 226q10 12 62 12h19.5t19.5 -1t17.5 -4t2.5 -7zM786 1436q-102 0 -159 -44t-74 -147l-8 -45
q-7 -39 1.5 -78.5t36 -84.5t43.5 -67.5t52 -68.5q122 69 184.5 135.5t75.5 151.5l8 45q13 87 -24 145t-136 58zM965 281l-324 487l-133 -78q-178 -120 -203 -264l-8 -59q-11 -70 1.5 -123.5t40 -85t70 -52t84 -27.5t89.5 -7q202 0 383 209z" />
    <glyph glyph-name="quotesingle" unicode="'" horiz-adv-x="333" 
d="M467 1497l-105 -508q-2 -12 -43 -12q-8 0 -16 1.5t-14.5 4t-5.5 6.5l55 508q2 12 65 12h19.5t20 -1t19 -4t5.5 -7z" />
    <glyph glyph-name="parenleft" unicode="(" horiz-adv-x="729" 
d="M711 1585q0 -2 -1 -7t-1 -7q10 12 47 -17t28 -41q-51 -55 -104.5 -132t-112.5 -183t-106.5 -242t-69.5 -276q-19 -140 -15 -264t29 -237.5t54 -194.5t61 -134q4 -8 -17 -21.5t-45 -21.5t-28 0q-32 41 -64.5 116.5t-62.5 195.5t-35.5 262t17.5 315q25 158 81 312.5
t121 267t122.5 190.5t101.5 119z" />
    <glyph glyph-name="parenright" unicode=")" horiz-adv-x="729" 
d="M508 1571q32 -40 64.5 -118t62.5 -200t35 -266t-19 -317q-20 -128 -61 -255t-88.5 -224.5t-101 -183.5t-96.5 -140t-77 -86q-13 -10 -48.5 23.5t-26.5 45.5q68 75 142 191.5t148.5 293.5t100.5 345q18 113 18 225.5t-13 201t-36.5 170.5t-47 137t-48.5 99q-6 12 38.5 40
t53.5 18z" />
    <glyph glyph-name="asterisk" unicode="*" horiz-adv-x="821" 
d="M379 1346l205 -91l18 242q2 12 53 12h17t15.5 -1t14 -4t3.5 -7l-56 -237l236 90q4 2 9 -9q15 -32 12 -69q-1 -16 -7 -17l-240 -55l125 -186q4 -7 -16.5 -24.5t-44 -29.5t-27.5 -4l-92 203l-160 -203q-6 -8 -27 5t-36.5 31.5t-9.5 23.5l182 182l-221 57q-8 6 -0.5 27.5
t23.5 44t24 19.5z" />
    <glyph glyph-name="plus" unicode="+" horiz-adv-x="1304" 
d="M1229 463h-469v-459q0 -12 -53 -12q-52 0 -52 12v459h-454q-13 0 -13 49t13 49h454v465q0 12 52 12q53 0 53 -12v-465h469q12 0 12 -49t-12 -49z" />
    <glyph glyph-name="comma" unicode="," horiz-adv-x="501" 
d="M111 -199q-26 22 -11 37q74 71 101 139t55 246q2 13 57 13q10 0 17.5 -0.5t17 -1.5t15 -4t4.5 -7q-26 -159 -77 -258.5t-140 -173.5q-16 -13 -39 10z" />
    <glyph glyph-name="hyphen" unicode="-" horiz-adv-x="960" 
d="M264 559q-14 0 -4 49q5 49 19 49h608q11 0 6 -49q-10 -49 -21 -49h-608z" />
    <glyph glyph-name="period" unicode="." horiz-adv-x="444" 
d="M219 -8h-18t-17.5 1t-15.5 4t-4 7l39 244q2 12 59 12h18t17.5 -1t15.5 -4t4 -7l-38 -244q-2 -12 -60 -12z" />
    <glyph glyph-name="slash" unicode="/" horiz-adv-x="800" 
d="M1014 1497l-879 -1493q-8 -12 -59 -12h-18.5t-18 1t-15 4t-1.5 7l878 1493q8 12 57 12h19t18.5 -1t16.5 -4t2 -7z" />
    <glyph glyph-name="zero" unicode="0" horiz-adv-x="1304" 
d="M659 -25q-226 0 -332 106.5t-73 311.5l115 727q63 406 534 406q224 0 319.5 -105.5t61.5 -322.5l-113 -721q-35 -212 -160 -307t-352 -95zM1169 1116q25 160 -41 230.5t-241 70.5q-183 0 -279 -71.5t-121 -229.5l-116 -735q-26 -159 47.5 -228t257.5 -69
q176 0 263.5 68.5t113.5 228.5z" />
    <glyph glyph-name="one" unicode="1" horiz-adv-x="737" 
d="M406 -8h-18t-17.5 1t-16 4t-4.5 7l217 1370q-51 -23 -125.5 -43t-97.5 -20q-12 0 -8 43q11 50 20 51q114 22 269 96h80l-238 -1497q-2 -12 -61 -12z" />
    <glyph glyph-name="two" unicode="2" horiz-adv-x="1175" 
d="M784 690q-122 -61 -199 -106.5t-135.5 -91.5t-91.5 -97t-53 -107.5t-33 -137.5l-8 -50h772q14 0 4 -51q-5 -49 -18 -49h-891l21 141q19 119 58 207t109.5 160.5t158 129.5t224.5 126q128 64 198.5 105t118 85.5t65.5 86t28 106.5q21 125 -54.5 199.5t-228.5 74.5
q-183 0 -374 -102q-10 -6 -25 17t-20 47t4 34q199 109 428 109q200 0 303 -109t80 -270q-10 -70 -34.5 -127t-57.5 -98.5t-91 -83.5t-112.5 -72.5t-145.5 -75.5z" />
    <glyph glyph-name="three" unicode="3" horiz-adv-x="1091" 
d="M176 193q162 -109 346 -109q136 0 229 69.5t113 194.5l17 98q22 136 -52 200.5t-225 64.5h-82q-13 0 -2 55q5 53 21 53h106q132 0 223.5 65t112.5 191l12 86q20 121 -52 189.5t-198 68.5q-188 0 -360 -102q-8 -5 -22.5 17.5t-19.5 46t5 34.5q72 45 187 78t225 33
q74 0 141.5 -23.5t120 -67.5t77.5 -115.5t11 -158.5l-14 -90q-20 -128 -108 -205t-202 -100q104 -21 167.5 -102.5t43.5 -206.5l-16 -105q-29 -176 -148 -276.5t-327 -100.5q-40 0 -80 4.5t-72 11.5t-63.5 17t-54 19.5t-44.5 20.5t-34.5 18t-24 14.5t-12.5 7.5q-11 6 0 34.5
t29 52t26 18.5z" />
    <glyph glyph-name="four" unicode="4" horiz-adv-x="1163" 
d="M1098 338h-183l-53 -334q-2 -12 -57 -12h-18t-17.5 1t-15.5 4t-4 7l53 334h-653q-6 0 0 41q4 30 12 45l854 1077q6 8 43 8q41 0 41 -8l-168 -1061h182q2 0 4 -1.5t2.5 -5t0.5 -7v-9t-0.5 -9.5t-1.5 -10t-1 -9q-10 -51 -20 -51zM295 440h524l131 830z" />
    <glyph glyph-name="five" unicode="5" horiz-adv-x="1148" 
d="M551 -25q-229 0 -381 152q-8 6 7.5 31.5t37 46.5t29.5 14q145 -133 317 -133q316 0 367 328l20 129q25 156 -29 239.5t-188 83.5q-88 0 -155.5 -32.5t-133.5 -96.5h-102l121 764h733q2 0 4 -1.5t2.5 -5t0.5 -7v-9t-0.5 -9.5t-1.5 -10t-1 -9q-10 -51 -20 -51h-621
l-84 -522q58 45 133.5 71.5t153.5 26.5q180 0 260.5 -119t48.5 -313l-20 -133q-32 -215 -158.5 -325t-339.5 -110z" />
    <glyph glyph-name="six" unicode="6" horiz-adv-x="1263" 
d="M651 -25q-147 0 -243 66t-130.5 178t-11.5 256l96 600q15 96 52 174.5t100 142.5t161.5 99t225.5 35q196 0 361 -90q6 -4 -6 -30t-28 -49.5t-22 -19.5q-56 38 -139.5 61t-177.5 23q-183 0 -283 -92t-125 -252l-47 -295q19 34 52 67.5t81.5 65t118 51t148.5 19.5
q206 0 305.5 -116t68.5 -312l-24 -145q-69 -437 -533 -437zM1069 406l21 137q27 165 -43.5 252.5t-241.5 87.5q-157 0 -271 -92.5t-137 -239.5l-18 -117q-26 -165 51.5 -262.5t235.5 -97.5q157 0 266.5 83.5t136.5 248.5z" />
    <glyph glyph-name="seven" unicode="7" horiz-adv-x="1056" 
d="M289 4l753 1395h-755q-14 0 -4 51q5 51 20 51h875q6 0 6.5 -6.5t-2.5 -28.5q-6 -35 -17 -57l-751 -1405q-6 -12 -64 -12h-19.5t-20 1t-18 4t-3.5 7z" />
    <glyph glyph-name="eight" unicode="8" horiz-adv-x="1226" 
d="M618 -25q-203 0 -314.5 109t-88.5 283l6 45q13 79 47 143t80.5 104.5t90 65t89.5 39.5q-27 12 -57 37.5t-61 66.5t-46 104.5t-4 135.5l5 27q62 391 483 391q204 0 298 -101t75 -290l-2 -21q-12 -75 -43 -137t-72 -103t-80 -67t-80 -41q41 -14 77.5 -41.5t68 -69.5
t44.5 -106t1 -139l-7 -39q-30 -192 -165 -294t-345 -102zM727 719q-76 0 -139.5 -17t-117 -52.5t-89.5 -96.5t-49 -143l-6 -41q-22 -143 62.5 -222t236.5 -79q147 0 259 80t134 223l6 39q51 309 -297 309zM475 1141l-6 -33q-24 -148 52 -224.5t220 -76.5q150 0 246.5 75.5
t120.5 225.5l4 27q26 160 -48 228.5t-224 68.5q-319 0 -365 -291z" />
    <glyph glyph-name="nine" unicode="9" horiz-adv-x="1267" 
d="M850 1526q146 0 243.5 -65t133.5 -168.5t16 -229.5l-102 -637q-71 -451 -545 -451q-196 0 -358 88q-6 4 5.5 30.5t27.5 50.5t22 20q56 -38 141.5 -61t179.5 -23q184 0 284.5 92t125.5 252l47 295q-43 -76 -147 -139.5t-244 -63.5q-133 0 -228 64t-133.5 164.5
t-19.5 216.5l20 129q32 205 166 320.5t365 115.5zM434 1096l-20 -138q-26 -160 51 -251t233 -91q158 0 273 98.5t141 258.5l18 121q23 149 -56 241t-236 92q-158 0 -267.5 -83t-136.5 -248z" />
    <glyph glyph-name="colon" unicode=":" horiz-adv-x="464" 
d="M256 -8h-18t-17.5 1t-15.5 4t-4 7l39 244q2 12 59 12h18t17.5 -1t15.5 -4t4 -7l-39 -244q-2 -12 -59 -12zM391 850h-18t-17.5 1t-15.5 4t-4 7l39 244q2 12 59 12h18t17.5 -1t15.5 -4t4 -7l-38 -244q-2 -12 -60 -12z" />
    <glyph glyph-name="semicolon" unicode=";" horiz-adv-x="464" 
d="M66 -199q-26 22 -11 37q74 71 101 139t55 246q2 13 57 13q10 0 17.5 -0.5t17 -1.5t15 -4t4.5 -7q-26 -158 -77.5 -258t-140.5 -174q-16 -12 -38 10zM360 850h-18t-17.5 1t-15.5 4t-4 7l39 244q2 12 59 12h18t17.5 -1t16 -4t4.5 -7l-39 -244q-2 -12 -60 -12z" />
    <glyph glyph-name="less" unicode="&#x3c;" horiz-adv-x="1087" 
d="M272 557l689 256q4 1 7 -3.5t4 -15.5t1 -18v-18q0 -58 -12 -62l-586 -204l586 -193q12 -4 12 -55v-19t-1 -19t-4 -17t-7 -3l-689 252q-12 5 -12 60q0 53 12 59z" />
    <glyph glyph-name="equal" unicode="=" horiz-adv-x="1087" 
d="M264 600q-12 0 -12 49t12 49h735q13 0 13 -49t-13 -49h-735zM264 311q-12 0 -12 49q0 50 12 50h735q13 0 13 -50q0 -49 -13 -49h-735z" />
    <glyph glyph-name="greater" unicode="&#x3e;" horiz-adv-x="1087" 
d="M315 813l689 -256q14 -6 14 -59q0 -54 -14 -60l-689 -252q-9 -4 -11 22q-1 7 -1 36q0 51 12 55l586 193l-586 204q-12 4 -12 62v18t1 18t4 15.5t7 3.5z" />
    <glyph glyph-name="question" unicode="?" horiz-adv-x="919" 
d="M655 1421q-114 0 -249 -88q-10 -6 -24.5 16.5t-19 46.5t4.5 34q153 96 295 96q90 0 158 -32.5t104.5 -85.5t50 -118t2.5 -133q-11 -63 -46 -123t-80.5 -104t-98 -93.5t-97.5 -92.5t-79.5 -99.5t-43.5 -114.5l-12 -69q-2 -12 -55 -12h-19t-15 1t-12.5 4t-2.5 7l12 71
q12 78 58 151t103.5 129.5t115 111t102 117.5t55.5 126q11 48 2 94t-31 81.5t-68 57t-110 21.5zM393 -8h-18t-17.5 1t-15.5 4t-4 7l39 244q2 12 59 12h18t17.5 -1t16 -4t4.5 -7l-39 -244q-2 -12 -60 -12z" />
    <glyph glyph-name="at" unicode="@" horiz-adv-x="1779" 
d="M1376 147q-44 0 -79.5 15t-57 36t-37 48.5t-22 48t-9.5 39.5q-17 -29 -39.5 -57t-61 -65t-91.5 -60t-111 -23q-133 0 -200.5 92t-44.5 240q6 43 19.5 130t19.5 130q24 148 119.5 232.5t254.5 84.5q80 0 156 -23.5t112 -46.5l37 -24q-13 -86 -40 -259t-41 -259
q-6 -19 -1 -51.5t14 -64t37 -54.5t68 -23q78 0 137 61.5t76 162.5q9 58 27 171t27 171q5 33 5.5 65.5t-4.5 69.5t-17 71.5t-34 69t-52 64t-73.5 55t-97.5 43.5t-126 28.5t-156 10.5q-101 0 -186 -14.5t-149.5 -40t-117.5 -64.5t-90.5 -82.5t-67.5 -100t-49 -111.5
t-35 -122.5t-26.5 -127t-21.5 -131.5l-3 -21q-14 -72 -8.5 -140.5t22.5 -129t57.5 -111.5t97 -88t141.5 -57.5t190 -20.5t205.5 18.5t145.5 34t114 43.5q13 5 23 -19t10 -47.5t-9 -29.5q-26 -10 -59.5 -20.5t-104 -30t-160 -31.5t-178.5 -12q-94 0 -174.5 15.5t-141 43
t-110 66t-81.5 84.5t-55.5 97.5t-31.5 106.5t-10 110.5t9 109.5q7 48 22.5 144t22.5 144q22 139 84.5 253t163.5 198.5t247.5 131t327.5 46.5q94 0 175 -13t142 -35.5t112 -54t84.5 -68t61 -78t40 -83.5t21.5 -84t6.5 -81t-5.5 -74q-4 -29 -12 -89q-31 -225 -63 -322
q-66 -196 -213 -232q-36 -9 -77 -9zM1165 492q9 66 29 200t29 201q-10 5 -27.5 13t-70 21t-103.5 13q-164 0 -225 -145q-14 -32 -25.5 -81t-17 -86.5t-14.5 -101t-13 -88.5q-16 -101 28 -157t122 -56q51 0 104 31.5t91 75.5t63.5 88t29.5 72z" />
    <glyph glyph-name="A" unicode="A" horiz-adv-x="1140" 
d="M809 1509q59 0 61 -12l217 -1493q2 -12 -65 -12q-55 0 -57 12l-52 369h-571l-170 -369q-6 -12 -63 -12h-18.5t-18.5 1t-16 4t-3 7l692 1493q6 12 64 12zM389 475h512l-113 871z" />
    <glyph glyph-name="B" unicode="B" horiz-adv-x="1210" 
d="M1141 467l-19 -115q-31 -182 -144 -267t-321 -85h-454l237 1501h420q193 0 285.5 -96t68.5 -248l-12 -72q-35 -241 -274 -299q107 -25 169.5 -110.5t43.5 -208.5zM1090 1092l8 51q19 122 -42.5 190t-230.5 68h-284l-90 -565h313q125 0 214.5 61.5t111.5 194.5zM1006 356
l16 107q21 126 -49.5 199t-222.5 73h-316l-100 -635h311q70 0 125.5 11.5t106 38.5t84 79t45.5 127z" />
    <glyph glyph-name="C" unicode="C" horiz-adv-x="1134" 
d="M1288 1448q8 -8 1 -32t-23 -48t-25 -20q-71 35 -155.5 56t-159.5 21q-81 0 -152 -16t-134.5 -50.5t-106.5 -97t-56 -147.5l-117 -735q-12 -73 2.5 -128t46.5 -87.5t83 -53t104 -27.5t119 -7q195 0 336 65q5 2 11 -7.5t10.5 -24t7.5 -29.5t2.5 -27t-5.5 -14
q-60 -27 -172.5 -45.5t-204.5 -18.5q-247 0 -367 105.5t-87 312.5l114 721q16 108 64.5 188.5t123 128.5t166.5 71.5t204 23.5q103 0 206.5 -23t163.5 -55z" />
    <glyph glyph-name="D" unicode="D" horiz-adv-x="1327" 
d="M1313 1081l-109 -682q-32 -213 -154 -306t-364 -93h-483l237 1501h488q116 0 199.5 -32.5t126 -89t59.5 -133t0 -165.5zM1087 399l109 684q25 156 -47 236t-254 80h-354l-207 -1297h346q198 0 290 68t117 229z" />
    <glyph glyph-name="E" unicode="E" horiz-adv-x="1044" 
d="M950 53q-1 -3 -2 -9t-1.5 -10t-2 -10t-3 -9.5l-3 -7t-4 -5.5t-4.5 -2h-727l237 1501h723q13 0 2 -53q-5 -51 -18 -51h-606l-90 -561h530q14 0 4 -52q-5 -51 -20 -51h-531l-98 -629h610q2 0 4 -1.5t2.5 -5t0.5 -7v-9t-0.5 -9.5t-1.5 -10t-1 -9z" />
    <glyph glyph-name="F" unicode="F" horiz-adv-x="980" 
d="M1143 1448q-5 -51 -19 -51h-583l-92 -572h530q15 0 4 -53q-5 -53 -20 -53h-531l-113 -715q-2 -12 -61 -12h-18t-17.5 1t-15.5 4t-4 7l237 1497h701q13 0 2 -53z" />
    <glyph glyph-name="G" unicode="G" horiz-adv-x="1355" 
d="M1135 385l47 299h-295q-13 0 -2 53q5 54 20 54h412l-66 -406q-33 -209 -180 -309.5t-385 -100.5q-226 0 -349 113.5t-91 310.5l114 715q33 216 178.5 314t403.5 98q87 0 188 -23t160 -55q8 -8 1 -32t-23 -48t-25 -20q-69 34 -155.5 53.5t-163.5 19.5q-52 0 -101.5 -6.5
t-109 -26t-105.5 -51.5t-82.5 -88t-48.5 -129l-115 -727q-12 -76 5 -134.5t51.5 -91.5t86 -54t99 -28t98.5 -7t99 6t105.5 26t102 52.5t79.5 89.5t47 133z" />
    <glyph glyph-name="H" unicode="H" horiz-adv-x="1386" 
d="M1184 4q-2 -12 -60 -12h-18t-18 1t-16.5 4t-4.5 7l115 729h-748l-115 -729q-2 -12 -59 -12h-18t-18 1t-16.5 4t-4.5 7l235 1493q2 12 62 12h18t17.5 -1t15.5 -4t4 -7l-102 -655h747l103 655q2 12 61 12h18t17.5 -1t15.5 -4t4 -7z" />
    <glyph glyph-name="I" unicode="I" horiz-adv-x="538" 
d="M338 4q-2 -12 -62 -12h-18t-17.5 1t-15.5 4t-4 7l236 1493q2 12 59 12h18t18 -1t16.5 -4t4.5 -7z" />
    <glyph glyph-name="J" unicode="J" horiz-adv-x="645" 
d="M680 1497l-197 -1247q-22 -132 -97 -191t-224 -59h-105q-15 0 -4 53q5 51 21 51h110q85 0 128 35t55 117l196 1241q2 12 60 12h18t18 -1t16.5 -4t4.5 -7z" />
    <glyph glyph-name="K" unicode="K" horiz-adv-x="1140" 
d="M408 555l-89 -551q-2 -12 -61 -12h-18t-17.5 1t-15.5 4t-4 7l235 1493q2 12 64 12h17.5t16.5 -1t15 -4t4 -7l-121 -776l731 776q12 12 74 12h22t24 -1t21.5 -4t2.5 -7l-641 -680l422 -813q3 -4 -4.5 -7t-23 -4t-24.5 -1h-22q-52 0 -60 12l-374 729z" />
    <glyph glyph-name="L" unicode="L" horiz-adv-x="985" 
d="M983 55q-1 -3 -2.5 -13t-3 -15.5t-3.5 -12.5t-5 -10.5t-6 -3.5h-760l235 1497q2 12 60 12h18t18 -1t16.5 -4t4.5 -7l-219 -1386h643q10 0 4 -56z" />
    <glyph glyph-name="M" unicode="M" horiz-adv-x="1591" 
d="M1389 4q-2 -12 -62 -12h-17t-15 1t-13.5 4t-3.5 7q33 203 125 795q7 42 26.5 180t34 222.5t31.5 144.5q-106 -223 -318 -671t-317 -671q-6 -12 -69 -12q-56 0 -58 12q-35 224 -103.5 672.5t-103.5 673.5h-4q-8 -97 -78 -549q-79 -510 -125 -797q-2 -12 -59 -12h-18t-18 1
t-16.5 4t-4.5 7q39 249 117.5 746.5t117.5 746.5q2 12 90 12q78 0 80 -14q18 -115 70 -422.5t84 -526t53 -425.5q85 208 187.5 430t245.5 519t204 427q6 12 78 12h21.5t21 -0.5t21 -1t15.5 -2t11.5 -3.5t3.5 -5q-39 -249 -117.5 -746.5t-117.5 -746.5z" />
    <glyph glyph-name="N" unicode="N" horiz-adv-x="1411" 
d="M1208 4q-2 -12 -90 -12q-72 0 -76 12q-50 136 -151.5 409.5t-151.5 409.5q-18 48 -90.5 248t-113.5 307h-3q-26 -205 -60 -429t-83 -516.5t-70 -428.5q-2 -12 -59 -12h-18t-18 1t-16.5 4t-4.5 7q39 249 117.5 746.5t117.5 746.5q2 12 90 12q84 0 88 -12
q46 -128 139.5 -384t139.5 -384q43 -111 116.5 -316t102.5 -282h2q57 391 211 1366q2 12 59 12h20.5t18 -1t15.5 -4t4 -7q-39 -249 -118 -746.5t-118 -746.5z" />
    <glyph glyph-name="O" unicode="O" horiz-adv-x="1386" 
d="M1262 377q-15 -104 -64 -182.5t-125 -126t-170 -70.5t-207 -23q-238 0 -360 106.5t-90 305.5q23 137 61 388.5t53 344.5q16 104 65 183t123.5 127t167 72t202.5 24q246 0 368.5 -105.5t89.5 -318.5q-23 -136 -61.5 -385.5t-52.5 -339.5zM1145 377q20 124 59 371.5
t58 371.5q25 156 -68 229.5t-276 73.5t-299.5 -73.5t-141.5 -229.5q-15 -99 -46.5 -296.5t-47.5 -297.5q-4 -24 -11.5 -74.5t-11.5 -74.5q-25 -153 67.5 -227t274.5 -74t300 74t143 227z" />
    <glyph glyph-name="P" unicode="P" horiz-adv-x="1153" 
d="M1214 1104l-20 -133q-15 -92 -47 -162t-88.5 -126.5t-147 -86t-211.5 -29.5h-292l-89 -563q-2 -12 -61 -12h-18t-18 1t-16.5 4t-4.5 7l237 1497h412q113 0 193 -30.5t119 -83.5t53.5 -126t-1.5 -157zM1075 969l23 135q25 155 -39.5 226t-235.5 71h-282l-117 -733h283
q169 0 256.5 74.5t111.5 226.5z" />
    <glyph glyph-name="Q" unicode="Q" horiz-adv-x="1427" 
d="M1270 377q-20 -138 -100 -230t-196.5 -132t-268.5 -40q-238 0 -360.5 106.5t-90.5 305.5q23 139 62.5 394.5t52.5 338.5q22 138 101 231t193.5 134t262.5 41q246 0 368.5 -105.5t89.5 -318.5q-23 -136 -61.5 -385.5t-52.5 -339.5zM1153 377q20 124 59 371.5t58 371.5
q25 156 -68 229.5t-276 73.5t-299.5 -73.5t-141.5 -229.5q-16 -99 -47 -296.5t-47 -297.5q-4 -24 -11 -74.5t-11 -74.5q-25 -153 67.5 -227t274.5 -74t299.5 74t142.5 227zM1276 -184q13 0 8 -45q-6 -37 -23.5 -48.5t-52.5 -11.5q-62 0 -131 20t-119 44.5t-109.5 44.5
t-103.5 20q-17 0 -39.5 -4t-25.5 -4q-11 0 -6 47q4 22 9 33.5t17 17.5t22.5 6.5t37.5 0.5h14q61 0 141.5 -31t159.5 -62.5t137 -31.5q16 0 39 2t25 2z" />
    <glyph glyph-name="R" unicode="R" horiz-adv-x="1206" 
d="M885 621l198 -617q1 -4 -6 -7t-21 -4t-23 -1h-21q-52 0 -56 12l-184 596h-350l-94 -596q-2 -12 -62 -12h-18t-18 1t-16.5 4t-4.5 7l237 1497h412q91 0 160.5 -20.5t112 -56.5t68.5 -85.5t29.5 -109t-5.5 -125.5l-17 -100q-26 -161 -99 -253.5t-222 -129.5zM1090 1001
l16 103q25 155 -39.5 226t-235.5 71h-282l-111 -701h283q170 0 257 72t112 229z" />
    <glyph glyph-name="S" unicode="S" horiz-adv-x="1095" 
d="M1053 381q-29 -185 -177.5 -295.5t-363.5 -110.5q-110 0 -216 40.5t-185 103.5q-8 7 4.5 34t31 50t25.5 18q63 -53 159.5 -95t194.5 -42q158 0 269.5 83.5t134.5 227.5q11 65 -2.5 114.5t-58.5 89.5t-80.5 62t-111.5 61q-33 17 -50 26q-66 35 -100.5 55t-87.5 62.5
t-77.5 83t-39 103t-3.5 136.5q24 150 152.5 244t325.5 94q185 0 346 -92q9 -5 0 -32t-25 -50t-24 -17q-59 39 -143 61.5t-163 22.5q-142 0 -238 -66t-114 -186q-9 -58 6 -105t60.5 -85t77 -57t96.5 -52q24 -12 35 -18q66 -34 109.5 -60t98 -70.5t84.5 -89.5t46 -110t4 -139z
" />
    <glyph glyph-name="T" unicode="T" horiz-adv-x="1001" 
d="M1221 1452q-10 -51 -21 -51h-414l-221 -1397q-2 -12 -59 -12h-18t-18 1t-16.5 4t-4.5 7l221 1397h-426q-14 0 -4 51q5 49 20 49h957q3 0 5 -3t2 -9v-10.5t-1.5 -14t-1.5 -12.5z" />
    <glyph glyph-name="U" unicode="U" horiz-adv-x="1320" 
d="M1368 1497l-176 -1112q-14 -87 -49 -157.5t-97 -129t-162 -91t-231 -32.5q-115 0 -200.5 33t-133.5 90t-66 130.5t-5 156.5l176 1112q2 12 61 12h18t17.5 -1t16 -4t4.5 -7l-179 -1122q-22 -143 55 -221t251 -78q175 0 280 78.5t127 220.5l178 1122q2 12 58 12h18t18 -1
t16.5 -4t4.5 -7z" />
    <glyph glyph-name="V" unicode="V" horiz-adv-x="1140" 
d="M1327 1497l-688 -1493q-6 -12 -72 -12q-71 0 -73 12l-222 1493q-1 4 5.5 7t19 4t20 1h19.5q57 0 59 -12l107 -782q35 -255 76 -600h4q39 91 268 598l352 784q6 12 66 12h19.5t19 -1t17 -4t3.5 -7z" />
    <glyph glyph-name="W" unicode="W" horiz-adv-x="1744" 
d="M1907 1497l-568 -1493q-4 -12 -75 -12q-74 0 -74 12l-66 811q-27 315 -37 522h-2q-117 -325 -188 -510l-311 -823q-4 -12 -74 -12t-70 12l-133 1493q-1 4 5.5 7t19 4t20 1h19.5q55 0 55 -12l59 -752q4 -63 14.5 -196t17 -236t9.5 -196h2q65 201 224 626l284 754
q4 12 72 12q59 0 59 -12l64 -752q5 -61 17 -195t19.5 -237.5t10.5 -195.5h2q32 94 69.5 198.5t85 234t72.5 198.5l273 749q4 12 65 12h19.5t19 -1t17 -4t4.5 -7z" />
    <glyph glyph-name="X" unicode="X" horiz-adv-x="1134" 
d="M686 662l-506 -658q-10 -12 -71 -12h-21t-22.5 1t-19.5 4t-3 7l588 752l-342 741q-2 4 4 7t18.5 4t20.5 1h20q58 0 64 -12l289 -653l487 653q10 12 68 12h20.5t21.5 -1t18.5 -4t2.5 -7l-561 -743l330 -750q2 -4 -4.5 -7t-19.5 -4t-21.5 -1h-20.5q-53 0 -59 12z" />
    <glyph glyph-name="Y" unicode="Y" horiz-adv-x="1075" 
d="M1278 1495l-588 -856l-100 -635q-2 -12 -60 -12h-18t-18 1t-16.5 4t-4.5 7l100 633l-305 858q-1 4 5.5 7t18 4.5t21.5 2t19 0.5q56 0 61 -14l254 -750l504 750q9 14 74 14q11 0 18.5 -0.5t18.5 -1.5t15.5 -4t0.5 -8z" />
    <glyph glyph-name="Z" unicode="Z" horiz-adv-x="1093" 
d="M1028 51q-5 -51 -18 -51h-938l10 66l987 1329h-743q-13 0 -2 55q5 51 20 51h897l-12 -69l-981 -1326h778q13 0 2 -55z" />
    <glyph glyph-name="bracketleft" unicode="[" horiz-adv-x="661" 
d="M492 -276h-340l290 1837h340q8 0 8.5 -15t-2.5 -30q-10 -48 -20 -48h-227l-262 -1652h227q11 0 6 -47q-9 -45 -20 -45z" />
    <glyph glyph-name="backslash" unicode="\" horiz-adv-x="860" 
d="M651 4l-311 1493q0 2 2.5 3.5t8 3t12 2.5t13.5 1.5t13.5 1t11.5 0.5q58 0 60 -12l307 -1495q1 -3 -5 -5.5t-16.5 -3.5t-17 -1h-16.5q-60 0 -62 12z" />
    <glyph glyph-name="bracketright" unicode="]" horiz-adv-x="661" 
d="M420 -276h-340q-13 0 -4 45q5 47 18 47h228l262 1650h-228q-13 0 -4 47q5 46 19 46h340z" />
    <glyph glyph-name="asciicircum" unicode="^" horiz-adv-x="1087" 
d="M748 1460l274 -696q1 -4 -4.5 -7t-17 -4t-19 -1h-18.5q-58 0 -62 12l-221 592l-211 -592q-5 -12 -59 -12q-58 0 -59 9q0 2 1 3l269 696q6 13 57 13h6q53 0 61 -9q2 -2 3 -4z" />
    <glyph glyph-name="underscore" unicode="_" horiz-adv-x="835" 
d="M20 -256v123h795v-123h-795z" />
    <glyph glyph-name="grave" unicode="`" horiz-adv-x="983" 
d="M717 1241l-162 281q-11 17 21 22l38 2q30 0 42 -2t16 -10l137 -289q6 -10 -4.5 -13t-36.5 -3q-41 0 -51 12z" />
    <glyph glyph-name="a" unicode="a" horiz-adv-x="1083" 
d="M1075 1028q-27 -171 -81.5 -512t-82.5 -512q-2 -12 -59 -12h-17t-15 1t-13.5 4t-3.5 7q9 56 27.5 166.5t27.5 165.5q-200 -361 -465 -361q-131 0 -198 98t-41 263q10 66 30.5 198t30.5 197q62 402 467 402q105 0 217 -33t176 -72zM887 532q11 73 33 220t34 221
q-118 63 -278 63q-303 0 -352 -323q-9 -63 -29 -188.5t-29 -188.5q-20 -126 25.5 -193t136.5 -67q215 0 459 456z" />
    <glyph glyph-name="b" unicode="b" horiz-adv-x="1128" 
d="M1110 733l-57 -358q-64 -400 -482 -400q-196 0 -287.5 103.5t-62.5 292.5l182 1151q2 12 58 12h17.5t16.5 -1t15 -4t4 -7l-94 -594q65 94 165.5 149.5t225.5 55.5q160 0 245 -104.5t54 -295.5zM946 395l51 320q26 162 -40 238.5t-187 76.5q-146 0 -255 -98t-130 -234
l-49 -303q-27 -169 37.5 -245t212.5 -76q152 0 242 74.5t118 246.5z" />
    <glyph glyph-name="c" unicode="c" horiz-adv-x="983" 
d="M541 -25q-174 0 -274.5 111t-73.5 289l57 358q31 194 152.5 297t320.5 103q102 0 175.5 -29.5t141.5 -85.5q10 -13 0.5 -36.5t-29 -43.5t-28.5 -12q-1 0 -16.5 13.5t-27.5 23t-37 24t-49.5 24t-59 16.5t-70.5 7q-316 0 -365 -319l-51 -322q-26 -156 44 -237.5t212 -81.5
q50 0 96.5 10t87.5 29.5t65 34t56 36.5q12 8 28.5 -10.5t22 -39.5t-3.5 -32q-153 -127 -374 -127z" />
    <glyph glyph-name="d" unicode="d" horiz-adv-x="1144" 
d="M1124 1497l-237 -1493q-2 -12 -58 -12h-17.5t-16 1t-14 4t-3.5 7l53 334q-1 -1 -3 -6q-117 -206 -262 -298q-93 -59 -187 -59q-143 0 -211.5 103.5t-42.5 255.5l68 397q65 402 442 402q64 0 120.5 -19.5t92 -48t56.5 -53t28 -43.5l84 528q2 12 55 12h17.5t16.5 -1t15 -4
t4 -7zM860 537l33 200q20 119 -53 208t-193 89q-136 0 -228 -76.5t-120 -244.5l-59 -371q-22 -135 22.5 -201.5t140.5 -66.5q106 0 217.5 118t239.5 345z" />
    <glyph glyph-name="e" unicode="e" horiz-adv-x="1093" 
d="M1010 745q-17 -78 -57.5 -137t-96 -93.5t-125.5 -57.5t-147 -30t-161 -9t-167 4l-12 -78q-19 -131 58.5 -201.5t234.5 -70.5q162 0 342 92q11 8 27 -12t21.5 -41.5t-3.5 -30.5q-72 -42 -177.5 -73.5t-224.5 -31.5q-216 0 -315.5 112.5t-65.5 315.5l54 322q69 408 471 408
q195 0 288.5 -106.5t55.5 -281.5zM909 770q24 119 -40.5 192.5t-211.5 73.5q-134 0 -229 -78.5t-123 -244.5l-33 -203q218 -9 348.5 13.5t199 81.5t89.5 165z" />
    <glyph glyph-name="f" unicode="f" horiz-adv-x="616" 
d="M696 1034q-5 -47 -18 -47h-189l-155 -983q-2 -12 -58 -12h-17.5t-16.5 1t-15 4t-4 7l156 983h-152q-11 0 -6 47q9 45 21 45h151l35 221q15 101 83 163.5t169 62.5h115q13 0 6 -49q-6 -30 -10 -38.5t-11 -8.5h-98q-121 0 -147 -150l-31 -201h188q13 0 4 -45z" />
    <glyph glyph-name="g" unicode="g" horiz-adv-x="1140" 
d="M1157 1028q-24 -155 -147 -932q-18 -130 -49 -224t-86 -168t-141.5 -111t-205.5 -37q-82 0 -160.5 20.5t-113.5 38t-51 29.5q-11 14 -4 37t24.5 43t26.5 14q46 -34 125 -60t164 -26q69 0 125 18q173 60 215 305q10 60 29.5 181t29.5 182l-8 -14q-8 -14 -17.5 -30t-26 -41
t-34.5 -49.5t-42 -52.5t-49 -52.5t-55.5 -48t-61 -39.5t-66 -26t-70.5 -10q-155 0 -228 93t-49 247q12 70 33.5 208.5t32.5 207.5q30 195 150.5 298.5t306.5 103.5q102 0 202.5 -26.5t150.5 -52.5zM969 537q11 71 33 213.5t34 214.5q-14 8 -38.5 19t-98.5 29.5t-145 18.5
q-56 0 -101 -10t-80 -32t-61 -51t-46.5 -73t-35.5 -91t-28 -113t-23.5 -130.5t-23.5 -151.5q-7 -49 -11 -75q-15 -104 26.5 -167.5t135.5 -63.5q54 0 114.5 35.5t111 88t100 119t81.5 120t56 100.5z" />
    <glyph glyph-name="h" unicode="h" 
d="M967 4q-2 -12 -58 -12h-17.5t-16.5 1t-15 4t-4 7l123 772q18 118 -30.5 182t-143.5 64q-33 0 -67 -8.5t-64.5 -22t-60 -32t-55 -38.5t-48 -40t-40 -38t-30.5 -31.5t-20 -21.5l-6 -8l-123 -778q-2 -12 -58 -12h-17.5t-16.5 1t-15 4t-4 7l240 1518q2 12 59 12h17.5t16 -1
t14 -4t3.5 -7l-96 -611q188 222 408 222q125 0 200 -92.5t52 -235.5z" />
    <glyph glyph-name="i" unicode="i" horiz-adv-x="471" 
d="M233 -8h-17.5t-16.5 1t-15 4t-4 7l174 1102q2 12 58 12h17.5t16.5 -1t15 -4t4 -7l-174 -1102q-2 -12 -58 -12zM438 1292q-10 0 -17.5 0.5t-17 1.5t-14.5 4t-4 7l35 217q2 12 57 12h17.5t16.5 -1t15 -4t4 -7l-34 -217q-2 -13 -58 -13z" />
    <glyph glyph-name="j" unicode="j" horiz-adv-x="489" 
d="M59 -418h-116q-13 0 -4 47q5 47 18 47h82q107 0 123 99l211 1329q2 12 57 12h17.5t16.5 -1t15 -4t4 -7l-211 -1329q-14 -90 -68.5 -141.5t-144.5 -51.5zM457 1292q-10 0 -17.5 0.5t-17 1.5t-15 4t-4.5 7l35 217q2 12 58 12h17.5t16.5 -1t15 -4t4 -7l-35 -217
q-2 -13 -57 -13z" />
    <glyph glyph-name="k" unicode="k" horiz-adv-x="946" 
d="M1067 1104l-537 -510l383 -590q2 -4 -5.5 -7t-22 -4t-24 -1h-21.5q-50 0 -56 12l-338 518l-86 -73l-69 -445q-2 -12 -60 -12h-17.5t-16 1t-14 4t-3.5 7l240 1518q2 12 57 12h17.5t16.5 -1t15 -4t4 -7l-147 -928l539 512q12 12 67 12q85 -1 78 -14z" />
    <glyph glyph-name="l" unicode="l" horiz-adv-x="528" 
d="M471 0h-84q-96 0 -144.5 59.5t-33.5 151.5l207 1311q2 12 57 12h17.5t16.5 -1t15 -4t4 -7l-207 -1307q-10 -64 16.5 -92.5t94.5 -28.5h55q11 0 13 -7t-2 -38q-4 -32 -9 -40.5t-16 -8.5z" />
    <glyph glyph-name="m" unicode="m" horiz-adv-x="1658" 
d="M1012 762l-119 -758q-2 -12 -57 -12h-17.5t-17 1t-15.5 4t-4 7l123 772q18 116 -21 180t-120 64t-182 -82.5t-172 -181.5l-119 -752q-2 -12 -58 -12h-17.5t-16.5 1t-15 4t-4 7l174 1102q2 12 56 12h17.5t16.5 -1t15 -4t4 -7l-33 -213q38 50 74 88t82 75t98.5 57t106.5 20
q106 0 166.5 -74t62.5 -166q90 112 178.5 176t185.5 64q125 0 194 -85.5t46 -228.5l-129 -815q-2 -12 -57 -12h-17.5t-17 1t-15.5 4t-4 7l123 772q37 244 -137 244q-84 0 -182.5 -75.5t-175.5 -182.5z" />
    <glyph glyph-name="n" unicode="n" 
d="M967 4q-2 -12 -58 -12h-17.5t-16.5 1t-15 4t-4 7l119 752q21 134 -23.5 200t-146.5 66q-97 0 -202 -73.5t-191 -176.5l-121 -768q-2 -12 -58 -12h-17.5t-16.5 1t-15 4t-4 7l174 1102q2 12 58 12h17.5t16 -1t14 -4t3.5 -7l-31 -199q87 102 192.5 164t221.5 62
q126 0 198.5 -92t49.5 -236z" />
    <glyph glyph-name="o" unicode="o" horiz-adv-x="1122" 
d="M559 -25q-197 0 -297.5 105.5t-71.5 294.5l58 358q64 400 485 400q201 0 300 -111t71 -289l-57 -358q-30 -194 -153 -297t-335 -103zM991 715q27 167 -43.5 242t-226.5 75q-155 0 -246.5 -74.5t-118.5 -242.5l-51 -322q-27 -168 41.5 -243.5t222.5 -75.5
q157 0 250.5 74.5t120.5 244.5z" />
    <glyph glyph-name="p" unicode="p" horiz-adv-x="1071" 
d="M1051 717q-8 -52 -25 -157t-25 -157q-15 -93 -41.5 -165.5t-71.5 -134t-116.5 -95t-165.5 -33.5q-65 0 -123 24t-95 58.5t-64.5 69t-39.5 58.5l-12 24q-16 -102 -49.5 -304.5t-50.5 -303.5q-3 -19 -53 -19q-17 0 -28.5 1.5t-20 5.5t-7.5 12l228 1431q24 11 65 28t151 45
t200 28q202 0 289.5 -108t54.5 -308zM881 352q9 59 28.5 179t28.5 180q27 169 -37.5 241t-210.5 72q-54 0 -128.5 -18t-122.5 -36l-48 -18q-16 -94 -47.5 -283.5t-46.5 -283.5q113 -307 328 -307q108 0 172.5 78.5t83.5 195.5z" />
    <glyph glyph-name="q" unicode="q" horiz-adv-x="1144" 
d="M1075 1028q-39 -239 -117.5 -717t-117.5 -717q-2 -12 -60 -12h-17t-15 1t-13.5 4t-3.5 7q21 124 63 373t62 373q-24 -44 -52 -86t-74.5 -95t-95 -91.5t-114.5 -65.5t-133 -27q-131 0 -195.5 96.5t-37.5 264.5q10 66 30.5 198t30.5 197q62 402 467 402q105 0 217 -33
t176 -72zM883 506q12 78 35.5 233.5t35.5 233.5q-118 63 -278 63q-303 0 -352 -323q-9 -63 -29 -188.5t-29 -188.5q-20 -128 18.5 -194t123.5 -66q72 0 145.5 41.5t135 110.5t108.5 136.5t86 141.5z" />
    <glyph glyph-name="r" unicode="r" horiz-adv-x="669" 
d="M791 999h-66q-65 0 -137.5 -59.5t-181.5 -194.5l-117 -741q-2 -12 -58 -12h-17.5t-16 1t-14 4t-3.5 7l174 1102q2 12 56 12h17t15 -1t13.5 -4t3.5 -7l-39 -248q120 147 192 201.5t160 54.5h41q14 0 2 -59q-11 -56 -24 -56z" />
    <glyph glyph-name="s" unicode="s" horiz-adv-x="870" 
d="M416 -25q-75 0 -163 25t-142 59q-7 5 4 30.5t27.5 47.5t23.5 17q129 -80 256 -80q114 0 196 64t93 153q7 61 -17 109.5t-68 81t-98 61.5t-107 59t-95 65t-62 88t-8 119q21 112 120.5 185.5t252.5 73.5q151 0 254 -48q13 -7 -7 -53t-30 -43q-63 23 -112.5 34t-121.5 11
q-101 0 -168.5 -49.5t-81.5 -122.5q-9 -46 14 -83t66.5 -64.5t97.5 -54.5t108 -60.5t96.5 -74t64 -103.5t10.5 -141q-8 -56 -39.5 -110t-81.5 -98t-124 -71t-158 -27z" />
    <glyph glyph-name="t" unicode="t" horiz-adv-x="690" 
d="M571 0h-139q-98 0 -145.5 59t-32.5 152l123 776h-156q-13 0 -8 45q9 47 23 47h155l43 269q2 12 58 12h17.5t16.5 -1t15 -4t4 -7l-43 -269h241q13 0 5 -47q-7 -45 -19 -45h-242l-122 -772q-10 -64 15 -91.5t93 -27.5h113q11 0 13 -7t-3 -38q-4 -33 -9 -42t-16 -9z" />
    <glyph glyph-name="u" unicode="u" 
d="M338 1106q2 12 57 12h17.5t17 -1t15.5 -4t4 -7l-123 -774q-18 -118 27.5 -183t135.5 -65q33 0 67.5 8.5t65.5 23.5t62 34t57 40t50 42t42.5 39.5t32 33.5t20.5 23l7 8l121 770q2 12 57 12h17.5t16.5 -1t15 -4t4 -7l-174 -1102q-2 -12 -57 -12h-17.5t-16 1t-14 4t-3.5 7
l30 199q-85 -100 -190.5 -164t-206.5 -64q-133 0 -210 92t-54 236z" />
    <glyph glyph-name="v" unicode="v" horiz-adv-x="917" 
d="M1059 1106l-537 -1102q-6 -12 -69 -12q-60 0 -62 12l-184 1102q-1 4 5 7t18 4t19.5 1h18.5q58 0 60 -12l90 -586q49 -359 55 -420h4q78 184 191 422l274 584q6 12 62 12h18.5t18.5 -1t15.5 -4t2.5 -7z" />
    <glyph glyph-name="w" unicode="w" horiz-adv-x="1343" 
d="M862 4l-37 598q-10 246 -8 342h-4q-75 -214 -125 -344l-233 -596q-4 -12 -70 -12q-59 0 -59 12l-88 1102q0 12 61 12q57 0 57 -12l35 -574q17 -291 17 -417h4q23 68 155 420l221 571q4 12 58 12q55 0 55 -12l33 -574q15 -333 16 -415h4q19 60 45 128.5t62.5 161
t50.5 128.5l225 571q4 12 60 12h18.5t19 -1t16.5 -4t3 -7l-461 -1102q-6 -12 -69 -12q-62 0 -62 12z" />
    <glyph glyph-name="x" unicode="x" horiz-adv-x="894" 
d="M985 1106l-389 -545l225 -557q1 -4 -4.5 -7t-17 -4t-19 -1h-18.5q-43 0 -49 12l-187 477l-333 -477q-8 -12 -66 -12h-19.5t-19 1t-16 4t-0.5 7l403 559l-237 543q-1 4 5 7t18.5 4t20 1h19.5q47 0 51 -12l195 -457l319 457q10 12 64 12h18.5t19 -1t16 -4t1.5 -7z" />
    <glyph glyph-name="y" unicode="y" horiz-adv-x="946" 
d="M1094 1106l-766 -1505q-6 -13 -62 -13q-57 0 -58 10q0 2 1 3l211 411l-211 1094q-1 4 5 7t18 4t19.5 1h18.5q54 0 56 -12l172 -956l469 956q6 12 69 12q9 0 18.5 -0.5t20 -1.5t16 -3.5t3.5 -6.5z" />
    <glyph glyph-name="z" unicode="z" horiz-adv-x="880" 
d="M74 57l729 949h-541q-14 0 -4 49t21 49h696l-10 -57l-732 -949h605q14 0 4 -49q-2 -16 -7.5 -32.5t-11.5 -16.5h-757z" />
    <glyph glyph-name="braceleft" unicode="{" horiz-adv-x="694" 
d="M289 643v-6q98 -14 149.5 -81t34.5 -173q-12 -72 -35 -219t-35 -219q-9 -57 16.5 -89t78.5 -32h73q13 0 4 -47q-5 -53 -20 -53h-92q-82 0 -132.5 62.5t-35.5 158.5q38 281 70 440q13 85 -36 136t-147 65q-14 2 -4 53q5 48 21 51q218 29 247 211q6 38 13 100.5t12 110.5
t15 108.5t22.5 105.5t34 91t49.5 75.5t69.5 48t92.5 18.5h92q14 0 4 -50q-5 -49 -21 -49h-73q-52 0 -87 -33t-44 -90q-11 -73 -35 -221.5t-35 -222.5q-18 -106 -89.5 -171t-176.5 -79z" />
    <glyph glyph-name="bar" unicode="|" horiz-adv-x="462" 
d="M358 -539q-53 0 -53 13v2152q0 12 53 12q56 0 56 -10v-2154q0 -13 -56 -13z" />
    <glyph glyph-name="braceright" unicode="}" horiz-adv-x="694" 
d="M608 647q-101 14 -152 79t-34 171q11 73 35 220t35 220q9 57 -16.5 90t-78.5 33h-73q-10 0 -5 49q10 50 21 50h92q87 0 135 -62.5t33 -159.5q-2 -10 -5 -30.5t-5 -30.5q-9 -62 -29 -186t-29 -185q-15 -92 33.5 -144.5t147.5 -66.5q15 -2 4 -51q-5 -50 -21 -53
q-171 -23 -225 -137q-19 -35 -32 -97t-24.5 -160.5t-15.5 -121.5q-14 -98 -30 -157.5t-44.5 -106t-72.5 -65.5t-111 -19h-92q-2 0 -4 2t-2.5 5.5t-0.5 7v9.5t0.5 10t1.5 10t1 9q9 47 21 47h73q53 0 88.5 32t42.5 89q5 37 12 93.5t12 95.5t13 91t16 88.5t21.5 80t29.5 74
t39 62t50 52t63.5 36t79.5 21.5q0 1 1 3t1 3z" />
    <glyph glyph-name="asciitilde" unicode="~" horiz-adv-x="1087" 
d="M963 637q-26 -58 -86 -113t-129 -55q-50 0 -94.5 19.5t-71.5 43t-61.5 43t-65.5 19.5q-50 0 -82 -25.5t-60 -79.5q-4 -7 -20.5 3.5t-30 26.5t-10.5 24q19 43 73.5 93t123.5 50q46 0 90.5 -19.5t73.5 -43t65 -43t67 -19.5q17 0 32.5 4.5t28 11t25 17.5t20.5 20t17.5 21.5
t13.5 19.5l10 17.5t7 11.5q5 8 22 -1t31 -23.5t11 -22.5z" />
    <glyph glyph-name="nbspace" unicode="&#xa0;" horiz-adv-x="221" 
 />
    <glyph glyph-name="exclamdown" unicode="&#xa1;" horiz-adv-x="518" 
d="M475 1038l-147 -1028q-3 -18 -68 -18q-12 0 -22 0.5t-21 2.5t-17 5.5t-5 9.5l180 1028q3 15 51 15q52 0 49 -15zM496 1509h18t17.5 -1t15.5 -4t4 -7l-31 -194q-2 -13 -59 -13q-10 0 -18 0.5t-17.5 1.5t-15 4t-4.5 7l30 194q2 12 60 12z" />
    <glyph glyph-name="cent" unicode="&#xa2;" horiz-adv-x="1191" 
d="M899 1290l-25 -157q81 -7 142 -35.5t121 -77.5q10 -13 1.5 -35.5t-27 -41.5t-26.5 -11q-1 1 -11 8t-17 12.5t-21 14.5t-27 16t-30.5 15.5t-35.5 14.5t-38.5 11.5t-43.5 8.5t-46 3q-150 0 -241 -80t-117 -239l-51 -324q-26 -158 40.5 -238.5t215.5 -80.5q65 0 128 19.5
t95 38t76 48.5q12 8 30.5 -9.5t26 -38t-1.5 -30.5q-54 -44 -143 -78.5t-181 -43.5l-24 -158q-2 -12 -58 -12h-17.5t-16 1t-14 4t-3.5 7l25 155q-157 23 -238.5 123.5t-54.5 274.5l57 360q29 180 136.5 284t279.5 114l24 157q2 13 58 13q10 0 17.5 -0.5t17 -1.5t14.5 -4t4 -7
z" />
    <glyph glyph-name="sterling" unicode="&#xa3;" horiz-adv-x="1304" 
d="M1286 1356q-32 -46 -45 -35q-81 56 -149 81t-164 25q-42 0 -83 -9t-82.5 -30t-74.5 -52t-58 -78.5t-34 -106.5q-9 -54 -11.5 -111t-2.5 -135.5t-2 -130.5h335q5 0 7.5 -3t2.5 -9v-10.5t-1.5 -14t-1.5 -12.5q-10 -49 -21 -49h-332q-38 -288 -198 -578h678q14 0 4 -49
q-5 -49 -19 -49h-829q220 383 250 676h-158q-16 0 -6 51q5 47 18 47h154q3 42 6 170t14 203q31 192 153 285.5t308 93.5q82 0 171 -27t134 -50t62 -36q7 -5 -2 -23t-23 -34z" />
    <glyph glyph-name="currency" unicode="&#xa4;" horiz-adv-x="1304" 
d="M1382 1448q8 -8 2 -32t-21 -48t-24 -20q-70 34 -157 55.5t-162 21.5q-65 0 -119 -7t-111.5 -27.5t-100 -53.5t-74.5 -90t-44 -133l-30 -186h481q11 0 6 -47q-9 -47 -20 -47h-482l-30 -191h481q11 0 6 -47q-9 -47 -20 -47h-482l-26 -170q-12 -73 2 -128t45.5 -87.5t82 -53
t103 -27.5t117.5 -7q189 0 330 65q5 2 11.5 -7.5t11.5 -24t8.5 -29.5t3.5 -27t-5 -14q-60 -27 -171 -45.5t-203 -18.5q-247 0 -365.5 108t-83.5 325l23 141h-138q-13 0 -4 47q5 47 19 47h137l31 191h-138q-13 0 -4 47q5 47 19 47h137l31 186q33 216 178.5 314t402.5 98
q87 0 187 -23t159 -55z" />
    <glyph glyph-name="yen" unicode="&#xa5;" horiz-adv-x="1304" 
d="M360 485q-14 0 -4 50q5 49 21 49h303q1 9 4 27.5t4 27.5q-51 143 -152.5 429t-152.5 429q-1 4 5 7t18.5 4t20 1h19.5q56 0 60 -12q42 -125 127 -374.5t127 -374.5q84 125 252 374.5t252 374.5q8 12 75 12q11 0 18.5 -0.5t19 -1.5t16 -4t0.5 -8q-99 -143 -294.5 -428.5
t-293.5 -427.5q-1 -9 -4 -27.5t-4 -27.5h315q3 0 5 -3t2 -9v-10.5t-1.5 -14t-1.5 -12.5q-10 -50 -20 -50h-316q-12 -80 -37 -240.5t-38 -240.5q-2 -12 -60 -12h-18t-18 1t-16.5 4t-4.5 7q13 80 38.5 240.5t37.5 240.5h-304z" />
    <glyph glyph-name="brokenbar" unicode="&#xa6;" horiz-adv-x="462" 
d="M362 662q-53 0 -53 12v952q0 12 56 12q53 0 53 -12v-952q0 -12 -56 -12zM362 -543q-53 0 -53 13v952q0 12 56 12q53 0 53 -12v-952q0 -13 -56 -13z" />
    <glyph glyph-name="section" unicode="&#xa7;" horiz-adv-x="999" 
d="M907 694q-10 -63 -43.5 -117.5t-74.5 -87.5t-81.5 -51t-70.5 -16q237 -110 199 -332q-22 -127 -132 -206t-264 -79q-180 0 -307 82q-8 5 5.5 32.5t32.5 50.5t26 16q74 -49 116 -64q57 -20 127 -20q65 0 124.5 20.5t106.5 68t58 115.5q14 96 -40.5 156.5t-184.5 118.5
q-131 60 -178 142.5t-25 215.5q10 71 87.5 148.5t186.5 93.5q-117 42 -176.5 115t-40.5 192q18 113 113 186.5t248 73.5q170 0 266 -49q8 -5 -1.5 -29t-26 -45t-25.5 -18q-121 47 -213 47q-112 0 -176.5 -50.5t-77.5 -129.5q-11 -76 31.5 -127.5t181.5 -108.5
q142 -59 195 -141t34 -203zM639 907q-87 1 -158 -58.5t-88 -146.5q-15 -85 36.5 -147.5t137.5 -62.5t157.5 58t84.5 144q14 88 -35 149t-135 64z" />
    <glyph glyph-name="dieresis" unicode="&#xa8;" horiz-adv-x="1116" 
d="M594 1282q-9 0 -17.5 0.5t-18 2t-15 4.5t-4.5 7l28 191q2 14 62 14q9 0 17.5 -0.5t17.5 -2t14 -4.5t4 -7l-29 -191q-2 -14 -59 -14zM928 1282q-9 0 -17.5 0.5t-18.5 2t-15.5 4.5t-4.5 7l29 191q2 14 62 14q9 0 17.5 -0.5t17.5 -2t14 -4.5t4 -7l-29 -191q-2 -14 -59 -14z
" />
    <glyph glyph-name="copyright" unicode="&#xa9;" horiz-adv-x="1597" 
d="M1638 731q0 -148 -58 -283.5t-156 -233.5t-233.5 -156t-283.5 -58t-283.5 58t-233.5 156t-156 233.5t-58 283.5t58 283.5t156 233.5t233.5 156t283.5 58t283.5 -58t233.5 -156t156 -233.5t58 -283.5zM1554 731q0 175 -87 323.5t-236 235t-324 86.5t-323.5 -86.5
t-235 -235t-86.5 -323.5t86.5 -324t235 -236t323.5 -87t324 87t236 236t87 324zM907 283q-143 0 -224 78t-81 221v268q0 143 81 221t224 78q137 0 256 -86q8 -7 -0.5 -29.5t-23 -40t-21.5 -10.5q-108 72 -198 72q-115 0 -166.5 -53.5t-51.5 -170.5v-233q0 -115 52.5 -169
t165.5 -54q106 0 204 74q7 7 21.5 -9t23.5 -36.5t2 -26.5q-42 -39 -114 -66.5t-150 -27.5z" />
    <glyph glyph-name="ordfeminine" unicode="&#xaa;" horiz-adv-x="880" 
d="M793 733h-16t-14.5 1t-12 4t-2.5 7l14 91q-53 -51 -127 -83t-143 -32q-112 0 -171 65.5t-45 159.5l9 55q35 211 399 211h137q19 116 -15 164.5t-142 48.5q-114 0 -240 -59q-9 -4 -17.5 4.5t-13.5 24.5q-15 42 0 49q138 67 281 67q129 0 199.5 -68t48.5 -210l-78 -488
q-2 -12 -51 -12zM811 1141h-123q-146 0 -218.5 -32t-84.5 -105l-8 -56q-10 -67 25.5 -106t107.5 -39q147 0 266 119z" />
    <glyph glyph-name="guillemotleft" unicode="&#xab;" horiz-adv-x="1148" 
d="M600 647l401 469q5 7 29.5 -7.5t45 -34t14.5 -25.5l-347 -402l220 -399q4 -7 -22.5 -26.5t-56 -34t-32.5 -7.5zM195 647l401 469q5 7 29 -7.5t44.5 -34t14.5 -25.5l-346 -402l219 -399q4 -7 -22.5 -26.5t-56 -34t-32.5 -7.5z" />
    <glyph glyph-name="logicalnot" unicode="&#xac;" horiz-adv-x="1304" 
d="M1157 291q-49 0 -49 12v346h-856q-12 0 -12 49q0 50 12 50h948v-445q0 -12 -43 -12z" />
    <glyph glyph-name="uni00AD" unicode="&#xad;" horiz-adv-x="960" 
d="M264 559q-14 0 -4 49q5 49 19 49h608q11 0 6 -49q-10 -49 -21 -49h-608z" />
    <glyph glyph-name="registered" unicode="&#xae;" horiz-adv-x="1124" 
d="M1126 1096q0 -179 -125 -304.5t-303 -125.5t-304 126t-126 304t126 304t304 126t303 -125.5t125 -304.5zM1059 1096q0 150 -105.5 256t-255.5 106q-151 0 -256.5 -105.5t-105.5 -256.5q0 -150 106 -255.5t256 -105.5q149 0 255 106t106 255zM793 1051l84 -160q2 -3 2 -5
t-1 -4t-3.5 -2.5l-7.5 -1.5t-10.5 -1h-14.5q-36 0 -41 10l-76 149h-100v-149q0 -13 -39 -13q-37 0 -37 13v444h162q78 0 114.5 -31t36.5 -104v-31q0 -84 -69 -114zM788 1165v31q0 40 -16.5 54t-62.5 14h-86v-164h86q45 0 62 14t17 51z" />
    <glyph glyph-name="macron" unicode="&#xaf;" horiz-adv-x="983" 
d="M346 1354q-12 0 -12 49t12 49h453q5 0 7.5 -3t3.5 -9t1.5 -10.5t0 -14t-0.5 -12.5q0 -49 -12 -49h-453z" />
    <glyph glyph-name="degree" unicode="&#xb0;" horiz-adv-x="878" 
d="M928 1208q0 -130 -92.5 -222.5t-223.5 -92.5t-224 92.5t-93 222.5q0 132 93 225t224 93t223.5 -93t92.5 -225zM825 1206q0 90 -62.5 152.5t-152.5 62.5q-88 0 -150.5 -62.5t-62.5 -152.5q0 -88 62.5 -149.5t150.5 -61.5q89 0 152 61.5t63 149.5z" />
    <glyph glyph-name="plusminus" unicode="&#xb1;" horiz-adv-x="1304" 
d="M1227 543h-469v-439h467q12 0 12 -53q0 -51 -12 -51h-1026q-13 0 -13 51q0 53 13 53h454v439h-454q-13 0 -13 49t13 49h454v465q0 12 52 12q53 0 53 -12v-465h469q12 0 12 -49t-12 -49z" />
    <glyph glyph-name="twosuperior" unicode="&#xb2;" horiz-adv-x="706" 
d="M596 1526q102 0 162.5 -55t46.5 -150q-15 -97 -77.5 -154.5t-221.5 -122.5q-41 -17 -70.5 -37.5t-46.5 -39t-28.5 -44.5t-16 -44.5t-8.5 -47.5h377q13 0 4 -47q-5 -51 -21 -51h-481l16 101q19 117 79 186t198 123q102 41 143.5 77.5t48.5 98.5q8 56 -24.5 85.5
t-102.5 29.5q-71 0 -186 -52q-12 -6 -21.5 14.5t-9.5 42.5t9 31q44 23 111.5 39.5t119.5 16.5z" />
    <glyph glyph-name="threesuperior" unicode="&#xb3;" horiz-adv-x="706" 
d="M717 967l-8 -54q-12 -86 -89.5 -141t-183.5 -55q-54 0 -106 15t-76 28t-31 20q-7 4 2.5 27.5t24 44.5t20.5 18q85 -57 168 -57q71 0 115.5 34t50.5 83l6 37q7 45 -24.5 77.5t-108.5 32.5h-47q-12 0 -2 49q5 50 21 50h79q50 0 85.5 35t39.5 65l9 55q10 55 -23.5 81
t-87.5 26q-22 0 -44 -4.5t-43 -13.5t-33.5 -15t-31 -17t-20.5 -12q-17 -7 -35.5 35t-3.5 51q107 66 211 66q249 0 211 -225l-6 -37q-9 -57 -46.5 -92t-82.5 -50q6 -2 14 -5.5t25 -16t29 -28.5t19.5 -44.5t2.5 -62.5z" />
    <glyph glyph-name="acute" unicode="&#xb4;" horiz-adv-x="983" 
d="M850 1522l-252 -281q-10 -12 -51 -12t-41 9l4 7l227 289q10 12 62 12q56 0 57 -13q0 -4 -6 -11z" />
    <glyph glyph-name="mu" unicode="&#xb5;" horiz-adv-x="1144" 
d="M354 1106q2 12 56 12h17.5t16.5 -1t15 -4t4 -7q-19 -121 -57 -363.5t-58 -363.5q-21 -126 46 -209.5t171 -83.5q39 0 78.5 13.5t72 35t63 47.5t53 51.5t39.5 47.5t25 35l9 12q20 130 61 389t62 389q2 12 57 12h17.5t17 -1t15.5 -4t4 -7q-28 -183 -86.5 -551t-87.5 -551
q-2 -12 -58 -12h-17.5t-16 1t-14 4t-3.5 7q5 33 15.5 99.5t15.5 99.5q-150 -228 -338 -228q-87 0 -152 47t-84 121q-15 -91 -44 -274.5t-44 -274.5q-2 -12 -57 -12h-17.5t-16.5 1t-15 4t-4 7q40 252 119.5 756t119.5 756z" />
    <glyph glyph-name="paragraph" unicode="&#xb6;" horiz-adv-x="974" 
d="M817 1448l-254 -1606q0 -10 -57 -10q-47 0 -47 10l135 854h-14q-53 0 -103 16t-95.5 48.5t-76 82.5t-43 118.5t3.5 156.5q15 84 54.5 155t108 129t177.5 91t248 33q128 0 211 -13l-266 -1671q0 -10 -49 -10q-58 0 -58 10l254 1606h-129z" />
    <glyph glyph-name="periodcentered" unicode="&#xb7;" horiz-adv-x="464" 
d="M297 492h-18t-17.5 1t-15.5 4t-4 7l39 244q2 12 59 12h18t17.5 -1t15.5 -4t4 -7l-39 -244q-2 -12 -59 -12z" />
    <glyph glyph-name="cedilla" unicode="&#xb8;" horiz-adv-x="983" 
d="M440 -408q-86 0 -161 56q-6 4 0 21t18 30.5t20 7.5q65 -45 123 -45q57 0 86 19.5t37 60.5l4 25q9 47 -30.5 63t-120.5 10l33 207h77l-22 -145q77 -1 116 -37.5t31 -89.5l-6 -45q-11 -62 -63.5 -100t-141.5 -38z" />
    <glyph glyph-name="onesuperior" unicode="&#xb9;" horiz-adv-x="567" 
d="M565 1507l-123 -772q-2 -12 -55 -12h-18.5t-16 1t-13.5 4t-3 7l102 643h-100q-8 0 -8.5 13t2.5 28q1 3 2 9t1.5 8.5t2 7t3 6.5t4 4.5t5.5 3.5l135 49h80z" />
    <glyph glyph-name="ordmasculine" unicode="&#xba;" horiz-adv-x="937" 
d="M590 733q-142 0 -209.5 75t-46.5 200l39 245q22 133 105 203t224 70q140 0 208.5 -71.5t47.5 -201.5l-38 -245q-42 -275 -330 -275zM864 1235q32 203 -170 203q-98 0 -156.5 -47.5t-76.5 -155.5l-33 -213q-35 -205 168 -205q201 0 235 205z" />
    <glyph glyph-name="guillemotright" unicode="&#xbb;" horiz-adv-x="1148" 
d="M899 1116l254 -469l-403 -467q-5 -7 -29 7t-44 34t-13 27l346 399l-219 402q-3 7 23 26.5t54 33.5t31 7zM494 1116l254 -469l-404 -467q-5 -7 -29 7t-44 34t-13 27l346 399l-219 402q-3 7 23 26.5t54.5 33.5t31.5 7z" />
    <glyph glyph-name="onequarter" unicode="&#xbc;" horiz-adv-x="1564" 
d="M604 1444l-123 -772q-2 -13 -55 -13q-11 0 -18.5 0.5t-16 1.5t-13 4t-3.5 7l102 643h-100q-8 0 -8.5 13t2.5 28q1 3 2 9t1.5 8.5t2 7t3 6.5t4 4.5t5.5 3.5l135 49h80zM1384 1497l-1011 -1497q-8 -12 -56 -12h-19.5t-18 1t-14.5 4t-1 7l1012 1497q8 12 57 12h18t17.5 -1
t14.5 -4t1 -7zM1405 289q-9 -45 -21 -45h-88l-22 -150q-2 -12 -55 -12h-18.5t-16 1t-14 4t-3.5 7l23 150h-348l14 88l430 528q10 12 57 12h17.5t16 -1t14.5 -4t4 -7l-84 -526h88q11 0 6 -45zM1266 713l-308 -379h246z" />
    <glyph glyph-name="onehalf" unicode="&#xbd;" horiz-adv-x="1564" 
d="M604 1444l-123 -772q-2 -13 -55 -13q-11 0 -18.5 0.5t-16 1.5t-13 4t-3.5 7l102 643h-100q-8 0 -8.5 13t2.5 28q1 3 2 9t1.5 8.5t2 7t3 6.5t4 4.5t5.5 3.5l135 49h80zM1384 1497l-1011 -1497q-8 -12 -56 -12h-19.5t-18 1t-14.5 4t-1 7l1012 1497q8 12 57 12h18t17.5 -1
t14.5 -4t1 -7zM1364 905q104 0 162.5 -59t40.5 -168q-14 -86 -77 -141.5t-218 -114.5q-50 -19 -83.5 -43t-50.5 -55t-23.5 -54t-12.5 -61h377q13 0 4 -47q-10 -51 -21 -51h-481l16 100q18 118 70.5 183t189.5 118q105 42 153.5 82.5t55.5 101.5q8 56 -24.5 85.5t-102.5 29.5
q-69 0 -182 -51q-12 -6 -23.5 14.5t-13.5 42.5t6 31q42 23 113.5 40t124.5 17z" />
    <glyph glyph-name="threequarters" unicode="&#xbe;" horiz-adv-x="1564" 
d="M1489 289q-9 -45 -21 -45h-88l-22 -150q-2 -12 -55 -12h-18.5t-16 1t-14 4t-3.5 7l23 150h-348l14 88l430 528q10 12 57 12h17.5t16 -1t14.5 -4t4 -7l-84 -526h88q11 0 6 -45zM1511 1497l-1011 -1497q-8 -12 -56 -12h-19.5t-18 1t-14.5 4t-1 7l1012 1497q8 12 57 12h18
t17.5 -1t14.5 -4t1 -7zM743 899l-6 -45q-12 -87 -92 -150t-184 -63q-54 0 -107 15t-78 28.5t-32 20.5q-6 4 5.5 27.5t27.5 44.5t22 18q1 -1 16.5 -11t23.5 -14.5t26 -14t31.5 -14t31.5 -8.5t35 -4q61 0 109.5 32.5t58.5 92.5l4 37q6 36 -25.5 71t-105.5 35h-47q-15 0 -4 54
q5 53 20 53h80q50 0 85.5 33.5t39.5 62.5l10 55q8 55 -25.5 81t-87.5 26q-19 0 -39 -4t-34.5 -8.5t-33 -13t-27.5 -13t-24.5 -13.5t-17.5 -10q-11 -5 -22.5 15t-13.5 41t6 30q104 64 209 64q245 0 208 -223l-4 -27q-6 -37 -24.5 -67t-43.5 -48t-37.5 -25t-23.5 -11
q107 -36 90 -150zM1350 713l-308 -379h246z" />
    <glyph glyph-name="questiondown" unicode="&#xbf;" horiz-adv-x="919" 
d="M432 -311q113 0 248 88q10 6 26.5 -16.5t23 -46t-2.5 -33.5q-155 -97 -324 -97q-100 0 -173 52t-103.5 132.5t-15.5 170.5q9 58 36.5 112t65 96.5t80.5 84t86.5 81.5t80 80t63 88t34.5 99l12 69q2 13 56 13q11 0 18.5 -0.5t15.5 -1.5t12 -4t3 -7l-12 -71
q-11 -64 -39 -121.5t-64.5 -101t-78.5 -83.5t-83 -77t-76 -74.5t-60.5 -83t-33.5 -94.5q-17 -107 32.5 -180.5t172.5 -73.5zM696 1118h18t17.5 -1t16 -4t4.5 -7l-39 -244q-2 -12 -60 -12h-18t-17.5 1t-15.5 4t-4 7l39 244q2 12 59 12z" />
    <glyph glyph-name="Agrave" unicode="&#xc0;" horiz-adv-x="1181" 
d="M829 1509q60 0 62 -12l217 -1493q2 -12 -66 -12q-55 0 -57 12l-51 369h-572l-169 -369q-6 -12 -64 -12h-18.5t-18.5 1t-15.5 4t-2.5 7l692 1493q6 12 63 12zM410 475h512l-113 871zM786 1651l-161 280q-11 18 23 23l36 2q30 0 41.5 -2t15.5 -10l138 -289
q6 -10 -4.5 -13.5t-36.5 -3.5q-42 0 -52 13z" />
    <glyph glyph-name="Aacute" unicode="&#xc1;" horiz-adv-x="1181" 
d="M829 1509q60 0 62 -12l217 -1493q2 -12 -66 -12q-55 0 -57 12l-51 369h-572l-169 -369q-6 -12 -64 -12h-18.5t-18.5 1t-15.5 4t-2.5 7l692 1493q6 12 63 12zM410 475h512l-113 871zM1159 1931l-252 -280q-10 -13 -51 -13t-41 9q0 4 4 8l228 289q10 12 61 12q57 0 57 -14
q0 -5 -6 -11z" />
    <glyph glyph-name="Acircumflex" unicode="&#xc2;" horiz-adv-x="1181" 
d="M829 1509q60 0 62 -12l217 -1493q2 -12 -66 -12q-55 0 -57 12l-51 369h-572l-169 -369q-6 -12 -64 -12h-18.5t-18.5 1t-15.5 4t-2.5 7l692 1493q6 12 63 12zM410 475h512l-113 871zM1030 1675q-42 0 -49 13l-92 200l-160 -200q-8 -13 -53 -13q-58 0 -47 13l207 254
q10 12 63 12t59 -12l123 -254q2 -4 -2.5 -7t-14 -4t-17 -1.5t-17.5 -0.5z" />
    <glyph glyph-name="Atilde" unicode="&#xc3;" horiz-adv-x="1181" 
d="M829 1509q60 0 62 -12l217 -1493q2 -12 -66 -12q-55 0 -57 12l-51 369h-572l-169 -369q-6 -12 -64 -12h-18.5t-18.5 1t-15.5 4t-2.5 7l692 1493q6 12 63 12zM410 475h512l-113 871zM1135 1845q-20 -55 -69.5 -96t-107.5 -41q-36 0 -71 15.5t-58 34.5t-51 34.5t-51 15.5
q-37 0 -64 -19.5t-53 -62.5q-3 -6 -19 4.5t-29.5 25t-10.5 20.5q17 42 64.5 82t105.5 40q37 0 72.5 -15.5t58.5 -34.5t51.5 -34.5t54.5 -15.5q76 0 117 92q4 7 20 -1.5t29.5 -22.5t10.5 -21z" />
    <glyph glyph-name="Adieresis" unicode="&#xc4;" horiz-adv-x="1181" 
d="M829 1509q60 0 62 -12l217 -1493q2 -12 -66 -12q-55 0 -57 12l-51 369h-572l-169 -369q-6 -12 -64 -12h-18.5t-18.5 1t-15.5 4t-2.5 7l692 1493q6 12 63 12zM410 475h512l-113 871zM690 1692q-9 0 -17.5 0.5t-18 2t-15 4.5t-4.5 7l29 190q2 15 61 15q9 0 17.5 -0.5
t17 -2.5t14 -5t4.5 -7l-28 -190q-2 -14 -60 -14zM1024 1692q-9 0 -17.5 0.5t-18 2t-15 4.5t-4.5 7l28 190q3 15 62 15q9 0 17.5 -0.5t17 -2.5t14 -5t4.5 -7l-29 -190q-2 -14 -59 -14z" />
    <glyph glyph-name="Aring" unicode="&#xc5;" horiz-adv-x="1181" 
d="M829 1509q60 0 62 -12l217 -1493q2 -12 -66 -12q-55 0 -57 12l-51 369h-572l-169 -369q-6 -12 -64 -12h-18.5t-18.5 1t-15.5 4t-2.5 7l692 1493q6 12 63 12zM410 475h512l-113 871zM1028 1755q-10 -66 -60.5 -109.5t-115.5 -43.5q-70 0 -110 47t-29 116q11 62 61.5 107
t114.5 45q68 0 108.5 -47t30.5 -115zM954 1751q8 42 -12 68t-59 26q-35 0 -63.5 -24.5t-33.5 -55.5q-8 -40 11.5 -66t58.5 -26q35 0 64 24t34 54z" />
    <glyph glyph-name="AE" unicode="&#xc6;" horiz-adv-x="1673" 
d="M825 0l58 373h-473l-234 -369q-8 -12 -63 -12h-19.5t-20 1t-18 4t-2.5 7l959 1497h776q13 0 2 -53q-5 -51 -18 -51h-607l-90 -561h531q14 0 4 -52q-5 -51 -21 -51h-530l-98 -629h610q2 0 4 -1.5t2.5 -5t0.5 -7v-9t-0.5 -9.5t-1.5 -10t-1 -9q-11 -53 -21 -53h-729z
M899 475l141 895l-559 -895h418z" />
    <glyph glyph-name="Ccedilla" unicode="&#xc7;" horiz-adv-x="1185" 
d="M639 -408q-87 0 -162 56q-6 4 0.5 21t18.5 30.5t20 7.5q65 -45 123 -45q57 0 86 19.5t37 60.5l4 25q9 47 -31 63t-121 10l21 137q-216 14 -318.5 118.5t-70.5 297.5l114 721q16 108 64.5 188.5t123 128.5t166.5 71.5t204 23.5q103 0 206.5 -23t163.5 -55q8 -8 1 -32
t-23 -48t-25 -20q-71 35 -155.5 56t-159.5 21q-81 0 -152 -16t-134.5 -50.5t-106.5 -97t-56 -147.5l-117 -735q-12 -73 2.5 -128t46.5 -87.5t83 -53t104 -27.5t119 -7q195 0 336 65q5 2 11 -7.5t10.5 -24t7.5 -29.5t2.5 -27t-5.5 -14q-58 -27 -164 -44.5t-200 -19.5l-11 -73
q77 -1 116.5 -37.5t31.5 -89.5l-6 -45q-11 -62 -63.5 -100t-141.5 -38z" />
    <glyph glyph-name="Egrave" unicode="&#xc8;" horiz-adv-x="1054" 
d="M950 53q-1 -3 -2 -9t-1.5 -10t-2 -10t-3 -9.5l-3 -7t-4 -5.5t-4.5 -2h-727l237 1501h723q13 0 2 -53q-5 -51 -18 -51h-606l-90 -561h530q14 0 4 -52q-5 -51 -20 -51h-531l-98 -629h610q2 0 4 -1.5t2.5 -5t0.5 -7v-9t-0.5 -9.5t-1.5 -10t-1 -9zM842 1651l-162 280
q-11 18 23 23l36 2q21 0 30 -0.5t17 -3t11 -8.5l137 -289q6 -10 -4.5 -13.5t-36.5 -3.5q-41 0 -51 13z" />
    <glyph glyph-name="Eacute" unicode="&#xc9;" horiz-adv-x="1054" 
d="M950 53q-1 -3 -2 -9t-1.5 -10t-2 -10t-3 -9.5l-3 -7t-4 -5.5t-4.5 -2h-727l237 1501h723q13 0 2 -53q-5 -51 -18 -51h-606l-90 -561h530q14 0 4 -52q-5 -51 -20 -51h-531l-98 -629h610q2 0 4 -1.5t2.5 -5t0.5 -7v-9t-0.5 -9.5t-1.5 -10t-1 -9zM1090 1931l-252 -280
q-10 -13 -52 -13q-40 0 -40 9l4 8l227 289q10 12 61 12q57 0 58 -14q0 -4 -6 -11z" />
    <glyph glyph-name="Ecircumflex" unicode="&#xca;" horiz-adv-x="1054" 
d="M950 53q-1 -3 -2 -9t-1.5 -10t-2 -10t-3 -9.5l-3 -7t-4 -5.5t-4.5 -2h-727l237 1501h723q13 0 2 -53q-5 -51 -18 -51h-606l-90 -561h530q14 0 4 -52q-5 -51 -20 -51h-531l-98 -629h610q2 0 4 -1.5t2.5 -5t0.5 -7v-9t-0.5 -9.5t-1.5 -10t-1 -9zM997 1675q-43 0 -49 13
l-92 200l-160 -200q-8 -13 -53 -13q-58 0 -47 13l207 254q10 12 63 12q54 0 60 -12l123 -254q2 -4 -2.5 -7t-14 -4t-17.5 -1.5t-18 -0.5z" />
    <glyph glyph-name="Edieresis" unicode="&#xcb;" horiz-adv-x="1054" 
d="M950 53q-1 -3 -2 -9t-1.5 -10t-2 -10t-3 -9.5l-3 -7t-4 -5.5t-4.5 -2h-727l237 1501h723q13 0 2 -53q-5 -51 -18 -51h-606l-90 -561h530q14 0 4 -52q-5 -51 -20 -51h-531l-98 -629h610q2 0 4 -1.5t2.5 -5t0.5 -7v-9t-0.5 -9.5t-1.5 -10t-1 -9zM655 1692q-9 0 -17.5 0.5
t-18 2t-15 4.5t-4.5 7l29 190q3 15 61 15q56 0 53 -15l-28 -190q-2 -14 -60 -14zM989 1692q-9 0 -17.5 0.5t-18 2t-15 4.5t-4.5 7l29 190q3 15 61 15q56 0 53 -15l-28 -190q-2 -14 -60 -14z" />
    <glyph glyph-name="Igrave" unicode="&#xcc;" horiz-adv-x="538" 
d="M338 4q-2 -12 -62 -12h-18t-17.5 1t-15.5 4t-4 7l236 1493q2 12 59 12h18t18 -1t16.5 -4t4.5 -7zM483 1651l-161 280q-11 18 23 23l36 2q30 0 41.5 -2t15.5 -10l137 -289q6 -10 -4.5 -13.5t-35.5 -3.5q-42 0 -52 13z" />
    <glyph glyph-name="Iacute" unicode="&#xcd;" horiz-adv-x="538" 
d="M338 4q-2 -12 -62 -12h-18t-17.5 1t-15.5 4t-4 7l236 1493q2 12 59 12h18t18 -1t16.5 -4t4.5 -7zM848 1931l-252 -280q-10 -13 -51 -13t-41 9q0 4 4 8l227 289q10 12 62 12q57 0 57 -14q0 -5 -6 -11z" />
    <glyph glyph-name="Icircumflex" unicode="&#xce;" horiz-adv-x="538" 
d="M338 4q-2 -12 -62 -12h-18t-17.5 1t-15.5 4t-4 7l236 1493q2 12 59 12h18t18 -1t16.5 -4t4.5 -7zM715 1675q-43 0 -49 13l-93 200l-159 -200q-8 -13 -54 -13q-58 0 -47 13l207 254q10 12 64 12q53 0 59 -12l123 -254q2 -4 -2.5 -7t-14 -4t-17 -1.5t-17.5 -0.5z" />
    <glyph glyph-name="Idieresis" unicode="&#xcf;" horiz-adv-x="538" 
d="M338 4q-2 -12 -62 -12h-18t-17.5 1t-15.5 4t-4 7l236 1493q2 12 59 12h18t18 -1t16.5 -4t4.5 -7zM383 1692q-9 0 -17.5 0.5t-18 2t-15 4.5t-4.5 7l28 190q2 15 62 15q56 0 53 -15l-29 -190q-2 -14 -59 -14zM717 1692q-9 0 -17.5 0.5t-18 2t-15 4.5t-4.5 7l28 190
q2 15 62 15q56 0 53 -15l-29 -190q-2 -14 -59 -14z" />
    <glyph glyph-name="Eth" unicode="&#xd0;" horiz-adv-x="1327" 
d="M168 719q-14 0 -4 49q5 49 20 49h148l108 684h465q472 0 408 -420l-109 -682q-16 -104 -48 -176t-88 -123.5t-141 -75.5t-204 -24h-520l112 719h-147zM1087 399l109 684q25 156 -47 236t-254 80h-354l-92 -582h337q10 0 5 -49q-10 -49 -21 -49h-338l-98 -617h373
q172 0 264 70t116 227z" />
    <glyph glyph-name="Ntilde" unicode="&#xd1;" horiz-adv-x="1411" 
d="M1208 4q-2 -12 -90 -12q-72 0 -76 12q-50 136 -151.5 409.5t-151.5 409.5q-18 48 -90.5 248t-113.5 307h-3q-26 -205 -60 -429t-83 -516.5t-70 -428.5q-2 -12 -59 -12h-18t-18 1t-16.5 4t-4.5 7q39 249 117.5 746.5t117.5 746.5q2 12 90 12q84 0 88 -12
q46 -128 139.5 -384t139.5 -384q43 -111 116.5 -316t102.5 -282h2q57 391 211 1366q2 12 59 12h20.5t18 -1t15.5 -4t4 -7q-39 -249 -118 -746.5t-118 -746.5zM1249 1845q-20 -55 -69 -96t-107 -41q-36 0 -71 15.5t-58 34.5t-51 34.5t-51 15.5q-37 0 -64 -19.5t-53 -62.5
q-3 -6 -19 4.5t-29.5 25t-10.5 20.5q17 42 64.5 82t105.5 40q37 0 72.5 -15.5t58.5 -34.5t51.5 -34.5t54.5 -15.5q76 0 117 92q4 7 20 -1.5t29 -22.5t10 -21z" />
    <glyph glyph-name="Ograve" unicode="&#xd2;" horiz-adv-x="1386" 
d="M1262 377q-15 -104 -64 -182.5t-125 -126t-170 -70.5t-207 -23q-238 0 -360 106.5t-90 305.5q23 137 61 388.5t53 344.5q16 104 65 183t123.5 127t167 72t202.5 24q246 0 368.5 -105.5t89.5 -318.5q-23 -136 -61.5 -385.5t-52.5 -339.5zM1145 377q20 124 59 371.5
t58 371.5q25 156 -68 229.5t-276 73.5t-299.5 -73.5t-141.5 -229.5q-15 -99 -46.5 -296.5t-47.5 -297.5q-4 -24 -11.5 -74.5t-11.5 -74.5q-25 -153 67.5 -227t274.5 -74t300 74t143 227zM899 1651q-26 47 -81 140t-81 140q-11 18 23 23q14 2 37 2q26 0 41 -5t18.5 -9.5
t7.5 -17t6 -17.5q20 -42 61 -126t60 -126q6 -10 -4.5 -13.5t-36.5 -3.5q-41 0 -51 13z" />
    <glyph glyph-name="Oacute" unicode="&#xd3;" horiz-adv-x="1386" 
d="M1262 377q-15 -104 -64 -182.5t-125 -126t-170 -70.5t-207 -23q-238 0 -360 106.5t-90 305.5q23 137 61 388.5t53 344.5q16 104 65 183t123.5 127t167 72t202.5 24q246 0 368.5 -105.5t89.5 -318.5q-23 -136 -61.5 -385.5t-52.5 -339.5zM1145 377q20 124 59 371.5
t58 371.5q25 156 -68 229.5t-276 73.5t-299.5 -73.5t-141.5 -229.5q-15 -99 -46.5 -296.5t-47.5 -297.5q-4 -24 -11.5 -74.5t-11.5 -74.5q-25 -153 67.5 -227t274.5 -74t300 74t143 227zM985 1651q-10 -13 -51 -13t-41 9q0 4 4 8q33 42 99.5 126t99.5 126q5 5 13.5 18
t13.5 17.5t21 9t42 4.5q57 0 57 -14q0 -5 -6 -11q-42 -47 -126 -140t-126 -140z" />
    <glyph glyph-name="Ocircumflex" unicode="&#xd4;" horiz-adv-x="1386" 
d="M1262 377q-15 -104 -64 -182.5t-125 -126t-170 -70.5t-207 -23q-238 0 -360 106.5t-90 305.5q23 137 61 388.5t53 344.5q16 104 65 183t123.5 127t167 72t202.5 24q246 0 368.5 -105.5t89.5 -318.5q-23 -136 -61.5 -385.5t-52.5 -339.5zM1145 377q20 124 59 371.5
t58 371.5q25 156 -68 229.5t-276 73.5t-299.5 -73.5t-141.5 -229.5q-15 -99 -46.5 -296.5t-47.5 -297.5q-4 -24 -11.5 -74.5t-11.5 -74.5q-25 -153 67.5 -227t274.5 -74t300 74t143 227zM1133 1675q-43 0 -50 13q-15 34 -45.5 100t-46.5 100q-26 -34 -80 -100t-80 -100
q-8 -13 -53 -13q-58 0 -47 13q30 37 89.5 111.5t90.5 111.5q17 21 23 27t22 11t45 5q54 0 60 -12q20 -42 61 -127t62 -127q2 -4 -2.5 -7t-14 -4t-17 -1.5t-17.5 -0.5z" />
    <glyph glyph-name="Otilde" unicode="&#xd5;" horiz-adv-x="1386" 
d="M1262 377q-15 -104 -64 -182.5t-125 -126t-170 -70.5t-207 -23q-238 0 -360 106.5t-90 305.5q23 137 61 388.5t53 344.5q16 104 65 183t123.5 127t167 72t202.5 24q246 0 368.5 -105.5t89.5 -318.5q-23 -136 -61.5 -385.5t-52.5 -339.5zM1145 377q20 124 59 371.5
t58 371.5q25 156 -68 229.5t-276 73.5t-299.5 -73.5t-141.5 -229.5q-15 -99 -46.5 -296.5t-47.5 -297.5q-4 -24 -11.5 -74.5t-11.5 -74.5q-25 -153 67.5 -227t274.5 -74t300 74t143 227zM1237 1845q-20 -55 -69 -96t-107 -41q-45 0 -88 25t-79.5 50t-64.5 25
q-37 0 -63.5 -19.5t-52.5 -62.5q-3 -6 -19 4.5t-30 25t-11 20.5q17 42 64.5 82t105.5 40q47 0 90 -25t79.5 -50t68.5 -25q76 0 117 92q4 7 20 -1.5t29 -22.5t10 -21z" />
    <glyph glyph-name="Odieresis" unicode="&#xd6;" horiz-adv-x="1386" 
d="M1262 377q-15 -104 -64 -182.5t-125 -126t-170 -70.5t-207 -23q-238 0 -360 106.5t-90 305.5q23 137 61 388.5t53 344.5q16 104 65 183t123.5 127t167 72t202.5 24q246 0 368.5 -105.5t89.5 -318.5q-23 -136 -61.5 -385.5t-52.5 -339.5zM1145 377q20 124 59 371.5
t58 371.5q25 156 -68 229.5t-276 73.5t-299.5 -73.5t-141.5 -229.5q-15 -99 -46.5 -296.5t-47.5 -297.5q-4 -24 -11.5 -74.5t-11.5 -74.5q-25 -153 67.5 -227t274.5 -74t300 74t143 227zM793 1692q-9 0 -17.5 0.5t-18.5 2t-15.5 4.5t-4.5 7q5 32 14.5 95.5t14.5 94.5
q2 15 61 15q57 0 54 -15q-5 -31 -14.5 -94.5t-14.5 -95.5q-2 -14 -59 -14zM1126 1692q-9 0 -17.5 0.5t-18 2t-15 4.5t-4.5 7q5 32 14.5 95.5t14.5 94.5q2 15 61 15q9 0 17.5 -0.5t17 -2.5t14 -5t4.5 -7q-5 -31 -14 -94.5t-14 -95.5q-2 -14 -60 -14z" />
    <glyph glyph-name="multiply" unicode="&#xd7;" horiz-adv-x="1122" 
d="M1018 770l-295 -295l295 -295q17 -17 -23 -55t-55 -23l-295 295l-295 -295q-9 -9 -33 6t-40 38t-5 34l295 295l-295 295q-8 8 9 31t39.5 39t29.5 8l295 -295l295 295q8 8 31 -8t39 -39t8 -31z" />
    <glyph glyph-name="Oslash" unicode="&#xd8;" horiz-adv-x="1386" 
d="M1251 383q-5 -39 -22 -88q-54 -160 -194.5 -240t-338.5 -80q-260 0 -372 109q-12 -14 -33.5 -41.5t-32.5 -42.5q-8 -12 -61 -12h-18.5t-19 1t-16.5 4t-2 7q21 26 61 79t60 79q-49 88 -22 258q2 14 7 43.5t7 44.5q15 89 42.5 267t41.5 267q37 262 170 379t405 117
q135 0 221 -29t150 -86q12 15 35.5 43t34.5 43q9 13 59 13q63 -1 57 -13l-129 -159q47 -103 29 -220q-2 -15 -7 -46t-7 -46zM350 383q-14 -84 -2 -127q144 179 432 536.5t432 536.5q-80 101 -305 101q-183 0 -298.5 -74t-139.5 -230q-20 -124 -60 -371.5t-59 -371.5z
M1135 383q19 124 59 371.5t59 371.5q10 68 2 109q-144 -177 -429 -530.5t-429 -530.5q85 -94 308 -94q181 0 293.5 74.5t136.5 228.5z" />
    <glyph glyph-name="Ugrave" unicode="&#xd9;" horiz-adv-x="1320" 
d="M1368 1497l-176 -1112q-14 -87 -49 -157.5t-97 -129t-162 -91t-231 -32.5q-115 0 -200.5 33t-133.5 90t-66 130.5t-5 156.5l176 1112q2 12 61 12h18t17.5 -1t16 -4t4.5 -7l-179 -1122q-22 -143 55 -221t251 -78q175 0 280 78.5t127 220.5l178 1122q2 12 58 12h18t18 -1
t16.5 -4t4.5 -7zM911 1651l-161 280q-11 18 23 23l36 2q30 0 41.5 -2t15.5 -10l138 -289q6 -10 -4.5 -13.5t-36.5 -3.5q-42 0 -52 13z" />
    <glyph glyph-name="Uacute" unicode="&#xda;" horiz-adv-x="1320" 
d="M1368 1497l-176 -1112q-14 -87 -49 -157.5t-97 -129t-162 -91t-231 -32.5q-115 0 -200.5 33t-133.5 90t-66 130.5t-5 156.5l176 1112q2 12 61 12h18t17.5 -1t16 -4t4.5 -7l-179 -1122q-22 -143 55 -221t251 -78q175 0 280 78.5t127 220.5l178 1122q2 12 58 12h18t18 -1
t16.5 -4t4.5 -7zM1167 1931l-252 -280q-10 -13 -51 -13t-41 9q0 4 4 8l228 289q10 12 61 12q57 0 57 -14q0 -5 -6 -11z" />
    <glyph glyph-name="Ucircumflex" unicode="&#xdb;" horiz-adv-x="1320" 
d="M1368 1497l-176 -1112q-14 -87 -49 -157.5t-97 -129t-162 -91t-231 -32.5q-115 0 -200.5 33t-133.5 90t-66 130.5t-5 156.5l176 1112q2 12 61 12h18t17.5 -1t16 -4t4.5 -7l-179 -1122q-22 -143 55 -221t251 -78q175 0 280 78.5t127 220.5l178 1122q2 12 58 12h18t18 -1
t16.5 -4t4.5 -7zM1100 1675q-42 0 -49 13l-93 200l-159 -200q-8 -13 -54 -13q-58 0 -47 13l207 254q10 12 64 12q53 0 59 -12l123 -254q2 -4 -2.5 -7t-14 -4t-17 -1.5t-17.5 -0.5z" />
    <glyph glyph-name="Udieresis" unicode="&#xdc;" horiz-adv-x="1320" 
d="M1368 1497l-176 -1112q-14 -87 -49 -157.5t-97 -129t-162 -91t-231 -32.5q-115 0 -200.5 33t-133.5 90t-66 130.5t-5 156.5l176 1112q2 12 61 12h18t17.5 -1t16 -4t4.5 -7l-179 -1122q-22 -143 55 -221t251 -78q175 0 280 78.5t127 220.5l178 1122q2 12 58 12h18t18 -1
t16.5 -4t4.5 -7zM760 1692q-9 0 -17.5 0.5t-18 2t-15 4.5t-4.5 7l28 190q3 15 62 15q9 0 17.5 -0.5t17 -2.5t14 -5t4.5 -7l-29 -190q-2 -14 -59 -14zM1094 1692q-9 0 -17.5 0.5t-18.5 2t-15.5 4.5t-4.5 7l29 190q3 15 61 15q9 0 17.5 -0.5t17.5 -2.5t14.5 -5t4.5 -7
l-29 -190q-2 -14 -59 -14z" />
    <glyph glyph-name="Yacute" unicode="&#xdd;" horiz-adv-x="1095" 
d="M1288 1495l-588 -856l-100 -635q-2 -12 -59 -12h-18.5t-18.5 1t-16.5 4t-4.5 7l101 633l-305 858q-1 4 5.5 7t17.5 4.5t21 2t19 0.5q56 0 61 -14l254 -750l504 750q9 14 74 14q11 0 18.5 -0.5t18.5 -1.5t15.5 -4t0.5 -8zM1092 1931l-252 -280q-10 -13 -52 -13
q-40 0 -40 9l4 8l227 289q10 12 61 12q57 0 58 -14q0 -4 -6 -11z" />
    <glyph glyph-name="Thorn" unicode="&#xde;" horiz-adv-x="1306" 
d="M1227 700q-20 -121 -59.5 -200.5t-106 -125t-149.5 -63.5t-203 -18h-344l-46 -289q-2 -12 -61 -12h-18t-18 1t-16.5 4t-4.5 7l235 1493q2 12 60 12h18t18 -1t16.5 -4t4.5 -7l-41 -266h344q231 0 325.5 -98.5t63.5 -307.5zM1110 698l18 127q27 169 -46.5 235t-256.5 66
h-327l-115 -725h381q298 0 346 297z" />
    <glyph glyph-name="germandbls" unicode="&#xdf;" horiz-adv-x="1185" 
d="M1079 1022q-102 12 -172 -6q-139 -37 -162 -166q-7 -46 12.5 -82.5t56.5 -62.5t83 -51t90.5 -57t79 -72.5t49.5 -105.5t2 -147q-8 -54 -37 -105.5t-77 -95t-119.5 -70t-155.5 -26.5q-74 0 -155 24.5t-136 59.5q-7 5 4.5 30.5t28 47.5t23.5 17q129 -80 249 -80
q112 0 183.5 62.5t85.5 154.5q14 89 -25 147q-22 34 -62.5 65t-81.5 52t-83.5 51t-73 63t-45.5 86.5t-4 121.5q17 107 118 172.5t253 64.5q20 58 17 114.5t-22.5 100.5t-71 71t-128.5 27q-284 0 -334 -327q-28 -183 -87 -548t-87 -548q-2 -12 -59 -12h-18t-17.5 1t-16 4
t-4.5 7q29 186 87.5 559t88.5 559q29 183 143.5 293.5t307.5 110.5q94 0 162 -32t102.5 -84t46.5 -118.5t1 -135.5t-40 -134z" />
    <glyph glyph-name="agrave" unicode="&#xe0;" horiz-adv-x="1083" 
d="M1075 1028q-27 -171 -81.5 -512t-82.5 -512q-2 -12 -59 -12h-17t-15 1t-13.5 4t-3.5 7q9 56 27.5 166.5t27.5 165.5q-200 -361 -465 -361q-131 0 -198 98t-41 263q10 66 30.5 198t30.5 197q62 402 467 402q105 0 217 -33t176 -72zM887 532q11 73 33 220t34 221
q-118 63 -278 63q-303 0 -352 -323q-9 -63 -29 -188.5t-29 -188.5q-20 -126 25.5 -193t136.5 -67q215 0 459 456zM729 1241q-26 47 -81 140.5t-81 140.5q-11 17 21 22l39 2q26 0 41 -5t18.5 -9.5t7.5 -17t6 -17.5q19 -42 60.5 -126t60.5 -126q6 -10 -4.5 -13t-36.5 -3
q-41 0 -51 12z" />
    <glyph glyph-name="aacute" unicode="&#xe1;" horiz-adv-x="1083" 
d="M1075 1028q-27 -171 -81.5 -512t-82.5 -512q-2 -12 -59 -12h-17t-15 1t-13.5 4t-3.5 7q9 56 27.5 166.5t27.5 165.5q-200 -361 -465 -361q-131 0 -198 98t-41 263q10 66 30.5 198t30.5 197q62 402 467 402q105 0 217 -33t176 -72zM887 532q11 73 33 220t34 221
q-118 63 -278 63q-303 0 -352 -323q-9 -63 -29 -188.5t-29 -188.5q-20 -126 25.5 -193t136.5 -67q215 0 459 456zM772 1241q-10 -12 -51 -12t-41 9l4 7q33 42 99.5 126t99.5 126q5 5 13.5 18t13.5 17.5t21 9t42 4.5q56 0 57 -13q0 -4 -6 -11q-42 -47 -126 -140.5
t-126 -140.5z" />
    <glyph glyph-name="acircumflex" unicode="&#xe2;" horiz-adv-x="1083" 
d="M1075 1028q-27 -171 -81.5 -512t-82.5 -512q-2 -12 -59 -12h-17t-15 1t-13.5 4t-3.5 7q9 56 27.5 166.5t27.5 165.5q-200 -361 -465 -361q-131 0 -198 98t-41 263q10 66 30.5 198t30.5 197q62 402 467 402q105 0 217 -33t176 -72zM887 532q11 73 33 220t34 221
q-118 63 -278 63q-303 0 -352 -323q-9 -63 -29 -188.5t-29 -188.5q-20 -126 25.5 -193t136.5 -67q215 0 459 456zM920 1266q-44 0 -50 12q-16 34 -46.5 100.5t-45.5 100.5q-26 -34 -79.5 -100.5t-80.5 -100.5q-7 -12 -53 -12h-17.5t-16.5 1t-13.5 4t0.5 7q31 37 90 111.5
t90 111.5q17 21 23 27t22 11t45 5q54 0 60 -12q20 -42 61 -127t62 -127q2 -4 -2 -7t-14 -4t-17 -1h-18z" />
    <glyph glyph-name="atilde" unicode="&#xe3;" horiz-adv-x="1083" 
d="M1075 1028q-27 -171 -81.5 -512t-82.5 -512q-2 -12 -59 -12h-17t-15 1t-13.5 4t-3.5 7q9 56 27.5 166.5t27.5 165.5q-200 -361 -465 -361q-131 0 -198 98t-41 263q10 66 30.5 198t30.5 197q62 402 467 402q105 0 217 -33t176 -72zM887 532q11 73 33 220t34 221
q-118 63 -278 63q-303 0 -352 -323q-9 -63 -29 -188.5t-29 -188.5q-20 -126 25.5 -193t136.5 -67q215 0 459 456zM1022 1436q-20 -55 -69 -96.5t-107 -41.5q-36 0 -71 16t-58.5 34.5t-51.5 34.5t-51 16q-37 0 -63.5 -19.5t-52.5 -62.5q-3 -6 -19 4t-30 24.5t-11 20.5
q17 42 64.5 82.5t105.5 40.5q47 0 90 -25t79.5 -50t68.5 -25q76 0 117 92q4 7 20 -1.5t29 -22.5t10 -21z" />
    <glyph glyph-name="adieresis" unicode="&#xe4;" horiz-adv-x="1083" 
d="M1075 1028q-27 -171 -81.5 -512t-82.5 -512q-2 -12 -59 -12h-17t-15 1t-13.5 4t-3.5 7q9 56 27.5 166.5t27.5 165.5q-200 -361 -465 -361q-131 0 -198 98t-41 263q10 66 30.5 198t30.5 197q62 402 467 402q105 0 217 -33t176 -72zM887 532q11 73 33 220t34 221
q-118 63 -278 63q-303 0 -352 -323q-9 -63 -29 -188.5t-29 -188.5q-20 -126 25.5 -193t136.5 -67q215 0 459 456zM578 1282q-9 0 -17.5 0.5t-18.5 2t-15.5 4.5t-4.5 7q5 31 14.5 95.5t14.5 95.5q2 14 61 14q9 0 17.5 -0.5t17.5 -2t14.5 -4.5t4.5 -7q-5 -31 -14.5 -95.5
t-14.5 -95.5q-2 -14 -59 -14zM911 1282q-9 0 -17.5 0.5t-18 2t-15 4.5t-4.5 7q5 31 14.5 95.5t14.5 95.5q2 14 61 14q9 0 17.5 -0.5t17.5 -2t14 -4.5t4 -7q-5 -31 -14 -95.5t-14 -95.5q-2 -14 -60 -14z" />
    <glyph glyph-name="aring" unicode="&#xe5;" horiz-adv-x="1083" 
d="M1075 1028q-27 -171 -81.5 -512t-82.5 -512q-2 -12 -59 -12h-17t-15 1t-13.5 4t-3.5 7q9 56 27.5 166.5t27.5 165.5q-200 -361 -465 -361q-131 0 -198 98t-41 263q10 66 30.5 198t30.5 197q62 402 467 402q105 0 217 -33t176 -72zM887 532q11 73 33 220t34 221
q-118 63 -278 63q-303 0 -352 -323q-9 -63 -29 -188.5t-29 -188.5q-20 -126 25.5 -193t136.5 -67q215 0 459 456zM918 1411q-10 -66 -61 -110t-116 -44q-70 0 -110 47.5t-29 116.5q11 62 61.5 107t114.5 45q68 0 109 -47t31 -115zM844 1407q8 41 -12 67.5t-60 26.5
q-35 0 -63 -24.5t-33 -55.5q-8 -40 11 -66t58 -26q35 0 64.5 24t34.5 54z" />
    <glyph glyph-name="ae" unicode="&#xe6;" horiz-adv-x="1775" 
d="M1718 524h-717l-22 -145q-22 -141 46 -221t220 -80q108 0 185 22.5t159 63.5q9 4 24 -18t20.5 -44.5t-3.5 -31.5q-185 -95 -393 -95q-129 0 -217.5 44.5t-126.5 127.5q-203 -172 -432 -172q-159 0 -244 96.5t-63 233.5l6 43q31 189 209 254t536 19l25 147
q40 260 -228 260q-177 0 -311 -67q-13 -7 -26 17t-14.5 49t11.5 34q66 30 162.5 51t188.5 21q127 0 207 -50t102 -141q65 95 159 144t205 49q189 0 290 -119t71 -314zM483 76q187 0 383 170q-10 65 2 139l25 147q-306 44 -453 0.5t-170 -186.5l-6 -41q-18 -112 45 -170.5
t174 -58.5zM1622 614l16 99q25 157 -49.5 241t-208.5 84q-128 0 -225.5 -83t-122.5 -236l-16 -105h606z" />
    <glyph glyph-name="ccedilla" unicode="&#xe7;" horiz-adv-x="983" 
d="M485 -408q-86 0 -161 56q-6 4 0 21t18 30.5t20 7.5q65 -45 123 -45q57 0 86 19.5t37 60.5l4 25q9 47 -30.5 63t-120.5 10l22 140q-151 19 -233.5 126t-56.5 269l57 358q31 194 152.5 297t320.5 103q102 0 175.5 -29.5t141.5 -85.5q10 -13 0.5 -36.5t-29 -43.5t-28.5 -12
q-1 0 -16.5 13.5t-27.5 23t-37 24t-49.5 24t-59 16.5t-70.5 7q-316 0 -365 -319l-51 -322q-26 -156 44 -237.5t212 -81.5q50 0 96.5 10t87.5 29.5t65 34t56 36.5q12 8 28.5 -10.5t22 -39.5t-3.5 -32q-148 -122 -356 -127l-10 -73q77 -1 116 -37.5t31 -89.5l-6 -45
q-11 -62 -63.5 -100t-141.5 -38z" />
    <glyph glyph-name="egrave" unicode="&#xe8;" horiz-adv-x="1099" 
d="M1010 745q-17 -78 -57.5 -137t-96 -93.5t-125.5 -57.5t-147 -30t-161 -9t-167 4l-12 -78q-19 -131 58.5 -201.5t234.5 -70.5q162 0 342 92q11 8 27 -12t21.5 -41.5t-3.5 -30.5q-72 -42 -177.5 -73.5t-224.5 -31.5q-216 0 -315.5 112.5t-65.5 315.5l54 322q69 408 471 408
q195 0 288.5 -106.5t55.5 -281.5zM909 770q24 119 -40.5 192.5t-211.5 73.5q-134 0 -229 -78.5t-123 -244.5l-33 -203q218 -9 348.5 13.5t199 81.5t89.5 165zM713 1241l-162 281q-11 17 21 22l38 2q30 0 42 -2t16 -10l137 -289q6 -10 -4.5 -13t-36.5 -3q-41 0 -51 12z" />
    <glyph glyph-name="eacute" unicode="&#xe9;" horiz-adv-x="1099" 
d="M1010 745q-17 -78 -57.5 -137t-96 -93.5t-125.5 -57.5t-147 -30t-161 -9t-167 4l-12 -78q-19 -131 58.5 -201.5t234.5 -70.5q162 0 342 92q11 8 27 -12t21.5 -41.5t-3.5 -30.5q-72 -42 -177.5 -73.5t-224.5 -31.5q-216 0 -315.5 112.5t-65.5 315.5l54 322q69 408 471 408
q195 0 288.5 -106.5t55.5 -281.5zM909 770q24 119 -40.5 192.5t-211.5 73.5q-134 0 -229 -78.5t-123 -244.5l-33 -203q218 -9 348.5 13.5t199 81.5t89.5 165zM1040 1522l-252 -281q-10 -12 -51 -12t-41 9l4 7l228 289q10 12 61 12q56 0 57 -13q0 -4 -6 -11z" />
    <glyph glyph-name="ecircumflex" unicode="&#xea;" horiz-adv-x="1099" 
d="M1010 745q-17 -78 -57.5 -137t-96 -93.5t-125.5 -57.5t-147 -30t-161 -9t-167 4l-12 -78q-19 -131 58.5 -201.5t234.5 -70.5q162 0 342 92q11 8 27 -12t21.5 -41.5t-3.5 -30.5q-72 -42 -177.5 -73.5t-224.5 -31.5q-216 0 -315.5 112.5t-65.5 315.5l54 322q69 408 471 408
q195 0 288.5 -106.5t55.5 -281.5zM909 770q24 119 -40.5 192.5t-211.5 73.5q-134 0 -229 -78.5t-123 -244.5l-33 -203q218 -9 348.5 13.5t199 81.5t89.5 165zM922 1266q-44 0 -50 12l-92 201l-159 -201q-7 -12 -54 -12h-17.5t-16.5 1t-13.5 4t0.5 7l207 254q10 12 64 12
q53 0 59 -12l123 -254q2 -4 -2 -7t-14 -4t-17 -1h-18z" />
    <glyph glyph-name="edieresis" unicode="&#xeb;" horiz-adv-x="1099" 
d="M1010 745q-17 -78 -57.5 -137t-96 -93.5t-125.5 -57.5t-147 -30t-161 -9t-167 4l-12 -78q-19 -131 58.5 -201.5t234.5 -70.5q162 0 342 92q11 8 27 -12t21.5 -41.5t-3.5 -30.5q-72 -42 -177.5 -73.5t-224.5 -31.5q-216 0 -315.5 112.5t-65.5 315.5l54 322q69 408 471 408
q195 0 288.5 -106.5t55.5 -281.5zM909 770q24 119 -40.5 192.5t-211.5 73.5q-134 0 -229 -78.5t-123 -244.5l-33 -203q218 -9 348.5 13.5t199 81.5t89.5 165zM582 1282q-9 0 -17.5 0.5t-18.5 2t-15.5 4.5t-4.5 7l29 191q2 14 61 14q9 0 17.5 -0.5t17.5 -2t14.5 -4.5t4.5 -7
l-29 -191q-2 -14 -59 -14zM915 1282q-9 0 -17.5 0.5t-18 2t-15 4.5t-4.5 7l29 191q2 14 61 14q9 0 17.5 -0.5t17.5 -2t14.5 -4.5t4.5 -7l-29 -191q-2 -14 -60 -14z" />
    <glyph glyph-name="igrave" unicode="&#xec;" horiz-adv-x="471" 
d="M229 -8h-17.5t-16.5 1t-15 4t-4 7l174 1102q2 12 58 12h17.5t16.5 -1t15 -4t4 -7l-174 -1102q-2 -12 -58 -12zM371 1241l-162 281q-11 17 21 22l38 2q30 0 42 -2t16 -10l137 -289q6 -10 -4.5 -13t-36.5 -3q-41 0 -51 12z" />
    <glyph glyph-name="iacute" unicode="&#xed;" horiz-adv-x="471" 
d="M229 -8h-17.5t-16.5 1t-15 4t-4 7l174 1102q2 12 58 12h17.5t16.5 -1t15 -4t4 -7l-174 -1102q-2 -12 -58 -12zM727 1522l-252 -281q-10 -12 -51 -12t-41 9l4 7l227 289q10 12 62 12q56 0 57 -13q0 -4 -6 -11z" />
    <glyph glyph-name="icircumflex" unicode="&#xee;" horiz-adv-x="471" 
d="M229 -8h-17.5t-16.5 1t-15 4t-4 7l174 1102q2 12 58 12h17.5t16.5 -1t15 -4t4 -7l-174 -1102q-2 -12 -58 -12zM608 1266q-43 0 -49 12l-92 201l-160 -201q-7 -12 -53 -12h-17.5t-16.5 1t-13.5 4t0.5 7l207 254q10 12 63 12q54 0 60 -12l122 -254q2 -4 -2 -7t-14 -4
t-17 -1h-18z" />
    <glyph glyph-name="idieresis" unicode="&#xef;" horiz-adv-x="471" 
d="M229 -8h-17.5t-16.5 1t-15 4t-4 7l174 1102q2 12 58 12h17.5t16.5 -1t15 -4t4 -7l-174 -1102q-2 -12 -58 -12zM268 1282q-9 0 -17.5 0.5t-18 2t-15 4.5t-4.5 7l29 191q2 14 61 14q9 0 17.5 -0.5t17.5 -2t14 -4.5t4 -7l-28 -191q-2 -14 -60 -14zM602 1282q-9 0 -17.5 0.5
t-18 2t-15 4.5t-4.5 7l28 191q2 14 62 14q9 0 17.5 -0.5t17.5 -2t14 -4.5t4 -7l-28 -191q-2 -14 -60 -14z" />
    <glyph glyph-name="eth" unicode="&#xf0;" horiz-adv-x="1204" 
d="M748 1044q89 0 168 -32.5t131 -93.5q-6 89 -43.5 175.5t-98.5 155.5l-117 -100q-8 -7 -25 8t-27.5 35.5t-2.5 28.5l113 98q-23 30 -111 127q-9 11 35.5 51.5t56.5 30.5q42 -44 111 -129l119 102q5 5 22 -10t28.5 -35t4.5 -26l-119 -103q36 -45 63 -88t52.5 -107.5
t37 -136.5t10.5 -170.5t-19 -212.5l-39 -239q-31 -188 -156 -293t-326 -105q-228 0 -336.5 106t-78.5 294l43 270q32 195 165 297t339 102zM352 627l-37 -234q-26 -167 54 -243t233 -76q72 0 134 17t115.5 53.5t90 99.5t49.5 149l35 219q23 144 -61.5 238t-223.5 94
q-100 0 -178 -30t-135.5 -103t-75.5 -184z" />
    <glyph glyph-name="ntilde" unicode="&#xf1;" 
d="M967 4q-2 -12 -58 -12h-17.5t-16.5 1t-15 4t-4 7l119 752q21 134 -23.5 200t-146.5 66q-97 0 -202 -73.5t-191 -176.5l-121 -768q-2 -12 -58 -12h-17.5t-16.5 1t-15 4t-4 7l174 1102q2 12 58 12h17.5t16 -1t14 -4t3.5 -7l-31 -199q87 102 192.5 164t221.5 62
q126 0 198.5 -92t49.5 -236zM1049 1436q-20 -55 -69.5 -96.5t-107.5 -41.5q-36 0 -71 16t-58 34.5t-51 34.5t-51 16q-37 0 -64 -19.5t-53 -62.5q-3 -6 -19 4t-29.5 24.5t-10.5 20.5q17 42 64.5 82.5t105.5 40.5q37 0 72.5 -15.5t58.5 -34.5t51.5 -34.5t54.5 -15.5
q76 0 117 92q4 7 20 -1.5t29.5 -22.5t10.5 -21z" />
    <glyph glyph-name="ograve" unicode="&#xf2;" horiz-adv-x="1122" 
d="M559 -25q-197 0 -297.5 105.5t-71.5 294.5l58 358q64 400 485 400q201 0 300 -111t71 -289l-57 -358q-30 -194 -153 -297t-335 -103zM991 715q27 167 -43.5 242t-226.5 75q-155 0 -246.5 -74.5t-118.5 -242.5l-51 -322q-27 -168 41.5 -243.5t222.5 -75.5
q157 0 250.5 74.5t120.5 244.5zM725 1241l-162 281q-11 17 21 22l39 2q30 0 41.5 -2t15.5 -10l137 -289q6 -10 -4.5 -13t-36.5 -3q-41 0 -51 12z" />
    <glyph glyph-name="oacute" unicode="&#xf3;" horiz-adv-x="1122" 
d="M559 -25q-197 0 -297.5 105.5t-71.5 294.5l58 358q64 400 485 400q201 0 300 -111t71 -289l-57 -358q-30 -194 -153 -297t-335 -103zM991 715q27 167 -43.5 242t-226.5 75q-155 0 -246.5 -74.5t-118.5 -242.5l-51 -322q-27 -168 41.5 -243.5t222.5 -75.5
q157 0 250.5 74.5t120.5 244.5zM1026 1522l-252 -281q-10 -12 -51 -12t-41 9l4 7l227 289q10 12 62 12q56 0 57 -13q0 -4 -6 -11z" />
    <glyph glyph-name="ocircumflex" unicode="&#xf4;" horiz-adv-x="1122" 
d="M559 -25q-197 0 -297.5 105.5t-71.5 294.5l58 358q64 400 485 400q201 0 300 -111t71 -289l-57 -358q-30 -194 -153 -297t-335 -103zM991 715q27 167 -43.5 242t-226.5 75q-155 0 -246.5 -74.5t-118.5 -242.5l-51 -322q-27 -168 41.5 -243.5t222.5 -75.5
q157 0 250.5 74.5t120.5 244.5zM936 1266q-43 0 -49 12l-92 201l-160 -201q-7 -12 -53 -12h-17.5t-16.5 1t-13.5 4t0.5 7l206 254q10 12 64 12q53 0 59 -12l123 -254q2 -4 -2 -7t-14 -4t-17 -1h-18z" />
    <glyph glyph-name="otilde" unicode="&#xf5;" horiz-adv-x="1122" 
d="M559 -25q-197 0 -297.5 105.5t-71.5 294.5l58 358q64 400 485 400q201 0 300 -111t71 -289l-57 -358q-30 -194 -153 -297t-335 -103zM991 715q27 167 -43.5 242t-226.5 75q-155 0 -246.5 -74.5t-118.5 -242.5l-51 -322q-27 -168 41.5 -243.5t222.5 -75.5
q157 0 250.5 74.5t120.5 244.5zM1040 1436q-20 -55 -69 -96.5t-107 -41.5q-36 0 -71 16t-58 34.5t-51 34.5t-51 16q-37 0 -64 -19.5t-53 -62.5q-3 -6 -19 4t-29.5 24.5t-10.5 20.5q17 42 64.5 82.5t105.5 40.5q37 0 72.5 -15.5t58.5 -34.5t51.5 -34.5t54.5 -15.5
q76 0 117 92q4 7 20 -1.5t29 -22.5t10 -21z" />
    <glyph glyph-name="odieresis" unicode="&#xf6;" horiz-adv-x="1122" 
d="M559 -25q-197 0 -297.5 105.5t-71.5 294.5l58 358q64 400 485 400q201 0 300 -111t71 -289l-57 -358q-30 -194 -153 -297t-335 -103zM991 715q27 167 -43.5 242t-226.5 75q-155 0 -246.5 -74.5t-118.5 -242.5l-51 -322q-27 -168 41.5 -243.5t222.5 -75.5
q157 0 250.5 74.5t120.5 244.5zM596 1282q-9 0 -17.5 0.5t-18 2t-15 4.5t-4.5 7l28 191q2 14 62 14q9 0 17.5 -0.5t17.5 -2t14 -4.5t4 -7l-29 -191q-2 -14 -59 -14zM930 1282q-9 0 -17.5 0.5t-18.5 2t-15.5 4.5t-4.5 7l29 191q2 14 62 14q9 0 17.5 -0.5t17.5 -2t14 -4.5
t4 -7l-29 -191q-2 -14 -59 -14z" />
    <glyph glyph-name="divide" unicode="&#xf7;" horiz-adv-x="1304" 
d="M195 537h1026q12 0 12 -54q0 -51 -12 -51h-1026q-13 0 -13 51q0 54 13 54zM715 -12q-58 0 -58 12v244q0 12 58 12q57 0 57 -12v-244q0 -12 -57 -12zM713 733q-58 0 -58 12v244q0 12 58 12q57 0 57 -12v-244q0 -12 -57 -12z" />
    <glyph glyph-name="oslash" unicode="&#xf8;" horiz-adv-x="1122" 
d="M580 -25q-159 0 -250 48l-47 -66q-8 -12 -60 -12h-18.5t-18 1t-15 4t-1.5 7l88 121q-95 103 -68 297l58 360q30 189 156.5 292t308.5 103q100 0 160.5 -12.5t107.5 -40.5l41 60q8 12 57 12h18.5t19 -1t16.5 -4t2 -7l-86 -119q83 -114 55 -283l-57 -360
q-29 -190 -154 -295t-313 -105zM356 717l-53 -346q-10 -78 -4 -116.5t29 -78.5l587 811q-70 47 -194 47q-151 0 -239.5 -73.5t-125.5 -243.5zM991 717q11 60 9.5 111.5t-21.5 89.5l-586 -807q67 -37 176 -37q157 0 250.5 74.5t120.5 244.5z" />
    <glyph glyph-name="ugrave" unicode="&#xf9;" 
d="M338 1106q2 12 57 12h17.5t17 -1t15.5 -4t4 -7l-123 -774q-18 -118 27.5 -183t135.5 -65q33 0 67.5 8.5t65.5 23.5t62 34t57 40t50 42t42.5 39.5t32 33.5t20.5 23l7 8l121 770q2 12 57 12h17.5t16.5 -1t15 -4t4 -7l-174 -1102q-2 -12 -57 -12h-17.5t-16 1t-14 4t-3.5 7
l30 199q-85 -100 -190.5 -164t-206.5 -64q-133 0 -210 92t-54 236zM756 1241l-162 281q-11 17 21 22l38 2q21 0 30 -0.5t17 -3t11 -8.5l137 -289q6 -10 -4.5 -13t-36.5 -3q-41 0 -51 12z" />
    <glyph glyph-name="uacute" unicode="&#xfa;" 
d="M338 1106q2 12 57 12h17.5t17 -1t15.5 -4t4 -7l-123 -774q-18 -118 27.5 -183t135.5 -65q33 0 67.5 8.5t65.5 23.5t62 34t57 40t50 42t42.5 39.5t32 33.5t20.5 23l7 8l121 770q2 12 57 12h17.5t16.5 -1t15 -4t4 -7l-174 -1102q-2 -12 -57 -12h-17.5t-16 1t-14 4t-3.5 7
l30 199q-85 -100 -190.5 -164t-206.5 -64q-133 0 -210 92t-54 236zM1032 1522l-252 -281q-10 -12 -51 -12t-41 9l4 7l228 289q10 12 61 12q56 0 57 -13q0 -4 -6 -11z" />
    <glyph glyph-name="ucircumflex" unicode="&#xfb;" 
d="M338 1106q2 12 57 12h17.5t17 -1t15.5 -4t4 -7l-123 -774q-18 -118 27.5 -183t135.5 -65q33 0 67.5 8.5t65.5 23.5t62 34t57 40t50 42t42.5 39.5t32 33.5t20.5 23l7 8l121 770q2 12 57 12h17.5t16.5 -1t15 -4t4 -7l-174 -1102q-2 -12 -57 -12h-17.5t-16 1t-14 4t-3.5 7
l30 199q-85 -100 -190.5 -164t-206.5 -64q-133 0 -210 92t-54 236zM938 1266q-43 0 -49 12l-92 201l-160 -201q-7 -12 -53 -12h-17.5t-16.5 1t-13.5 4t0.5 7l206 254q10 12 64 12q53 0 59 -12l123 -254q2 -4 -2 -7t-14 -4t-17 -1h-18z" />
    <glyph glyph-name="udieresis" unicode="&#xfc;" 
d="M338 1106q2 12 57 12h17.5t17 -1t15.5 -4t4 -7l-123 -774q-18 -118 27.5 -183t135.5 -65q33 0 67.5 8.5t65.5 23.5t62 34t57 40t50 42t42.5 39.5t32 33.5t20.5 23l7 8l121 770q2 12 57 12h17.5t16.5 -1t15 -4t4 -7l-174 -1102q-2 -12 -57 -12h-17.5t-16 1t-14 4t-3.5 7
l30 199q-85 -100 -190.5 -164t-206.5 -64q-133 0 -210 92t-54 236zM598 1282q-9 0 -17.5 0.5t-18 2t-15 4.5t-4.5 7l28 191q2 14 62 14q9 0 17.5 -0.5t17.5 -2t14 -4.5t4 -7l-29 -191q-2 -14 -59 -14zM932 1282q-9 0 -17.5 0.5t-18 2t-15 4.5t-4.5 7l28 191q2 14 62 14
q9 0 17.5 -0.5t17.5 -2t14 -4.5t4 -7l-29 -191q-2 -14 -59 -14z" />
    <glyph glyph-name="yacute" unicode="&#xfd;" horiz-adv-x="946" 
d="M1094 1106l-766 -1505q-6 -13 -62 -13q-57 0 -58 10q0 2 1 3l211 411l-211 1094q-1 4 5 7t18 4t19.5 1h18.5q54 0 56 -12l172 -956l469 956q6 12 69 12q9 0 18.5 -0.5t20 -1.5t16 -3.5t3.5 -6.5zM946 1522l-252 -281q-10 -12 -51 -12t-41 9l4 7l228 289q10 12 61 12
q56 0 57 -13q0 -4 -6 -11z" />
    <glyph glyph-name="thorn" unicode="&#xfe;" horiz-adv-x="1150" 
d="M618 -25q-122 0 -201 48.5t-108 119.5l-88 -549q-2 -12 -57 -12h-17.5t-16.5 1t-15 4t-4 7l305 1919q0 13 55 13q53 0 53 -13l-90 -561q55 75 149 129t212 54q180 0 269 -103.5t58 -296.5l-57 -360q-30 -193 -151 -296.5t-296 -103.5zM745 1032q-124 0 -222.5 -83
t-116.5 -195l-62 -383q-21 -135 55.5 -216t214.5 -81q294 0 344 319l52 324q26 165 -46 240t-219 75z" />
    <glyph glyph-name="ydieresis" unicode="&#xff;" horiz-adv-x="946" 
d="M1094 1106l-766 -1505q-6 -13 -62 -13q-57 0 -58 10q0 2 1 3l211 411l-211 1094q-1 4 5 7t18 4t19.5 1h18.5q54 0 56 -12l172 -956l469 956q6 12 69 12q9 0 18.5 -0.5t20 -1.5t16 -3.5t3.5 -6.5zM510 1282q-9 0 -17.5 0.5t-18 2t-15 4.5t-4.5 7l28 191q2 14 62 14
q9 0 17.5 -0.5t17.5 -2t14 -4.5t4 -7l-29 -191q-2 -14 -59 -14zM844 1282q-9 0 -17.5 0.5t-18.5 2t-15.5 4.5t-4.5 7l29 191q2 14 62 14q9 0 17.5 -0.5t17.5 -2t14 -4.5t4 -7l-29 -191q-2 -14 -59 -14z" />
    <glyph glyph-name="Amacron" unicode="&#x100;" horiz-adv-x="1140" 
d="M809 1509q59 0 61 -12l217 -1493q2 -12 -65 -12q-55 0 -57 12l-52 369h-571l-170 -369q-6 -12 -63 -12h-18.5t-18.5 1t-16 4t-3 7l692 1493q6 12 64 12zM389 475h512l-113 871zM633 1763q-12 0 -12 49q0 50 12 50h452q3 0 5.5 -1.5t4 -5t2.5 -7t1 -9v-9v-9.5v-9
q0 -49 -13 -49h-452z" />
    <glyph glyph-name="amacron" unicode="&#x101;" horiz-adv-x="1083" 
d="M1075 1028q-27 -171 -81.5 -512t-82.5 -512q-2 -12 -59 -12h-17t-15 1t-13.5 4t-3.5 7q9 56 27.5 166.5t27.5 165.5q-200 -361 -465 -361q-131 0 -198 98t-41 263q10 66 30.5 198t30.5 197q62 402 467 402q105 0 217 -33t176 -72zM887 532q11 73 33 220t34 221
q-118 63 -278 63q-303 0 -352 -323q-9 -63 -29 -188.5t-29 -188.5q-20 -126 25.5 -193t136.5 -67q215 0 459 456zM518 1354q-12 0 -12 49t12 49h453q5 0 7.5 -3t3.5 -9t1.5 -10.5t0 -14t-0.5 -12.5q0 -49 -12 -49h-453z" />
    <glyph glyph-name="Abreve" unicode="&#x102;" horiz-adv-x="1140" 
d="M809 1509q59 0 61 -12l217 -1493q2 -12 -65 -12q-55 0 -57 12l-52 369h-571l-170 -369q-6 -12 -63 -12h-18.5t-18.5 1t-16 4t-3 7l692 1493q6 12 64 12zM389 475h512l-113 871zM1087 1950q-15 -99 -87.5 -166.5t-170.5 -67.5q-88 0 -142.5 69t-39.5 165q0 8 49 8
q24 0 25 -3q1 -2 0 -5q-12 -67 22.5 -112.5t94.5 -45.5q66 0 113 48t57 110q0 10 36 10q43 0 43 -10z" />
    <glyph glyph-name="abreve" unicode="&#x103;" horiz-adv-x="1083" 
d="M1075 1028q-27 -171 -81.5 -512t-82.5 -512q-2 -12 -59 -12h-17t-15 1t-13.5 4t-3.5 7q9 56 27.5 166.5t27.5 165.5q-200 -361 -465 -361q-131 0 -198 98t-41 263q10 66 30.5 198t30.5 197q62 402 467 402q105 0 217 -33t176 -72zM887 532q11 73 33 220t34 221
q-118 63 -278 63q-303 0 -352 -323q-9 -63 -29 -188.5t-29 -188.5q-20 -126 25.5 -193t136.5 -67q215 0 459 456zM969 1540q-15 -99 -87.5 -166t-170.5 -67q-88 0 -143 68.5t-40 164.5q0 8 50 8q23 0 24 -3q1 -2 0 -5q-12 -67 22.5 -112.5t94.5 -45.5q66 0 113 48t57 110
q0 10 37 10q43 0 43 -10z" />
    <glyph glyph-name="Aogonek" unicode="&#x104;" horiz-adv-x="1140" 
d="M809 1509q59 0 61 -12l217 -1493q0 -6 -18 -10q-43 -19 -84.5 -43.5t-82.5 -56.5t-68 -71.5t-31 -78.5q-12 -109 100 -109q31 0 73.5 15t49.5 22q8 4 20 -12t15 -32.5t-4 -22.5q-9 -5 -24.5 -13t-61 -21t-88.5 -13q-82 0 -136 48t-38 146q4 28 18 54.5t29.5 46.5t42.5 41
t45.5 33.5t49.5 28.5t44 22l39 18q-12 3 -12 8l-52 369h-571l-170 -369q-6 -12 -63 -12h-18.5t-18.5 1t-16 4t-3 7l692 1493q6 12 64 12zM389 475h512l-113 871z" />
    <glyph glyph-name="aogonek" unicode="&#x105;" horiz-adv-x="1083" 
d="M1075 1028q-27 -171 -81.5 -512t-82.5 -512q-3 -10 -24 -10q-43 -19 -84 -44t-81.5 -57t-67.5 -71t-31 -78q-12 -109 100 -109q31 0 73.5 15t49.5 22q9 4 20.5 -12t14.5 -32.5t-4 -22.5q-9 -5 -24.5 -13t-61.5 -21t-89 -13q-82 0 -136 48t-38 146q6 37 28.5 72t47.5 58
t64.5 47.5t62 36t57.5 27.5q10 5 15 7v4q9 56 27.5 166.5t27.5 165.5q-200 -361 -465 -361q-131 0 -198 98t-41 263q10 66 30.5 198t30.5 197q62 402 467 402q105 0 217 -33t176 -72zM887 532q11 73 33 220t34 221q-118 63 -278 63q-303 0 -352 -323q-9 -63 -29 -188.5
t-29 -188.5q-20 -126 25.5 -193t136.5 -67q215 0 459 456z" />
    <glyph glyph-name="Cacute" unicode="&#x106;" horiz-adv-x="1134" 
d="M1288 1448q8 -8 1 -32t-23 -48t-25 -20q-71 35 -155.5 56t-159.5 21q-81 0 -152 -16t-134.5 -50.5t-106.5 -97t-56 -147.5l-117 -735q-12 -73 2.5 -128t46.5 -87.5t83 -53t104 -27.5t119 -7q195 0 336 65q5 2 11 -7.5t10.5 -24t7.5 -29.5t2.5 -27t-5.5 -14
q-60 -27 -172.5 -45.5t-204.5 -18.5q-247 0 -367 105.5t-87 312.5l114 721q16 108 64.5 188.5t123 128.5t166.5 71.5t204 23.5q103 0 206.5 -23t163.5 -55zM1208 1931l-252 -280q-10 -13 -51 -13t-41 9q0 4 4 8l228 289q10 12 61 12q57 0 57 -14q0 -5 -6 -11z" />
    <glyph glyph-name="cacute" unicode="&#x107;" horiz-adv-x="983" 
d="M541 -25q-174 0 -274.5 111t-73.5 289l57 358q31 194 152.5 297t320.5 103q102 0 175.5 -29.5t141.5 -85.5q10 -13 0.5 -36.5t-29 -43.5t-28.5 -12q-1 0 -16.5 13.5t-27.5 23t-37 24t-49.5 24t-59 16.5t-70.5 7q-316 0 -365 -319l-51 -322q-26 -156 44 -237.5t212 -81.5
q50 0 96.5 10t87.5 29.5t65 34t56 36.5q12 8 28.5 -10.5t22 -39.5t-3.5 -32q-153 -127 -374 -127zM1010 1522l-252 -281q-10 -12 -51 -12t-41 9l4 7l227 289q10 12 61 12q57 0 58 -13q-1 -5 -6 -11z" />
    <glyph glyph-name="Ccaron" unicode="&#x10c;" horiz-adv-x="1134" 
d="M1288 1448q8 -8 1 -32t-23 -48t-25 -20q-71 35 -155.5 56t-159.5 21q-81 0 -152 -16t-134.5 -50.5t-106.5 -97t-56 -147.5l-117 -735q-12 -73 2.5 -128t46.5 -87.5t83 -53t104 -27.5t119 -7q195 0 336 65q5 2 11 -7.5t10.5 -24t7.5 -29.5t2.5 -27t-5.5 -14
q-60 -27 -172.5 -45.5t-204.5 -18.5q-247 0 -367 105.5t-87 312.5l114 721q16 108 64.5 188.5t123 128.5t166.5 71.5t204 23.5q103 0 206.5 -23t163.5 -55zM780 1962q41 0 47 -12l93 -201l159 201q7 12 56 12h17.5t16.5 -1t13.5 -4t-0.5 -7l-207 -254q-11 -13 -64 -13
t-59 13l-123 254q-2 4 2 7t14 4t17 1h18z" />
    <glyph glyph-name="ccaron" unicode="&#x10d;" horiz-adv-x="983" 
d="M541 -25q-174 0 -274.5 111t-73.5 289l57 358q31 194 152.5 297t320.5 103q102 0 175.5 -29.5t141.5 -85.5q10 -13 0.5 -36.5t-29 -43.5t-28.5 -12q-1 0 -16.5 13.5t-27.5 23t-37 24t-49.5 24t-59 16.5t-70.5 7q-316 0 -365 -319l-51 -322q-26 -156 44 -237.5t212 -81.5
q50 0 96.5 10t87.5 29.5t65 34t56 36.5q12 8 28.5 -10.5t22 -39.5t-3.5 -32q-153 -127 -374 -127zM623 1552q41 0 47 -12l92 -201l160 201q7 12 55 12h17.5t16.5 -1t13.5 -4t-0.5 -7l-207 -254q-10 -12 -63 -12q-54 0 -60 12l-123 254q-2 4 2.5 7t14.5 4t17 1h18z" />
    <glyph glyph-name="Dcaron" unicode="&#x10e;" horiz-adv-x="1327" 
d="M1313 1081l-109 -682q-32 -213 -154 -306t-364 -93h-483l237 1501h488q116 0 199.5 -32.5t126 -89t59.5 -133t0 -165.5zM1087 399l109 684q25 156 -47 236t-254 80h-354l-207 -1297h346q198 0 290 68t117 229zM754 1962q41 0 47 -12l92 -201l160 201q7 12 55 12h17.5
t16.5 -1t13.5 -4t-0.5 -7l-207 -254q-11 -13 -63 -13q-53 0 -60 13l-123 254q-2 4 2.5 7t14.5 4t17 1h18z" />
    <glyph glyph-name="dcaron" unicode="&#x10f;" horiz-adv-x="1470" 
d="M125 334l68 397q65 402 442 402q64 0 120.5 -19.5t92 -48t56.5 -53t28 -43.5l84 528q2 12 55 12h17.5t16.5 -1t15 -4t4 -7l-237 -1493q-2 -12 -58 -12h-17.5t-16 1t-14 4t-3.5 7l53 334q-1 -1 -3 -6q-117 -206 -262 -298q-93 -59 -187 -59q-143 0 -211.5 103.5
t-42.5 255.5zM299 713l-59 -371q-22 -135 22.5 -201.5t140.5 -66.5q106 0 217.5 118t239.5 345l33 200q20 119 -53 208t-193 89q-136 0 -228 -76.5t-120 -244.5zM1294 1104q-25 22 -10 37q74 71 101 139t55 246q2 12 57 12h17.5t16.5 -1t15 -4t4 -7q-26 -159 -77 -258.5
t-140 -173.5q-16 -13 -39 10z" />
    <glyph glyph-name="Dcroat" unicode="&#x110;" horiz-adv-x="1327" 
d="M168 719q-14 0 -4 49q5 49 20 49h148l108 684h465q472 0 408 -420l-109 -682q-16 -104 -48 -176t-88 -123.5t-141 -75.5t-204 -24h-520l112 719h-147zM1087 399l109 684q25 156 -47 236t-254 80h-354l-92 -582h337q10 0 5 -49q-10 -49 -21 -49h-338l-98 -617h373
q172 0 264 70t116 227z" />
    <glyph glyph-name="dcroat" unicode="&#x111;" horiz-adv-x="1144" 
d="M645 1235q-14 0 -4 49q5 49 18 49h330l27 164q2 12 55 12h17.5t16.5 -1t15 -4t4 -7l-26 -164h170q11 0 6 -49q-10 -49 -21 -49h-172l-194 -1231q-2 -12 -58 -12h-17.5t-16 1t-14 4t-3.5 7l53 334q-1 -1 -3 -6q-117 -206 -262 -298q-93 -59 -187 -59q-143 0 -211.5 103.5
t-42.5 255.5l68 397q65 402 442 402q64 0 120.5 -19.5t92 -48t56.5 -53t28 -43.5l41 266h-328zM860 537l33 200q20 119 -53 208t-193 89q-136 0 -228 -76.5t-120 -244.5l-59 -371q-22 -135 22.5 -201.5t140.5 -66.5q106 0 217.5 118t239.5 345z" />
    <glyph glyph-name="Emacron" unicode="&#x112;" horiz-adv-x="1044" 
d="M950 53q-1 -3 -2 -9t-1.5 -10t-2 -10t-3 -9.5l-3 -7t-4 -5.5t-4.5 -2h-727l237 1501h723q13 0 2 -53q-5 -51 -18 -51h-606l-90 -561h530q14 0 4 -52q-5 -51 -20 -51h-531l-98 -629h610q2 0 4 -1.5t2.5 -5t0.5 -7v-9t-0.5 -9.5t-1.5 -10t-1 -9zM643 1763q-12 0 -12 49
q0 50 12 50h453q5 0 7.5 -3t3.5 -9.5t1.5 -11t0 -14t-0.5 -12.5q0 -49 -12 -49h-453z" />
    <glyph glyph-name="emacron" unicode="&#x113;" horiz-adv-x="1093" 
d="M1010 745q-17 -78 -57.5 -137t-96 -93.5t-125.5 -57.5t-147 -30t-161 -9t-167 4l-12 -78q-19 -131 58.5 -201.5t234.5 -70.5q162 0 342 92q11 8 27 -12t21.5 -41.5t-3.5 -30.5q-72 -42 -177.5 -73.5t-224.5 -31.5q-216 0 -315.5 112.5t-65.5 315.5l54 322q69 408 471 408
q195 0 288.5 -106.5t55.5 -281.5zM909 770q24 119 -40.5 192.5t-211.5 73.5q-134 0 -229 -78.5t-123 -244.5l-33 -203q218 -9 348.5 13.5t199 81.5t89.5 165zM504 1354q-12 0 -12 49t12 49h452q3 0 5.5 -1.5t4 -5t2.5 -6.5t1 -8.5v-9v-9.5v-9q0 -49 -13 -49h-452z" />
    <glyph glyph-name="Edotaccent" unicode="&#x116;" horiz-adv-x="1044" 
d="M950 53q-1 -3 -2 -9t-1.5 -10t-2 -10t-3 -9.5l-3 -7t-4 -5.5t-4.5 -2h-727l237 1501h723q13 0 2 -53q-5 -51 -18 -51h-606l-90 -561h530q14 0 4 -52q-5 -51 -20 -51h-531l-98 -629h610q2 0 4 -1.5t2.5 -5t0.5 -7v-9t-0.5 -9.5t-1.5 -10t-1 -9zM834 1741q-12 0 -25 1
t-27 3t-22.5 7t-7.5 11l22 135q2 23 90 23t86 -23l-22 -135q-2 -22 -94 -22z" />
    <glyph glyph-name="edotaccent" unicode="&#x117;" horiz-adv-x="1093" 
d="M1010 745q-17 -78 -57.5 -137t-96 -93.5t-125.5 -57.5t-147 -30t-161 -9t-167 4l-12 -78q-19 -131 58.5 -201.5t234.5 -70.5q162 0 342 92q11 8 27 -12t21.5 -41.5t-3.5 -30.5q-72 -42 -177.5 -73.5t-224.5 -31.5q-216 0 -315.5 112.5t-65.5 315.5l54 322q69 408 471 408
q195 0 288.5 -106.5t55.5 -281.5zM909 770q24 119 -40.5 192.5t-211.5 73.5q-134 0 -229 -78.5t-123 -244.5l-33 -203q218 -9 348.5 13.5t199 81.5t89.5 165zM674 1331q-16 0 -34 2t-33.5 7.5t-14.5 13.5l22 135q2 22 91 22q88 0 86 -22l-23 -135q-2 -23 -94 -23z" />
    <glyph glyph-name="Eogonek" unicode="&#x118;" horiz-adv-x="1044" 
d="M831 0h-628l237 1501h723q13 0 2 -53q-5 -51 -18 -51h-606l-90 -561h530q14 0 4 -52q-5 -51 -20 -51h-531l-98 -629h610q2 0 4 -1.5t2.5 -5t0.5 -7v-9t-0.5 -9.5t-1.5 -10t-1 -9q-1 -3 -2 -9t-1.5 -10t-2 -10t-3 -9.5l-3 -7t-4 -5.5t-4.5 -2q-60 -25 -117.5 -59.5
t-108.5 -89t-57 -107.5q-12 -109 101 -109q31 0 73 15t49 22q8 4 20 -12t15 -32.5t-4 -22.5q-9 -5 -24.5 -13t-61 -21t-88.5 -13q-82 0 -136 48t-38 146q8 46 37.5 87t74.5 71t78.5 48t73.5 36q10 4 14 6z" />
    <glyph glyph-name="eogonek" unicode="&#x119;" horiz-adv-x="1093" 
d="M1010 745q-17 -78 -57.5 -137t-96 -93.5t-125.5 -57.5t-147 -30t-161 -9t-167 4l-6 -39l-6 -39q-15 -132 60.5 -202t232.5 -70q162 0 342 92q11 8 27 -12t21.5 -41.5t-3.5 -30.5q-19 -11 -79.5 -32.5t-122 -46.5t-126 -60t-108.5 -86t-52 -111q-12 -109 101 -109
q31 0 73 15t49 22q9 4 20.5 -12t14.5 -32.5t-4 -22.5q-9 -5 -24.5 -13t-61 -21t-88.5 -13q-82 0 -136 48t-38 146q6 41 29.5 77t59.5 64t67.5 46.5t70.5 37.5q-16 -2 -47 -2q-216 0 -315.5 112.5t-65.5 315.5q9 53 27 161t27 161q69 408 471 408q195 0 288.5 -106.5
t55.5 -281.5zM909 770q24 119 -40.5 192.5t-211.5 73.5q-134 0 -229 -78.5t-123 -244.5q-5 -34 -16.5 -101.5t-16.5 -101.5q218 -9 348.5 13.5t199 81.5t89.5 165z" />
    <glyph glyph-name="Ecaron" unicode="&#x11a;" horiz-adv-x="1044" 
d="M950 53q-1 -3 -2 -9t-1.5 -10t-2 -10t-3 -9.5l-3 -7t-4 -5.5t-4.5 -2h-727l237 1501h723q13 0 2 -53q-5 -51 -18 -51h-606l-90 -561h530q14 0 4 -52q-5 -51 -20 -51h-531l-98 -629h610q2 0 4 -1.5t2.5 -5t0.5 -7v-9t-0.5 -9.5t-1.5 -10t-1 -9zM698 1962q41 0 47 -12
l93 -201l159 201q7 12 56 12h17.5t16.5 -1t13.5 -4t-0.5 -7l-207 -254q-11 -13 -64 -13t-59 13l-123 254q-2 4 2 7t14 4t17 1h18z" />
    <glyph glyph-name="ecaron" unicode="&#x11b;" horiz-adv-x="1093" 
d="M1010 745q-17 -78 -57.5 -137t-96 -93.5t-125.5 -57.5t-147 -30t-161 -9t-167 4l-12 -78q-19 -131 58.5 -201.5t234.5 -70.5q162 0 342 92q11 8 27 -12t21.5 -41.5t-3.5 -30.5q-72 -42 -177.5 -73.5t-224.5 -31.5q-216 0 -315.5 112.5t-65.5 315.5l54 322q69 408 471 408
q195 0 288.5 -106.5t55.5 -281.5zM909 770q24 119 -40.5 192.5t-211.5 73.5q-134 0 -229 -78.5t-123 -244.5l-33 -203q218 -9 348.5 13.5t199 81.5t89.5 165zM555 1552q41 0 47 -12l92 -201l160 201q7 12 55 12h17.5t16.5 -1t13.5 -4t-0.5 -7l-206 -254q-10 -12 -64 -12
q-53 0 -59 12l-123 254q-2 4 2 7t14 4t17 1h18z" />
    <glyph glyph-name="Gbreve" unicode="&#x11e;" horiz-adv-x="1355" 
d="M1135 385l47 299h-295q-13 0 -2 53q5 54 20 54h412l-66 -406q-33 -209 -180 -309.5t-385 -100.5q-226 0 -349 113.5t-91 310.5l114 715q33 216 178.5 314t403.5 98q87 0 188 -23t160 -55q8 -8 1 -32t-23 -48t-25 -20q-69 34 -155.5 53.5t-163.5 19.5q-52 0 -101.5 -6.5
t-109 -26t-105.5 -51.5t-82.5 -88t-48.5 -129l-115 -727q-12 -76 5 -134.5t51.5 -91.5t86 -54t99 -28t98.5 -7t99 6t105.5 26t102 52.5t79.5 89.5t47 133zM1180 1950q-15 -99 -87.5 -166.5t-170.5 -67.5q-88 0 -143 69t-40 165q0 8 49 8q24 0 25 -3q1 -2 0 -5
q-12 -67 22.5 -112.5t94.5 -45.5q66 0 113 48t57 110q0 10 37 10q43 0 43 -10z" />
    <glyph glyph-name="gbreve" unicode="&#x11f;" horiz-adv-x="1140" 
d="M1157 1028q-24 -155 -147 -932q-18 -130 -49 -224t-86 -168t-141.5 -111t-205.5 -37q-82 0 -160.5 20.5t-113.5 38t-51 29.5q-11 14 -4 37t24.5 43t26.5 14q46 -34 125 -60t164 -26q69 0 125 18q173 60 215 305q10 60 29.5 181t29.5 182l-8 -14q-8 -14 -17.5 -30t-26 -41
t-34.5 -49.5t-42 -52.5t-49 -52.5t-55.5 -48t-61 -39.5t-66 -26t-70.5 -10q-155 0 -228 93t-49 247q12 70 33.5 208.5t32.5 207.5q30 195 150.5 298.5t306.5 103.5q102 0 202.5 -26.5t150.5 -52.5zM969 537q11 71 33 213.5t34 214.5q-14 8 -38.5 19t-98.5 29.5t-145 18.5
q-56 0 -101 -10t-80 -32t-61 -51t-46.5 -73t-35.5 -91t-28 -113t-23.5 -130.5t-23.5 -151.5q-7 -49 -11 -75q-15 -104 26.5 -167.5t135.5 -63.5q54 0 114.5 35.5t111 88t100 119t81.5 120t56 100.5zM1067 1540q-15 -99 -87.5 -166t-170.5 -67q-88 0 -142.5 68.5t-39.5 164.5
q0 8 49 8q23 0 24 -3q1 -2 0 -5q-12 -67 22.5 -112.5t94.5 -45.5q66 0 113 48t57 110q0 10 37 10q43 0 43 -10z" />
    <glyph glyph-name="Gcommaaccent" unicode="&#x122;" horiz-adv-x="1355" 
d="M1135 385l47 299h-295q-13 0 -2 53q5 54 20 54h412l-66 -406q-33 -209 -180 -309.5t-385 -100.5q-226 0 -349 113.5t-91 310.5l114 715q33 216 178.5 314t403.5 98q87 0 188 -23t160 -55q8 -8 1 -32t-23 -48t-25 -20q-69 34 -155.5 53.5t-163.5 19.5q-52 0 -101.5 -6.5
t-109 -26t-105.5 -51.5t-82.5 -88t-48.5 -129l-115 -727q-12 -76 5 -134.5t51.5 -91.5t86 -54t99 -28t98.5 -7t99 6t105.5 26t102 52.5t79.5 89.5t47 133zM459 -547q-25 22 -10 37q73 70 100 138t55 247q2 12 58 12h17.5t16.5 -1t15 -4t4 -7q-26 -159 -77 -258.5
t-140 -173.5q-16 -13 -39 10z" />
    <glyph glyph-name="gcommaaccent" unicode="&#x123;" horiz-adv-x="1140" 
d="M1157 1028q-24 -155 -147 -932q-18 -130 -49 -224t-86 -168t-141.5 -111t-205.5 -37q-82 0 -160.5 20.5t-113.5 38t-51 29.5q-11 14 -4 37t24.5 43t26.5 14q46 -34 125 -60t164 -26q69 0 125 18q173 60 215 305q10 60 29.5 181t29.5 182l-8 -14q-8 -14 -17.5 -30t-26 -41
t-34.5 -49.5t-42 -52.5t-49 -52.5t-55.5 -48t-61 -39.5t-66 -26t-70.5 -10q-155 0 -228 93t-49 247q12 70 33.5 208.5t32.5 207.5q30 195 150.5 298.5t306.5 103.5q102 0 202.5 -26.5t150.5 -52.5zM969 537q11 71 33 213.5t34 214.5q-14 8 -38.5 19t-98.5 29.5t-145 18.5
q-56 0 -101 -10t-80 -32t-61 -51t-46.5 -73t-35.5 -91t-28 -113t-23.5 -130.5t-23.5 -151.5q-7 -49 -11 -75q-15 -104 26.5 -167.5t135.5 -63.5q54 0 114.5 35.5t111 88t100 119t81.5 120t56 100.5zM999 1716q26 -22 11 -37q-74 -71 -101 -139t-55 -246q-2 -12 -57 -12
h-17.5t-17 1t-15.5 4t-4 7q26 158 77.5 258t140.5 174q16 12 38 -10z" />
    <glyph glyph-name="Itilde" unicode="&#x128;" horiz-adv-x="538" 
d="M338 4q-2 -12 -62 -12h-18t-17.5 1t-15.5 4t-4 7l236 1493q2 12 59 12h18t18 -1t16.5 -4t4.5 -7zM848 1845q-20 -55 -69 -96t-107 -41q-36 0 -71 15.5t-58.5 34.5t-51.5 34.5t-51 15.5q-37 0 -63.5 -19.5t-52.5 -62.5q-3 -6 -19 4.5t-30 25t-11 20.5q17 42 64.5 82
t105.5 40q47 0 90 -25t79.5 -50t68.5 -25q75 0 116 92q4 7 20 -1.5t29.5 -22.5t10.5 -21z" />
    <glyph glyph-name="itilde" unicode="&#x129;" horiz-adv-x="471" 
d="M233 -8h-17.5t-16.5 1t-15 4t-4 7l174 1102q2 12 58 12h17.5t16.5 -1t15 -4t4 -7l-174 -1102q-2 -12 -58 -12zM733 1436q-20 -55 -69 -96.5t-107 -41.5q-36 0 -71 16t-58 34.5t-51 34.5t-51 16q-37 0 -64 -19.5t-53 -62.5q-3 -6 -19 4t-29.5 24.5t-10.5 20.5
q17 42 64 82.5t105 40.5q47 0 90 -25t79.5 -50t68.5 -25q76 0 117 92q4 7 20 -1.5t29 -22.5t10 -21z" />
    <glyph glyph-name="uni012A" unicode="&#x12a;" horiz-adv-x="538" 
d="M338 4q-2 -12 -62 -12h-18t-17.5 1t-15.5 4t-4 7l236 1493q2 12 59 12h18t18 -1t16.5 -4t4.5 -7zM317 1763q-12 0 -12 49q0 50 12 50h453q5 0 7.5 -3t3.5 -9.5t1.5 -11t0 -14t-0.5 -12.5q0 -49 -12 -49h-453z" />
    <glyph glyph-name="imacron" unicode="&#x12b;" horiz-adv-x="471" 
d="M233 -8h-17.5t-16.5 1t-15 4t-4 7l174 1102q2 12 58 12h17.5t16.5 -1t15 -4t4 -7l-174 -1102q-2 -12 -58 -12zM213 1354q-12 0 -12 49t12 49h453q5 0 7.5 -3t3.5 -9t1.5 -10.5t0 -14t-0.5 -12.5q0 -49 -12 -49h-453z" />
    <glyph glyph-name="Iogonek" unicode="&#x12e;" horiz-adv-x="538" 
d="M338 4q-2 -5 -16 -8q-59 -26 -114 -60.5t-102 -87t-53 -104.5q-12 -109 101 -109q31 0 73 15t49 22q8 4 20 -12t15 -32.5t-4 -22.5q-9 -5 -24.5 -13t-61 -21t-88.5 -13q-82 0 -136 48t-38 146q8 46 37.5 86.5t71.5 69.5t77.5 48t71.5 36q7 3 10 4q-8 4 -6 8
q39 249 118 746.5t118 746.5q2 12 59 12h18t18 -1t16.5 -4t4.5 -7q-39 -249 -117.5 -746.5t-117.5 -746.5z" />
    <glyph glyph-name="iogonek" unicode="&#x12f;" horiz-adv-x="471" 
d="M291 4q-3 -10 -23 -10q-43 -19 -84 -44t-81.5 -57t-67.5 -71t-31 -78q-12 -109 100 -109q31 0 73.5 15t49.5 22q9 4 20.5 -12t14.5 -32.5t-4 -22.5q-9 -5 -24.5 -13t-61 -21t-88.5 -13q-82 0 -136 48t-38 146q5 29 19.5 56t30.5 47t44.5 42t46 34t50.5 28.5t43 21
t38 17.5q-2 2 -2 6q28 184 86.5 551t87.5 551q2 12 58 12h17.5t16.5 -1t15 -4t4 -7q-29 -184 -87.5 -551t-86.5 -551zM438 1292q-10 0 -17.5 0.5t-17 1.5t-14.5 4t-4 7q6 36 17.5 108.5t17.5 108.5q2 12 57 12h23q13 0 22 -3t8 -9q-6 -36 -17 -108.5t-17 -108.5
q-2 -13 -58 -13z" />
    <glyph glyph-name="Idotaccent" unicode="&#x130;" horiz-adv-x="538" 
d="M338 4q-2 -12 -62 -12h-18t-17.5 1t-15.5 4t-4 7l236 1493q2 12 59 12h18t18 -1t16.5 -4t4.5 -7zM549 1741q-12 0 -25 1t-27 3t-22.5 7t-7.5 11l22 135q2 23 91 23q88 0 86 -23l-23 -135q-2 -22 -94 -22z" />
    <glyph glyph-name="dotlessi" unicode="&#x131;" horiz-adv-x="471" 
d="M229 -8h-17.5t-16.5 1t-15 4t-4 7l174 1102q2 12 58 12h17.5t16.5 -1t15 -4t4 -7l-174 -1102q-2 -12 -58 -12z" />
    <glyph glyph-name="Kcommaaccent" unicode="&#x136;" horiz-adv-x="1140" 
d="M408 555l-89 -551q-2 -12 -61 -12h-18t-17.5 1t-15.5 4t-4 7l235 1493q2 12 64 12h17.5t16.5 -1t15 -4t4 -7l-121 -776l731 776q12 12 74 12h22t24 -1t21.5 -4t2.5 -7l-641 -680l422 -813q3 -4 -4.5 -7t-23 -4t-24.5 -1h-22q-52 0 -60 12l-374 729zM397 -547
q-25 22 -10 37q74 71 101 139t55 246q2 12 57 12h17.5t16.5 -1t15 -4t4 -7q-26 -159 -77 -258.5t-140 -173.5q-16 -13 -39 10z" />
    <glyph glyph-name="kcommaaccent" unicode="&#x137;" horiz-adv-x="946" 
d="M1067 1104l-537 -510l383 -590q2 -4 -5.5 -7t-22 -4t-24 -1h-21.5q-50 0 -56 12l-338 518l-86 -73l-69 -445q-2 -12 -60 -12h-17.5t-16 1t-14 4t-3.5 7l240 1518q2 12 57 12h17.5t16.5 -1t15 -4t4 -7l-147 -928l539 512q12 12 67 12q85 -1 78 -14zM315 -547
q-25 22 -10 37q74 71 101 139t55 246q2 12 57 12h17.5t16.5 -1t15 -4t4 -7q-26 -159 -77 -258.5t-140 -173.5q-16 -13 -39 10z" />
    <glyph glyph-name="kgreenlandic" unicode="&#x138;" horiz-adv-x="946" 
d="M1067 1104l-537 -510l383 -590q2 -4 -5.5 -7t-22 -4t-24 -1h-21.5q-50 0 -56 12l-338 518l-86 -73l-69 -445q-2 -12 -60 -12h-17.5t-16 1t-14 4t-3.5 7l178 1108q2 12 58 12h17.5t16.5 -1t15 -4t4 -7l-86 -518l539 512q12 12 67 12q85 -1 78 -14z" />
    <glyph glyph-name="Lacute" unicode="&#x139;" horiz-adv-x="985" 
d="M983 55q-1 -3 -2.5 -13t-3 -15.5t-3.5 -12.5t-5 -10.5t-6 -3.5h-760l235 1497q2 12 60 12h18t18 -1t16.5 -4t4.5 -7l-219 -1386h643q10 0 4 -56zM846 1931l-252 -280q-10 -13 -51 -13t-41 9q0 4 4 8l227 289q10 12 62 12q57 0 57 -14q0 -5 -6 -11z" />
    <glyph glyph-name="lacute" unicode="&#x13a;" horiz-adv-x="528" 
d="M471 0h-84q-96 0 -144.5 59.5t-33.5 151.5l207 1311q2 12 57 12h17.5t16.5 -1t15 -4t4 -7l-207 -1307q-10 -64 16.5 -92.5t94.5 -28.5h55q11 0 13 -7t-2 -38q-4 -32 -9 -40.5t-16 -8.5zM782 1931l-252 -280q-10 -13 -51 -13t-41 9q0 4 4 8l228 289q10 12 61 12
q57 0 57 -14q0 -5 -6 -11z" />
    <glyph glyph-name="Lcommaaccent" unicode="&#x13b;" horiz-adv-x="985" 
d="M983 55q-1 -3 -2.5 -13t-3 -15.5t-3.5 -12.5t-5 -10.5t-6 -3.5h-760l235 1497q2 12 60 12h18t18 -1t16.5 -4t4.5 -7l-219 -1386h643q10 0 4 -56zM377 -547q-25 22 -10 37q73 70 100 138t55 247q2 12 58 12h17.5t16.5 -1t15 -4t4 -7q-26 -159 -77 -258.5t-140 -173.5
q-16 -13 -39 10z" />
    <glyph glyph-name="lcommaaccent" unicode="&#x13c;" horiz-adv-x="528" 
d="M471 0h-84q-96 0 -144.5 59.5t-33.5 151.5l207 1311q2 12 57 12h17.5t16.5 -1t15 -4t4 -7l-207 -1307q-10 -64 16.5 -92.5t94.5 -28.5h55q11 0 13 -7t-2 -38q-4 -32 -9 -40.5t-16 -8.5zM90 -547q-25 22 -10 37q74 71 101 139t55 246q2 12 57 12h17.5t16.5 -1t15 -4t4 -7
q-26 -159 -77 -258.5t-140 -173.5q-16 -13 -39 10z" />
    <glyph glyph-name="Lcaron" unicode="&#x13d;" horiz-adv-x="985" 
d="M983 55q-1 -3 -2.5 -13t-3 -15.5t-3.5 -12.5t-5 -10.5t-6 -3.5h-760l235 1497q2 12 60 12h18t18 -1t16.5 -4t4.5 -7l-219 -1386h643q10 0 4 -56zM643 1063q-25 22 -10 37q73 70 100 138t55 247q2 12 58 12h17.5t16.5 -1t15 -4t4 -7q-26 -159 -77 -258.5t-140 -173.5
q-16 -13 -39 10z" />
    <glyph glyph-name="lcaron" unicode="&#x13e;" horiz-adv-x="528" 
d="M471 0h-84q-96 0 -144.5 59.5t-33.5 151.5l207 1311q2 12 57 12h17.5t16.5 -1t15 -4t4 -7l-207 -1307q-10 -64 16.5 -92.5t94.5 -28.5h55q11 0 13 -7t-2 -38q-4 -32 -9 -40.5t-16 -8.5zM623 1104q-26 22 -11 37q74 71 101 139t55 246q2 12 57 12h17.5t17 -1t15.5 -4t4 -7
q-26 -159 -77 -258.5t-140 -173.5q-16 -13 -39 10z" />
    <glyph glyph-name="Lslash" unicode="&#x141;" horiz-adv-x="993" 
d="M328 745l118 752q2 12 60 12h18t18 -1t16.5 -4t4.5 -7l-108 -690l260 137q7 4 18 -16t15.5 -39.5t-0.5 -26.5l-310 -164l-96 -598h643q13 0 4 -51q0 -3 -1 -8t-1.5 -8t-1.5 -7.5t-1.5 -7t-1.5 -6t-2 -5.5t-2.5 -3.5t-3 -2.5t-3.5 -1h-760l100 637l-135 -70
q-7 -4 -18.5 16t-16 39.5t1.5 26.5z" />
    <glyph glyph-name="lslash" unicode="&#x142;" horiz-adv-x="462" 
d="M285 4q-2 -12 -58 -12h-17.5t-16.5 1t-15 4t-4 7l98 629l-157 -80q-7 -4 -18.5 16t-16 39.5t1.5 26.5l209 106l119 756q2 12 57 12h17.5t16.5 -1t15 -4t4 -7l-108 -694l166 86q8 4 19.5 -16t15.5 -39.5t-1 -26.5l-219 -113z" />
    <glyph glyph-name="Nacute" unicode="&#x143;" horiz-adv-x="1411" 
d="M1208 4q-2 -12 -90 -12q-72 0 -76 12q-50 136 -151.5 409.5t-151.5 409.5q-18 48 -90.5 248t-113.5 307h-3q-26 -205 -60 -429t-83 -516.5t-70 -428.5q-2 -12 -59 -12h-18t-18 1t-16.5 4t-4.5 7q39 249 117.5 746.5t117.5 746.5q2 12 90 12q84 0 88 -12
q46 -128 139.5 -384t139.5 -384q43 -111 116.5 -316t102.5 -282h2q57 391 211 1366q2 12 59 12h20.5t18 -1t15.5 -4t4 -7q-39 -249 -118 -746.5t-118 -746.5zM1012 1651q-10 -13 -51 -13t-41 9q0 4 4 8l198 252q5 5 13.5 18t13.5 17.5t21 9t42 4.5q57 0 58 -14q0 -4 -6 -11
q-42 -47 -126 -140t-126 -140z" />
    <glyph glyph-name="nacute" unicode="&#x144;" 
d="M967 4q-2 -12 -58 -12h-17.5t-16.5 1t-15 4t-4 7l119 752q21 134 -23.5 200t-146.5 66q-97 0 -202 -73.5t-191 -176.5l-121 -768q-2 -12 -58 -12h-17.5t-16.5 1t-15 4t-4 7l174 1102q2 12 58 12h17.5t16 -1t14 -4t3.5 -7l-31 -199q87 102 192.5 164t221.5 62
q126 0 198.5 -92t49.5 -236zM1042 1522l-251 -281q-10 -12 -52 -12q-41 0 -41 9l4 7l228 289q10 12 61 12q56 0 57 -13q0 -4 -6 -11z" />
    <glyph glyph-name="Ncommaaccent" unicode="&#x145;" horiz-adv-x="1411" 
d="M1208 4q-2 -12 -90 -12q-72 0 -76 12q-50 136 -151.5 409.5t-151.5 409.5q-18 48 -90.5 248t-113.5 307h-3q-26 -205 -60 -429t-83 -516.5t-70 -428.5q-2 -12 -59 -12h-18t-18 1t-16.5 4t-4.5 7q39 249 117.5 746.5t117.5 746.5q2 12 90 12q84 0 88 -12
q46 -128 139.5 -384t139.5 -384q43 -111 116.5 -316t102.5 -282h2q57 391 211 1366q2 12 59 12h20.5t18 -1t15.5 -4t4 -7q-39 -249 -118 -746.5t-118 -746.5zM479 -547q-25 22 -10 37q74 71 101 139t55 246q2 12 57 12h17.5t16.5 -1t15 -4t4 -7q-26 -159 -77 -258.5
t-140 -173.5q-16 -13 -39 10z" />
    <glyph glyph-name="ncommaaccent" unicode="&#x146;" 
d="M967 4q-2 -12 -58 -12h-17.5t-16.5 1t-15 4t-4 7l119 752q21 134 -23.5 200t-146.5 66q-97 0 -202 -73.5t-191 -176.5l-121 -768q-2 -12 -58 -12h-17.5t-16.5 1t-15 4t-4 7l174 1102q2 12 58 12h17.5t16 -1t14 -4t3.5 -7l-31 -199q87 102 192.5 164t221.5 62
q126 0 198.5 -92t49.5 -236zM356 -547q-25 22 -10 37q74 71 101 139t55 246q2 12 57 12h17.5t16.5 -1t15 -4t4 -7q-26 -159 -77 -258.5t-140 -173.5q-16 -13 -39 10z" />
    <glyph glyph-name="Ncaron" unicode="&#x147;" horiz-adv-x="1411" 
d="M1208 4q-2 -12 -90 -12q-72 0 -76 12q-50 136 -151.5 409.5t-151.5 409.5q-18 48 -90.5 248t-113.5 307h-3q-26 -205 -60 -429t-83 -516.5t-70 -428.5q-2 -12 -59 -12h-18t-18 1t-16.5 4t-4.5 7q39 249 117.5 746.5t117.5 746.5q2 12 90 12q84 0 88 -12
q46 -128 139.5 -384t139.5 -384q43 -111 116.5 -316t102.5 -282h2q57 391 211 1366q2 12 59 12h20.5t18 -1t15.5 -4t4 -7q-39 -249 -118 -746.5t-118 -746.5zM856 1962q41 0 47 -12q16 -34 46.5 -100.5t45.5 -100.5q27 34 80.5 100.5t79.5 100.5q7 12 55 12h17.5t16.5 -1
t13.5 -4t-0.5 -7q-30 -37 -89.5 -112t-90.5 -112q-17 -21 -23 -27t-22 -11t-45 -5q-53 0 -59 13q-20 42 -61 127t-62 127q-2 4 2 7t14 4t17 1h18z" />
    <glyph glyph-name="ncaron" unicode="&#x148;" 
d="M967 4q-2 -12 -58 -12h-17.5t-16.5 1t-15 4t-4 7l119 752q21 134 -23.5 200t-146.5 66q-97 0 -202 -73.5t-191 -176.5l-121 -768q-2 -12 -58 -12h-17.5t-16.5 1t-15 4t-4 7l174 1102q2 12 58 12h17.5t16 -1t14 -4t3.5 -7l-31 -199q87 102 192.5 164t221.5 62
q126 0 198.5 -92t49.5 -236zM635 1552q41 0 47 -12l92 -201l160 201q7 12 55 12h17.5t16.5 -1t13.5 -4t-0.5 -7l-207 -254q-10 -12 -63 -12t-59 12l-123 254q-2 4 2 7t14 4t17 1h18z" />
    <glyph glyph-name="Eng" unicode="&#x14a;" horiz-adv-x="1411" 
d="M1444 1497l-236 -1493q-16 -95 -39.5 -158.5t-63 -107t-96.5 -63t-139 -19.5h-104q-15 0 -4 53q5 51 20 51h111q27 0 49 4t39.5 14.5t30 20t23.5 30t17.5 33t14 40.5t10.5 42.5t10 47.5q-43 4 -45 12q-49 133 -228.5 621.5t-278.5 752.5h-3q-25 -209 -73 -501
q-22 -145 -70 -436t-70 -437q-2 -12 -59 -12h-18t-18 1t-16.5 4t-4.5 7q39 249 117.5 746.5t117.5 746.5q2 12 90 12q84 0 88 -12q338 -938 498 -1366h2q57 391 211 1366q2 12 59 12h20.5t18 -1t15.5 -4t4 -7z" />
    <glyph glyph-name="eng" unicode="&#x14b;" 
d="M715 -418h-117q-13 0 -4 47q5 47 18 47h82q67 0 93.5 35.5t41.5 138.5l146 906q21 134 -23.5 200t-146.5 66q-97 0 -202 -73.5t-191 -176.5q-21 -128 -61 -384l-60 -384q-2 -12 -58 -12h-17.5t-16.5 1t-15 4t-4 7q28 184 86.5 551t87.5 551q2 12 58 12h17.5t16 -1t14 -4
t3.5 -7q-5 -33 -15.5 -99.5t-15.5 -99.5q87 102 192.5 164t221.5 62q126 0 197.5 -92t50.5 -236q-66 -433 -131 -805q-4 -25 -11 -73q-6 -43 -9.5 -64.5t-10.5 -58t-13 -55t-16.5 -47t-21.5 -42.5t-28 -32t-36.5 -26t-45 -14t-56.5 -6z" />
    <glyph glyph-name="Omacron" unicode="&#x14c;" horiz-adv-x="1386" 
d="M1262 377q-15 -104 -64 -182.5t-125 -126t-170 -70.5t-207 -23q-238 0 -360 106.5t-90 305.5q23 137 61 388.5t53 344.5q16 104 65 183t123.5 127t167 72t202.5 24q246 0 368.5 -105.5t89.5 -318.5q-23 -136 -61.5 -385.5t-52.5 -339.5zM1145 377q20 124 59 371.5
t58 371.5q25 156 -68 229.5t-276 73.5t-299.5 -73.5t-141.5 -229.5q-15 -99 -46.5 -296.5t-47.5 -297.5q-4 -24 -11.5 -74.5t-11.5 -74.5q-25 -153 67.5 -227t274.5 -74t300 74t143 227zM752 1763q-13 0 -13 49q0 50 13 50h452q3 0 5.5 -1.5t4 -5t2.5 -7t1 -9v-9v-9.5v-9
q0 -49 -13 -49h-452z" />
    <glyph glyph-name="omacron" unicode="&#x14d;" horiz-adv-x="1122" 
d="M559 -25q-197 0 -297.5 105.5t-71.5 294.5l58 358q64 400 485 400q201 0 300 -111t71 -289l-57 -358q-30 -194 -153 -297t-335 -103zM991 715q27 167 -43.5 242t-226.5 75q-155 0 -246.5 -74.5t-118.5 -242.5l-51 -322q-27 -168 41.5 -243.5t222.5 -75.5
q157 0 250.5 74.5t120.5 244.5zM559 1354q-12 0 -12 49t12 49h453q5 0 7.5 -3t3.5 -9t1.5 -10.5t0 -14t-0.5 -12.5q0 -49 -12 -49h-453z" />
    <glyph glyph-name="Ohungarumlaut" unicode="&#x150;" horiz-adv-x="1386" 
d="M1262 377q-15 -104 -64 -182.5t-125 -126t-170 -70.5t-207 -23q-238 0 -360 106.5t-90 305.5q23 137 61 388.5t53 344.5q16 104 65 183t123.5 127t167 72t202.5 24q246 0 368.5 -105.5t89.5 -318.5q-23 -136 -61.5 -385.5t-52.5 -339.5zM1145 377q20 124 59 371.5
t58 371.5q25 156 -68 229.5t-276 73.5t-299.5 -73.5t-141.5 -229.5q-15 -99 -46.5 -296.5t-47.5 -297.5q-4 -24 -11.5 -74.5t-11.5 -74.5q-25 -153 67.5 -227t274.5 -74t300 74t143 227zM1133 1653q-13 -13 -54 -13t-41 9q0 4 4 8q33 42 99.5 126t99.5 126q5 5 13.5 18
t13.5 17.5t21 9t42 4.5q58 0 58 -14q-1 -5 -7 -11q-42 -47 -124.5 -140t-124.5 -140zM827 1653q-13 -13 -53 -13q-41 0 -41 9q0 4 4 8q33 42 99.5 126t99.5 126q5 5 13.5 18t13.5 17.5t21 9t42 4.5q58 0 58 -14q-1 -5 -7 -11q-42 -47 -125 -140t-125 -140z" />
    <glyph glyph-name="ohungarumlaut" unicode="&#x151;" horiz-adv-x="1122" 
d="M559 -25q-197 0 -297.5 105.5t-71.5 294.5l58 358q64 400 485 400q201 0 300 -111t71 -289l-57 -358q-30 -194 -153 -297t-335 -103zM991 715q27 167 -43.5 242t-226.5 75q-155 0 -246.5 -74.5t-118.5 -242.5l-51 -322q-27 -168 41.5 -243.5t222.5 -75.5
q157 0 250.5 74.5t120.5 244.5zM1169 1524l-249 -281q-12 -12 -54 -12q-41 0 -41 9l4 7l228 289q10 12 61 12q58 0 58 -13q-1 -5 -7 -11zM864 1524l-250 -281q-12 -12 -53 -12t-41 9l4 7l228 289q10 12 61 12q58 0 58 -13q-1 -5 -7 -11z" />
    <glyph glyph-name="OE" unicode="&#x152;" horiz-adv-x="2011" 
d="M1126 113q-4 -6 -12.5 -15t-43 -33t-78.5 -42t-122 -33t-170 -15q-116 0 -205.5 26t-151.5 78.5t-86.5 138t-6.5 198.5l110 704q33 206 183.5 306t386.5 100q83 0 154.5 -13.5t114.5 -33t74 -39.5t43 -34l13 -13l19 108h745q2 0 4 -1.5t2.5 -5t0.5 -7v-9t-0.5 -9.5
t-1.5 -10t-1 -9q-10 -49 -20 -49h-629l-90 -567h526q14 0 4 -50q-5 -49 -20 -49h-527l-100 -635h660q14 0 4 -49q-5 -51 -19 -51h-776zM1169 377l117 743q11 66 -4 119t-48 87.5t-82.5 57t-104.5 32t-117 9.5q-53 0 -103.5 -6t-111 -26t-107 -52t-83 -89t-48.5 -132
l-117 -743q-12 -75 6.5 -131.5t54.5 -88t90 -50.5t102 -25t102 -6q80 0 149.5 14t135.5 46.5t110.5 94t58.5 146.5z" />
    <glyph glyph-name="oe" unicode="&#x153;" horiz-adv-x="1855" 
d="M569 -25q-202 0 -299.5 107t-68.5 293l57 360q64 400 483 400q137 0 229.5 -47t127.5 -136q68 87 163.5 135t206.5 48q191 0 291 -116t68 -317l-33 -202h-717l-16 -107q-24 -151 42.5 -234t221.5 -83q108 0 188 23.5t162 64.5q9 4 23 -18t19 -44.5t-5 -31.5
q-185 -95 -393 -95q-132 0 -222 46t-128 133q-132 -179 -400 -179zM1004 733q21 158 -50 229.5t-223 71.5q-154 0 -245.5 -74t-118.5 -243l-52 -324q-27 -167 42 -243t223 -76q152 0 244 70.5t122 230.5zM1698 590l20 123q25 157 -49.5 241t-208.5 84q-125 0 -221.5 -79.5
t-124.5 -225.5l-22 -143h606z" />
    <glyph glyph-name="Racute" unicode="&#x154;" horiz-adv-x="1206" 
d="M885 621l198 -617q1 -4 -6 -7t-21 -4t-23 -1h-21q-52 0 -56 12l-184 596h-350l-94 -596q-2 -12 -62 -12h-18t-18 1t-16.5 4t-4.5 7l237 1497h412q91 0 160.5 -20.5t112 -56.5t68.5 -85.5t29.5 -109t-5.5 -125.5l-17 -100q-26 -161 -99 -253.5t-222 -129.5zM1090 1001
l16 103q25 155 -39.5 226t-235.5 71h-282l-111 -701h283q170 0 257 72t112 229zM1141 1931l-252 -280q-10 -13 -51 -13t-41 9q0 4 4 8l227 289q10 12 62 12q57 0 57 -14q0 -5 -6 -11z" />
    <glyph glyph-name="racute" unicode="&#x155;" horiz-adv-x="669" 
d="M791 999h-66q-65 0 -137.5 -59.5t-181.5 -194.5l-117 -741q-2 -12 -58 -12h-17.5t-16 1t-14 4t-3.5 7l174 1102q2 12 56 12h17t15 -1t13.5 -4t3.5 -7l-39 -248q120 147 192 201.5t160 54.5h41q14 0 2 -59q-11 -56 -24 -56zM893 1522l-252 -281q-10 -12 -51 -12t-41 9l4 7
l227 289q10 12 62 12q56 0 57 -13q0 -4 -6 -11z" />
    <glyph glyph-name="Rcommaaccent" unicode="&#x156;" horiz-adv-x="1206" 
d="M885 621l198 -617q1 -4 -6 -7t-21 -4t-23 -1h-21q-52 0 -56 12l-184 596h-350l-94 -596q-2 -12 -62 -12h-18t-18 1t-16.5 4t-4.5 7l237 1497h412q91 0 160.5 -20.5t112 -56.5t68.5 -85.5t29.5 -109t-5.5 -125.5l-17 -100q-26 -161 -99 -253.5t-222 -129.5zM1090 1001
l16 103q25 155 -39.5 226t-235.5 71h-282l-111 -701h283q170 0 257 72t112 229zM397 -547q-25 22 -10 37q74 71 101 139t55 246q2 12 57 12h17.5t16.5 -1t15 -4t4 -7q-26 -159 -77 -258.5t-140 -173.5q-16 -13 -39 10z" />
    <glyph glyph-name="rcommaaccent" unicode="&#x157;" horiz-adv-x="669" 
d="M791 999h-66q-65 0 -137.5 -59.5t-181.5 -194.5l-117 -741q-2 -12 -58 -12h-17.5t-16 1t-14 4t-3.5 7l174 1102q2 12 56 12h17t15 -1t13.5 -4t3.5 -7l-39 -248q120 147 192 201.5t160 54.5h41q14 0 2 -59q-11 -56 -24 -56zM16 -547q-25 22 -10 37q74 71 101 139t55 246
q2 12 57 12h17.5t16.5 -1t15 -4t4 -7q-26 -159 -77 -258.5t-140 -173.5q-16 -13 -39 10z" />
    <glyph glyph-name="Rcaron" unicode="&#x158;" horiz-adv-x="1206" 
d="M885 621l198 -617q1 -4 -6 -7t-21 -4t-23 -1h-21q-52 0 -56 12l-184 596h-350l-94 -596q-2 -12 -62 -12h-18t-18 1t-16.5 4t-4.5 7l237 1497h412q91 0 160.5 -20.5t112 -56.5t68.5 -85.5t29.5 -109t-5.5 -125.5l-17 -100q-26 -161 -99 -253.5t-222 -129.5zM1090 1001
l16 103q25 155 -39.5 226t-235.5 71h-282l-111 -701h283q170 0 257 72t112 229zM713 1962q41 0 47 -12l92 -201l160 201q7 12 55 12h17.5t16.5 -1t13.5 -4t-0.5 -7l-207 -254q-11 -13 -63 -13q-54 0 -60 13l-122 254q-2 4 2 7t14 4t17 1h18z" />
    <glyph glyph-name="rcaron" unicode="&#x159;" horiz-adv-x="669" 
d="M791 999h-66q-65 0 -137.5 -59.5t-181.5 -194.5l-117 -741q-2 -12 -58 -12h-17.5t-16 1t-14 4t-3.5 7l174 1102q2 12 56 12h17t15 -1t13.5 -4t3.5 -7l-39 -248q120 147 192 201.5t160 54.5h41q14 0 2 -59q-11 -56 -24 -56zM485 1552q41 0 47 -12l93 -201l159 201
q7 12 56 12h17.5t16.5 -1t13.5 -4t-0.5 -7l-207 -254q-10 -12 -64 -12q-53 0 -59 12l-123 254q-2 4 2 7t14 4t17 1h18z" />
    <glyph glyph-name="Sacute" unicode="&#x15a;" horiz-adv-x="1095" 
d="M1053 381q-29 -185 -177.5 -295.5t-363.5 -110.5q-110 0 -216 40.5t-185 103.5q-8 7 4.5 34t31 50t25.5 18q63 -53 159.5 -95t194.5 -42q158 0 269.5 83.5t134.5 227.5q11 65 -2.5 114.5t-58.5 89.5t-80.5 62t-111.5 61q-33 17 -50 26q-66 35 -100.5 55t-87.5 62.5
t-77.5 83t-39 103t-3.5 136.5q24 150 152.5 244t325.5 94q185 0 346 -92q9 -5 0 -32t-25 -50t-24 -17q-59 39 -143 61.5t-163 22.5q-142 0 -238 -66t-114 -186q-9 -58 6 -105t60.5 -85t77 -57t96.5 -52q24 -12 35 -18q66 -34 109.5 -60t98 -70.5t84.5 -89.5t46 -110t4 -139z
M1085 1931l-251 -280q-10 -13 -52 -13q-41 0 -41 9q0 4 4 8l228 289q10 12 61 12q57 0 57 -14q0 -5 -6 -11z" />
    <glyph glyph-name="sacute" unicode="&#x15b;" horiz-adv-x="870" 
d="M416 -25q-75 0 -163 25t-142 59q-7 5 4 30.5t27.5 47.5t23.5 17q129 -80 256 -80q114 0 196 64t93 153q7 61 -17 109.5t-68 81t-98 61.5t-107 59t-95 65t-62 88t-8 119q21 112 120.5 185.5t252.5 73.5q151 0 254 -48q13 -7 -7 -53t-30 -43q-63 23 -112.5 34t-121.5 11
q-101 0 -168.5 -49.5t-81.5 -122.5q-9 -46 14 -83t66.5 -64.5t97.5 -54.5t108 -60.5t96.5 -74t64 -103.5t10.5 -141q-8 -56 -39.5 -110t-81.5 -98t-124 -71t-158 -27zM911 1522l-252 -281q-10 -12 -51 -12t-41 9l4 7l228 289q10 12 61 12q56 0 57 -13q0 -4 -6 -11z" />
    <glyph glyph-name="Scedilla" unicode="&#x15e;" horiz-adv-x="1095" 
d="M483 -408q-86 0 -161 56q-6 4 0 21t18 30.5t20 7.5q65 -45 123 -45q57 0 86 19.5t37 60.5l4 25q9 47 -30.5 63t-120.5 10l20 137q-102 6 -199.5 45t-168.5 97q-8 7 4.5 34t31 50t25.5 18q63 -53 159.5 -95t194.5 -42q158 0 269.5 83.5t134.5 227.5q11 65 -2.5 114.5
t-58.5 89.5t-80.5 62t-111.5 61q-33 17 -50 26q-66 35 -100.5 55t-87.5 62.5t-77.5 83t-39 103t-3.5 136.5q24 150 152.5 244t325.5 94q185 0 346 -92q9 -5 0 -32t-25 -50t-24 -17q-59 39 -143 61.5t-163 22.5q-142 0 -238 -66t-114 -186q-9 -58 6 -105t60.5 -85t77 -57
t96.5 -52q24 -12 35 -18q66 -34 109.5 -60t98 -70.5t84.5 -89.5t46 -110t4 -139q-27 -175 -162 -283.5t-334 -120.5l-10 -75q77 -1 116 -37.5t31 -89.5l-6 -45q-11 -62 -63.5 -100t-141.5 -38z" />
    <glyph glyph-name="scedilla" unicode="&#x15f;" horiz-adv-x="870" 
d="M371 -408q-87 0 -162 56q-6 4 0.5 21t18.5 30.5t20 7.5q65 -45 123 -45q57 0 86 19.5t37 60.5l4 25q9 47 -31 63t-121 10l21 137q-70 8 -141 30.5t-115 51.5q-7 5 4 30.5t27.5 47.5t23.5 17q129 -80 256 -80q114 0 196 64t93 153q7 61 -17 109.5t-68 81t-98 61.5t-107 59
t-95 65t-62 88t-8 119q21 112 120.5 185.5t252.5 73.5q151 0 254 -48q13 -7 -7 -53t-30 -43q-63 23 -112.5 34t-121.5 11q-101 0 -168.5 -49.5t-81.5 -122.5q-9 -46 14 -83t66.5 -64.5t97.5 -54.5t108 -60.5t96.5 -74t64 -103.5t10.5 -141q-16 -114 -118.5 -204.5
t-256.5 -99.5l-10 -75q77 -1 116.5 -37.5t31.5 -89.5l-7 -45q-11 -62 -63.5 -100t-140.5 -38z" />
    <glyph glyph-name="Scaron" unicode="&#x160;" horiz-adv-x="1085" 
d="M1063 381q-29 -185 -177.5 -295.5t-363.5 -110.5q-110 0 -216 40.5t-185 103.5q-8 7 4.5 34t31 50t25.5 18q63 -53 160 -95t195 -42q158 0 269 83.5t134 227.5q11 65 -2.5 114.5t-58.5 89.5t-80.5 62t-111.5 61q-33 17 -50 26q-65 35 -99.5 55t-87.5 62.5t-77.5 82.5
t-39 103t-3.5 137q24 150 152 244t325 94q185 0 346 -92q9 -5 0 -32t-25 -50t-24 -17q-59 39 -143 61.5t-162 22.5q-142 0 -238.5 -66t-114.5 -186q-9 -58 6 -105t60.5 -85t77 -57t96.5 -52q24 -12 35 -18q66 -34 109.5 -60t98 -70.5t84.5 -89.5t46 -110t4 -139zM690 1962
q41 0 47 -12l92 -201l160 201q7 12 55 12h18t17 -1t13.5 -4t-0.5 -7l-207 -254q-11 -13 -64 -13t-59 13l-123 254q-2 4 2 7t14 4t17 1h18z" />
    <glyph glyph-name="scaron" unicode="&#x161;" horiz-adv-x="890" 
d="M426 -25q-75 0 -163 25t-142 59q-7 5 4 30.5t27.5 47.5t23.5 17q129 -80 256 -80q114 0 196 64t93 153q7 61 -17 109.5t-68 81t-98 61.5t-107 59t-95 65t-62 88t-8 119q21 112 120.5 185.5t252.5 73.5q151 0 254 -48q13 -7 -7 -53t-30 -43q-63 24 -112 34.5t-121 10.5
q-101 0 -168.5 -49.5t-81.5 -122.5q-9 -46 14 -83t66.5 -64.5t97.5 -54.5t107.5 -60.5t96 -74t64 -103.5t10.5 -141q-8 -56 -39.5 -110t-81.5 -98t-124 -71t-158 -27zM514 1552q41 0 47 -12l92 -201l160 201q7 12 55 12h17.5t16.5 -1t13.5 -4t-0.5 -7l-206 -254
q-10 -12 -64 -12q-53 0 -59 12l-123 254q-2 4 2 7t14 4t17 1h18z" />
    <glyph glyph-name="Tcommaaccent" unicode="&#x162;" horiz-adv-x="1001" 
d="M1221 1452q-10 -51 -21 -51h-414l-221 -1397q-2 -12 -59 -12h-18t-18 1t-16.5 4t-4.5 7l221 1397h-426q-14 0 -4 51q5 49 20 49h957q3 0 5 -3t2 -9v-10.5t-1.5 -14t-1.5 -12.5zM285 -547q-26 22 -11 37q74 71 101 139t55 246q2 12 57 12h17.5t17 -1t15.5 -4t4 -7
q-26 -159 -77 -258.5t-140 -173.5q-16 -13 -39 10z" />
    <glyph glyph-name="tcommaaccent" unicode="&#x163;" horiz-adv-x="690" 
d="M571 0h-139q-98 0 -145.5 59t-32.5 152l123 776h-156q-13 0 -8 45q9 47 23 47h155l43 269q2 12 58 12h17.5t16.5 -1t15 -4t4 -7l-43 -269h241q13 0 5 -47q-7 -45 -19 -45h-242l-122 -772q-10 -64 15 -91.5t93 -27.5h113q11 0 13 -7t-3 -38q-4 -33 -9 -42t-16 -9z
M193 -547q-26 22 -11 37q74 71 101 139t55 246q2 12 57 12h17.5t17 -1t15.5 -4t4 -7q-26 -158 -77.5 -258t-140.5 -174q-16 -12 -38 10z" />
    <glyph glyph-name="Tcaron" unicode="&#x164;" horiz-adv-x="1001" 
d="M1221 1452q-10 -51 -21 -51h-414l-221 -1397q-2 -12 -59 -12h-18t-18 1t-16.5 4t-4.5 7l221 1397h-426q-14 0 -4 51q5 49 20 49h957q3 0 5 -3t2 -9v-10.5t-1.5 -14t-1.5 -12.5zM641 1962q41 0 47 -12l92 -201l160 201q7 12 55 12h17.5t16.5 -1t13.5 -4t-0.5 -7l-206 -254
q-11 -13 -64 -13q-52 0 -59 13l-123 254q-2 4 2 7t14 4t17 1h18z" />
    <glyph glyph-name="tcaron" unicode="&#x165;" horiz-adv-x="1103" 
d="M571 0h-139q-98 0 -145.5 59t-32.5 152l123 776h-156q-13 0 -8 45q9 47 23 47h155l43 269q2 12 58 12h17.5t16.5 -1t15 -4t4 -7l-43 -269h241q13 0 5 -47q-7 -45 -19 -45h-242l-122 -772q-10 -64 15 -91.5t93 -27.5h113q11 0 13 -7t-3 -38q-4 -33 -9 -42t-16 -9z
M848 1104q-25 22 -10 37q73 70 100 138t55 247q2 12 58 12h17.5t16.5 -1t15 -4t4 -7q-26 -159 -77 -258.5t-140 -173.5q-16 -13 -39 10z" />
    <glyph glyph-name="Tbar" unicode="&#x166;" horiz-adv-x="1001" 
d="M1221 1452q-10 -51 -21 -51h-414l-53 -332h412q5 0 7 -3t2.5 -9t0 -11t-2 -13.5t-1.5 -12.5q-10 -49 -21 -49h-411l-154 -967q-2 -12 -59 -12h-18t-18 1t-16.5 4t-4.5 7l151 967h-428q-14 0 -4 49q5 49 18 49h430l54 332h-426q-14 0 -4 51q5 49 20 49h957q3 0 5 -3t2 -9
v-10.5t-1.5 -14t-1.5 -12.5z" />
    <glyph glyph-name="tbar" unicode="&#x167;" horiz-adv-x="690" 
d="M188 729q-14 0 -4 49q5 49 19 49h147l27 160h-156q-13 0 -8 45q9 47 23 47h155l43 269q2 12 58 12h17.5t16.5 -1t15 -4t4 -7l-43 -269h241q13 0 5 -47q-7 -45 -19 -45h-242l-26 -160h237q5 0 7.5 -3t2.5 -9v-10.5t-1.5 -14t-1.5 -12.5q-10 -49 -21 -49h-238l-81 -514
q-10 -64 15 -91.5t93 -27.5h113q11 0 13 -7t-3 -38q-4 -33 -9 -42t-16 -9h-139q-98 0 -145.5 59t-32.5 152l82 518h-148z" />
    <glyph glyph-name="Utilde" unicode="&#x168;" horiz-adv-x="1320" 
d="M1368 1497l-176 -1112q-14 -87 -49 -157.5t-97 -129t-162 -91t-231 -32.5q-115 0 -200.5 33t-133.5 90t-66 130.5t-5 156.5l176 1112q2 12 61 12h18t17.5 -1t16 -4t4.5 -7l-179 -1122q-22 -143 55 -221t251 -78q175 0 280 78.5t127 220.5l178 1122q2 12 58 12h18t18 -1
t16.5 -4t4.5 -7zM1219 1845q-20 -55 -69.5 -96t-107.5 -41q-36 0 -71 15.5t-58 34.5t-51 34.5t-51 15.5q-37 0 -64 -19.5t-53 -62.5q-3 -6 -19 4.5t-29.5 25t-10.5 20.5q17 42 64.5 82t105.5 40q37 0 72.5 -15.5t58.5 -34.5t51.5 -34.5t54.5 -15.5q76 0 117 92q4 7 20 -1.5
t29.5 -22.5t10.5 -21z" />
    <glyph glyph-name="utilde" unicode="&#x169;" 
d="M338 1106q2 12 57 12h17.5t17 -1t15.5 -4t4 -7l-123 -774q-18 -118 27.5 -183t135.5 -65q33 0 67.5 8.5t65.5 23.5t62 34t57 40t50 42t42.5 39.5t32 33.5t20.5 23l7 8l121 770q2 12 57 12h17.5t16.5 -1t15 -4t4 -7l-174 -1102q-2 -12 -57 -12h-17.5t-16 1t-14 4t-3.5 7
l30 199q-85 -100 -190.5 -164t-206.5 -64q-133 0 -210 92t-54 236zM1063 1436q-20 -55 -69 -96.5t-107 -41.5q-36 0 -71 16t-58.5 34.5t-51.5 34.5t-51 16q-37 0 -63.5 -19.5t-52.5 -62.5q-3 -6 -19 4t-30 24.5t-11 20.5q17 42 64.5 82.5t105.5 40.5q47 0 90 -25t79.5 -50
t68.5 -25q76 0 117 92q4 7 20 -1.5t29 -22.5t10 -21z" />
    <glyph glyph-name="Umacron" unicode="&#x16a;" horiz-adv-x="1320" 
d="M1368 1497l-176 -1112q-14 -87 -49 -157.5t-97 -129t-162 -91t-231 -32.5q-115 0 -200.5 33t-133.5 90t-66 130.5t-5 156.5l176 1112q2 12 61 12h18t17.5 -1t16 -4t4.5 -7l-179 -1122q-22 -143 55 -221t251 -78q175 0 280 78.5t127 220.5l178 1122q2 12 58 12h18t18 -1
t16.5 -4t4.5 -7zM698 1763q-12 0 -12 49q0 50 12 50h453q5 0 7.5 -3t3.5 -9.5t1.5 -11t0 -14t-0.5 -12.5q0 -49 -12 -49h-453z" />
    <glyph glyph-name="umacron" unicode="&#x16b;" 
d="M338 1106q2 12 57 12h17.5t17 -1t15.5 -4t4 -7l-123 -774q-18 -118 27.5 -183t135.5 -65q33 0 67.5 8.5t65.5 23.5t62 34t57 40t50 42t42.5 39.5t32 33.5t20.5 23l7 8l121 770q2 12 57 12h17.5t16.5 -1t15 -4t4 -7l-174 -1102q-2 -12 -57 -12h-17.5t-16 1t-14 4t-3.5 7
l30 199q-85 -100 -190.5 -164t-206.5 -64q-133 0 -210 92t-54 236zM543 1354q-13 0 -13 49t13 49h452q3 0 5.5 -1.5t4 -5t2.5 -6.5t1 -8.5v-9v-9.5v-9q0 -49 -13 -49h-452z" />
    <glyph glyph-name="Uring" unicode="&#x16e;" horiz-adv-x="1320" 
d="M1368 1497l-176 -1112q-14 -87 -49 -157.5t-97 -129t-162 -91t-231 -32.5q-115 0 -200.5 33t-133.5 90t-66 130.5t-5 156.5l176 1112q2 12 61 12h18t17.5 -1t16 -4t4.5 -7l-179 -1122q-22 -143 55 -221t251 -78q175 0 280 78.5t127 220.5l178 1122q2 12 58 12h18t18 -1
t16.5 -4t4.5 -7zM1098 1821q-10 -66 -60.5 -110t-115.5 -44q-70 0 -110.5 47.5t-29.5 116.5q11 62 61.5 106.5t114.5 44.5q68 0 109 -46.5t31 -114.5zM1024 1817q8 41 -12 67.5t-60 26.5q-35 0 -63 -24.5t-33 -55.5q-8 -40 11.5 -66t58.5 -26q35 0 64 24t34 54z" />
    <glyph glyph-name="uring" unicode="&#x16f;" 
d="M338 1106q2 12 57 12h17.5t17 -1t15.5 -4t4 -7l-123 -774q-18 -118 27.5 -183t135.5 -65q33 0 67.5 8.5t65.5 23.5t62 34t57 40t50 42t42.5 39.5t32 33.5t20.5 23l7 8l121 770q2 12 57 12h17.5t16.5 -1t15 -4t4 -7l-174 -1102q-2 -12 -57 -12h-17.5t-16 1t-14 4t-3.5 7
l30 199q-85 -100 -190.5 -164t-206.5 -64q-133 0 -210 92t-54 236zM928 1411q-10 -66 -60.5 -110t-115.5 -44q-70 0 -110.5 47.5t-29.5 116.5q11 62 61.5 107t114.5 45q68 0 109 -47t31 -115zM854 1407q8 41 -12 67.5t-60 26.5q-35 0 -63 -24.5t-33 -55.5q-8 -40 11.5 -66
t58.5 -26q35 0 64 24t34 54z" />
    <glyph glyph-name="Uhungarumlaut" unicode="&#x170;" horiz-adv-x="1320" 
d="M1368 1497l-176 -1112q-14 -87 -49 -157.5t-97 -129t-162 -91t-231 -32.5q-115 0 -200.5 33t-133.5 90t-66 130.5t-5 156.5l176 1112q2 12 61 12h18t17.5 -1t16 -4t4.5 -7l-179 -1122q-22 -143 55 -221t251 -78q175 0 280 78.5t127 220.5l178 1122q2 12 58 12h18t18 -1
t16.5 -4t4.5 -7zM1329 1933l-250 -280q-13 -13 -53 -13q-41 0 -41 9q0 4 4 8l228 289q10 12 61 12q58 0 58 -14q-1 -5 -7 -11zM1024 1933l-250 -280q-13 -13 -53 -13q-41 0 -41 9q0 4 4 8l227 289q10 12 62 12q58 0 58 -14q-1 -5 -7 -11z" />
    <glyph glyph-name="uhungarumlaut" unicode="&#x171;" 
d="M338 1106q2 12 57 12h17.5t17 -1t15.5 -4t4 -7l-123 -774q-18 -118 27.5 -183t135.5 -65q33 0 67.5 8.5t65.5 23.5t62 34t57 40t50 42t42.5 39.5t32 33.5t20.5 23l7 8l121 770q2 12 57 12h17.5t16.5 -1t15 -4t4 -7l-174 -1102q-2 -12 -57 -12h-17.5t-16 1t-14 4t-3.5 7
l30 199q-85 -100 -190.5 -164t-206.5 -64q-133 0 -210 92t-54 236zM1153 1524l-250 -281q-12 -12 -53 -12t-41 9l4 7l227 289q10 12 62 12q58 0 58 -13q-1 -5 -7 -11zM848 1524l-250 -281q-12 -12 -53 -12t-41 9l4 7l227 289q10 12 62 12q58 0 58 -13q-1 -5 -7 -11z" />
    <glyph glyph-name="Uogonek" unicode="&#x172;" horiz-adv-x="1320" 
d="M1368 1497q-30 -186 -88.5 -556t-87.5 -556q-52 -312 -338 -385q-43 -18 -86.5 -42.5t-87 -57.5t-73 -74t-34.5 -82q-12 -109 101 -109q31 0 73.5 15t49.5 22q8 4 19.5 -12t14.5 -32.5t-4 -22.5q-9 -5 -24.5 -13t-61 -21t-88.5 -13q-82 0 -136 48t-38 146q6 41 29.5 77
t60 64.5t67 46.5t69.5 37q-16 -2 -52 -2q-115 0 -200.5 33t-133.5 90t-66 130.5t-5 156.5q29 186 88 556.5t88 555.5q2 12 61 12h18t17.5 -1t16 -4t4.5 -7q-29 -188 -89 -561.5t-90 -560.5q-25 -142 54 -220.5t252 -78.5q175 0 280 78.5t127 220.5q30 188 89.5 561t88.5 561
q2 12 58 12h18t18 -1t16.5 -4t4.5 -7z" />
    <glyph glyph-name="uogonek" unicode="&#x173;" 
d="M338 1106q2 12 57 12h17.5t17 -1t15.5 -4t4 -7l-123 -774q-18 -118 27.5 -183t135.5 -65q33 0 67.5 8.5t65.5 23.5t62 34t57 40t50 42t42.5 39.5t32 33.5t20.5 23l7 8q21 128 60.5 385t60.5 385q2 12 57 12h17.5t16.5 -1t15 -4t4 -7q-29 -183 -87.5 -551t-86.5 -551
q-3 -10 -24 -10q-43 -19 -84 -44t-81.5 -57t-67.5 -71t-31 -78q-12 -109 100 -109q31 0 73.5 15t49.5 22q9 4 20 -12t14 -32.5t-4 -22.5q-9 -5 -24.5 -13t-61 -21t-88.5 -13q-82 0 -136 48t-38 146q8 47 38.5 89t75.5 72t79.5 48t73.5 35q7 3 10 4q-2 0 -2 4q5 33 15 99.5
t15 99.5q-85 -100 -190.5 -164t-206.5 -64q-133 0 -210 92t-54 236q22 134 63.5 401.5t63.5 401.5z" />
    <glyph glyph-name="Ydieresis" unicode="&#x178;" horiz-adv-x="1095" 
d="M1288 1495l-588 -856l-100 -635q-2 -12 -59 -12h-18.5t-18.5 1t-16.5 4t-4.5 7l101 633l-305 858q-1 4 5.5 7t17.5 4.5t21 2t19 0.5q56 0 61 -14l254 -750l504 750q9 14 74 14q11 0 18.5 -0.5t18.5 -1.5t15.5 -4t0.5 -8zM643 1692q-9 0 -17.5 0.5t-18 2t-15 4.5t-4.5 7
l28 190q2 15 62 15q56 0 53 -15l-29 -190q-2 -14 -59 -14zM977 1692q-9 0 -17.5 0.5t-18 2t-15 4.5t-4.5 7l28 190q2 15 62 15q56 0 53 -15l-29 -190q-2 -14 -59 -14z" />
    <glyph glyph-name="Zacute" unicode="&#x179;" horiz-adv-x="1093" 
d="M1028 51q-5 -51 -18 -51h-938l10 66l987 1329h-743q-13 0 -2 55q5 51 20 51h897l-12 -69l-981 -1326h778q13 0 2 -55zM1085 1931l-251 -280q-10 -13 -52 -13q-41 0 -41 9q0 4 4 8l228 289q10 12 61 12q57 0 57 -14q0 -5 -6 -11z" />
    <glyph glyph-name="zacute" unicode="&#x17a;" horiz-adv-x="880" 
d="M74 57l729 949h-541q-14 0 -4 49t21 49h696l-10 -57l-732 -949h605q14 0 4 -49q-2 -16 -7.5 -32.5t-11.5 -16.5h-757zM938 1522l-252 -281q-10 -12 -51 -12t-41 9l4 7l227 289q10 12 62 12q56 0 57 -13q0 -4 -6 -11z" />
    <glyph glyph-name="Zdotaccent" unicode="&#x17b;" horiz-adv-x="1093" 
d="M1028 51q-5 -51 -18 -51h-938l10 66l987 1329h-743q-13 0 -2 55q5 51 20 51h897l-12 -69l-981 -1326h778q13 0 2 -55zM797 1741q-12 0 -25 1t-27 3t-22.5 7t-7.5 11l22 135q2 23 90 23t86 -23l-22 -135q-2 -22 -94 -22z" />
    <glyph glyph-name="zdotaccent" unicode="&#x17c;" horiz-adv-x="880" 
d="M74 57l729 949h-541q-14 0 -4 49t21 49h696l-10 -57l-732 -949h605q14 0 4 -49q-2 -16 -7.5 -32.5t-11.5 -16.5h-757zM649 1331q-16 0 -34 2t-33.5 7.5t-14.5 13.5l23 135q2 22 90 22t86 -22l-23 -135q-2 -23 -94 -23z" />
    <glyph glyph-name="Zcaron" unicode="&#x17d;" horiz-adv-x="1093" 
d="M1028 51q-5 -51 -18 -51h-938l10 66l987 1329h-743q-13 0 -2 55q5 51 20 51h897l-12 -69l-981 -1326h778q13 0 2 -55zM680 1962q41 0 47 -12l92 -201l160 201q7 12 55 12h17.5t16.5 -1t13.5 -4t-0.5 -7l-207 -254q-11 -13 -63 -13q-53 0 -59 13l-123 254q-2 4 2 7t14 4
t17 1h18z" />
    <glyph glyph-name="zcaron" unicode="&#x17e;" horiz-adv-x="921" 
d="M86 57l729 949h-541q-14 0 -4 49t21 49h696l-10 -57l-731 -949h604q14 0 4 -49q-2 -17 -7 -33t-11 -16h-758zM530 1552q42 0 48 -12l92 -201l159 201q7 12 56 12h17.5t16.5 -1t13.5 -4t-0.5 -7l-207 -254q-10 -12 -63 -12q-54 0 -60 12l-123 254q-2 4 2 7t14 4t17 1h18z
" />
    <glyph glyph-name="florin" unicode="&#x192;" horiz-adv-x="614" 
d="M336 -41q0 -96 -58 -156.5t-159 -60.5h-115q-5 0 -7 2.5t-3.5 13.5t-1.5 33q0 21 1.5 31.5t3.5 13t7 2.5h98q62 0 92.5 32.5t28.5 78.5v1063h-151q-13 0 -13 47q0 45 13 45h151v196q0 102 58 164t159 62h115q5 0 7 -2.5t3.5 -13.5t1.5 -33q0 -21 -1.5 -31.5t-3.5 -13
t-7 -2.5h-98q-123 0 -123 -150v-176h188q13 0 13 -45q0 -47 -13 -47h-186v-1053z" />
    <glyph glyph-name="Scommaaccent" unicode="&#x218;" horiz-adv-x="1095" 
d="M1053 381q-29 -185 -177.5 -295.5t-363.5 -110.5q-110 0 -216 40.5t-185 103.5q-8 7 4.5 34t31 50t25.5 18q63 -53 159.5 -95t194.5 -42q158 0 269.5 83.5t134.5 227.5q11 65 -2.5 114.5t-58.5 89.5t-80.5 62t-111.5 61q-33 17 -50 26q-66 35 -100.5 55t-87.5 62.5
t-77.5 83t-39 103t-3.5 136.5q24 150 152.5 244t325.5 94q185 0 346 -92q9 -5 0 -32t-25 -50t-24 -17q-59 39 -143 61.5t-163 22.5q-142 0 -238 -66t-114 -186q-9 -58 6 -105t60.5 -85t77 -57t96.5 -52q24 -12 35 -18q66 -34 109.5 -60t98 -70.5t84.5 -89.5t46 -110t4 -139z
M295 -547q-25 22 -10 37q73 70 100 138t55 247q2 12 58 12h17.5t16.5 -1t15 -4t4 -7q-26 -159 -77 -258.5t-140 -173.5q-16 -13 -39 10z" />
    <glyph glyph-name="scommaaccent" unicode="&#x219;" horiz-adv-x="870" 
d="M416 -25q-75 0 -163 25t-142 59q-7 5 4 30.5t27.5 47.5t23.5 17q129 -80 256 -80q114 0 196 64t93 153q7 61 -17 109.5t-68 81t-98 61.5t-107 59t-95 65t-62 88t-8 119q21 112 120.5 185.5t252.5 73.5q151 0 254 -48q13 -7 -7 -53t-30 -43q-63 23 -112.5 34t-121.5 11
q-101 0 -168.5 -49.5t-81.5 -122.5q-9 -46 14 -83t66.5 -64.5t97.5 -54.5t108 -60.5t96.5 -74t64 -103.5t10.5 -141q-8 -56 -39.5 -110t-81.5 -98t-124 -71t-158 -27zM213 -547q-25 22 -10 37q73 70 100 138t55 247q2 12 58 12h17.5t16.5 -1t15 -4t4 -7q-26 -159 -77 -258.5
t-140 -173.5q-16 -13 -39 10z" />
    <glyph glyph-name="uni021A" unicode="&#x21a;" horiz-adv-x="1001" 
d="M1221 1452q-10 -51 -21 -51h-414l-221 -1397q-2 -12 -59 -12h-18t-18 1t-16.5 4t-4.5 7l221 1397h-426q-14 0 -4 51q5 49 20 49h957q3 0 5 -3t2 -9v-10.5t-1.5 -14t-1.5 -12.5zM285 -547q-26 22 -11 37q74 71 101 139t55 246q2 12 57 12h17.5t17 -1t15.5 -4t4 -7
q-26 -159 -77 -258.5t-140 -173.5q-16 -13 -39 10z" />
    <glyph glyph-name="uni021B" unicode="&#x21b;" horiz-adv-x="690" 
d="M571 0h-139q-98 0 -145.5 59t-32.5 152l123 776h-156q-13 0 -8 45q9 47 23 47h155l43 269q2 12 58 12h17.5t16.5 -1t15 -4t4 -7l-43 -269h241q13 0 5 -47q-7 -45 -19 -45h-242l-122 -772q-10 -64 15 -91.5t93 -27.5h113q11 0 13 -7t-3 -38q-4 -33 -9 -42t-16 -9z
M193 -547q-26 22 -11 37q74 71 101 139t55 246q2 12 57 12h17.5t17 -1t15.5 -4t4 -7q-26 -158 -77.5 -258t-140.5 -174q-16 -12 -38 10z" />
    <glyph glyph-name="circumflex" unicode="&#x2c6;" horiz-adv-x="983" 
d="M938 1266q-43 0 -49 12l-92 201l-160 -201q-7 -12 -53 -12h-17.5t-16.5 1t-13.5 4t0.5 7l206 254q10 12 64 12q53 0 59 -12l123 -254q2 -4 -2 -7t-14 -4t-17 -1h-18z" />
    <glyph glyph-name="caron" unicode="&#x2c7;" horiz-adv-x="983" 
d="M631 1552q41 0 47 -12l92 -201l160 201q7 12 55 12h17.5t16.5 -1t13.5 -4t-0.5 -7l-207 -254q-10 -12 -63 -12q-54 0 -60 12l-122 254q-2 4 2 7t14 4t17 1h18z" />
    <glyph glyph-name="breve" unicode="&#x2d8;" horiz-adv-x="983" 
d="M1020 1540q-15 -99 -87.5 -166t-170.5 -67q-88 0 -142.5 68.5t-39.5 164.5q0 8 49 8q23 0 24 -3q1 -2 0 -5q-12 -67 22.5 -112.5t94.5 -45.5q66 0 113 48t57 110q0 10 37 10q43 0 43 -10z" />
    <glyph glyph-name="dotaccent" unicode="&#x2d9;" horiz-adv-x="983" 
d="M727 1331q-16 0 -34 2t-33.5 7.5t-14.5 13.5l23 135q2 22 90 22t86 -22l-23 -135q-2 -23 -94 -23z" />
    <glyph glyph-name="ring" unicode="&#x2da;" horiz-adv-x="1122" 
d="M944 1411q-10 -66 -60.5 -110t-115.5 -44q-70 0 -110 47.5t-29 116.5q11 62 61.5 107t114.5 45q68 0 108.5 -47t30.5 -115zM870 1407q8 42 -12 68t-59 26q-35 0 -63.5 -24.5t-33.5 -55.5q-8 -40 11.5 -66t58.5 -26q35 0 64 24t34 54z" />
    <glyph glyph-name="ogonek" unicode="&#x2db;" horiz-adv-x="983" 
d="M553 33h98q-60 -25 -117 -59.5t-108 -89t-57 -107.5q-12 -109 100 -109q31 0 73.5 15t49.5 22q8 4 20 -12t15 -32.5t-4 -22.5q-9 -5 -24.5 -13t-61 -21.5t-88.5 -13.5q-37 0 -70.5 11t-60.5 32.5t-39.5 61t-4.5 90.5q4 27 18.5 53.5t28.5 45.5t42.5 41t43 32.5t49.5 29
t42 21.5t40 18q10 5 15 7z" />
    <glyph glyph-name="tilde" unicode="&#x2dc;" horiz-adv-x="983" 
d="M991 1436q-20 -55 -69 -96.5t-107 -41.5q-36 0 -71 16t-58 34.5t-51 34.5t-51 16q-37 0 -64 -19.5t-53 -62.5q-3 -6 -19 4t-29.5 24.5t-10.5 20.5q17 42 64.5 82.5t105.5 40.5q37 0 72.5 -15.5t58.5 -34.5t51.5 -34.5t54.5 -15.5q76 0 117 92q4 7 20 -1.5t29 -22.5
t10 -21z" />
    <glyph glyph-name="hungarumlaut" unicode="&#x2dd;" horiz-adv-x="1142" 
d="M1239 1524l-250 -281q-12 -12 -53 -12t-41 9l4 7l227 289q10 12 62 12q58 0 58 -13q-1 -5 -7 -11zM934 1524l-250 -281q-12 -12 -53 -12t-41 9l4 7l227 289q10 12 62 12q58 0 58 -13q-1 -5 -7 -11z" />
    <glyph glyph-name="pi" unicode="&#x3c0;" horiz-adv-x="1597" 
d="M1171 1014v-830q0 -17 2 -29.5t9 -29.5t25 -26t46 -9h154q12 0 12 -45t-12 -45h-176q-94 0 -132 51t-38 146v817h-381v-1010q0 -12 -55 -12q-56 0 -56 12v1010h-200q-13 0 -13 47q0 51 13 51h1017q13 0 13 -49t-13 -49h-215z" />
    <glyph glyph-name="endash" unicode="&#x2013;" horiz-adv-x="1189" 
d="M260 541q-3 0 -5 3t-2 9v10.5t1.5 14t1.5 12.5q10 49 20 49h838q14 0 4 -49q-5 -49 -20 -49h-838z" />
    <glyph glyph-name="emdash" unicode="&#x2014;" horiz-adv-x="2213" 
d="M260 541q-3 0 -5 3t-2 9v10.5t1.5 14t1.5 12.5q10 49 20 49h1862q14 0 4 -49q-5 -49 -20 -49h-1862z" />
    <glyph glyph-name="afii00208" unicode="&#x2015;" horiz-adv-x="2213" 
d="M260 541q-3 0 -5 3t-2 9v10.5t1.5 14t1.5 12.5q10 49 20 49h1862q14 0 4 -49q-5 -49 -20 -49h-1862z" />
    <glyph glyph-name="quoteleft" unicode="&#x2018;" horiz-adv-x="460" 
d="M561 1534q25 -22 10 -37q-73 -70 -100 -138t-55 -247q-2 -12 -58 -12h-17.5t-16.5 1t-15 4t-4 7q26 159 77 258.5t140 173.5q16 13 39 -10z" />
    <glyph glyph-name="quoteright" unicode="&#x2019;" horiz-adv-x="460" 
d="M315 1104q-25 22 -10 37q74 71 101 139t55 246q2 12 57 12h17.5t16.5 -1t15 -4t4 -7q-26 -159 -77 -258.5t-140 -173.5q-16 -13 -39 10z" />
    <glyph glyph-name="quotesinglbase" unicode="&#x201a;" horiz-adv-x="464" 
d="M115 -199q-26 22 -11 37q74 71 101 139t55 246q2 13 57 13q10 0 17.5 -0.5t17 -1.5t15 -4t4.5 -7q-26 -159 -77 -258.5t-140 -173.5q-16 -13 -39 10z" />
    <glyph glyph-name="quotedblleft" unicode="&#x201c;" horiz-adv-x="755" 
d="M854 1534q25 -22 10 -37q-73 -70 -98.5 -137t-54.5 -248q-2 -12 -58 -12h-17.5t-16.5 1t-15 4t-4 7q24 159 75 258.5t140 173.5q17 12 39 -10zM559 1534q25 -22 10 -37q-73 -70 -98.5 -137t-54.5 -248q-2 -12 -58 -12h-17.5t-16.5 1t-15 4t-4 7q24 159 75 258.5
t140 173.5q17 12 39 -10z" />
    <glyph glyph-name="quotedblright" unicode="&#x201d;" horiz-adv-x="749" 
d="M311 1073q-23 20 -10 37q75 70 101 137.5t55 247.5q2 12 57 12h17.5t16.5 -1t15 -4t4 -7q-26 -158 -77 -258t-138 -174q-19 -12 -41 10zM606 1073q-23 20 -10 37q75 70 101 137.5t55 247.5q2 12 57 12h17.5t16.5 -1t15 -4t4 -7q-26 -158 -77 -258t-138 -174
q-19 -12 -41 10z" />
    <glyph glyph-name="quotedblbase" unicode="&#x201e;" horiz-adv-x="796" 
d="M111 -199q-26 22 -11 37q74 71 101 139t55 246q2 13 57 13q10 0 17.5 -0.5t17 -1.5t15 -4t4.5 -7q-26 -159 -77 -258.5t-140 -173.5q-16 -13 -39 10zM406 -199q-26 22 -11 37q74 71 101 139t55 246q2 13 57 13q10 0 17.5 -0.5t17 -1.5t15 -4t4.5 -7q-26 -158 -77.5 -258
t-140.5 -174q-16 -12 -38 10z" />
    <glyph glyph-name="dagger" unicode="&#x2020;" horiz-adv-x="1087" 
d="M1063 1032l-299 21l-117 -645q-3 -11 -41 -11t-35 11l91 645l-308 -21q-6 -1 -7 13q-1 11 5 51q2 15 5.5 28t9.5 23.5t12 9.5l293 -22l51 356q3 18 61 18q59 0 56 -18l-62 -356l303 22q14 0 4 -61q-9 -64 -22 -64z" />
    <glyph glyph-name="daggerdbl" unicode="&#x2021;" horiz-adv-x="1087" 
d="M1006 723l-310 22l-63 -378q-2 -13 -35 -13q-9 0 -14.5 0.5t-10.5 3.5t-4 9l54 378l-316 -22q-11 0 -2 63q2 12 4 21.5t4.5 20t6.5 16t8 4.5l307 -23l29 230l-306 -23q-4 -1 -6 3.5t-1.5 12.5t1.5 16t2.5 18t1.5 14q13 63 23 63l297 -24l45 362q2 12 61 12h18t17.5 -1
t16 -4t4.5 -7l-70 -362l307 24q15 0 2 -63q-6 -64 -22 -64l-301 23l-43 -230l315 23q3 0 4.5 -2.5t2 -8t0.5 -12t-1 -14t-2 -14t-2 -11.5q-6 -63 -22 -63z" />
    <glyph glyph-name="bullet" unicode="&#x2022;" horiz-adv-x="950" 
d="M362 651q13 88 85.5 150.5t160.5 62.5t141 -62.5t39 -150.5q-13 -88 -86 -150.5t-161 -62.5t-140.5 62.5t-38.5 150.5z" />
    <glyph glyph-name="ellipsis" unicode="&#x2026;" horiz-adv-x="1253" 
d="M219 -8h-18t-17.5 1t-15.5 4t-4 7l39 244q2 12 59 12h18t17.5 -1t15.5 -4t4 -7l-38 -244q-2 -12 -60 -12zM625 -8h-18t-17.5 1t-16 4t-4.5 7l39 244q2 12 60 12h18t17.5 -1t15.5 -4t4 -7l-39 -244q-2 -12 -59 -12zM1030 -8h-18t-17.5 1t-15.5 4t-4 7l39 244q2 12 59 12
h18t17.5 -1t15.5 -4t4 -7l-38 -244q-2 -12 -60 -12z" />
    <glyph glyph-name="perthousand" unicode="&#x2030;" horiz-adv-x="1984" 
d="M408 778q-117 0 -173 61t-38 179l45 282q35 209 280 209q119 0 177 -60t38 -183l-45 -283q-34 -205 -284 -205zM1372 1497l-1010 -1485q-6 -12 -63 -12h-21t-20.5 1t-18 4t-3.5 7l1009 1485q8 12 66 12h20t20.5 -1t18 -4t2.5 -7zM1077 -33q-117 0 -172 60.5t-35 179.5
l48 309q35 209 282 209q114 0 171 -63t40 -168l-49 -318q-32 -209 -285 -209zM631 1300q11 67 -23.5 93t-99.5 26q-139 0 -158 -119l-49 -317q-11 -67 22.5 -91t98.5 -24q66 0 107.5 24t52.5 91zM1305 516q11 68 -23 93.5t-98 25.5q-141 0 -160 -119l-53 -340
q-10 -67 23.5 -92t97.5 -25q65 0 107 25t52 92zM1688 -33q-117 0 -172 60.5t-35 179.5l47 309q35 209 282 209q114 0 171 -63t40 -168l-49 -318q-32 -209 -284 -209zM1915 516q11 68 -23 93.5t-98 25.5q-141 0 -160 -119l-53 -340q-10 -67 23.5 -92t97.5 -25q65 0 107.5 25
t52.5 92z" />
    <glyph glyph-name="guilsinglleft" unicode="&#x2039;" horiz-adv-x="755" 
d="M229 647l402 469q5 7 29 -7.5t44.5 -34t14.5 -25.5l-346 -402l219 -399q4 -7 -22.5 -26.5t-56 -34t-32.5 -7.5z" />
    <glyph glyph-name="guilsinglright" unicode="&#x203a;" horiz-adv-x="755" 
d="M475 1116l254 -469l-403 -467q-5 -7 -29 7t-44 34t-13 27l346 399l-219 402q-3 7 23 26.5t54 33.5t31 7z" />
    <glyph glyph-name="fraction" unicode="&#x2044;" horiz-adv-x="958" 
d="M1020 1497l-770 -1493q-6 -12 -57 -12h-18.5t-19.5 1t-17 4t-3 7q128 249 385 746.5t385 746.5q6 12 58 12h18.5t19 -1t16.5 -4t3 -7z" />
    <glyph glyph-name="Euro" unicode="&#x20ac;" horiz-adv-x="1304" 
d="M1384 1448q8 -8 1 -32t-23 -48t-25 -20q-71 35 -156.5 56t-160.5 21q-65 0 -119 -7t-111.5 -27.5t-100 -53.5t-74.5 -90t-44 -133l-30 -186h481q11 0 6 -47q-9 -47 -20 -47h-482l-30 -191h481q11 0 6 -47q-9 -47 -20 -47h-482l-26 -170q-12 -73 2 -128t45.5 -87.5t82 -53
t103 -27.5t117.5 -7q191 0 332 65q5 2 11 -7.5t10.5 -24t7.5 -29.5t2.5 -27t-5.5 -14q-60 -27 -170 -45.5t-202 -18.5q-116 0 -204 23.5t-151 74t-88 137.5t-6 206l23 133h-138q-13 0 -4 47q5 47 19 47h137l31 191h-138q-13 0 -4 47q5 47 19 47h137l31 186q33 217 176 314.5
t405 97.5q87 0 188 -23t160 -55z" />
    <glyph glyph-name="trademark" unicode="&#x2122;" horiz-adv-x="1140" 
d="M915 934q-29 0 -34 12l-138 451q2 -25 2 -37v-416q0 -10 -34 -10q-35 0 -35 10v553q0 8 47 8q51 0 53 -8l139 -461l140 461q2 8 53 8q53 0 53 -8v-553q0 -10 -39 -10t-39 10v416l4 37l-137 -451q-4 -12 -35 -12zM432 1440v-498q0 -8 -39 -8q-37 0 -37 8v498h-155
q-8 0 -8 30q0 31 8 31h391q8 0 8 -31q0 -30 -8 -30h-160z" />
    <glyph glyph-name="Omega" unicode="&#x2126;" horiz-adv-x="1531" 
d="M1042 0v98q39 26 56.5 37.5t61 46.5t66.5 61t43.5 63t20.5 71v743q0 74 -27.5 130.5t-69.5 89t-98.5 53t-106.5 27.5t-103 7t-102.5 -6.5t-106.5 -27t-98.5 -53t-69 -89.5t-27.5 -131v-743q0 -35 20 -72.5t45 -65t65.5 -59t63.5 -46.5t56 -36v-98h-377q-12 0 -12 49
t12 49h234q-9 3 -24 9t-53.5 29.5t-68 52.5t-53.5 79.5t-24 108.5v743q0 104 38.5 183t109 127t164 72t208.5 24q116 0 210 -24t164.5 -72t109 -127t38.5 -183v-743q0 -58 -22.5 -108t-54.5 -80t-64.5 -52t-55.5 -31l-22 -8h229q13 0 13 -49t-13 -49h-375z" />
    <glyph glyph-name="partialdiff" unicode="&#x2202;" horiz-adv-x="1208" 
d="M1145 377q0 -99 -42.5 -178.5t-110 -126.5t-143 -72t-149.5 -25q-206 0 -327 117t-121 287v266q0 178 123 290t325 112q58 0 108.5 -11.5t81.5 -27.5t53.5 -32.5t32.5 -27.5l9 -12q-4 16 -13.5 44.5t-52.5 109t-102 153.5q-39 47 -116 118t-87 81q-9 9 27.5 50t48.5 32
q145 -115 203 -195q1 -2 19.5 -25.5t34 -45t41 -63t46 -82t43 -99t37.5 -117.5t24.5 -133.5t8.5 -151.5zM1036 395v217q0 144 -99 238t-237 94q-50 0 -97.5 -10.5t-91.5 -35t-77 -60t-52.5 -90t-19.5 -121.5v-234q0 -68 20 -123.5t53 -91t77.5 -60t91 -34.5t96.5 -10
q83 0 158 36.5t126.5 111.5t51.5 173z" />
    <glyph glyph-name="Delta" unicode="&#x2206;" horiz-adv-x="1531" 
d="M174 0l590 1497q4 12 67 12q64 0 68 -12l596 -1497h-1321zM821 1368l-493 -1268h1001z" />
    <glyph glyph-name="product" unicode="&#x220f;" horiz-adv-x="1531" 
d="M1620 731q0 -148 -58 -283.5t-156 -233.5t-233.5 -156t-283.5 -58t-283.5 58t-233.5 156t-156 233.5t-58 283.5t58 283.5t156 233.5t233.5 156t283.5 58t283.5 -58t233.5 -156t156 -233.5t58 -283.5zM1536 731q0 175 -87 323.5t-236 235t-324 86.5t-323.5 -86.5
t-235 -235t-86.5 -323.5t86.5 -324t235 -236t323.5 -87t324 87t236 236t87 324zM956 621h-176v-271q0 -16 -47 -16q-45 0 -45 16v750h250q118 0 178 -50t60 -159v-62q0 -17 -1.5 -33t-13.5 -51t-32.5 -59.5t-65.5 -44.5t-107 -20zM1087 891q0 41 -12.5 68t-37 39t-48.5 16
t-59 4h-152v-311h178q131 0 131 122v62z" />
    <glyph glyph-name="summation" unicode="&#x2211;" horiz-adv-x="1531" 
d="M1300 0h-929v76l538 702l-520 647v76h885q12 0 12 -49q0 -51 -12 -51h-713l494 -623l-514 -678h759q13 0 13 -47q0 -53 -13 -53z" />
    <glyph glyph-name="minus" unicode="&#x2212;" horiz-adv-x="1531" 
d="M524 573q-12 0 -12 50q0 49 12 49h660q12 0 12 -49q0 -50 -12 -50h-660z" />
    <glyph glyph-name="radical" unicode="&#x221a;" horiz-adv-x="1013" 
d="M1047 1497l-420 -1493q-4 -12 -56 -12q-53 0 -57 12l-256 748q-1 4 3 7t13 4t15.5 1h17.5q58 0 62 -12l202 -621l365 1366q4 12 55 12h18t18 -1t16 -4t4 -7z" />
    <glyph glyph-name="infinity" unicode="&#x221e;" horiz-adv-x="1576" 
d="M1233 231q-77 0 -166 56.5t-207 179.5q-112 -117 -202 -176.5t-173 -59.5q-116 0 -186 80.5t-70 210.5q0 138 76.5 222.5t188.5 84.5q82 0 171 -56.5t205 -178.5q111 116 201.5 175.5t171.5 59.5q114 0 186 -86t72 -221q0 -132 -74 -211.5t-194 -79.5zM1235 735
q-36 0 -78.5 -20.5t-89 -59t-75 -65.5t-68.5 -68q97 -100 172.5 -147t144.5 -47q81 0 128.5 53.5t47.5 140.5q0 93 -49 153t-133 60zM489 735q-81 0 -128.5 -62.5t-47.5 -150.5q0 -93 48.5 -143.5t134.5 -50.5q67 0 140 47t171 147q-105 110 -180.5 161.5t-137.5 51.5z" />
    <glyph glyph-name="integral" unicode="&#x222b;" horiz-adv-x="702" 
d="M395 -33v1319q0 65 21 110.5t56 66.5t67.5 29.5t68.5 8.5h99q12 0 12 -45t-12 -45h-60q-15 0 -30 -2t-36.5 -10t-36.5 -22.5t-26.5 -42t-11.5 -64.5v-1188q0 -125 -10 -170q-26 -122 -145 -129h-15h-131q-12 0 -12 47t12 47h110q28 0 46 8.5t24.5 25t8 27.5t1.5 29z" />
    <glyph glyph-name="approxequal" unicode="&#x2248;" horiz-adv-x="1189" 
d="M1042 756q-27 -59 -86.5 -113.5t-128.5 -54.5q-50 0 -94 19.5t-71 43t-61.5 43t-65.5 19.5q-25 0 -45 -7.5t-38.5 -26t-28.5 -31.5t-30 -42q-3 -5 -20 5.5t-31 25.5t-10 22q7 17 23 39.5t40.5 47t60 41t72.5 16.5q46 0 90.5 -19.5t73.5 -43t66 -43t69 -19.5q13 0 26 2.5
t23 6.5t19.5 11t16.5 13t14.5 14.5t12 15t9.5 15.5t7.5 13t6 11t3.5 8q7 8 25.5 4.5t36.5 -15.5t15 -21zM1042 377q-28 -59 -87.5 -113.5t-127.5 -54.5q-50 0 -94 19.5t-71 43t-61.5 43t-65.5 19.5q-25 0 -45 -7.5t-38.5 -26t-28.5 -31.5t-30 -42q-3 -5 -20 6t-31 26t-10 22
q7 17 23 39t40.5 46.5t60 41t72.5 16.5q46 0 90.5 -19.5t73.5 -43t66 -43t69 -19.5q13 0 26 2.5t23 7t19.5 11t17 12.5t14.5 15t11.5 15t9.5 15l7.5 13.5t6 11.5t3.5 8q7 8 25.5 4t36.5 -16t15 -21z" />
    <glyph glyph-name="notequal" unicode="&#x2260;" horiz-adv-x="1087" 
d="M1016 360q0 -49 -12 -49h-453q-27 -35 -80 -105.5t-80 -105.5q-5 -6 -25 5.5t-36.5 26.5t-12.5 20q19 26 59 79.5t60 79.5h-166q-12 0 -12 49q0 50 12 50h248q25 32 73.5 95t72.5 95h-394q-12 0 -12 51q0 47 12 47h467q28 36 82.5 107.5t81.5 107.5q7 8 26.5 -2.5
t34.5 -27t9 -23.5q-21 -26 -63 -81t-62 -81h158q12 0 12 -47q0 -51 -12 -51h-230q-24 -31 -72 -94.5t-73 -95.5h375q12 0 12 -50z" />
    <glyph glyph-name="lessequal" unicode="&#x2264;" horiz-adv-x="1165" 
d="M307 557l690 256q4 1 7 -4t4 -15.5t1.5 -19t0.5 -18.5q0 -56 -13 -60l-585 -204l585 -193q13 -4 13 -55q0 -10 -0.5 -18.5t-1.5 -19.5t-4 -16.5t-7 -3.5l-690 252q-12 4 -12 60q0 55 12 59zM305 100h696q13 0 13 -49q0 -51 -13 -51h-696q-12 0 -12 47q0 53 12 53z" />
    <glyph glyph-name="greaterequal" unicode="&#x2265;" horiz-adv-x="1116" 
d="M281 807l684 -244q12 -6 12 -61q0 -60 -12 -64l-691 -252q-9 -2 -11 19q-1 8 -1 39q0 50 12 55l586 199l-586 192q-10 3 -10 60q0 8 1 18t3 19.5t5.5 15t7.5 4.5zM268 100h697q12 0 12 -51q0 -49 -12 -49h-697q-12 0 -12 49q0 51 12 51z" />
    <glyph glyph-name="lozenge" unicode="&#x25ca;" horiz-adv-x="1531" 
d="M1495 745l-559 -741q-10 -12 -39 -12q-31 0 -39 12l-575 756l565 737q8 12 39 12t39 -12zM877 1350l-451 -586l475 -623l455 594z" />
    <glyph glyph-name="fi" unicode="&#xfb01;" horiz-adv-x="1028" 
d="M696 1034q-5 -47 -18 -47h-189l-155 -983q-2 -12 -58 -12h-17.5t-16.5 1t-15 4t-4 7l156 983h-152q-11 0 -6 47q9 45 21 45h151l35 221q15 101 83 163.5t169 62.5h115q13 0 6 -49q-6 -30 -10 -38.5t-11 -8.5h-98q-121 0 -147 -150l-31 -201h188q13 0 4 -45zM793 -8h-17.5
t-17 1t-15.5 4t-4 7l174 1102q2 12 58 12h17.5t16.5 -1t15 -4t4 -7l-174 -1102q-2 -12 -57 -12zM997 1292q-10 0 -17.5 0.5t-17 1.5t-14.5 4t-4 7l35 217q2 12 57 12h17.5t17 -1t15.5 -4t4 -7l-35 -217q-2 -13 -58 -13z" />
    <glyph glyph-name="fl" unicode="&#xfb02;" horiz-adv-x="1146" 
d="M696 1034q-5 -47 -18 -47h-186l-156 -983q-2 -12 -60 -12h-17.5t-16.5 1t-15 4t-4 7l156 983h-152q-11 0 -6 47q9 45 21 45h151l35 221q16 103 77.5 164.5t162.5 61.5h127q13 0 6 -49q-6 -30 -10 -38.5t-11 -8.5h-98q-121 0 -147 -150l-31 -201h188q13 0 4 -45zM1090 0
h-84q-96 0 -145 59.5t-34 151.5l207 1311q2 12 58 12h17.5t16.5 -1t15 -4t4 -7l-207 -1307q-10 -64 16.5 -92.5t94.5 -28.5h55q11 0 12.5 -7t-2.5 -38q-4 -33 -8.5 -41t-15.5 -8z" />
    <glyph glyph-name="CR" horiz-adv-x="440" 
 />
    <glyph glyph-name="dummy1" horiz-adv-x="0" 
 />
    <glyph glyph-name="dummy2" horiz-adv-x="0" 
 />
    </font>
</defs>
</svg>
