<?xml version="1.0" standalone="no"?>
<!DOCTYPE svg PUBLIC "-//W3C//DTD SVG 1.1//EN" "http://www.w3.org/Graphics/SVG/1.1/DTD/svg11.dtd" >
<svg xmlns="http://www.w3.org/2000/svg" xmlns:xlink="http://www.w3.org/1999/xlink" version="1.1">
<metadata>
Created by FontForge 20170731 at Fri Jul 10 16:21:13 2020
 By Aleksey,,,
Copyright (c) 2005 by Telenor ASA. All rights reserved.
</metadata>
<defs>
<font id="Telenor" horiz-adv-x="1183" >
  <font-face 
    font-family="Telenor"
    font-weight="400"
    font-stretch="normal"
    units-per-em="2048"
    panose-1="2 0 0 0 0 0 0 0 0 0"
    ascent="1638"
    descent="-410"
    x-height="1108"
    cap-height="1509"
    bbox="-59 -632.8 2198 1997"
    underline-thickness="102"
    underline-position="-307"
    unicode-range="U+0020-FB02"
  />
<missing-glyph horiz-adv-x="2048" 
 />
    <glyph glyph-name=".notdef" horiz-adv-x="2048" 
 />
    <glyph glyph-name=".null" horiz-adv-x="0" 
 />
    <glyph glyph-name="nonmarkingreturn" horiz-adv-x="682" 
 />
    <glyph glyph-name="space" unicode=" " horiz-adv-x="440" 
 />
    <glyph glyph-name="exclam" unicode="!" horiz-adv-x="585" 
d="M406 1489l-35 -1022q0 -16 -74 -16t-74 16l-33 1022q0 20 111 20q105 0 105 -20zM299 -6q-100 0 -100 16v213q0 17 100 17q98 0 98 -17v-213q0 -16 -98 -16z" />
    <glyph glyph-name="quotedbl" unicode="&#x22;" horiz-adv-x="829" 
d="M682 1493l-31 -530q0 -17 -65 -17q-62 0 -64 17l-28 530q0 4 4 7t13 4.5t17.5 2.5t21.5 1.5t20 0.5h18q94 0 94 -16zM336 1493l-29 -530q-2 -17 -65 -17q-64 0 -66 17l-29 530q0 4 4 7t13 4.5t17.5 2.5t22 1.5t20.5 0.5h18h18t20 -0.5t21.5 -1.5t17.5 -2.5t13 -4.5t4 -7z
" />
    <glyph glyph-name="numbersign" unicode="#" horiz-adv-x="1320" 
d="M1251 985q-14 -67 -32 -67h-197l-66 -310h193q18 0 6 -69q-15 -72 -31 -72h-200l-99 -459q-4 -16 -84 -16q-19 0 -29.5 0.5t-25 1.5t-21.5 4.5t-6 9.5l99 459h-291l-98 -459q-4 -16 -95 -16h-18t-16.5 0.5t-16 1.5t-12 2.5t-8.5 4.5t-2 7l98 459h-209q-17 0 -4 74
q11 67 27 67h219l65 310h-217q-12 0 0 71q12 72 27 72h225l92 432q4 16 76 16h18t20 -0.5t21 -1.5t16.5 -2.5t12.5 -4.5t4 -7l-94 -432h293l94 432q2 16 80 16h17.5t18.5 -0.5t19.5 -1.5t15.5 -2.5t11.5 -4.5t3.5 -7l-94 -432h188q18 0 6 -76zM856 918h-293l-65 -310h293z
" />
    <glyph glyph-name="dollar" unicode="$" horiz-adv-x="1343" 
d="M559 -137v178q-202 24 -377 141q-9 7 9 51.5t44 84t35 32.5q73 -51 180.5 -95t202.5 -44q137 0 218 63.5t81 180.5q0 56 -31 99t-82 68t-116 49t-132.5 43t-132.5 50t-116 69t-82 102t-31 146q0 132 86 233t242 132v190q0 17 102 17q103 0 103 -17v-182q165 -13 336 -98
q6 -4 4 -22t-11.5 -44t-20 -49.5t-22 -38.5t-18.5 -12q-71 38 -163.5 65t-180.5 27q-120 0 -186 -53t-66 -137q0 -52 31 -91.5t82 -62.5t116.5 -46t133 -41.5t133 -50.5t116.5 -71.5t82 -105.5t31 -152q0 -169 -110 -285.5t-287 -144.5v-178q0 -21 -103 -21q-100 0 -100 21z
" />
    <glyph glyph-name="percent" unicode="%" horiz-adv-x="1574" 
d="M393 772q-128 0 -203 52.5t-75 166.5v312q0 113 75.5 166t204.5 53q128 0 204.5 -53t76.5 -166v-312q0 -114 -76.5 -166.5t-206.5 -52.5zM1274 1493l-787 -1477q-7 -16 -88 -16h-10q-89 0 -96 10q-1 3 0 6l786 1477q8 16 99 16h21t22 -0.5t22.5 -1.5t17 -2.5t12 -4.5
t1.5 -7zM1204 -33q-128 0 -202 52.5t-74 166.5v322q0 219 278 219q130 0 205.5 -52.5t75.5 -166.5v-322q0 -114 -76.5 -166.5t-206.5 -52.5zM516 1303q0 52 -31 70t-92 18q-59 0 -89 -18t-30 -70v-312q0 -53 29.5 -70.5t89.5 -17.5q62 0 92.5 17.5t30.5 70.5v312zM1325 508
q0 52 -30.5 71t-90.5 19q-58 0 -88.5 -19t-30.5 -71v-322q0 -53 29.5 -70.5t89.5 -17.5t90.5 17.5t30.5 70.5v322z" />
    <glyph glyph-name="ampersand" unicode="&#x26;" horiz-adv-x="1380" 
d="M1323 618l-186 -299l172 -196q12 -14 -20.5 -54t-74.5 -69.5t-53 -15.5l-141 170q-22 -27 -52.5 -53t-80.5 -57t-122 -50t-153 -19q-110 0 -197.5 20.5t-156.5 64t-106 118t-37 176.5v117q0 57 24.5 110.5t73 103t92.5 84t111 81.5q-42 42 -67.5 69t-55 66t-43.5 77.5
t-14 78.5v78q0 46 9.5 87.5t34 83t63 71.5t102 48t145.5 17q83 -1 146 -21t99 -50t58.5 -71.5t29.5 -77.5t7 -75v-88q0 -42 -11 -78.5t-27.5 -63.5t-51.5 -60t-65 -57t-87 -65l320 -362l98 161q12 19 108 19q21 0 37 -0.5t36 -2t29.5 -6t6.5 -10.5zM584 1360
q-85 0 -117.5 -36t-32.5 -128v-37q0 -23 7 -46t13 -37.5t25.5 -38.5t25.5 -31.5t32.5 -34l29.5 -29.5q57 39 87 64.5t52 64.5t23 88v37q0 79 -29.5 121.5t-115.5 42.5zM901 299l-366 420l-84 -62q-132 -98 -132 -213v-65q0 -236 293 -236q171 0 289 156z" />
    <glyph glyph-name="quotesingle" unicode="'" horiz-adv-x="434" 
d="M311 1493l-28 -530q-2 -17 -66 -17q-63 0 -65 17l-29 530q0 4 4 7t13 4.5t17.5 2.5t21.5 1.5t20 0.5h18h18t20 -0.5t21.5 -1.5t17.5 -2.5t13 -4.5t4 -7z" />
    <glyph glyph-name="parenleft" unicode="(" horiz-adv-x="747" 
d="M440 1567q11 13 52.5 -8.5t75.5 -52.5t26 -42q-96 -117 -175 -329.5t-79 -454.5q0 -163 42.5 -333t94.5 -282t105 -184q8 -12 -28 -40t-79.5 -46t-54.5 -6q-40 42 -84.5 122.5t-89.5 193.5t-74 266.5t-29 310.5q0 147 29.5 293.5t75.5 260t95.5 198t96.5 133.5z" />
    <glyph glyph-name="parenright" unicode=")" horiz-adv-x="747" 
d="M317 1567q47 -49 96.5 -133.5t95.5 -198t75.5 -260t29.5 -293.5q0 -157 -29 -310.5t-73.5 -266.5t-89 -193.5t-84.5 -122.5q-12 -12 -55.5 6t-78.5 46t-26 40q86 119 163 341t77 458q0 242 -79 454.5t-175 329.5q-8 11 25.5 42t74.5 52.5t53 8.5z" />
    <glyph glyph-name="asterisk" unicode="*" horiz-adv-x="851" 
d="M152 1341l227 -100l-21 248q-1 6 7 10t21 6t26 3t26 1q80 0 80 -22l-22 -246l227 98q7 3 17 -10.5t18.5 -35t15 -45t6 -39.5t-7.5 -19l-244 -57l166 -189q9 -11 -20.5 -39.5t-65 -47.5t-43.5 -7l-131 217l-131 -217q-8 -12 -43 9t-63 50.5t-19 38.5l164 185l-244 59
q-12 9 -5 44t26.5 72.5t32.5 32.5z" />
    <glyph glyph-name="plus" unicode="+" horiz-adv-x="1343" 
d="M1182 438h-424v-430q0 -16 -90 -16t-90 16v430l-416 2q-17 0 -17 82t17 82h416v426q0 17 90 17t90 -17v-426h424q16 0 16 -84q0 -82 -16 -82z" />
    <glyph glyph-name="comma" unicode="," horiz-adv-x="550" 
d="M82 -256q-45 42 -23 61q76 75 95.5 148t19.5 266q0 17 94 17q101 0 101 -17q0 -350 -232 -502q-21 -9 -55 27z" />
    <glyph glyph-name="hyphen" unicode="-" horiz-adv-x="1003" 
d="M172 543q-16 0 -16 82t16 82h659q17 0 17 -82t-17 -82h-659z" />
    <glyph glyph-name="period" unicode="." horiz-adv-x="495" 
d="M248 -8q-90 0 -90 16v256q0 17 90 17t90 -17v-256q0 -16 -90 -16z" />
    <glyph glyph-name="slash" unicode="/" horiz-adv-x="839" 
d="M819 1493l-602 -1485q-6 -16 -98 -16q-23 0 -36 0.5t-31.5 1.5t-26.5 4.5t-5 9.5l603 1485q8 16 98 16q22 0 35 -0.5t31.5 -1.5t26.5 -4.5t5 -9.5z" />
    <glyph glyph-name="zero" unicode="0" horiz-adv-x="1343" 
d="M678 -29q-512 0 -512 420v715q0 424 512 424q498 0 498 -424v-715q0 -420 -498 -420zM971 1085q0 141 -69.5 201t-223.5 60q-158 0 -232.5 -60.5t-74.5 -200.5v-673q0 -138 74 -197t233 -59q155 0 224 58.5t69 197.5v673z" />
    <glyph glyph-name="one" unicode="1" horiz-adv-x="837" 
d="M469 -8q-102 0 -102 16v1274q-46 -20 -120.5 -37.5t-109.5 -17.5q-8 0 -13 24.5t-5 53.5q0 80 20 84q102 23 289 112h143v-1493q0 -16 -102 -16z" />
    <glyph glyph-name="two" unicode="2" horiz-adv-x="1206" 
d="M698 655q-160 -77 -240.5 -138t-113.5 -130.5t-33 -175.5v-41h742q18 0 18 -86q0 -84 -18 -84h-949v156q0 164 43.5 274t135 190t258.5 162q112 55 175.5 92.5t103.5 76.5t52.5 75.5t12.5 91.5q0 106 -72.5 171t-202.5 65q-164 0 -364 -101q-12 -7 -35 31.5t-36 82
t-1 50.5q85 48 201 80.5t235 32.5q224 0 347.5 -107.5t123.5 -304.5q0 -89 -21.5 -154.5t-71.5 -120t-116.5 -96.5t-173.5 -92z" />
    <glyph glyph-name="three" unicode="3" horiz-adv-x="1148" 
d="M176 268q193 -114 361 -114q118 0 189 56.5t71 160.5v78q0 116 -66 169.5t-199 53.5h-116q-19 0 -19 90t19 90h129q248 0 248 221v68q0 96 -66.5 152.5t-179.5 56.5q-167 0 -340 -105q-11 -7 -37.5 31t-43 82t-3.5 51q74 49 191 86t243 37q88 0 165.5 -24t138 -70
t95.5 -119.5t35 -165.5v-92q0 -119 -68 -196.5t-171 -100.5q102 -22 175.5 -104.5t73.5 -200.5v-88q0 -183 -127.5 -292.5t-334.5 -109.5q-80 0 -160.5 16.5t-142.5 42.5t-90 40t-48 26q-14 8 0.5 54t39.5 86.5t38 33.5z" />
    <glyph glyph-name="four" unicode="4" horiz-adv-x="1239" 
d="M1130 307h-190v-299q0 -16 -94 -16q-101 0 -101 16v299h-645q-12 0 -12 62q0 54 10 69l670 1057q10 14 90 14q82 0 82 -14v-1016h190q17 0 17 -86t-17 -86zM322 479h423v674z" />
    <glyph glyph-name="five" unicode="5" horiz-adv-x="1200" 
d="M561 -31q-126 0 -243.5 45.5t-202.5 112.5q-11 8 8 52t47 82.5t39 31.5q92 -64 173.5 -99.5t178.5 -35.5q135 0 202.5 69.5t67.5 196.5v113q0 129 -57.5 199.5t-173.5 70.5q-147 0 -235 -123h-179v817h805q17 0 17 -86q0 -84 -17 -84h-606v-420q106 78 248 78
q190 0 297.5 -116.5t107.5 -327.5v-121q0 -203 -125.5 -329t-351.5 -126z" />
    <glyph glyph-name="six" unicode="6" horiz-adv-x="1327" 
d="M672 -29q-247 0 -374.5 138t-127.5 366v565q0 104 29 190.5t88 154.5t159.5 106.5t233.5 38.5q218 0 403 -90q6 -5 4 -23.5t-11.5 -45.5t-20.5 -51t-22.5 -39t-18.5 -11q-56 31 -142 57.5t-182 26.5q-161 0 -239 -78.5t-78 -212.5v-205q18 45 110 99.5t228 54.5
q208 0 335.5 -118.5t127.5 -326.5v-139q0 -214 -137 -335.5t-365 -121.5zM969 432v117q0 137 -73.5 213t-211.5 76q-146 0 -228.5 -78.5t-82.5 -210.5v-103q0 -145 79 -226t220 -81q136 0 216.5 74.5t80.5 218.5z" />
    <glyph glyph-name="seven" unicode="7" horiz-adv-x="1138" 
d="M299 8l520 1319h-723q-16 0 -16 88q0 86 16 86h932q10 0 13 -9.5t3 -47.5q0 -64 -12 -98l-518 -1338q-6 -16 -108 -16h-23t-23.5 0.5t-25 1.5t-19 2.5t-13.5 4.5t-3 7z" />
    <glyph glyph-name="eight" unicode="8" horiz-adv-x="1292" 
d="M623 -29q-221 0 -358.5 105.5t-137.5 302.5v39q0 132 63 219t158 131q-70 35 -131 122t-61 204v32q0 199 125.5 301.5t347.5 102.5q224 0 344.5 -101.5t120.5 -302.5v-30q0 -123 -58 -207t-139 -121q96 -38 158.5 -123t62.5 -217v-47q0 -197 -137 -303.5t-358 -106.5z
M623 688q-135 0 -216 -61.5t-81 -194.5v-41q0 -124 84 -189t213 -65q127 0 212 65.5t85 188.5v41q0 133 -79.5 194.5t-217.5 61.5zM342 1120v-30q0 -126 77.5 -189t203.5 -63q129 0 204.5 62.5t75.5 189.5v28q0 130 -69.5 189t-208.5 59t-211 -59t-72 -187z" />
    <glyph glyph-name="nine" unicode="9" horiz-adv-x="1329" 
d="M614 1530q246 0 375 -135t129 -351v-583q0 -104 -29.5 -190.5t-89 -154.5t-160 -106.5t-233.5 -38.5q-218 0 -403 90q-6 5 -4 23.5t11 45.5t20 51t23 39t19 11q56 -31 141.5 -57.5t180.5 -26.5q162 0 240.5 78.5t78.5 212.5v205q-18 -45 -110 -99.5t-228 -54.5
q-208 0 -335 121t-127 324v139q0 214 136.5 335.5t364.5 121.5zM315 1069v-117q0 -134 78 -212t209 -78q144 0 227.5 79t83.5 207v121q0 136 -79.5 214.5t-219.5 78.5q-137 0 -218 -75t-81 -218z" />
    <glyph glyph-name="colon" unicode=":" horiz-adv-x="542" 
d="M287 -8q-90 0 -90 16v256q0 17 90 17t90 -17v-256q0 -16 -90 -16zM281 829q-91 0 -91 17v256q0 16 91 16q90 0 90 -16v-256q0 -17 -90 -17z" />
    <glyph glyph-name="semicolon" unicode=";" horiz-adv-x="532" 
d="M59 -256q-43 40 -22 61q78 75 97.5 148t19.5 266q0 17 94 17q98 0 98 -17q0 -350 -231 -502q-22 -10 -56 27zM240 829q-90 0 -90 17v256q0 16 90 16t90 -16v-256q0 -17 -90 -17z" />
    <glyph glyph-name="less" unicode="&#x3c;" horiz-adv-x="1105" 
d="M174 600l744 260q6 2 9.5 -5.5t4.5 -24t1.5 -28t0.5 -30.5q0 -88 -16 -94l-512 -172l512 -164q16 -4 16 -88q0 -19 -0.5 -31t-1.5 -29.5t-4.5 -25.5t-9.5 -6l-744 260q-16 5 -16 80v10q0 82 16 88z" />
    <glyph glyph-name="equal" unicode="=" horiz-adv-x="1105" 
d="M166 580q-16 0 -16 82q0 81 16 81h784q17 0 17 -81q0 -82 -17 -82h-784zM166 264q-16 0 -16 82t16 82h784q17 0 17 -82t-17 -82h-784z" />
    <glyph glyph-name="greater" unicode="&#x3e;" horiz-adv-x="1105" 
d="M180 860l744 -260q18 -7 18 -88q0 -83 -18 -90l-744 -260q-6 -2 -9.5 6t-4.5 25.5t-1.5 29.5t-0.5 31q0 84 16 88l512 164l-512 172q-16 6 -16 94q0 19 0.5 30.5t1.5 28t4.5 24t9.5 5.5z" />
    <glyph glyph-name="question" unicode="?" horiz-adv-x="937" 
d="M424 1354q-106 0 -240 -86q-9 -7 -33 29t-40 77.5t-7 48.5q172 103 342 103q100 0 176 -32t119 -86t63.5 -116.5t20.5 -132.5q0 -67 -25 -128.5t-62 -105.5t-81 -92t-81 -89t-62 -95.5t-25 -111.5v-68q0 -16 -86 -16q-81 0 -81 16v76q0 69 22.5 130.5t57 105t74 89
t74 83.5t57 88t22.5 102q0 90 -54.5 150.5t-150.5 60.5zM403 -8q-90 0 -90 16v256q0 17 90 17q91 0 91 -17v-256q0 -16 -91 -16z" />
    <glyph glyph-name="at" unicode="@" horiz-adv-x="1781" 
d="M1331 162q-87 0 -147 40t-74 74q-9 -11 -25.5 -25.5t-51.5 -40t-86.5 -42t-108.5 -16.5q-128 0 -205.5 77t-77.5 187v49q0 145 115.5 206.5t394.5 61.5q0 95 -44 146t-132 51q-38 0 -82 -11.5t-70 -22t-69 -30.5q-13 -6 -34.5 22.5t-30.5 57.5t1 41q45 26 128 50t165 24
q69 0 125.5 -17t103.5 -53t73 -100t26 -152v-340q0 -45 30.5 -78.5t85.5 -33.5q61 0 100.5 46.5t39.5 129.5v328q0 54 -14 108.5t-54 117t-101.5 110t-167.5 79t-241 31.5q-130 0 -232 -28.5t-167.5 -76.5t-108.5 -115.5t-60.5 -140t-17.5 -155.5v-246q0 -106 32.5 -197
t97.5 -163t172.5 -113t246.5 -41q214 0 443 96q7 3 17.5 -10t19 -33t15 -42t7 -37.5t-5.5 -18.5q-28 -12 -77 -29t-174.5 -42t-242.5 -25q-162 0 -290 42.5t-205.5 108.5t-128 153t-69.5 168.5t-19 162.5v293q0 57 10 114t34.5 120.5t62 119.5t97 107.5t134.5 89t179.5 59.5
t227.5 22q129 0 236 -22.5t180 -59t129.5 -87.5t89.5 -103t53.5 -110.5t27.5 -105t7 -91.5v-303q0 -70 -15.5 -128.5t-49 -106.5t-91.5 -74.5t-137 -26.5zM1065 612q-59 0 -95.5 -1t-83 -5.5t-74.5 -14t-54.5 -24.5t-38.5 -40t-12 -58v-51q0 -54 41 -92.5t108 -38.5
q62 0 117 29.5t92 74.5v221z" />
    <glyph glyph-name="A" unicode="A" horiz-adv-x="1230" 
d="M612 1509q110 0 117 -18l463 -1483q2 -6 -7 -9.5t-28.5 -4.5t-33 -1.5t-36.5 -0.5q-98 0 -104 16l-102 342h-541l-104 -342q-6 -16 -99 -16h-22t-22.5 0.5t-22.5 1.5t-17 2.5t-12 4.5t-2 7l459 1483q7 18 114 18zM391 522h440l-219 760z" />
    <glyph glyph-name="B" unicode="B" horiz-adv-x="1253" 
d="M1133 477v-104q0 -170 -111.5 -271.5t-337.5 -101.5h-508v1505h508q202 0 306 -92.5t104 -261.5v-53q0 -122 -55.5 -200.5t-155.5 -106.5q112 -29 181 -110t69 -204zM893 1085v41q0 209 -258 209h-258v-463h272q117 0 180.5 49t63.5 164zM930 395v66q0 111 -66.5 176
t-195.5 65h-291v-532h278q137 0 206 52.5t69 172.5z" />
    <glyph glyph-name="C" unicode="C" horiz-adv-x="1177" 
d="M1106 1442q9 -4 2.5 -32t-18.5 -59.5t-27.5 -56t-24.5 -20.5q-187 84 -340 84q-148 0 -245 -70t-97 -209v-667q0 -271 342 -271q76 0 175.5 19t181.5 49q7 3 16 -12.5t17 -39t14 -49t6.5 -43.5t-4.5 -22q-60 -26 -186.5 -49t-227.5 -23q-536 0 -536 445v665
q0 119 39.5 207t112.5 140t168.5 77t215.5 25q109 0 220 -24t196 -64z" />
    <glyph glyph-name="D" unicode="D" horiz-adv-x="1351" 
d="M1200 1038v-594q0 -222 -128 -333t-378 -111h-518v1501h512q258 0 385 -111t127 -352zM995 444v592q0 148 -76 219.5t-229 71.5h-311v-1153h317q149 0 224 65.5t75 204.5z" />
    <glyph glyph-name="E" unicode="E" horiz-adv-x="1071" 
d="M977 88q0 -88 -16 -88h-785v1501h780q19 0 19 -90q0 -86 -19 -86h-577v-457h512q16 0 16 -86t-16 -86h-512v-522h582q16 0 16 -86z" />
    <glyph glyph-name="F" unicode="F" horiz-adv-x="1013" 
d="M950 1413q0 -88 -18 -88h-553v-491h502q18 0 18 -89q0 -94 -18 -94h-502v-643q0 -16 -103 -16q-100 0 -100 16v1493h758q16 0 16 -88z" />
    <glyph glyph-name="G" unicode="G" horiz-adv-x="1368" 
d="M1036 432v219h-286q-17 0 -17 88t17 88h487v-405q0 -219 -141 -336t-400 -117t-400.5 112t-141.5 312v692q0 120 39.5 207.5t112.5 138.5t168 75t216 24q109 0 220 -24t196 -64q9 -4 2.5 -32t-18.5 -59.5t-27.5 -56t-24.5 -20.5q-182 82 -340 82q-63 0 -120 -14
t-108.5 -44.5t-82.5 -86t-31 -130.5v-645q0 -77 27.5 -135.5t75.5 -92.5t108 -50.5t131 -16.5q154 0 246 70t92 221z" />
    <glyph glyph-name="H" unicode="H" horiz-adv-x="1417" 
d="M1243 8q0 -16 -102 -16q-103 0 -103 16v684h-659v-684q0 -16 -100 -16q-103 0 -103 16v1485q0 16 103 16q100 0 100 -16v-616h659v616q0 16 103 16q102 0 102 -16v-1485z" />
    <glyph glyph-name="I" unicode="I" horiz-adv-x="561" 
d="M387 8q0 -16 -102 -16q-103 0 -103 16v1485q0 16 103 16q102 0 102 -16v-1485z" />
    <glyph glyph-name="J" unicode="J" horiz-adv-x="702" 
d="M528 1493v-1184q0 -65 -18.5 -119t-56.5 -97.5t-104.5 -68t-155.5 -24.5h-127q-17 0 -17 88q0 86 17 86h112q75 0 110.5 32t35.5 107v1180q0 16 102 16t102 -16z" />
    <glyph glyph-name="K" unicode="K" horiz-adv-x="1212" 
d="M379 541v-533q0 -16 -103 -16q-100 0 -100 16v1485q0 16 103 16q100 0 100 -16v-698l553 696q16 18 112 18q30 0 47 -0.5t41 -1.5t33 -4.5t4 -9.5l-526 -664l537 -821q16 -16 -121 -16q-107 0 -119 16l-438 682z" />
    <glyph glyph-name="L" unicode="L" horiz-adv-x="1032" 
d="M1018 94q0 -94 -17 -94h-825v1493q0 16 100 16q103 0 103 -16v-1307h622q17 0 17 -92z" />
    <glyph glyph-name="M" unicode="M" horiz-adv-x="1634" 
d="M1458 8q0 -16 -90 -16q-94 0 -94 16v950q0 180 12 295h-4l-371 -1245q-4 -16 -96 -16q-90 0 -94 16l-369 1247h-2q12 -147 12 -294v-953q0 -16 -94 -16q-92 0 -92 16v1485q0 16 137 16q130 0 136 -18l245 -819q74 -250 125 -490q46 232 125 496l240 815q4 11 30 13.5
t99 2.5q41 0 60.5 -0.5t43 -1.5t32.5 -4.5t9 -9.5v-1485z" />
    <glyph glyph-name="N" unicode="N" horiz-adv-x="1466" 
d="M1290 8q0 -16 -129 -16q-120 0 -129 16l-459 862q-67 123 -211 414h-2q15 -208 15 -420v-856q0 -16 -99 -16q-100 0 -100 16v1485q0 16 133 16q137 0 144 -16l424 -803q79 -146 225 -440h4q-12 202 -12 430v813q0 16 100 16q96 0 96 -16v-1485z" />
    <glyph glyph-name="O" unicode="O" horiz-adv-x="1409" 
d="M1257 420v-2q0 -218 -143 -333.5t-409 -115.5q-268 0 -409.5 114.5t-141.5 334.5v659q0 221 141.5 337t409.5 116q267 0 409.5 -116.5t142.5 -336.5v-657zM1053 428v641q0 291 -348 291q-349 0 -349 -291v-641q0 -289 349 -289q348 0 348 289z" />
    <glyph glyph-name="P" unicode="P" horiz-adv-x="1187" 
d="M1094 1081v-125q0 -91 -26 -165.5t-79.5 -132t-143.5 -89.5t-210 -32h-256v-529q0 -16 -103 -16q-102 0 -102 16v1493h467q229 0 341 -111t112 -309zM891 971v100q0 134 -62.5 197t-214.5 63h-235v-624h235q151 0 214 65.5t63 198.5z" />
    <glyph glyph-name="Q" unicode="Q" horiz-adv-x="1429" 
d="M1286 -182q21 0 21 -84q0 -53 -19 -71.5t-61 -18.5q-62 0 -129 19.5t-115.5 43t-109.5 43t-111 19.5q-26 0 -51.5 -3.5t-26.5 -3.5q-18 0 -18 84q0 82 18 84q40 9 78 9q60 0 128 -19.5t119 -43t111 -43t105 -19.5q15 0 37 2t24 2zM1262 420v-2q0 -218 -143.5 -333.5
t-409.5 -115.5q-268 0 -410.5 114.5t-142.5 334.5v659q0 221 142.5 337t410.5 116q267 0 410 -116.5t143 -336.5v-657zM1057 428v641q0 291 -348 291q-349 0 -349 -291v-641q0 -289 349 -289q348 0 348 289z" />
    <glyph glyph-name="R" unicode="R" horiz-adv-x="1249" 
d="M860 594l289 -586q3 -6 -5.5 -9.5t-30 -4.5t-37 -1.5t-44.5 -0.5q-106 0 -114 16l-261 553h-274v-553q0 -16 -102 -16q-103 0 -103 16v1493h486q224 0 334 -110.5t110 -309.5v-98q0 -147 -57.5 -244t-190.5 -145zM905 993v78q0 134 -62 197t-212 63h-248v-602h248
q150 0 212 64t62 200z" />
    <glyph glyph-name="S" unicode="S" horiz-adv-x="1138" 
d="M1047 416q0 -199 -141 -322t-361 -123q-134 0 -258.5 44t-216.5 106q-9 7 9 51.5t44 84t35 32.5q72 -50 180.5 -94.5t202.5 -44.5q135 0 215 66.5t80 184.5q0 25 -5 48t-12 41.5t-22.5 37t-27 31.5t-36 30t-39.5 26.5t-46.5 25.5t-47.5 23.5t-53.5 25t-54.5 25.5
q-50 24 -80 39.5t-74.5 42t-71.5 49t-58 55.5t-48.5 67.5t-29 79t-11.5 95.5q0 165 119 274t337 109q209 0 410 -103q6 -4 4 -22t-11 -44t-20 -49.5t-22 -38.5t-18 -12q-72 38 -164.5 65.5t-180.5 27.5q-122 0 -186.5 -55t-64.5 -148q0 -29 9.5 -55t21.5 -45.5t37.5 -40.5
t43 -33.5t54.5 -31.5t55 -27t59 -26q17 -7 25 -11q80 -35 138 -66t114.5 -73t91 -87t55.5 -105t21 -130z" />
    <glyph glyph-name="T" unicode="T" horiz-adv-x="1091" 
d="M1081 1417q0 -86 -16 -86h-414v-1323q0 -16 -102 -16q-103 0 -103 16v1323h-419q-17 0 -17 86q0 84 17 84h1038q16 0 16 -84z" />
    <glyph glyph-name="U" unicode="U" horiz-adv-x="1366" 
d="M1202 410q0 -204 -138.5 -321.5t-383.5 -117.5q-246 0 -381 119.5t-135 335.5v1067q0 16 102 16q99 0 99 -16v-1085q0 -130 81.5 -198.5t229.5 -68.5q149 0 235 68.5t86 198.5v1085q0 16 103 16q102 0 102 -16v-1083z" />
    <glyph glyph-name="V" unicode="V" horiz-adv-x="1212" 
d="M1180 1493l-451 -1483q-7 -18 -117 -18q-111 0 -118 18l-467 1483q-1 4 3 7t14 4.5t19 2.5t24 1.5t23.5 0.5h22.5q107 0 111 -16l217 -745q85 -283 149 -572h4q50 226 150 572l213 745q6 16 102 16q22 0 35 -0.5t31.5 -1.5t27 -4.5t7.5 -9.5z" />
    <glyph glyph-name="W" unicode="W" horiz-adv-x="1826" 
d="M1776 1493l-342 -1483q-4 -18 -119 -18q-117 0 -121 18l-172 723q-77 325 -107 484h-4q-67 -357 -94 -478l-164 -729q-4 -18 -116 -18q-117 0 -121 18l-365 1483q-2 6 6.5 9.5t27.5 4.5t32 1.5t35 0.5q102 0 106 -16l162 -711q84 -384 115 -598h2q39 267 110 596l164 713
q2 16 98 16q99 0 101 -16l176 -713q101 -421 129 -596h2q30 197 113 598l147 711q2 16 100 16q23 0 35.5 -0.5t30.5 -1.5t26 -4.5t7 -9.5z" />
    <glyph glyph-name="X" unicode="X" horiz-adv-x="1226" 
d="M614 600l-354 -590q-11 -18 -113 -18q-26 0 -45 0.5t-38 2.5t-27 5.5t-4 9.5l469 740l-457 743q-4 6 4 9.5t29.5 4.5t37 1.5t44.5 0.5q106 0 116 -18l340 -584l340 586q12 16 113 16q29 0 43.5 -0.5t34 -1.5t26.5 -4.5t3 -9.5l-449 -729l467 -754q4 -6 -5 -9.5t-29 -5.5
t-39 -2.5t-44 -0.5q-103 0 -116 18z" />
    <glyph glyph-name="Y" unicode="Y" horiz-adv-x="1171" 
d="M1151 1491l-465 -877v-604q0 -18 -102 -18q-103 0 -103 18v604l-461 879q-3 5 5.5 8.5t26.5 5t36 2t43 0.5q104 0 113 -16l344 -692l344 692q9 16 117 16q25 0 42 -0.5t33.5 -2.5t23.5 -5.5t3 -9.5z" />
    <glyph glyph-name="Z" unicode="Z" horiz-adv-x="1142" 
d="M1077 84q0 -84 -16 -84h-995v111l739 1216h-707q-16 0 -16 90q0 84 16 84h957v-115l-729 -1212h735q16 0 16 -90z" />
    <glyph glyph-name="bracketleft" unicode="[" horiz-adv-x="729" 
d="M627 -289h-439v1850h439q16 0 16 -82t-16 -82h-244v-1522h244q16 0 16 -82t-16 -82z" />
    <glyph glyph-name="backslash" unicode="\" horiz-adv-x="845" 
d="M51 1493q-1 4 2.5 7t13 4.5t18 2.5t23.5 1.5t23.5 0.5h22.5q96 0 102 -16q29 -78 553 -1485q2 -5 -6.5 -8.5t-25 -5t-31.5 -2t-33 -0.5q-97 0 -103 16q-93 248 -279.5 742.5t-279.5 742.5z" />
    <glyph glyph-name="bracketright" unicode="]" horiz-adv-x="729" 
d="M543 -289h-439q-16 0 -16 82t16 82h242v1520h-242q-16 0 -16 82t16 82h439v-1848z" />
    <glyph glyph-name="asciicircum" unicode="^" horiz-adv-x="1105" 
d="M649 1477l291 -762q2 -6 -6 -9.5t-25 -5t-31 -2t-34 -0.5q-93 0 -99 17l-202 577l-191 -577q-7 -17 -96 -17q-20 0 -33.5 0.5t-30 2t-24 5t-4.5 9.5l289 762q5 14 84 14h14h14q79 0 84 -14z" />
    <glyph glyph-name="underscore" unicode="_" horiz-adv-x="821" 
d="M12 -256v123h795v-123h-795z" />
    <glyph glyph-name="grave" unicode="`" horiz-adv-x="997" 
d="M496 1243l-213 283q-18 21 26 27l56 3q52 0 68.5 -3t23.5 -13l174 -291q11 -14 -17 -18q-15 -2 -45 -2q-62 0 -73 14z" />
    <glyph glyph-name="a" unicode="a" horiz-adv-x="1118" 
d="M973 8q0 -16 -90 -16q-95 0 -95 16v107q-21 -18 -45.5 -36t-70.5 -44.5t-105.5 -43t-120.5 -16.5q-162 0 -256 91t-94 245v51q0 89 37.5 154t120 109t213.5 52.5t319 -15.5v71q0 122 -54 173.5t-179 51.5q-179 0 -313 -67q-10 -6 -27 27q-30 58 -34 111q-2 25 7 30
q67 29 168.5 50t206.5 21q412 0 412 -399v-723zM786 264v258q-238 39 -370.5 1t-132.5 -154v-50q0 -86 57.5 -132t153.5 -46q159 0 292 123z" />
    <glyph glyph-name="b" unicode="b" horiz-adv-x="1206" 
d="M1081 725v-340q0 -200 -128.5 -308t-340.5 -108q-220 0 -342.5 107t-122.5 309v1133q0 16 99 16q100 0 100 -16v-545q43 72 131 118t211 46q78 0 148 -25.5t125 -75t87.5 -130t32.5 -181.5zM883 399v295q0 138 -66.5 203.5t-175.5 65.5q-132 0 -213.5 -87.5t-81.5 -216.5
v-260q0 -135 67.5 -197.5t198.5 -62.5q271 0 271 260z" />
    <glyph glyph-name="c" unicode="c" horiz-adv-x="1005" 
d="M555 -31q-200 0 -316 108t-116 310v332q0 198 116.5 308t315.5 110q112 0 207 -32t162 -81q12 -10 -1.5 -51.5t-39 -75.5t-41.5 -25q-3 2 -21.5 13.5t-30 18t-32.5 18t-40 18.5t-42.5 14.5t-49 11t-51.5 3.5q-253 0 -253 -271v-301q0 -262 253 -262q123 0 271 101
q16 12 42.5 -20.5t40.5 -73t1 -50.5q-59 -48 -162 -85.5t-213 -37.5z" />
    <glyph glyph-name="d" unicode="d" horiz-adv-x="1208" 
d="M543 1139q119 0 199.5 -44.5t107.5 -88.5v512q0 16 98 16q99 0 99 -16v-1510q0 -16 -97 -16q-90 0 -90 16v129q-44 -68 -127 -117t-201 -49q-84 0 -156.5 25.5t-129 75t-89 129.5t-32.5 182v344q0 102 33 181.5t90.5 129.5t132.5 75.5t162 25.5zM584 145q120 0 193 80
t73 197v270q0 127 -75.5 202t-201.5 75q-249 0 -249 -269v-286q0 -140 69 -204.5t191 -64.5z" />
    <glyph glyph-name="e" unicode="e" horiz-adv-x="1130" 
d="M1010 475h-693v-88q0 -122 67 -189t198 -67q96 0 173.5 23t162.5 67q9 5 32 -29t37.5 -72t5.5 -44q-188 -107 -420 -107q-208 0 -328 114t-120 310v307q0 203 120 321t316 118q216 0 332.5 -119.5t116.5 -335.5v-209zM819 621v90q0 129 -70 198.5t-186 69.5
q-112 0 -180 -70t-68 -196v-92h504z" />
    <glyph glyph-name="f" unicode="f" horiz-adv-x="704" 
d="M625 1001q0 -81 -19 -81h-188v-910q0 -18 -99 -18q-100 0 -100 18v910h-141q-17 0 -17 81q0 78 17 78h141v164q0 136 70 209.5t198 73.5h152q6 0 9 -4.5t5 -23t2 -54.5t-2 -54t-5 -22t-9 -4h-113q-59 0 -84.5 -32t-25.5 -99v-154h190q19 0 19 -78z" />
    <glyph glyph-name="g" unicode="g" horiz-adv-x="1204" 
d="M850 6v129q-108 -147 -318 -147q-176 0 -290.5 106.5t-114.5 304.5v326q0 101 32.5 181.5t89 130t128.5 75t155 25.5q119 0 202 -45t124 -109v119q0 16 94 16q97 0 97 -16v-1036q0 -107 -26.5 -193t-71.5 -142t-107.5 -93.5t-130.5 -53.5t-144 -16q-114 0 -217 35.5
t-168 77.5q-11 7 6 46t42.5 73t35.5 28q163 -98 310 -98q128 0 200 72t72 204zM575 963q-116 0 -183.5 -65t-67.5 -204v-264q0 -138 67.5 -203t183.5 -65q127 0 201 76t74 204v244q0 119 -74.5 198t-200.5 79z" />
    <glyph glyph-name="h" unicode="h" horiz-adv-x="1185" 
d="M1038 8q0 -16 -100 -16q-98 0 -98 16v742q0 98 -46 152t-128 54q-54 0 -110 -26.5t-96 -63.5t-67 -68.5t-35 -49.5v-740q0 -16 -98 -16t-98 16v1510q0 16 98 16t98 -16v-574q20 28 49.5 57t76 62.5t111 54.5t134.5 21q141 -1 225 -95.5t84 -246.5v-789z" />
    <glyph glyph-name="i" unicode="i" horiz-adv-x="516" 
d="M258 -8q-98 0 -98 16v1092q0 16 98 16t98 -16v-1092q0 -16 -98 -16zM258 1270q-98 0 -98 16v232q0 16 98 16t98 -16v-232q0 -16 -98 -16z" />
    <glyph glyph-name="j" unicode="j" horiz-adv-x="526" 
d="M139 -414h-182q-16 0 -16 84q0 82 16 82h109q104 0 104 105v1243q0 16 98 16q99 0 99 -16v-1274q0 -115 -58.5 -177.5t-169.5 -62.5zM268 1270q-98 0 -98 16v232q0 16 98 16q99 0 99 -16v-232q0 -16 -99 -16z" />
    <glyph glyph-name="k" unicode="k" horiz-adv-x="1042" 
d="M1010 1100l-424 -482l448 -610q4 -6 -5.5 -9.5t-33 -4.5t-39.5 -1.5t-43 -0.5q-108 0 -122 16l-353 481l-80 -83v-398q0 -16 -100 -16q-96 0 -96 16v1510q0 16 98 16t98 -16v-873l402 455q16 16 133 16q28 0 44 -0.5t38.5 -1.5t31 -4.5t3.5 -9.5z" />
    <glyph glyph-name="l" unicode="l" horiz-adv-x="591" 
d="M516 0h-94q-133 0 -200.5 69.5t-67.5 192.5v1256q0 16 98 16t98 -16v-1239q0 -56 28 -81.5t91 -25.5h47q19 0 25 -15t6 -69q0 -57 -6 -72.5t-25 -15.5z" />
    <glyph glyph-name="m" unicode="m" horiz-adv-x="1730" 
d="M969 743v-735q0 -16 -99 -16q-98 0 -98 16v737q0 95 -41 149t-113 54q-68 0 -143.5 -69.5t-118.5 -149.5v-721q0 -16 -98 -16t-98 16v1092q0 16 96 16q90 0 90 -16v-185q61 92 148 156t188 64q100 0 167.5 -65t88.5 -152q66 94 153.5 155.5t186.5 61.5q59 0 112.5 -21
t96.5 -61.5t68.5 -108t25.5 -153.5v-783q0 -16 -96 -16q-101 0 -101 16v737q0 203 -151 203q-72 0 -147.5 -62t-116.5 -143z" />
    <glyph glyph-name="n" unicode="n" 
d="M1034 8q0 -16 -98 -16t-98 16v731q0 217 -174 217q-84 0 -169 -61t-139 -145v-742q0 -16 -98 -16t-98 16v1094q0 16 98 16q92 0 92 -16v-156q20 27 50.5 56t78 62t113 54t135.5 21q141 -1 224 -95.5t83 -246.5v-789z" />
    <glyph glyph-name="o" unicode="o" horiz-adv-x="1177" 
d="M588 -31q-221 0 -343 107.5t-122 310.5v334q0 202 124.5 310t340.5 108q217 0 342 -108t125 -310v-334q0 -200 -128 -309t-339 -109zM858 711q0 258 -270 258q-136 0 -202.5 -62t-66.5 -196v-314q0 -134 66.5 -196t202.5 -62q270 0 270 258v314z" />
    <glyph glyph-name="p" unicode="p" horiz-adv-x="1206" 
d="M664 -31q-64 0 -120.5 15t-93.5 37.5t-60 43.5t-34 39v-505q0 -17 -98 -17t-98 17v1501q0 16 96 16q90 0 90 -16v-129q44 68 127.5 118t200.5 50q84 0 156 -25.5t128.5 -75t88.5 -129.5t32 -182v-346q0 -102 -32.5 -181.5t-89.5 -129.5t-131.5 -75.5t-161.5 -25.5z
M623 963q-120 0 -193.5 -80t-73.5 -197v-270q0 -126 75.5 -201.5t201.5 -75.5q118 0 184 65t66 204v286q0 140 -69 204.5t-191 64.5z" />
    <glyph glyph-name="q" unicode="q" horiz-adv-x="1208" 
d="M543 -31q-87 0 -162 25.5t-132.5 75.5t-90.5 129.5t-33 181.5v346q0 102 32.5 182t89 129.5t129 75t156.5 25.5q117 0 200.5 -50t127.5 -118v129q0 16 90 16q97 0 97 -16v-1501q0 -17 -99 -17q-98 0 -98 17v505q-11 -18 -34 -39t-60 -43.5t-93.5 -37.5t-119.5 -15z
M584 963q-122 0 -191 -64.5t-69 -204.5v-286q0 -269 249 -269q126 0 201.5 75.5t75.5 201.5v270q0 119 -73 198t-193 79z" />
    <glyph glyph-name="r" unicode="r" horiz-adv-x="753" 
d="M705 913h-87q-66 0 -126 -56t-142 -179v-670q0 -16 -100 -16q-96 0 -96 16v1094q0 16 94 16t94 -16v-240q95 149 155.5 201.5t149.5 52.5h60q16 0 16 -102q0 -101 -18 -101z" />
    <glyph glyph-name="s" unicode="s" horiz-adv-x="931" 
d="M457 -29q-106 0 -209 32.5t-164 70.5q-9 6 6 46t38 75.5t32 29.5q61 -36 142 -64t147 -28q97 0 149.5 48t52.5 118q0 51 -30 90t-77.5 65.5t-105 50.5t-115 52.5t-105 64t-77.5 92.5t-30 130q0 124 93.5 208.5t274.5 84.5q87 0 174.5 -20t143.5 -46q15 -7 -11 -82.5
t-41 -70.5q-143 57 -270 57q-85 0 -130.5 -37t-45.5 -90q0 -40 30 -71.5t78 -55t106.5 -47t116.5 -54.5t106 -70t78 -101.5t30 -141.5q0 -141 -104 -238.5t-283 -97.5z" />
    <glyph glyph-name="t" unicode="t" horiz-adv-x="749" 
d="M621 0h-140q-134 0 -200 69t-66 193v658h-152q-18 0 -18 79q0 80 18 80h152v264q0 17 98 17q93 0 93 -17v-264h229q16 0 16 -80q0 -79 -16 -79h-229v-648q0 -57 25.5 -81.5t86.5 -24.5h103q21 0 26.5 -13t5.5 -69t-5.5 -70t-26.5 -14z" />
    <glyph glyph-name="u" unicode="u" 
d="M147 1102q0 16 99 16q100 0 100 -16v-744q0 -98 46 -152t128 -54q54 0 109.5 26.5t96 63.5t67 68t34.5 48v744q0 16 99 16q98 0 98 -16v-1094q0 -16 -98 -16q-95 0 -95 16v154q-18 -27 -49 -56t-77.5 -62t-112 -54t-135.5 -21q-143 1 -226.5 95t-83.5 247v791z" />
    <glyph glyph-name="v" unicode="v" horiz-adv-x="1001" 
d="M973 1100l-363 -1090q-7 -18 -110 -18t-107 16l-366 1092q-1 4 3 7t14 4.5t19 2.5t24 1.5t23.5 0.5h22.5q103 0 107 -16l145 -475q81 -272 121 -467h4q40 207 119 467l145 475q4 16 100 16h22t22.5 -0.5t23 -1.5t17.5 -2.5t12 -4.5t2 -7z" />
    <glyph glyph-name="w" unicode="w" horiz-adv-x="1447" 
d="M901 8l-108 467q-51 220 -66 346h-4q-17 -147 -68 -348l-112 -465q-2 -16 -109 -16q-100 0 -104 16l-279 1092q-1 4 3 7t13.5 4.5t18 2.5t23 1.5t23 0.5h22.5q92 0 96 -16l115 -514q43 -185 75 -406h2q40 248 80 408l125 512q4 16 86 16q84 0 86 -16l119 -512
q48 -206 74 -406h4q27 206 74 406l120 512q4 16 90 16q22 0 34.5 -0.5t30.5 -1.5t26 -4.5t6 -9.5l-289 -1092q-6 -16 -107 -16q-96 0 -100 16z" />
    <glyph glyph-name="x" unicode="x" horiz-adv-x="991" 
d="M932 1100l-326 -539l328 -553q4 -6 -4.5 -9.5t-28.5 -4.5t-33.5 -1.5t-36.5 -0.5q-92 0 -102 16l-233 416l-236 -416q-10 -16 -102 -16q-23 0 -36.5 0.5t-34 1.5t-28.5 4.5t-4 9.5l336 555l-336 537q-2 4 1.5 7t12.5 4.5t17.5 2.5t23.5 1.5t23.5 0.5h22.5q108 0 118 -16
l230 -393l225 393q10 16 102 16h22.5t23.5 -0.5t23.5 -1.5t17.5 -2.5t12.5 -4.5t1.5 -7z" />
    <glyph glyph-name="y" unicode="y" horiz-adv-x="1046" 
d="M1022 1100l-551 -1491q-6 -17 -100 -17q-21 0 -35.5 0.5t-32 2t-26 5t-7.5 9.5l156 416l-397 1075q-2 6 5 9.5t26.5 4.5t33.5 1.5t43 0.5q101 0 107 -16l288 -860l281 860q5 16 105 16q19 0 35 -0.5t34 -2t27.5 -5t7.5 -8.5z" />
    <glyph glyph-name="z" unicode="z" horiz-adv-x="944" 
d="M70 90l530 854h-498q-16 0 -16 82t16 82h760v-90l-530 -856h545q16 0 16 -80q0 -82 -16 -82h-807v90z" />
    <glyph glyph-name="braceleft" unicode="{" horiz-adv-x="749" 
d="M252 637v-4q91 -14 149 -82t58 -168v-326v-59q0 -121 108 -121h68q16 0 16 -82t-16 -82h-111q-124 0 -182.5 76t-58.5 209v373q0 156 -191 182q-18 2 -18 80t18 80q103 14 147 62.5t44 154.5v313q0 149 55 232.5t186 83.5h111q16 0 16 -80q0 -82 -16 -82h-72
q-51 0 -77.5 -29.5t-26.5 -81.5v-405q0 -100 -57.5 -166t-149.5 -78z" />
    <glyph glyph-name="bar" unicode="|" horiz-adv-x="532" 
d="M266 -539q-94 0 -94 17v2144q0 18 94 18t94 -16v-2146q0 -17 -94 -17z" />
    <glyph glyph-name="braceright" unicode="}" horiz-adv-x="749" 
d="M475 643q-92 12 -149.5 78.5t-57.5 165.5v399q0 52 -26 81.5t-76 29.5h-74q-16 0 -16 82q0 80 16 80h111q243 0 243 -314v-309q0 -106 43.5 -154.5t147.5 -62.5q16 -2 16 -80t-16 -80q-191 -25 -191 -182v-377q0 -131 -59.5 -208t-183.5 -77h-111q-16 0 -16 84
q0 80 16 80h68q108 0 108 121v61v328q0 100 58 168t149 82v4z" />
    <glyph glyph-name="asciitilde" unicode="~" horiz-adv-x="1089" 
d="M936 608q-21 -34 -52 -66.5t-83 -62.5t-103 -30q-48 0 -93.5 18t-73.5 40t-60 40t-57 18q-70 0 -135 -96q-7 -9 -32 9.5t-45.5 44t-15.5 34.5q13 21 33 43t49.5 48t68 42.5t77.5 16.5q46 0 90.5 -18.5t73.5 -40t62.5 -40t59.5 -18.5q16 0 31 4.5t28.5 13t24 17t21.5 20.5
t17 19.5t14.5 18.5t9.5 13q7 8 31.5 -10.5t44.5 -43.5t14 -34z" />
    <glyph glyph-name="nbspace" unicode="&#xa0;" horiz-adv-x="333" 
 />
    <glyph glyph-name="exclamdown" unicode="&#xa1;" horiz-adv-x="585" 
d="M383 1036l31 -1022q0 -20 -113 -20q-121 0 -121 20l33 1022q0 19 84 19q86 0 86 -19zM299 1509q98 0 98 -16v-213q0 -16 -98 -16q-100 0 -100 16v213q0 16 100 16z" />
    <glyph glyph-name="cent" unicode="&#xa2;" horiz-adv-x="1191" 
d="M705 1294v-166q150 -18 268 -106q12 -9 -1 -48.5t-38 -71.5t-41 -23q-1 1 -16.5 10t-21.5 12.5t-23 13t-28 14t-29 12.5t-34 12.5t-35 9t-39 6.5t-40 2q-256 0 -256 -273v-301q0 -129 65 -195.5t191 -66.5q131 0 270 96q16 11 41.5 -19.5t39 -69t1.5 -48.5
q-45 -37 -119 -69t-158 -45v-166q0 -17 -98 -17q-96 0 -96 17v166q-153 19 -243.5 124.5t-90.5 282.5v334q0 173 87.5 277.5t246.5 129.5v166q0 17 98 17q99 0 99 -17z" />
    <glyph glyph-name="sterling" unicode="&#xa3;" horiz-adv-x="1343" 
d="M1124 1319q-44 -81 -61 -72q-86 56 -156.5 82.5t-158.5 26.5q-47 0 -89.5 -12.5t-78.5 -38.5t-57 -70t-21 -102q0 -49 5 -98.5t15.5 -118t14.5 -105.5h297q16 0 16 -74v-10q0 -84 -16 -84h-291q-2 -251 -86 -473h645q16 0 16 -84q0 -86 -16 -86h-909q54 135 103.5 321.5
t45.5 321.5h-154q-16 0 -16 76v10q0 82 16 82h144q-3 36 -11.5 100.5t-14 119t-5.5 104.5q0 100 36 177t99.5 122.5t144 68.5t175.5 23q111 0 228.5 -39.5t168.5 -77.5q3 -2 4 -6t-0.5 -10.5t-3.5 -12.5t-6.5 -15t-7.5 -15.5t-8 -16t-7 -14.5z" />
    <glyph glyph-name="currency" unicode="&#xa4;" horiz-adv-x="1343" 
d="M1202 1442q6 -4 4.5 -22t-10.5 -44t-20 -50t-22.5 -39.5t-18.5 -12.5q-187 84 -326 84q-167 0 -253.5 -62.5t-86.5 -216.5v-108h434q17 0 17 -76q0 -80 -17 -80h-434v-149l434 2q17 0 17 -78q0 -76 -17 -76l-434 -2v-100q0 -150 86 -210.5t252 -60.5q156 0 340 68
q7 3 16 -12.5t17 -39t14 -49t6.5 -43.5t-4.5 -22q-61 -27 -178.5 -49.5t-216.5 -22.5q-122 0 -217.5 24.5t-168.5 76.5t-112 140t-39 208v92h-139q-16 0 -16 76q0 78 16 78h139v149h-139q-16 0 -16 78t16 78h139v110q0 119 39.5 207t113 140t169 77t215.5 25
q103 0 209.5 -24t191.5 -64z" />
    <glyph glyph-name="yen" unicode="&#xa5;" horiz-adv-x="1343" 
d="M279 420q-17 0 -17 82q0 80 17 80h288v32q-77 146 -230.5 439.5t-230.5 439.5q-3 5 5.5 8.5t26.5 5t36 2t43 0.5q102 0 111 -16q69 -136 197 -394.5t147 -297.5q58 115 172.5 345.5t173.5 346.5q9 16 117 16q25 0 42 -0.5t33.5 -2.5t23.5 -5.5t3 -9.5
q-87 -162 -245.5 -462t-219.5 -415v-32h293q16 0 16 -80q0 -82 -16 -82h-293v-410q0 -18 -102 -18q-103 0 -103 18v410h-288z" />
    <glyph glyph-name="brokenbar" unicode="&#xa6;" horiz-adv-x="1026" 
d="M281 666q-91 0 -91 16v940q0 16 93 16q90 0 90 -18v-938q0 -16 -92 -16zM281 -541q-91 0 -91 17v938q0 16 93 16q90 0 90 -18v-936q0 -17 -92 -17z" />
    <glyph glyph-name="section" unicode="&#xa7;" horiz-adv-x="1030" 
d="M891 713q0 -103 -56 -176.5t-128 -96.5q90 -45 146 -118t56 -160q0 -156 -115 -253t-298 -97q-190 0 -367 108q-9 6 6.5 46t39.5 74.5t36 27.5q47 -28 81 -45t92 -33.5t116 -16.5q85 0 143.5 42t58.5 116q0 78 -58.5 129t-162.5 92q-180 65 -246.5 146.5t-66.5 199.5
q0 83 50.5 158t139.5 100q-215 98 -215 287q0 59 23 111.5t68 94.5t118 66.5t166 24.5q81 0 167 -20.5t149 -49.5q6 -4 4.5 -20t-10.5 -38.5t-19 -43t-21 -34t-18 -11.5q-145 61 -256 61q-87 0 -131.5 -37.5t-44.5 -95.5q0 -54 41.5 -94t155.5 -84q190 -72 273 -154t83 -206
zM512 860q-68 2 -115.5 -45.5t-48.5 -122.5q0 -64 61.5 -115t135.5 -51q65 0 114.5 47.5t49.5 112.5q0 74 -63.5 123t-133.5 51z" />
    <glyph glyph-name="dieresis" unicode="&#xa8;" horiz-adv-x="1173" 
d="M399 1272q-88 0 -88 22v203q0 21 88 21t88 -21v-203q0 -22 -88 -22zM776 1272q-32 0 -60 5.5t-28 16.5v203q0 21 88 21t88 -21v-203q0 -22 -88 -22z" />
    <glyph glyph-name="copyright" unicode="&#xa9;" horiz-adv-x="1583" 
d="M1520 729q0 -148 -58 -283.5t-156.5 -233.5t-234 -156t-283.5 -58t-284 58t-234 156t-156.5 233.5t-58.5 283.5t58.5 284t156.5 234t234 156.5t284 58.5t283.5 -58.5t234 -156.5t156.5 -234t58 -284zM1415 729q0 169 -83.5 313t-227.5 228t-313 84t-312.5 -84t-227 -228
t-83.5 -313t83.5 -313t227 -228t312.5 -84t313 84t227.5 228t83.5 313zM786 289q-149 0 -233 79t-84 228v246q0 146 84.5 226.5t232.5 80.5q158 0 271 -86q8 -6 -3 -37t-29.5 -56t-29.5 -18q-1 1 -18.5 11t-26.5 14t-29 13t-36 13.5t-38.5 8.5t-43.5 4q-95 0 -138.5 -46.5
t-43.5 -146.5v-219q0 -95 44 -140.5t138 -45.5q101 0 194 69q12 8 31 -15.5t30 -53.5t1 -37q-43 -36 -117.5 -64t-155.5 -28z" />
    <glyph glyph-name="ordfeminine" unicode="&#xaa;" horiz-adv-x="899" 
d="M684 717q-78 0 -78 16v78q-40 -49 -106.5 -77.5t-130.5 -28.5q-123 0 -193 62t-70 163v57q0 230 390 227h110q0 92 -35 133.5t-125 41.5q-56 0 -122.5 -19t-114.5 -43q-24 -11 -45 49q-21 64 -8 72q53 28 133.5 49t165.5 21q66 0 119.5 -15t98 -47.5t69 -91t24.5 -139.5
v-492q0 -16 -82 -16zM606 1104h-104q-124 0 -180 -28.5t-56 -86.5v-43q0 -51 36.5 -81.5t100.5 -30.5q119 0 203 94v176z" />
    <glyph glyph-name="guillemotleft" unicode="&#xab;" horiz-adv-x="1163" 
d="M526 651l324 469q7 12 46 -7t72.5 -46t26.5 -37l-266 -379l266 -379q7 -10 -26.5 -37t-72.5 -45.5t-46 -5.5zM76 651l323 469q7 12 46 -7t73 -46t27 -37l-266 -379l266 -379q6 -10 -27.5 -37t-72.5 -45.5t-46 -5.5z" />
    <glyph glyph-name="logicalnot" unicode="&#xac;" horiz-adv-x="1343" 
d="M1094 252q-74 0 -74 18v328h-862q-17 0 -17 74q0 76 17 76l1005 -3v-477q0 -11 -16.5 -13.5t-52.5 -2.5z" />
    <glyph glyph-name="uni00AD" unicode="&#xad;" horiz-adv-x="1003" 
d="M172 543q-16 0 -16 82t16 82h659q17 0 17 -82t-17 -82h-659z" />
    <glyph glyph-name="registered" unicode="&#xae;" horiz-adv-x="1353" 
d="M948 1096q0 -179 -125 -304.5t-303 -125.5t-304 126t-126 304t126 304t304 126t303 -125.5t125 -304.5zM862 1096q0 144 -100.5 245t-241.5 101q-145 0 -245.5 -100.5t-100.5 -245.5q0 -140 101 -241t245 -101q141 0 241.5 101t100.5 241zM612 1044l82 -149
q6 -12 -14 -15q-10 -1 -27 -1q-40 0 -47 12l-74 139h-69v-139q0 -12 -45 -12t-45 12v434h159q75 0 112.5 -32t37.5 -103v-31q0 -84 -70 -115zM596 1159v27q0 33 -14.5 45t-53.5 12h-67v-135h76q33 0 46 11.5t13 39.5z" />
    <glyph glyph-name="macron" unicode="&#xaf;" horiz-adv-x="997" 
d="M352 1339q-16 0 -16 78q0 76 16 76h490q16 0 16 -66v-10q0 -78 -16 -78h-490z" />
    <glyph glyph-name="degree" unicode="&#xb0;" horiz-adv-x="899" 
d="M778 1204q0 -135 -96 -231t-231 -96t-232.5 96t-97.5 231q0 136 97.5 233t232.5 97t231 -97t96 -233zM635 1202q0 78 -54.5 133.5t-131.5 55.5t-132 -55.5t-55 -133.5q0 -75 55.5 -129.5t131.5 -54.5t131 54.5t55 129.5z" />
    <glyph glyph-name="plusminus" unicode="&#xb1;" horiz-adv-x="1343" 
d="M1182 512h-426v-342h424q16 0 16 -86q0 -84 -16 -84h-1018q-17 0 -17 84q0 86 17 86h416v342h-418q-15 0 -15 75v7q0 82 17 82h416v426q0 16 88 16q90 0 90 -16v-426h426q16 0 16 -82t-16 -82z" />
    <glyph glyph-name="twosuperior" unicode="&#xb2;" horiz-adv-x="692" 
d="M348 1526q117 0 189.5 -60t72.5 -163q0 -102 -60 -159.5t-196 -115.5q-79 -34 -103 -73.5t-24 -100.5h367q10 0 10 -66q0 -67 -10 -67h-514v115q0 110 47 181.5t156 121.5q9 5 34 16.5t33.5 16t28 14.5t26.5 15.5t20.5 15.5t18 18t11.5 19t8.5 23t1.5 26q0 43 -30.5 67.5
t-90.5 24.5q-77 0 -190 -62q-11 -6 -30 23.5t-26.5 59t2.5 40.5q52 31 119.5 50.5t128.5 19.5z" />
    <glyph glyph-name="threesuperior" unicode="&#xb3;" horiz-adv-x="692" 
d="M596 936q0 -96 -76.5 -162.5t-189.5 -66.5q-74 0 -144.5 24t-105.5 47q-9 6 2 39.5t29.5 63.5t27.5 26q94 -53 158 -59q26 -3 47 0q44 6 67 29t23 59v35q0 28 -28 55t-82 27h-70q-12 0 -12 59v10q0 70 12 70h86q43 0 65.5 24.5t22.5 51.5v39q0 39 -28 62.5t-70 23.5
q-18 0 -36.5 -3.5t-32.5 -8t-32 -13t-25.5 -13t-24 -14t-17.5 -10.5q-13 -7 -33.5 21t-31 61.5t0.5 40.5q35 24 99 47.5t120 24.5q57 1 104 -10.5t85.5 -36.5t60 -69.5t21.5 -104.5v-41q0 -31 -13 -58.5t-32 -45.5t-30.5 -26t-18.5 -12l4 -2q4 -1 8.5 -3t11.5 -5.5t14 -8
t14.5 -11.5t14.5 -14.5t13.5 -18t11 -22.5t7.5 -27t3 -31v-43z" />
    <glyph glyph-name="acute" unicode="&#xb4;" horiz-adv-x="997" 
d="M631 1526l-213 -283q-11 -14 -76 -14q-63 0 -62 13l3 7l174 291q6 10 22.5 13t67.5 3q90 0 89 -20z" />
    <glyph glyph-name="mu" unicode="&#xb5;" horiz-adv-x="1193" 
d="M160 1100q0 8 24 8q0 10 72 10q98 0 98 -16v-696q0 -103 63.5 -170.5t155.5 -67.5q44 0 85.5 18.5t69.5 43t53.5 57.5t37 52t19.5 36v727q0 16 98 16t98 -16v-1094q0 -16 -98 -16q-94 0 -94 16v158q-12 -25 -26.5 -48t-39 -51.5t-51.5 -49t-65.5 -34.5t-79.5 -14
q-79 0 -140 42.5t-84 90.5v-503q0 -17 -98 -17t-98 17v1501z" />
    <glyph glyph-name="paragraph" unicode="&#xb6;" horiz-adv-x="1026" 
d="M596 1382v-1534q0 -14 -86 -14q-76 0 -76 14v838h-14q-49 0 -105 23t-109.5 67t-90 120.5t-39.5 170.5q-2 69 14 132.5t57 124t104 104.5t161.5 71t222.5 27q163 0 256 -19v-1659q0 -14 -76 -14q-86 0 -86 14v1534h-133z" />
    <glyph glyph-name="periodcentered" unicode="&#xb7;" horiz-adv-x="532" 
d="M248 487q-90 0 -90 17v256q0 16 90 16t90 -16v-256q0 -17 -90 -17z" />
    <glyph glyph-name="cedilla" unicode="&#xb8;" horiz-adv-x="997" 
d="M492 -416q-88 0 -187 60q-6 4 0.5 29.5t20 47t24.5 15.5q83 -49 142 -49q90 0 90 61v25q0 73 -164 61v205h127v-121q84 -3 127 -42.5t43 -102.5v-41q0 -63 -57.5 -105.5t-165.5 -42.5z" />
    <glyph glyph-name="onesuperior" unicode="&#xb9;" horiz-adv-x="1054" 
d="M377 1509v-776q0 -14 -78 -14q-80 0 -80 14v604h-88q-16 0 -16 58q0 28 2 38.5t12 16.5l139 59h109z" />
    <glyph glyph-name="ordmasculine" unicode="&#xba;" horiz-adv-x="1095" 
d="M479 709q-154 0 -239.5 74.5t-85.5 215.5v238q0 142 86 215.5t239 73.5t241.5 -75.5t88.5 -217.5v-234q0 -141 -90 -215.5t-240 -74.5zM662 1217q0 172 -183 172q-91 0 -135.5 -40.5t-44.5 -131.5v-207q0 -90 45 -132t135 -42q183 0 183 174v207z" />
    <glyph glyph-name="guillemotright" unicode="&#xbb;" horiz-adv-x="1163" 
d="M768 1120l324 -469l-324 -467q-7 -13 -46.5 5.5t-73 45.5t-27.5 37l266 379l-266 379q-6 10 27.5 37t73 46t46.5 7zM315 1120l324 -469l-324 -467q-7 -13 -46 5.5t-72 45.5t-27 37l266 379l-266 379q-6 10 27.5 37t72 46t45.5 7z" />
    <glyph glyph-name="onequarter" unicode="&#xbc;" horiz-adv-x="1540" 
d="M401 1446v-778q0 -13 -77 -13q-80 0 -80 13v606l-113 -2q-12 0 -12 57q0 50 12 57l160 60h110zM1184 1493l-791 -1485q-9 -18 -76 -18q-19 0 -32 0.5t-25.5 2.5t-17.5 5.5t-2 9.5l786 1485q5 11 23.5 13.5t58.5 2.5q21 0 31.5 -0.5t24 -1.5t18.5 -4.5t2 -9.5zM1399 289
q0 -64 -13 -64h-88v-133q0 -12 -77 -12q-78 0 -78 12v133h-344v119l342 516q6 12 78 12q79 0 79 -12v-508h88q13 0 13 -63zM1143 659l-199 -307h199v307z" />
    <glyph glyph-name="onehalf" unicode="&#xbd;" horiz-adv-x="1540" 
d="M401 1446v-778q0 -13 -77 -13q-80 0 -80 13v606l-113 -2q-12 0 -12 57q0 50 12 57l160 60h110zM1184 1493l-791 -1485q-9 -18 -76 -18q-19 0 -32 0.5t-25.5 2.5t-17.5 5.5t-2 9.5l786 1485q5 11 23.5 13.5t58.5 2.5q21 0 31.5 -0.5t24 -1.5t18.5 -4.5t2 -9.5zM1233 913
q116 0 189 -61t73 -164q0 -53 -16 -93.5t-52 -73t-78.5 -56t-109.5 -51.5q-79 -31 -103 -71t-24 -101h365q12 0 12 -66q0 -67 -12 -67h-514v114q0 109 47 180t157 123q104 50 127 67q56 39 56 95q-3 94 -121 94q-80 0 -191 -61q-11 -6 -29.5 23.5t-26 59t2.5 40.5
q51 31 119 50t129 19z" />
    <glyph glyph-name="threequarters" unicode="&#xbe;" horiz-adv-x="1540" 
d="M1458 289q0 -64 -12 -64h-88v-133q0 -12 -78 -12t-78 12v133h-342v119l340 516q8 12 78 12q80 0 80 -12v-508h88q12 0 12 -63zM1296 1493l-790 -1485q-9 -18 -76 -18q-19 0 -32 0.5t-25.5 2.5t-18 5.5t-2.5 9.5l787 1485q8 16 80 16q21 0 32 -0.5t25 -1.5t18.5 -4.5
t1.5 -9.5zM614 868q0 -96 -77.5 -162.5t-190.5 -66.5q-74 0 -142 24t-108 48q-9 6 3 39.5t31 63.5t28 26q97 -54 157 -60q55 -8 96.5 16t41.5 72v35q0 29 -29 55.5t-84 26.5h-68q-12 0 -12 60v10q0 69 12 69h86q43 0 65.5 24.5t22.5 51.5v39q0 39 -28 62.5t-72 23.5
q-11 0 -22 -1.5t-20.5 -3t-20.5 -5t-18.5 -6t-18 -7.5t-16 -7.5t-15.5 -8.5t-13.5 -8t-13 -7.5t-10.5 -6.5q-12 -7 -31.5 21t-30 61t0.5 40q36 25 99.5 48.5t117.5 23.5q57 1 104 -10.5t86 -36.5t60.5 -69.5t21.5 -104.5v-41q0 -31 -13 -58.5t-32 -44t-31.5 -25t-19.5 -11.5
q7 -2 14 -5t25 -15t30.5 -26.5t23.5 -41t11 -58.5v-43zM1202 659l-198 -307h198v307z" />
    <glyph glyph-name="questiondown" unicode="&#xbf;" horiz-adv-x="937" 
d="M504 -244q109 0 239 86q9 7 33 -29t40 -77.5t7 -48.5q-169 -103 -340 -103q-101 0 -177.5 32t-119 86t-63.5 116.5t-21 132.5q0 79 35 149.5t84.5 124t99 104.5t84.5 114t35 130v68q0 16 84 16q82 0 82 -16v-76q0 -69 -22.5 -130.5t-57 -105t-74 -89t-74 -83.5t-57 -88
t-22.5 -102q0 -90 54.5 -150.5t150.5 -60.5zM526 1118q90 0 90 -16v-256q0 -17 -90 -17t-90 17v256q0 16 90 16z" />
    <glyph glyph-name="Agrave" unicode="&#xc0;" horiz-adv-x="1251" 
d="M621 1509q111 0 118 -18l463 -1483q1 -4 -2.5 -7t-12.5 -4.5t-18 -2.5t-24 -1.5t-23.5 -0.5h-23.5q-99 0 -105 16l-102 342h-541l-104 -342q-6 -16 -99 -16h-23t-22.5 0.5t-22.5 1.5t-16.5 2.5t-11.5 4.5t-2 7l459 1483q7 18 113 18zM399 522h443l-219 760zM541 1653
l-213 282q-19 22 27 28l55 3q52 0 68.5 -3t23.5 -13l174 -291q11 -15 -18 -19l-42 -2q-63 0 -75 15z" />
    <glyph glyph-name="Aacute" unicode="&#xc1;" horiz-adv-x="1251" 
d="M621 1509q111 0 118 -18l463 -1483q1 -4 -2.5 -7t-12.5 -4.5t-18 -2.5t-24 -1.5t-23.5 -0.5h-23.5q-99 0 -105 16l-102 342h-541l-104 -342q-6 -16 -99 -16h-23t-22.5 0.5t-22.5 1.5t-16.5 2.5t-11.5 4.5t-2 7l459 1483q7 18 113 18zM399 522h443l-219 760zM920 1935
l-213 -282q-12 -15 -76 -15t-63 14q0 3 3 7l174 291q7 10 24 13t69 3q88 0 88 -20q-1 -5 -6 -11z" />
    <glyph glyph-name="Acircumflex" unicode="&#xc2;" horiz-adv-x="1251" 
d="M621 1509q111 0 118 -18l463 -1483q1 -4 -2.5 -7t-12.5 -4.5t-18 -2.5t-24 -1.5t-23.5 -0.5h-23.5q-99 0 -105 16l-102 342h-541l-104 -342q-6 -16 -99 -16h-23t-22.5 0.5t-22.5 1.5t-16.5 2.5t-11.5 4.5t-2 7l459 1483q7 18 113 18zM399 522h443l-219 760zM801 1669
q-60 0 -72 17l-106 186l-107 -184q-12 -17 -74 -17q-17 0 -28.5 0.5t-24 2t-16.5 5t0 9.5l166 260q13 20 82 20q71 0 84 -20l167 -262q4 -6 -1 -9.5t-17.5 -5t-24 -2t-28.5 -0.5z" />
    <glyph glyph-name="Atilde" unicode="&#xc3;" horiz-adv-x="1251" 
d="M621 1509q111 0 118 -18l463 -1483q1 -4 -2.5 -7t-12.5 -4.5t-18 -2.5t-24 -1.5t-23.5 -0.5h-23.5q-99 0 -105 16l-102 342h-541l-104 -342q-6 -16 -99 -16h-23t-22.5 0.5t-22.5 1.5t-16.5 2.5t-11.5 4.5t-2 7l459 1483q7 18 113 18zM399 522h443l-219 760zM932 1833
q-33 -61 -85.5 -100t-113.5 -39q-36 0 -71.5 14.5t-58.5 31.5t-49 31.5t-44 14.5q-56 0 -109 -76q-5 -7 -29 10.5t-44 40t-15 29.5q29 55 82.5 96t114.5 41q45 0 88 -23t77.5 -46t59.5 -23q57 0 110 80q0 1 1 2q6 7 29 -11t42.5 -41.5t14.5 -31.5z" />
    <glyph glyph-name="Adieresis" unicode="&#xc4;" horiz-adv-x="1251" 
d="M621 1509q111 0 118 -18l463 -1483q1 -4 -2.5 -7t-12.5 -4.5t-18 -2.5t-24 -1.5t-23.5 -0.5h-23.5q-99 0 -105 16l-102 342h-541l-104 -342q-6 -16 -99 -16h-23t-22.5 0.5t-22.5 1.5t-16.5 2.5t-11.5 4.5t-2 7l459 1483q7 18 113 18zM399 522h443l-219 760zM434 1681
q-33 0 -61.5 6t-28.5 17v203q0 20 90 20q88 0 88 -20v-203q0 -11 -28.5 -17t-59.5 -6zM811 1681q-33 0 -61.5 6t-28.5 17v203q0 20 90 20q88 0 88 -20v-203q0 -11 -28.5 -17t-59.5 -6z" />
    <glyph glyph-name="Aring" unicode="&#xc5;" horiz-adv-x="1251" 
d="M621 1509q111 0 118 -18l463 -1483q1 -4 -2.5 -7t-12.5 -4.5t-18 -2.5t-24 -1.5t-23.5 -0.5h-23.5q-99 0 -105 16l-102 342h-541l-104 -342q-6 -16 -99 -16h-23t-22.5 0.5t-22.5 1.5t-16.5 2.5t-11.5 4.5t-2 7l459 1483q7 18 113 18zM399 522h443l-219 760zM793 1772
q0 -69 -50 -118.5t-122 -49.5q-69 0 -118.5 49.5t-49.5 118.5q0 72 49.5 122t118.5 50q72 0 122 -50t50 -122zM709 1772q0 37 -25.5 62.5t-62.5 25.5q-35 0 -60.5 -25.5t-25.5 -62.5q0 -35 25.5 -60.5t60.5 -25.5q37 0 62.5 25.5t25.5 60.5z" />
    <glyph glyph-name="AE" unicode="&#xc6;" horiz-adv-x="1738" 
d="M840 0v350h-420l-166 -342q-8 -16 -107 -16h-23.5t-24 0.5t-25 1.5t-19 2.5t-13 4.5t-1.5 7l727 1493h854q16 0 16 -90q0 -86 -16 -86h-578v-457h512q17 0 17 -86t-17 -86h-512v-522h582q16 0 16 -86q0 -88 -16 -88h-786zM840 526v748l-332 -748h332z" />
    <glyph glyph-name="Ccedilla" unicode="&#xc7;" horiz-adv-x="1202" 
d="M647 -416q-16 0 -33 2t-30.5 5t-28.5 8.5t-25 9t-23 10.5t-18.5 10t-16 9t-11.5 6q-6 4 0.5 29.5t20 47t24.5 15.5q89 -49 141 -49q90 0 90 61v25q0 73 -162 61v146q-421 44 -421 436v665q0 119 39.5 207t112.5 140t168.5 77t215.5 25q109 0 220 -24t196 -64
q9 -4 2.5 -32t-18.5 -59.5t-27.5 -56t-24.5 -20.5q-187 84 -340 84q-148 0 -245 -70t-97 -209v-667q0 -271 342 -271q76 0 175.5 19t181.5 49q7 3 16 -12.5t17 -39t14 -49t6.5 -43.5t-4.5 -22q-57 -26 -180 -48.5t-224 -23.5v-53q85 -3 128.5 -42.5t43.5 -102.5v-41
q0 -63 -58.5 -105.5t-166.5 -42.5z" />
    <glyph glyph-name="Egrave" unicode="&#xc8;" horiz-adv-x="1077" 
d="M977 88q0 -88 -16 -88h-785v1501h780q19 0 19 -90q0 -86 -19 -86h-577v-457h512q16 0 16 -86t-16 -86h-512v-522h582q16 0 16 -86zM578 1653l-213 282q-17 21 27 28l57 3q51 0 67.5 -3t22.5 -13l176 -291q9 -14 -18 -19q-15 -2 -44 -2q-63 0 -75 15z" />
    <glyph glyph-name="Eacute" unicode="&#xc9;" horiz-adv-x="1077" 
d="M977 88q0 -88 -16 -88h-785v1501h780q19 0 19 -90q0 -86 -19 -86h-577v-457h512q16 0 16 -86t-16 -86h-512v-522h582q16 0 16 -86zM823 1935l-215 -282q-12 -15 -73 -15q-64 0 -64 14q0 3 2 7l176 291q6 10 22.5 13t67.5 3q88 0 89 -20q0 -5 -5 -11z" />
    <glyph glyph-name="Ecircumflex" unicode="&#xca;" horiz-adv-x="1077" 
d="M977 88q0 -88 -16 -88h-785v1501h780q19 0 19 -90q0 -86 -19 -86h-577v-457h512q16 0 16 -86t-16 -86h-512v-522h582q16 0 16 -86zM739 1669q-61 0 -73 17l-107 186l-106 -184q-12 -17 -74 -17q-17 0 -28.5 0.5t-24 2t-17 5t-0.5 9.5l166 260q13 20 82 20q71 0 84 -20
l168 -262q4 -6 -1 -9.5t-17.5 -5t-24 -2t-27.5 -0.5z" />
    <glyph glyph-name="Edieresis" unicode="&#xcb;" horiz-adv-x="1077" 
d="M977 88q0 -88 -16 -88h-785v1501h780q19 0 19 -90q0 -86 -19 -86h-577v-457h512q16 0 16 -86t-16 -86h-512v-522h582q16 0 16 -86zM379 1681q-33 0 -61.5 6t-28.5 17v203q0 20 90 20q88 0 88 -20v-203q0 -11 -28 -17t-60 -6zM756 1681q-32 0 -60 6t-28 17v203q0 20 88 20
t88 -20v-203q0 -11 -28 -17t-60 -6z" />
    <glyph glyph-name="Igrave" unicode="&#xcc;" horiz-adv-x="561" 
d="M387 8q0 -16 -102 -16q-103 0 -103 16v1485q0 16 103 16q102 0 102 -16v-1485zM205 1653l-213 282q-19 22 27 28l55 3q51 0 67.5 -3t22.5 -13l176 -291q9 -15 -18 -19l-43 -2q-62 0 -74 15z" />
    <glyph glyph-name="Iacute" unicode="&#xcd;" horiz-adv-x="561" 
d="M387 8q0 -16 -102 -16q-103 0 -103 16v1485q0 16 103 16q102 0 102 -16v-1485zM580 1935l-213 -282q-12 -15 -74 -15q-65 0 -65 13l3 8l175 291q7 10 23.5 13t68.5 3q88 0 88 -20q-1 -5 -6 -11z" />
    <glyph glyph-name="Icircumflex" unicode="&#xce;" horiz-adv-x="561" 
d="M387 8q0 -16 -102 -16q-103 0 -103 16v1485q0 16 103 16q102 0 102 -16v-1485zM463 1669q-62 0 -74 17l-104 186l-109 -184q-10 -17 -72 -17q-17 0 -28.5 0.5t-24 2t-17.5 5t-1 9.5l166 260q15 20 84 20t84 -20l165 -262q4 -6 0 -9.5t-16.5 -5t-24 -2t-28.5 -0.5z" />
    <glyph glyph-name="Idieresis" unicode="&#xcf;" horiz-adv-x="561" 
d="M387 8q0 -16 -102 -16q-103 0 -103 16v1485q0 16 103 16q102 0 102 -16v-1485zM98 1681q-31 0 -59.5 6t-28.5 17v203q0 20 88 20t88 -20v-203q0 -11 -28 -17t-60 -6zM475 1681q-31 0 -59.5 6t-28.5 17v203q0 20 88 20t88 -20v-203q0 -11 -28 -17t-60 -6z" />
    <glyph glyph-name="Eth" unicode="&#xd0;" horiz-adv-x="1351" 
d="M41 684q-16 0 -16 82t16 82h135v653h512q258 0 385 -111t127 -352v-594q0 -222 -128 -333t-378 -111h-518v684h-135zM995 444v592q0 148 -76 219.5t-229 71.5h-311v-479h303q16 0 16 -82t-16 -82h-303v-510h317q149 0 224 65.5t75 204.5z" />
    <glyph glyph-name="Ntilde" unicode="&#xd1;" horiz-adv-x="1466" 
d="M1290 8q0 -16 -129 -16q-120 0 -129 16l-459 862q-67 123 -211 414h-2q15 -208 15 -420v-856q0 -16 -99 -16q-100 0 -100 16v1485q0 16 133 16q137 0 144 -16l424 -803q79 -146 225 -440h4q-12 202 -12 430v813q0 16 100 16q96 0 96 -16v-1485zM1042 1833
q-33 -61 -85 -100t-113 -39q-36 0 -71.5 14.5t-58.5 31.5t-49 31.5t-44 14.5q-60 0 -109 -76q-6 -7 -29.5 10.5t-43.5 40t-15 29.5q30 56 82 96.5t115 40.5q44 0 87 -23t78 -46t60 -23q9 0 17.5 2t16 4.5t15 7.5t13 9.5t12 11t10 10.5t9 11.5t7.5 10t6 8.5l4 7q6 7 29 -11
t42.5 -41.5t14.5 -31.5z" />
    <glyph glyph-name="Ograve" unicode="&#xd2;" horiz-adv-x="1409" 
d="M1257 420v-2q0 -218 -143 -333.5t-409 -115.5q-268 0 -409.5 114.5t-141.5 334.5v659q0 221 141.5 337t409.5 116q267 0 409.5 -116.5t142.5 -336.5v-657zM1053 428v641q0 291 -348 291q-349 0 -349 -291v-641q0 -289 349 -289q348 0 348 289zM629 1653l-213 282
q-17 22 28 28l56 3q51 0 67.5 -3t22.5 -13l174 -291q11 -15 -19 -19q-14 -2 -40 -2q-64 0 -76 15z" />
    <glyph glyph-name="Oacute" unicode="&#xd3;" horiz-adv-x="1409" 
d="M1257 420v-2q0 -218 -143 -333.5t-409 -115.5q-268 0 -409.5 114.5t-141.5 334.5v659q0 221 141.5 337t409.5 116q267 0 409.5 -116.5t142.5 -336.5v-657zM1053 428v641q0 291 -348 291q-349 0 -349 -291v-641q0 -289 349 -289q348 0 348 289zM975 1935l-215 -282
q-12 -15 -74 -15q-64 0 -63 14q0 3 2 7l176 291q6 10 22.5 13t67.5 3q88 0 89 -20q0 -5 -5 -11z" />
    <glyph glyph-name="Ocircumflex" unicode="&#xd4;" horiz-adv-x="1409" 
d="M1257 420v-2q0 -218 -143 -333.5t-409 -115.5q-268 0 -409.5 114.5t-141.5 334.5v659q0 221 141.5 337t409.5 116q267 0 409.5 -116.5t142.5 -336.5v-657zM1053 428v641q0 291 -348 291q-349 0 -349 -291v-641q0 -289 349 -289q348 0 348 289zM883 1669q-62 0 -74 17
l-107 186l-106 -184q-12 -17 -74 -17q-17 0 -28.5 0.5t-24 2t-16.5 5t0 9.5l165 260q12 20 82 20q72 0 84 -20l168 -262q4 -6 -0.5 -9.5t-17 -5t-23.5 -2t-28 -0.5z" />
    <glyph glyph-name="Otilde" unicode="&#xd5;" horiz-adv-x="1409" 
d="M1257 420v-2q0 -218 -143 -333.5t-409 -115.5q-268 0 -409.5 114.5t-141.5 334.5v659q0 221 141.5 337t409.5 116q267 0 409.5 -116.5t142.5 -336.5v-657zM1053 428v641q0 291 -348 291q-349 0 -349 -291v-641q0 -289 349 -289q348 0 348 289zM1012 1833
q-33 -61 -85.5 -100t-113.5 -39q-36 0 -71.5 14.5t-58.5 31.5t-49 31.5t-44 14.5q-60 0 -109 -76q-6 -7 -30 10.5t-44 40t-16 29.5q32 56 84 96.5t113 40.5q36 0 71 -14.5t57.5 -31.5t49.5 -31.5t49 -14.5q56 0 111 82q6 7 29 -11t42 -41.5t15 -31.5z" />
    <glyph glyph-name="Odieresis" unicode="&#xd6;" horiz-adv-x="1409" 
d="M1257 420v-2q0 -218 -143 -333.5t-409 -115.5q-268 0 -409.5 114.5t-141.5 334.5v659q0 221 141.5 337t409.5 116q267 0 409.5 -116.5t142.5 -336.5v-657zM1053 428v641q0 291 -348 291q-349 0 -349 -291v-641q0 -289 349 -289q348 0 348 289zM514 1681q-33 0 -61.5 6
t-28.5 17v203q0 20 90 20q88 0 88 -20v-203q0 -11 -28 -17t-60 -6zM891 1681q-33 0 -61.5 6t-28.5 17v203q0 20 90 20q88 0 88 -20v-203q0 -11 -28 -17t-60 -6z" />
    <glyph glyph-name="multiply" unicode="&#xd7;" horiz-adv-x="1320" 
d="M928 760l-273 -273l275 -276q12 -12 -13 -46.5t-59.5 -59t-46.5 -11.5l-274 275l-275 -275q-11 -11 -45.5 13.5t-60 58t-13.5 45.5l275 276l-275 273q-11 11 15.5 44.5t60.5 59t43 15.5l275 -275l272 275q18 18 76 -41.5t43 -77.5z" />
    <glyph glyph-name="Oslash" unicode="&#xd8;" horiz-adv-x="1411" 
d="M1251 422q0 -31 -2 -43q-14 -196 -155.5 -301t-395.5 -105q-220 0 -342 74q-8 -14 -24.5 -40.5t-24.5 -41.5q-6 -16 -80 -16q-21 0 -31.5 0.5t-25 1.5t-20 4.5t-3.5 9.5q16 28 50 82.5t51 81.5q-53 60 -77 138.5t-24 193.5v579q0 247 134 370.5t419 123.5q209 0 349 -80
q7 12 15.5 25.5t19 30t16.5 26.5q7 18 80 18q85 -1 77 -18q-16 -28 -50 -84.5t-50 -83.5q94 -110 94 -328v-618zM352 430q0 -63 13 -100q48 78 589 962q-87 70 -254 70q-348 0 -348 -289v-643zM1049 430v643q0 57 -13 90q-525 -858 -585 -956q85 -64 249 -64q173 0 261 73
t88 214z" />
    <glyph glyph-name="Ugrave" unicode="&#xd9;" horiz-adv-x="1366" 
d="M1202 410q0 -204 -138.5 -321.5t-383.5 -117.5q-246 0 -381 119.5t-135 335.5v1067q0 16 102 16q99 0 99 -16v-1085q0 -130 81.5 -198.5t229.5 -68.5q149 0 235 68.5t86 198.5v1085q0 16 103 16q102 0 102 -16v-1083zM643 1653l-213 282q-19 22 27 28l55 3q52 0 68.5 -3
t23.5 -13l174 -291q11 -15 -19 -19l-42 -2q-62 0 -74 15z" />
    <glyph glyph-name="Uacute" unicode="&#xda;" horiz-adv-x="1366" 
d="M1202 410q0 -204 -138.5 -321.5t-383.5 -117.5q-246 0 -381 119.5t-135 335.5v1067q0 16 102 16q99 0 99 -16v-1085q0 -130 81.5 -198.5t229.5 -68.5q149 0 235 68.5t86 198.5v1085q0 16 103 16q102 0 102 -16v-1083zM926 1935l-213 -282q-12 -15 -76 -15q-63 0 -62 14
q0 3 3 7l174 291q7 10 23.5 13t66.5 3q90 0 89 -21q-1 -4 -5 -10z" />
    <glyph glyph-name="Ucircumflex" unicode="&#xdb;" horiz-adv-x="1366" 
d="M1202 410q0 -204 -138.5 -321.5t-383.5 -117.5q-246 0 -381 119.5t-135 335.5v1067q0 16 102 16q99 0 99 -16v-1085q0 -130 81.5 -198.5t229.5 -68.5q149 0 235 68.5t86 198.5v1085q0 16 103 16q102 0 102 -16v-1083zM862 1669q-62 0 -74 17l-106 186l-107 -184
q-10 -17 -73 -17q-17 0 -28 0.5t-24 2t-17.5 5t-0.5 9.5l166 260q15 20 82 20q71 0 86 -20l166 -262q4 -6 -0.5 -9.5t-17 -5t-24 -2t-28.5 -0.5z" />
    <glyph glyph-name="Udieresis" unicode="&#xdc;" horiz-adv-x="1366" 
d="M1202 410q0 -204 -138.5 -321.5t-383.5 -117.5q-246 0 -381 119.5t-135 335.5v1067q0 16 102 16q99 0 99 -16v-1085q0 -130 81.5 -198.5t229.5 -68.5q149 0 235 68.5t86 198.5v1085q0 16 103 16q102 0 102 -16v-1083zM496 1681q-33 0 -61.5 6t-28.5 17v203q0 20 90 20
q86 0 86 -20v-203q0 -11 -27.5 -17t-58.5 -6zM872 1681q-33 0 -61.5 6t-28.5 17v203q0 20 90 20q89 0 89 -20v-203q0 -11 -29 -17t-60 -6z" />
    <glyph glyph-name="Yacute" unicode="&#xdd;" horiz-adv-x="1181" 
d="M1155 1491l-465 -877v-604q0 -18 -100 -18q-103 0 -103 18v604l-462 879q-3 5 5 8.5t26 5t36 2t43 0.5q104 0 113 -16l344 -692l346 692q9 16 115 16q25 0 42 -0.5t33.5 -2.5t23.5 -5.5t3 -9.5zM864 1935l-213 -282q-12 -15 -73 -15q-65 0 -65 13l3 8l174 291
q7 10 23.5 13t68.5 3q88 0 88 -20q-1 -5 -6 -11z" />
    <glyph glyph-name="Thorn" unicode="&#xde;" horiz-adv-x="1273" 
d="M1157 688q0 -231 -115.5 -327.5t-355.5 -96.5h-307v-256q0 -16 -103 -16q-102 0 -102 16v1485q0 16 100 16q103 0 103 -16v-244h307q239 0 356 -99t117 -321v-141zM952 686v141q0 74 -17.5 122t-56 74t-88.5 36t-126 10h-285v-623h311q129 0 195.5 56t66.5 184z" />
    <glyph glyph-name="germandbls" unicode="&#xdf;" horiz-adv-x="1273" 
d="M985 967q-53 6 -86 -2q-78 -1 -117 -38t-39 -91q0 -36 25 -66.5t64.5 -54t87.5 -48t95.5 -55.5t87 -69.5t64.5 -97.5t25 -132q0 -146 -100 -242t-279 -96q-180 0 -346 103q-9 6 6.5 46t38 75.5t31.5 29.5q117 -72 215 -84q53 -7 119 7q62 13 94.5 55t32.5 100
q0 51 -25 90.5t-65.5 67t-89 52.5t-97.5 54t-89.5 64.5t-65.5 91.5t-25 127q0 108 79 180t199 78q8 105 -48 175.5t-175 70.5q-248 0 -248 -271v-1079q0 -16 -98 -16q-96 0 -96 16v1090q0 199 109.5 313.5t328.5 114.5q145 0 250 -70.5t143.5 -195t-6.5 -293.5z" />
    <glyph glyph-name="agrave" unicode="&#xe0;" horiz-adv-x="1118" 
d="M973 8q0 -16 -90 -16q-95 0 -95 16v107q-21 -18 -45.5 -36t-70.5 -44.5t-105.5 -43t-120.5 -16.5q-162 0 -256 91t-94 245v51q0 89 37.5 154t120 109t213.5 52.5t319 -15.5v71q0 122 -54 173.5t-179 51.5q-179 0 -313 -67q-10 -6 -27 27q-30 58 -34 111q-2 25 7 30
q67 29 168.5 50t206.5 21q412 0 412 -399v-723zM786 264v258q-238 39 -370.5 1t-132.5 -154v-50q0 -86 57.5 -132t153.5 -46q159 0 292 123zM532 1243l-213 283q-18 21 26 27l56 3q52 0 69 -3t24 -13l174 -291q11 -14 -17 -18q-15 -2 -45 -2q-63 0 -74 14z" />
    <glyph glyph-name="aacute" unicode="&#xe1;" horiz-adv-x="1118" 
d="M973 8q0 -16 -90 -16q-95 0 -95 16v107q-21 -18 -45.5 -36t-70.5 -44.5t-105.5 -43t-120.5 -16.5q-162 0 -256 91t-94 245v51q0 89 37.5 154t120 109t213.5 52.5t319 -15.5v71q0 122 -54 173.5t-179 51.5q-179 0 -313 -67q-10 -6 -27 27q-30 58 -34 111q-2 25 7 30
q67 29 168.5 50t206.5 21q412 0 412 -399v-723zM786 264v258q-238 39 -370.5 1t-132.5 -154v-50q0 -86 57.5 -132t153.5 -46q159 0 292 123zM827 1526l-213 -283q-11 -14 -75 -14t-64 13q0 3 2 7l176 291q6 10 22.5 13t67.5 3q88 0 89 -19q0 -5 -5 -11z" />
    <glyph glyph-name="acircumflex" unicode="&#xe2;" horiz-adv-x="1118" 
d="M973 8q0 -16 -90 -16q-95 0 -95 16v107q-21 -18 -45.5 -36t-70.5 -44.5t-105.5 -43t-120.5 -16.5q-162 0 -256 91t-94 245v51q0 89 37.5 154t120 109t213.5 52.5t319 -15.5v71q0 122 -54 173.5t-179 51.5q-179 0 -313 -67q-10 -6 -27 27q-30 58 -34 111q-2 25 7 30
q67 29 168.5 50t206.5 21q412 0 412 -399v-723zM786 264v258q-238 39 -370.5 1t-132.5 -154v-50q0 -86 57.5 -132t153.5 -46q159 0 292 123zM745 1260q-62 0 -73 16l-107 186l-106 -184q-9 -16 -74 -16q-18 0 -28 0.5t-23.5 1.5t-18 4.5t-0.5 9.5l166 260q16 21 82 21
q70 0 86 -21l166 -262q4 -6 0 -9.5t-17.5 -4.5t-23.5 -1.5t-29 -0.5z" />
    <glyph glyph-name="atilde" unicode="&#xe3;" horiz-adv-x="1118" 
d="M973 8q0 -16 -90 -16q-95 0 -95 16v107q-21 -18 -45.5 -36t-70.5 -44.5t-105.5 -43t-120.5 -16.5q-162 0 -256 91t-94 245v51q0 89 37.5 154t120 109t213.5 52.5t319 -15.5v71q0 122 -54 173.5t-179 51.5q-179 0 -313 -67q-10 -6 -27 27q-30 58 -34 111q-2 25 7 30
q67 29 168.5 50t206.5 21q412 0 412 -399v-723zM786 264v258q-238 39 -370.5 1t-132.5 -154v-50q0 -86 57.5 -132t153.5 -46q159 0 292 123zM874 1425q-35 -61 -86 -99t-112 -38q-47 0 -90.5 23t-77.5 46t-57 23q-54 0 -109 -75q-5 -8 -28.5 9t-43.5 39.5t-16 30.5
q29 55 82.5 95.5t114.5 40.5q36 0 71 -14t57.5 -31t49.5 -31t49 -14q57 0 110 79q5 8 28 -10t42.5 -42t15.5 -32z" />
    <glyph glyph-name="adieresis" unicode="&#xe4;" horiz-adv-x="1118" 
d="M973 8q0 -16 -90 -16q-95 0 -95 16v107q-21 -18 -45.5 -36t-70.5 -44.5t-105.5 -43t-120.5 -16.5q-162 0 -256 91t-94 245v51q0 89 37.5 154t120 109t213.5 52.5t319 -15.5v71q0 122 -54 173.5t-179 51.5q-179 0 -313 -67q-10 -6 -27 27q-30 58 -34 111q-2 25 7 30
q67 29 168.5 50t206.5 21q412 0 412 -399v-723zM786 264v258q-238 39 -370.5 1t-132.5 -154v-50q0 -86 57.5 -132t153.5 -46q159 0 292 123zM377 1272q-88 0 -88 22v203q0 21 88 21t88 -21v-203q0 -22 -88 -22zM754 1272q-88 0 -88 22v203q0 21 88 21t88 -21v-203
q0 -22 -88 -22z" />
    <glyph glyph-name="aring" unicode="&#xe5;" horiz-adv-x="1118" 
d="M973 8q0 -16 -90 -16q-95 0 -95 16v107q-21 -18 -45.5 -36t-70.5 -44.5t-105.5 -43t-120.5 -16.5q-162 0 -256 91t-94 245v51q0 89 37.5 154t120 109t213.5 52.5t319 -15.5v71q0 122 -54 173.5t-179 51.5q-179 0 -313 -67q-10 -6 -27 27q-30 58 -34 111q-2 25 7 30
q67 29 168.5 50t206.5 21q412 0 412 -399v-723zM786 264v258q-238 39 -370.5 1t-132.5 -154v-50q0 -86 57.5 -132t153.5 -46q159 0 292 123zM735 1417q0 -70 -50.5 -120t-121.5 -50t-120.5 49.5t-49.5 120.5t49.5 120.5t120.5 49.5t121.5 -50t50.5 -120zM651 1417
q0 37 -25.5 62.5t-62.5 25.5q-35 0 -60.5 -25.5t-25.5 -62.5q0 -35 25.5 -60.5t60.5 -25.5q37 0 62.5 25.5t25.5 60.5z" />
    <glyph glyph-name="ae" unicode="&#xe6;" horiz-adv-x="1781" 
d="M1659 489h-696v-108q0 -117 69 -182.5t199 -65.5q167 0 336 90q10 4 32.5 -30t37 -71.5t5.5 -43.5q-188 -107 -419 -107q-245 0 -363 152q-189 -148 -401 -148q-178 0 -275.5 90t-97.5 246v41q0 119 68 192.5t221.5 103.5t400.5 -7v107q0 113 -56 165t-177 52
q-167 0 -314 -70q-11 -6 -29 29q-30 58 -32 107q-1 22 8 26q66 30 167.5 51.5t207.5 21.5q233 0 328 -143q55 74 140.5 112t190.5 38q216 0 332.5 -119t116.5 -334v-195zM483 141q80 0 162.5 36t142.5 97q-12 52 -12 119v111q-160 22 -272 17.5t-172 -45.5t-60 -118v-39
q0 -86 57.5 -132t153.5 -46zM1468 631v78q0 129 -70 198.5t-186 69.5q-112 0 -180.5 -69.5t-68.5 -194.5v-82h505z" />
    <glyph glyph-name="ccedilla" unicode="&#xe7;" horiz-adv-x="1003" 
d="M547 -416q-15 0 -29.5 1.5t-28 4.5t-25.5 6.5t-24 8.5t-21 8.5t-19.5 9t-16 8t-14 7.5t-9.5 6q-6 4 1 29.5t20.5 47t24.5 15.5q89 -49 141 -49q90 0 90 61v25q0 73 -162 61v154q-166 21 -259 125t-93 284v324q0 198 116.5 308t315.5 110q111 0 206 -33.5t161 -83.5
q12 -9 -1 -48.5t-38 -71.5t-41 -23q-2 1 -15 9t-18.5 11t-20.5 11.5t-24 12.5t-25.5 11.5t-29 12t-30 9.5t-33 8t-34.5 5t-37 2q-253 0 -253 -273v-288q0 -263 253 -263q132 0 271 95q16 12 42 -18.5t39.5 -69t0.5 -48.5q-52 -43 -141 -78.5t-187 -41.5v-68q86 -3 129 -42.5
t43 -102.5v-41q0 -63 -58.5 -105.5t-166.5 -42.5z" />
    <glyph glyph-name="egrave" unicode="&#xe8;" horiz-adv-x="1132" 
d="M1010 475h-693v-88q0 -122 67 -189t198 -67q96 0 173.5 23t162.5 67q9 5 32 -29t37.5 -72t5.5 -44q-188 -107 -420 -107q-208 0 -328 114t-120 310v307q0 203 120 321t316 118q216 0 332.5 -119.5t116.5 -335.5v-209zM819 621v90q0 129 -70 198.5t-186 69.5
q-112 0 -180 -70t-68 -196v-92h504zM518 1243l-213 283q-18 21 26 27l56 3q52 0 68.5 -3t23.5 -13l174 -291q11 -14 -17 -18q-15 -2 -44 -2q-63 0 -74 14z" />
    <glyph glyph-name="eacute" unicode="&#xe9;" horiz-adv-x="1132" 
d="M1010 475h-693v-88q0 -122 67 -189t198 -67q96 0 173.5 23t162.5 67q9 5 32 -29t37.5 -72t5.5 -44q-188 -107 -420 -107q-208 0 -328 114t-120 310v307q0 203 120 321t316 118q216 0 332.5 -119.5t116.5 -335.5v-209zM819 621v90q0 129 -70 198.5t-186 69.5
q-112 0 -180 -70t-68 -196v-92h504zM844 1526l-213 -283q-11 -14 -74 -14q-64 0 -64 12l3 8l174 291q7 10 23.5 13t68.5 3q87 0 88 -18q0 -5 -6 -12z" />
    <glyph glyph-name="ecircumflex" unicode="&#xea;" horiz-adv-x="1132" 
d="M1010 475h-693v-88q0 -122 67 -189t198 -67q96 0 173.5 23t162.5 67q9 5 32 -29t37.5 -72t5.5 -44q-188 -107 -420 -107q-208 0 -328 114t-120 310v307q0 203 120 321t316 118q216 0 332.5 -119.5t116.5 -335.5v-209zM819 621v90q0 129 -70 198.5t-186 69.5
q-112 0 -180 -70t-68 -196v-92h504zM743 1260q-59 0 -73 16l-105 186l-106 -184q-11 -16 -74 -16q-19 0 -29 0.5t-23.5 1.5t-18.5 4.5t-1 9.5l166 260q16 21 84 21q71 0 84 -21l168 -262q4 -6 -1 -9.5t-18.5 -4.5t-23.5 -1.5t-29 -0.5z" />
    <glyph glyph-name="edieresis" unicode="&#xeb;" horiz-adv-x="1132" 
d="M1010 475h-693v-88q0 -122 67 -189t198 -67q96 0 173.5 23t162.5 67q9 5 32 -29t37.5 -72t5.5 -44q-188 -107 -420 -107q-208 0 -328 114t-120 310v307q0 203 120 321t316 118q216 0 332.5 -119.5t116.5 -335.5v-209zM819 621v90q0 129 -70 198.5t-186 69.5
q-112 0 -180 -70t-68 -196v-92h504zM377 1272q-88 0 -88 22v203q0 21 88 21t88 -21v-203q0 -22 -88 -22zM754 1272q-88 0 -88 22v203q0 21 88 21t88 -21v-203q0 -22 -88 -22z" />
    <glyph glyph-name="igrave" unicode="&#xec;" horiz-adv-x="516" 
d="M256 -8q-98 0 -98 16v1092q0 16 98 16t98 -16v-1092q0 -16 -98 -16zM180 1243l-215 283q-16 21 26 27q21 3 58 3q51 0 67.5 -3t22.5 -13l176 -291q9 -14 -18 -18q-14 -2 -43 -2q-63 0 -74 14z" />
    <glyph glyph-name="iacute" unicode="&#xed;" horiz-adv-x="516" 
d="M256 -8q-98 0 -98 16v1092q0 16 98 16t98 -16v-1092q0 -16 -98 -16zM543 1526l-213 -283q-11 -14 -76 -14q-63 0 -62 13l3 7l174 291q6 10 22.5 13t67.5 3q90 0 89 -20z" />
    <glyph glyph-name="icircumflex" unicode="&#xee;" horiz-adv-x="516" 
d="M256 -8q-98 0 -98 16v1092q0 16 98 16t98 -16v-1092q0 -16 -98 -16zM436 1260q-63 0 -74 16l-106 186l-106 -184q-9 -16 -74 -16q-18 0 -28 0.5t-23.5 1.5t-18 4.5t-0.5 9.5l166 260q16 21 82 21q70 0 86 -21l166 -262q4 -6 0 -9.5t-17.5 -4.5t-23.5 -1.5t-29 -0.5z" />
    <glyph glyph-name="idieresis" unicode="&#xef;" horiz-adv-x="516" 
d="M256 -8q-98 0 -98 16v1092q0 16 98 16t98 -16v-1092q0 -16 -98 -16zM70 1272q-33 0 -61.5 5.5t-28.5 16.5v203q0 21 90 21q86 0 86 -21v-203q0 -11 -27 -16.5t-59 -5.5zM446 1272q-33 0 -61.5 5.5t-28.5 16.5v203q0 21 90 21q89 0 89 -21v-203q0 -11 -28.5 -16.5
t-60.5 -5.5z" />
    <glyph glyph-name="eth" unicode="&#xf0;" horiz-adv-x="1214" 
d="M582 1065q83 0 158.5 -27.5t125.5 -70.5q-21 74 -69 149t-105 125l-86 -86q-12 -12 -65 39t-41 66l82 83q-52 51 -107 101q-11 11 17 49t64.5 68.5t47.5 21.5q38 -33 107 -102l86 90q8 8 38 -15t53 -52.5t15 -37.5l-86 -90q136 -139 202 -296t66 -400v-293
q0 -192 -128 -302t-357 -110q-232 0 -356.5 112t-124.5 319v256q0 131 64 224t166.5 136t232.5 43zM319 625v-213q0 -72 23.5 -127t63.5 -86.5t87.5 -46.5t102.5 -15q289 0 289 285v192q0 134 -83.5 210.5t-205.5 76.5q-124 0 -200.5 -68t-76.5 -208z" />
    <glyph glyph-name="ntilde" unicode="&#xf1;" 
d="M1034 8q0 -16 -98 -16t-98 16v731q0 217 -174 217q-84 0 -169 -61t-139 -145v-742q0 -16 -98 -16t-98 16v1094q0 16 98 16q92 0 92 -16v-156q20 27 50.5 56t78 62t113 54t135.5 21q141 -1 224 -95.5t83 -246.5v-789zM885 1423q-33 -61 -84.5 -100t-112.5 -39
q-37 0 -73 14.5t-59 31.5t-49 31.5t-44 14.5q-56 0 -109 -76q-5 -7 -29 10.5t-44 40t-15 29.5q30 56 83 97t114 41q36 0 71 -14.5t57.5 -32t49.5 -32t49 -14.5q55 0 108 80q0 1 1 2q6 7 29 -11t42.5 -41.5t14.5 -31.5z" />
    <glyph glyph-name="ograve" unicode="&#xf2;" horiz-adv-x="1177" 
d="M588 -31q-221 0 -343 107.5t-122 310.5v334q0 202 124.5 310t340.5 108q217 0 342 -108t125 -310v-334q0 -200 -128 -309t-339 -109zM858 711q0 258 -270 258q-136 0 -202.5 -62t-66.5 -196v-314q0 -134 66.5 -196t202.5 -62q270 0 270 258v314zM532 1243l-215 283
q-16 21 26 27q21 3 58 3q51 0 68 -3t23 -13l176 -291q9 -14 -18 -18q-14 -2 -44 -2q-63 0 -74 14z" />
    <glyph glyph-name="oacute" unicode="&#xf3;" horiz-adv-x="1177" 
d="M588 -31q-221 0 -343 107.5t-122 310.5v334q0 202 124.5 310t340.5 108q217 0 342 -108t125 -310v-334q0 -200 -128 -309t-339 -109zM858 711q0 258 -270 258q-136 0 -202.5 -62t-66.5 -196v-314q0 -134 66.5 -196t202.5 -62q270 0 270 258v314zM844 1526l-213 -283
q-11 -14 -74 -14q-64 0 -63 13q0 3 2 7l174 291q7 10 23.5 13t68.5 3q87 0 88 -18q0 -5 -6 -12z" />
    <glyph glyph-name="ocircumflex" unicode="&#xf4;" horiz-adv-x="1177" 
d="M588 -31q-221 0 -343 107.5t-122 310.5v334q0 202 124.5 310t340.5 108q217 0 342 -108t125 -310v-334q0 -200 -128 -309t-339 -109zM858 711q0 258 -270 258q-136 0 -202.5 -62t-66.5 -196v-314q0 -134 66.5 -196t202.5 -62q270 0 270 258v314zM768 1260q-63 0 -74 16
l-106 186l-107 -184q-9 -16 -73 -16q-18 0 -28 0.5t-23 1.5t-18 4.5t-1 9.5l166 260q16 21 82 21q70 0 86 -21l166 -262q4 -6 0 -9.5t-17.5 -4.5t-23.5 -1.5t-29 -0.5z" />
    <glyph glyph-name="otilde" unicode="&#xf5;" horiz-adv-x="1177" 
d="M588 -31q-221 0 -343 107.5t-122 310.5v334q0 202 124.5 310t340.5 108q217 0 342 -108t125 -310v-334q0 -200 -128 -309t-339 -109zM858 711q0 258 -270 258q-136 0 -202.5 -62t-66.5 -196v-314q0 -134 66.5 -196t202.5 -62q270 0 270 258v314zM899 1423
q-35 -62 -86.5 -100.5t-112.5 -38.5q-47 0 -90.5 23t-77.5 46t-57 23q-57 0 -106 -76q-6 -7 -30 10.5t-44 40t-16 29.5q30 56 82.5 97t113.5 41q36 0 71 -14.5t57.5 -32t49.5 -32t49 -14.5q56 0 111 82q5 7 28 -11t42.5 -41.5t15.5 -31.5z" />
    <glyph glyph-name="odieresis" unicode="&#xf6;" horiz-adv-x="1177" 
d="M588 -31q-221 0 -343 107.5t-122 310.5v334q0 202 124.5 310t340.5 108q217 0 342 -108t125 -310v-334q0 -200 -128 -309t-339 -109zM858 711q0 258 -270 258q-136 0 -202.5 -62t-66.5 -196v-314q0 -134 66.5 -196t202.5 -62q270 0 270 258v314zM401 1272
q-33 0 -61.5 5.5t-28.5 16.5v203q0 21 90 21q88 0 88 -21v-203q0 -11 -28 -16.5t-60 -5.5zM778 1272q-33 0 -61.5 5.5t-28.5 16.5v203q0 21 90 21q88 0 88 -21v-203q0 -11 -28 -16.5t-60 -5.5z" />
    <glyph glyph-name="divide" unicode="&#xf7;" horiz-adv-x="1343" 
d="M162 602h1018q16 0 16 -84q0 -82 -16 -82h-1018q-17 0 -17 82q0 84 17 84zM672 -10q-90 0 -90 16v256q0 17 90 17t90 -17v-256q0 -16 -90 -16zM672 772q-90 0 -90 16v256q0 17 90 17t90 -17v-256q0 -16 -90 -16z" />
    <glyph glyph-name="oslash" unicode="&#xf8;" horiz-adv-x="1177" 
d="M588 -31q-135 0 -217 37l-35 -63q-8 -21 -76 -21q-39 0 -58 3t-14 14l68 129q-133 110 -133 319v334q0 202 124.5 310t340.5 108q135 0 225 -41l31 57q5 11 22.5 13.5t55.5 2.5q35 0 54 -4.5t13 -15.5l-63 -117q129 -111 129 -313v-334q0 -200 -128 -309t-339 -109z
M319 397q0 -101 35 -151l377 696q-53 29 -143 29q-135 0 -202 -62.5t-67 -197.5v-314zM858 711q0 91 -31 145l-376 -694q51 -23 137 -23q270 0 270 258v314z" />
    <glyph glyph-name="ugrave" unicode="&#xf9;" 
d="M147 1102q0 16 99 16q100 0 100 -16v-744q0 -98 46 -152t128 -54q54 0 109.5 26.5t96 63.5t67 68t34.5 48v744q0 16 99 16q98 0 98 -16v-1094q0 -16 -98 -16q-95 0 -95 16v154q-18 -27 -49 -56t-77.5 -62t-112 -54t-135.5 -21q-143 1 -226.5 95t-83.5 247v791zM557 1243
l-213 283q-18 21 26 27l56 3q52 0 68.5 -3t23.5 -13l174 -291q11 -14 -17 -18q-15 -2 -44 -2q-63 0 -74 14z" />
    <glyph glyph-name="uacute" unicode="&#xfa;" 
d="M147 1102q0 16 99 16q100 0 100 -16v-744q0 -98 46 -152t128 -54q54 0 109.5 26.5t96 63.5t67 68t34.5 48v744q0 16 99 16q98 0 98 -16v-1094q0 -16 -98 -16q-95 0 -95 16v154q-18 -27 -49 -56t-77.5 -62t-112 -54t-135.5 -21q-143 1 -226.5 95t-83.5 247v791zM840 1526
l-213 -283q-11 -14 -74 -14q-64 0 -64 12l3 8l174 291q7 10 23.5 13t68.5 3q87 0 88 -18q0 -5 -6 -12z" />
    <glyph glyph-name="ucircumflex" unicode="&#xfb;" 
d="M147 1102q0 16 99 16q100 0 100 -16v-744q0 -98 46 -152t128 -54q54 0 109.5 26.5t96 63.5t67 68t34.5 48v744q0 16 99 16q98 0 98 -16v-1094q0 -16 -98 -16q-95 0 -95 16v154q-18 -27 -49 -56t-77.5 -62t-112 -54t-135.5 -21q-143 1 -226.5 95t-83.5 247v791zM768 1260
q-61 0 -72 16l-106 186l-107 -184q-11 -16 -73 -16q-19 0 -29 0.5t-23.5 1.5t-17.5 4.5t0 9.5l166 260q13 21 82 21q71 0 84 -21l168 -262q4 -6 -1 -9.5t-18.5 -4.5t-23.5 -1.5t-29 -0.5z" />
    <glyph glyph-name="udieresis" unicode="&#xfc;" 
d="M147 1102q0 16 99 16q100 0 100 -16v-744q0 -98 46 -152t128 -54q54 0 109.5 26.5t96 63.5t67 68t34.5 48v744q0 16 99 16q98 0 98 -16v-1094q0 -16 -98 -16q-95 0 -95 16v154q-18 -27 -49 -56t-77.5 -62t-112 -54t-135.5 -21q-143 1 -226.5 95t-83.5 247v791zM401 1272
q-33 0 -61.5 5.5t-28.5 16.5v203q0 21 90 21q88 0 88 -21v-203q0 -11 -28 -16.5t-60 -5.5zM778 1272q-33 0 -61.5 5.5t-28.5 16.5v203q0 21 90 21q88 0 88 -21v-203q0 -11 -28 -16.5t-60 -5.5z" />
    <glyph glyph-name="yacute" unicode="&#xfd;" horiz-adv-x="1046" 
d="M1022 1100l-551 -1491q-6 -17 -100 -17q-21 0 -35.5 0.5t-32 2t-26 5t-7.5 9.5l156 416l-397 1075q-2 6 5 9.5t26.5 4.5t33.5 1.5t43 0.5q101 0 107 -16l288 -860l281 860q5 16 105 16q19 0 35 -0.5t34 -2t27.5 -5t7.5 -8.5zM770 1526l-213 -283q-11 -14 -76 -14
q-63 0 -62 13l3 7l174 291q7 10 23.5 13t68.5 3q87 0 88 -18q0 -5 -6 -12z" />
    <glyph glyph-name="thorn" unicode="&#xfe;" horiz-adv-x="1208" 
d="M662 -31q-64 0 -120.5 15t-93.5 37.5t-60 43.5t-34 39v-505q0 -17 -98 -17t-98 17v1910q0 17 96 17q90 0 90 -17v-538q44 68 127.5 118t200.5 50q84 0 156.5 -25.5t129 -75t89 -129.5t32.5 -182v-346q0 -102 -32.5 -181.5t-90 -129.5t-132.5 -75.5t-162 -25.5zM621 963
q-120 0 -193.5 -79.5t-73.5 -197.5v-270q0 -126 75.5 -201.5t201.5 -75.5q118 0 184 65t66 204v286q0 140 -69 204.5t-191 64.5z" />
    <glyph glyph-name="ydieresis" unicode="&#xff;" horiz-adv-x="1046" 
d="M1022 1100l-551 -1491q-6 -17 -100 -17q-21 0 -35.5 0.5t-32 2t-26 5t-7.5 9.5l156 416l-397 1075q-2 6 5 9.5t26.5 4.5t33.5 1.5t43 0.5q101 0 107 -16l288 -860l281 860q5 16 105 16q19 0 35 -0.5t34 -2t27.5 -5t7.5 -8.5zM334 1272q-32 0 -60 5.5t-28 16.5v203
q0 21 88 21t88 -21v-203q0 -22 -88 -22zM713 1272q-33 0 -61.5 5.5t-28.5 16.5v203q0 21 90 21q86 0 86 -21v-203q0 -11 -27 -16.5t-59 -5.5z" />
    <glyph glyph-name="Amacron" unicode="&#x100;" horiz-adv-x="1230" 
d="M612 1509q110 0 117 -18l463 -1483q2 -6 -7 -9.5t-28.5 -4.5t-33 -1.5t-36.5 -0.5q-98 0 -104 16l-102 342h-541l-104 -342q-6 -16 -99 -16h-22t-22.5 0.5t-22.5 1.5t-17 2.5t-12 4.5t-2 7l459 1483q7 18 114 18zM391 522h440l-219 760zM369 1749q-17 0 -17 78
q0 76 17 76h489q16 0 16 -66v-10q0 -78 -16 -78h-489z" />
    <glyph glyph-name="amacron" unicode="&#x101;" horiz-adv-x="1118" 
d="M973 8q0 -16 -90 -16q-95 0 -95 16v107q-21 -18 -45.5 -36t-70.5 -44.5t-105.5 -43t-120.5 -16.5q-162 0 -256 91t-94 245v51q0 89 37.5 154t120 109t213.5 52.5t319 -15.5v71q0 122 -54 173.5t-179 51.5q-179 0 -313 -67q-10 -6 -27 27q-30 58 -34 111q-2 25 7 30
q67 29 168.5 50t206.5 21q412 0 412 -399v-723zM786 264v258q-238 39 -370.5 1t-132.5 -154v-50q0 -86 57.5 -132t153.5 -46q159 0 292 123zM313 1339q-16 0 -16 78q0 76 16 76h490q16 0 16 -66v-10q0 -78 -16 -78h-490z" />
    <glyph glyph-name="Abreve" unicode="&#x102;" horiz-adv-x="1230" 
d="M612 1509q110 0 117 -18l463 -1483q2 -6 -7 -9.5t-28.5 -4.5t-33 -1.5t-36.5 -0.5q-98 0 -104 16l-102 342h-541l-104 -342q-6 -16 -99 -16h-22t-22.5 0.5t-22.5 1.5t-17 2.5t-12 4.5t-2 7l459 1483q7 18 114 18zM391 522h440l-219 760zM866 1954q-9 -102 -78.5 -174
t-173.5 -72q-102 0 -170 72t-79 174q0 12 73 12q45 0 47 -10q5 -59 42 -98t89 -39t89.5 39t42.5 98q2 12 59 12q59 0 59 -14z" />
    <glyph glyph-name="abreve" unicode="&#x103;" horiz-adv-x="1118" 
d="M973 8q0 -16 -90 -16q-95 0 -95 16v107q-21 -18 -45.5 -36t-70.5 -44.5t-105.5 -43t-120.5 -16.5q-162 0 -256 91t-94 245v51q0 89 37.5 154t120 109t213.5 52.5t319 -15.5v71q0 122 -54 173.5t-179 51.5q-179 0 -313 -67q-10 -6 -27 27q-30 58 -34 111q-2 25 7 30
q67 29 168.5 50t206.5 21q412 0 412 -399v-723zM786 264v258q-238 39 -370.5 1t-132.5 -154v-50q0 -86 57.5 -132t153.5 -46q159 0 292 123zM809 1544q-8 -102 -77 -174t-173 -72q-103 0 -171 72t-79 174q-1 4 6 7t21 4t23 1h24q45 0 45 -10q6 -59 43 -98t90 -39q52 0 89 39
t42 98q3 13 60 13q60 0 57 -15z" />
    <glyph glyph-name="Aogonek" unicode="&#x104;" horiz-adv-x="1230" 
d="M612 1509q110 0 117 -18l463 -1483q1 -4 -7 -7t-22 -5q-4 -3 -65.5 -47t-85.5 -66q-86 -77 -86 -141q0 -44 28 -64t68 -20q28 0 60.5 15t45.5 28q9 7 26.5 -10.5t28 -40.5t1.5 -31q-24 -24 -77 -48t-118 -24q-25 0 -52 5t-56.5 18.5t-52 33.5t-37.5 53.5t-15 74.5
t13.5 75.5t43.5 64.5t50.5 46.5t63.5 44.5t54 35q-14 3 -18 10l-102 342h-541l-104 -342q-6 -16 -99 -16h-22t-22.5 0.5t-22.5 1.5t-17 2.5t-12 4.5t-2 7l459 1483q7 18 114 18zM391 522h440l-219 760z" />
    <glyph glyph-name="aogonek" unicode="&#x105;" horiz-adv-x="1118" 
d="M973 8q0 -6 -15 -10q-15 -11 -53 -37.5t-65 -47t-57.5 -49t-47 -60t-16.5 -62.5q0 -44 28 -64t68 -20q28 0 60 15t45 28q9 7 26.5 -10.5t27.5 -40.5t1 -31q-14 -16 -54.5 -36t-91.5 -27q-36 -8 -84 -5q-28 3 -56 14t-56.5 31t-46 55t-17.5 81q0 41 14.5 76.5t43.5 64
t53 47.5t63 44t54 36q-9 3 -9 8v107q-21 -18 -45.5 -36t-70.5 -44.5t-105.5 -43t-120.5 -16.5q-162 0 -256 91t-94 245v51q0 89 37.5 154t120 109t213.5 52.5t319 -15.5v71q0 122 -54 173.5t-179 51.5q-179 0 -313 -67q-10 -6 -27 27q-30 58 -34 111q-2 25 7 30
q67 29 168.5 50t206.5 21q221 0 316.5 -109t95.5 -331v-682zM786 264v258q-238 39 -370.5 1t-132.5 -154v-50q0 -86 57.5 -132t153.5 -46q159 0 292 123z" />
    <glyph glyph-name="Cacute" unicode="&#x106;" horiz-adv-x="1177" 
d="M1106 1442q9 -4 2.5 -32t-18.5 -59.5t-27.5 -56t-24.5 -20.5q-187 84 -340 84q-148 0 -245 -70t-97 -209v-667q0 -271 342 -271q76 0 175.5 19t181.5 49q7 3 16 -12.5t17 -39t14 -49t6.5 -43.5t-4.5 -22q-60 -26 -186.5 -49t-227.5 -23q-536 0 -536 445v665
q0 119 39.5 207t112.5 140t168.5 77t215.5 25q109 0 220 -24t196 -64zM963 1935l-213 -282q-12 -15 -76 -15t-63 14q0 3 3 7l174 291q6 10 23 13t68 3q90 0 89 -21q-1 -4 -5 -10z" />
    <glyph glyph-name="cacute" unicode="&#x107;" horiz-adv-x="1005" 
d="M555 -31q-200 0 -316 108t-116 310v332q0 198 116.5 308t315.5 110q112 0 207 -32t162 -81q12 -10 -1.5 -51.5t-39 -75.5t-41.5 -25q-3 2 -21.5 13.5t-30 18t-32.5 18t-40 18.5t-42.5 14.5t-49 11t-51.5 3.5q-253 0 -253 -271v-301q0 -262 253 -262q123 0 271 101
q16 12 42.5 -20.5t40.5 -73t1 -50.5q-59 -48 -162 -85.5t-213 -37.5zM838 1526l-213 -283q-11 -14 -76 -14q-64 0 -63 13q0 3 3 7l175 291q6 10 22.5 13t67.5 3q90 0 89 -20z" />
    <glyph glyph-name="Ccaron" unicode="&#x10c;" horiz-adv-x="1177" 
d="M1106 1442q9 -4 2.5 -32t-18.5 -59.5t-27.5 -56t-24.5 -20.5q-187 84 -340 84q-148 0 -245 -70t-97 -209v-667q0 -271 342 -271q76 0 175.5 19t181.5 49q7 3 16 -12.5t17 -39t14 -49t6.5 -43.5t-4.5 -22q-60 -26 -186.5 -49t-227.5 -23q-536 0 -536 445v665
q0 119 39.5 207t112.5 140t168.5 77t215.5 25q109 0 220 -24t196 -64zM512 1972q63 0 74 -16l108 -184l109 184q13 16 74 16q19 0 29 -0.5t23 -1.5t17 -4.5t0 -9.5l-168 -262q-12 -19 -82 -19q-72 0 -84 19l-170 262q-4 6 1 9.5t18 4.5t23 1.5t28 0.5z" />
    <glyph glyph-name="ccaron" unicode="&#x10d;" horiz-adv-x="1005" 
d="M555 -31q-200 0 -316 108t-116 310v332q0 198 116.5 308t315.5 110q112 0 207 -32t162 -81q12 -10 -1.5 -51.5t-39 -75.5t-41.5 -25q-3 2 -21.5 13.5t-30 18t-32.5 18t-40 18.5t-42.5 14.5t-49 11t-51.5 3.5q-253 0 -253 -271v-301q0 -262 253 -262q123 0 271 101
q16 12 42.5 -20.5t40.5 -73t1 -50.5q-59 -48 -162 -85.5t-213 -37.5zM379 1563q62 0 74 -17l108 -184l109 184q14 17 73 17q17 0 28.5 -0.5t24 -2t17 -5t0.5 -9.5l-168 -262q-11 -18 -82 -18q-73 0 -86 18l-168 262q-4 6 0.5 9.5t17 5t24 2t28.5 0.5z" />
    <glyph glyph-name="Dcaron" unicode="&#x10e;" horiz-adv-x="1351" 
d="M1200 1038v-594q0 -222 -128 -333t-378 -111h-518v1501h512q258 0 385 -111t127 -352zM995 444v592q0 148 -76 219.5t-229 71.5h-311v-1153h317q149 0 224 65.5t75 204.5zM469 1972q60 0 74 -16l106 -184l111 184q11 16 71 16q19 0 29 -0.5t23.5 -1.5t18.5 -4.5t1 -9.5
l-168 -262q-14 -19 -84 -19t-84 19l-170 262q-4 6 1 9.5t18.5 4.5t23.5 1.5t29 0.5z" />
    <glyph glyph-name="dcaron" unicode="&#x10f;" horiz-adv-x="1484" 
d="M543 1139q119 0 199.5 -44.5t107.5 -88.5v512q0 16 98 16q99 0 99 -16v-1510q0 -16 -97 -16q-90 0 -90 16v129q-44 -68 -127 -117t-201 -49q-84 0 -156.5 25.5t-129 75t-89 129.5t-32.5 182v344q0 102 33 181.5t90.5 129.5t132.5 75.5t162 25.5zM584 145q120 0 193 80
t73 197v270q0 127 -75.5 202t-201.5 75q-249 0 -249 -269v-286q0 -140 69 -204.5t191 -64.5zM1174 1032q-20 18 -26 35.5t3 24.5q76 75 95.5 148t19.5 267q0 17 96 17q98 0 98 -17q0 -349 -231 -501q-22 -9 -55 26z" />
    <glyph glyph-name="Dcroat" unicode="&#x110;" horiz-adv-x="1351" 
d="M41 684q-16 0 -16 82t16 82h135v653h512q258 0 385 -111t127 -352v-594q0 -222 -128 -333t-378 -111h-518v684h-135zM995 444v592q0 148 -76 219.5t-229 71.5h-311v-479h303q16 0 16 -82t-16 -82h-303v-510h317q149 0 224 65.5t75 204.5z" />
    <glyph glyph-name="dcroat" unicode="&#x111;" horiz-adv-x="1255" 
d="M514 1229q-16 0 -16 82t16 82h336v125q0 16 98 16q99 0 99 -16v-125h127q16 0 16 -82t-16 -82h-127v-1221q0 -16 -97 -16q-90 0 -90 16v129q-44 -68 -127 -117t-201 -49q-84 0 -156.5 25.5t-129 75t-89 129.5t-32.5 182v344q0 102 33 181.5t90.5 129.5t132.5 75.5
t162 25.5q119 0 199.5 -44.5t107.5 -88.5v223h-336zM584 145q120 0 193 80t73 197v270q0 127 -75.5 202t-201.5 75q-249 0 -249 -269v-286q0 -140 69 -204.5t191 -64.5z" />
    <glyph glyph-name="Emacron" unicode="&#x112;" horiz-adv-x="1071" 
d="M977 88q0 -88 -16 -88h-785v1501h780q19 0 19 -90q0 -86 -19 -86h-577v-457h512q16 0 16 -86t-16 -86h-512v-522h582q16 0 16 -86zM291 1749q-17 0 -17 78q0 76 17 76h489q6 0 10 -5.5t5.5 -20.5t1.5 -22v-28q0 -78 -17 -78h-489z" />
    <glyph glyph-name="emacron" unicode="&#x113;" horiz-adv-x="1130" 
d="M1010 475h-693v-88q0 -122 67 -189t198 -67q96 0 173.5 23t162.5 67q9 5 32 -29t37.5 -72t5.5 -44q-188 -107 -420 -107q-208 0 -328 114t-120 310v307q0 203 120 321t316 118q216 0 332.5 -119.5t116.5 -335.5v-209zM819 621v90q0 129 -70 198.5t-186 69.5
q-112 0 -180 -70t-68 -196v-92h504zM319 1339q-16 0 -16 78q0 76 16 76h490q16 0 16 -66v-10q0 -78 -16 -78h-490z" />
    <glyph glyph-name="Edotaccent" unicode="&#x116;" horiz-adv-x="1071" 
d="M977 88q0 -88 -16 -88h-785v1501h780q19 0 19 -90q0 -86 -19 -86h-577v-457h512q16 0 16 -86t-16 -86h-512v-522h582q16 0 16 -86zM557 1700q-45 0 -85 7t-40 22v184q0 26 125 26q123 0 123 -28v-182q0 -15 -39.5 -22t-83.5 -7z" />
    <glyph glyph-name="edotaccent" unicode="&#x117;" horiz-adv-x="1130" 
d="M1010 475h-693v-88q0 -122 67 -189t198 -67q96 0 173.5 23t162.5 67q9 5 32 -29t37.5 -72t5.5 -44q-188 -107 -420 -107q-208 0 -328 114t-120 310v307q0 203 120 321t316 118q216 0 332.5 -119.5t116.5 -335.5v-209zM819 621v90q0 129 -70 198.5t-186 69.5
q-112 0 -180 -70t-68 -196v-92h504zM567 1290q-44 0 -83.5 7t-39.5 22v184q0 27 125 27q45 0 84 -7t39 -22v-182q0 -15 -40 -22t-85 -7z" />
    <glyph glyph-name="Eogonek" unicode="&#x118;" horiz-adv-x="1071" 
d="M969 27q0 -2 -0.5 -6.5t-1 -7.5l-1 -6t-2 -5t-3.5 -2q-8 -6 -41.5 -28.5t-53.5 -37t-51 -40.5t-49 -47t-31.5 -49t-13.5 -54q0 -44 28 -64t68 -20q28 0 61 15t44 28q9 7 27 -10.5t28.5 -40.5t1.5 -31q-28 -25 -79.5 -48.5t-117.5 -23.5q-33 0 -66.5 9t-67.5 28.5
t-55.5 58t-21.5 89.5q0 35 11.5 66.5t28 53.5t43.5 45.5t47.5 37.5t51 33.5t44.5 29.5h-621v1501h780q19 0 19 -90q0 -86 -19 -86h-577v-457h512q16 0 16 -86t-16 -86h-512v-522h582q16 0 16 -86q0 -53 -8 -61z" />
    <glyph glyph-name="eogonek" unicode="&#x119;" horiz-adv-x="1130" 
d="M1010 475h-693v-88q0 -121 67 -188.5t198 -67.5q95 0 173 23.5t163 66.5q9 5 32 -29t37.5 -72t5.5 -44q-125 -68 -250 -90q-10 -7 -43.5 -30t-51.5 -36t-46.5 -37t-44 -43.5t-27.5 -46t-12 -51.5q0 -44 28.5 -64t69.5 -20q28 0 60 15t45 28q9 7 26.5 -10.5t27.5 -40.5
t1 -31q-17 -17 -56.5 -36.5t-90.5 -26.5q-44 -9 -94 0q-26 4 -52 15t-52.5 30.5t-43 53.5t-16.5 77q0 42 14 77t44 64.5t51 46t62 43.5q10 7 15 10q-44 3 -76 11q-169 23 -262.5 130.5t-93.5 278.5v307q0 203 120 321t316 118q216 0 332.5 -119.5t116.5 -335.5v-209z
M819 621v90q0 129 -70 198.5t-186 69.5q-112 0 -180 -70t-68 -196v-92h504z" />
    <glyph glyph-name="Ecaron" unicode="&#x11a;" horiz-adv-x="1071" 
d="M977 88q0 -88 -16 -88h-785v1501h780q19 0 19 -90q0 -86 -19 -86h-577v-457h512q16 0 16 -86t-16 -86h-512v-522h582q16 0 16 -86zM406 1972q62 0 73 -16l109 -184l108 184q11 16 74 16q18 0 28 -0.5t23 -1.5t18 -4.5t1 -9.5l-168 -262q-14 -19 -82 -19q-72 0 -86 19
l-168 262q-4 6 0 9.5t17.5 4.5t23.5 1.5t29 0.5z" />
    <glyph glyph-name="ecaron" unicode="&#x11b;" horiz-adv-x="1130" 
d="M1010 475h-693v-88q0 -122 67 -189t198 -67q96 0 173.5 23t162.5 67q9 5 32 -29t37.5 -72t5.5 -44q-188 -107 -420 -107q-208 0 -328 114t-120 310v307q0 203 120 321t316 118q216 0 332.5 -119.5t116.5 -335.5v-209zM819 621v90q0 129 -70 198.5t-186 69.5
q-112 0 -180 -70t-68 -196v-92h504zM383 1563q62 0 74 -17l108 -184l109 184q14 17 74 17q17 0 28.5 -0.5t24 -2t16.5 -5t0 -9.5l-168 -262q-11 -18 -82 -18q-73 0 -86 18l-168 262q-4 6 0.5 9.5t17 5t24 2t28.5 0.5z" />
    <glyph glyph-name="Gbreve" unicode="&#x11e;" horiz-adv-x="1368" 
d="M1036 432v219h-286q-17 0 -17 88t17 88h487v-405q0 -219 -141 -336t-400 -117t-400.5 112t-141.5 312v692q0 120 39.5 207.5t112.5 138.5t168 75t216 24q109 0 220 -24t196 -64q9 -4 2.5 -32t-18.5 -59.5t-27.5 -56t-24.5 -20.5q-182 82 -340 82q-63 0 -120 -14
t-108.5 -44.5t-82.5 -86t-31 -130.5v-645q0 -77 27.5 -135.5t75.5 -92.5t108 -50.5t131 -16.5q154 0 246 70t92 221zM934 1954q-9 -102 -78.5 -174t-171.5 -72q-103 0 -172 72.5t-78 173.5q-1 4 6 7t21 4t23 1h24q45 0 45 -10q6 -59 43 -98t90 -39q51 0 89 39.5t42 97.5
q0 12 60 12q12 0 21.5 -0.5t18.5 -2t13.5 -4.5t3.5 -7z" />
    <glyph glyph-name="gbreve" unicode="&#x11f;" horiz-adv-x="1204" 
d="M850 135v-129q0 -132 -72 -204t-200 -72q-147 0 -310 98q-10 6 -35.5 -28t-42.5 -73t-6 -46q65 -42 168 -77.5t217 -35.5q76 0 144 16t130.5 53.5t107.5 93.5t71.5 142t26.5 193v1036q0 16 -97 16q-94 0 -94 -16v-119q-41 64 -124 109t-202 45q-83 0 -155 -25.5
t-128.5 -75t-89 -130t-32.5 -181.5v-326q0 -198 114.5 -304.5t290.5 -106.5q210 0 318 147zM575 963q126 0 200.5 -79t74.5 -198v-244q0 -128 -74 -204t-201 -76q-116 0 -183.5 65t-67.5 203v264q0 139 67.5 204t183.5 65zM852 1544q-9 -102 -78.5 -174t-173.5 -72
q-102 0 -170.5 72.5t-77.5 173.5q0 3 3 5t9.5 3.5t13 2t16.5 1t15.5 0.5h14.5q47 0 47 -10q6 -59 42.5 -98t88.5 -39t90 39t43 98q0 13 60 13q57 0 57 -15z" />
    <glyph glyph-name="Gcommaaccent" unicode="&#x122;" horiz-adv-x="1368" 
d="M1036 432v219h-286q-17 0 -17 88t17 88h487v-405q0 -219 -141 -336t-400 -117t-400.5 112t-141.5 312v692q0 120 39.5 207.5t112.5 138.5t168 75t216 24q109 0 220 -24t196 -64q9 -4 2.5 -32t-18.5 -59.5t-27.5 -56t-24.5 -20.5q-182 82 -340 82q-63 0 -120 -14
t-108.5 -44.5t-82.5 -86t-31 -130.5v-645q0 -77 27.5 -135.5t75.5 -92.5t108 -50.5t131 -16.5q154 0 246 70t92 221zM502 -604q-20 18 -26 35t3 26q76 75 95.5 148t19.5 266q0 16 96 16q98 0 98 -16q0 -350 -231 -502q-21 -9 -55 27z" />
    <glyph glyph-name="gcommaaccent" unicode="&#x123;" horiz-adv-x="1204" 
d="M850 135v-129q0 -132 -72 -204t-200 -72q-147 0 -310 98q-10 6 -35.5 -28t-42.5 -73t-6 -46q65 -42 168 -77.5t217 -35.5q76 0 144 16t130.5 53.5t107.5 93.5t71.5 142t26.5 193v1036q0 16 -97 16q-94 0 -94 -16v-119q-41 64 -124 109t-202 45q-83 0 -155 -25.5
t-128.5 -75t-89 -130t-32.5 -181.5v-326q0 -198 114.5 -304.5t290.5 -106.5q210 0 318 147zM575 963q126 0 200.5 -79t74.5 -198v-244q0 -128 -74 -204t-201 -76q-116 0 -183.5 65t-67.5 203v264q0 139 67.5 204t183.5 65zM762 1731q20 -18 26 -35.5t-4 -24.5
q-77 -74 -96.5 -147t-19.5 -267q0 -18 -95 -18q-98 0 -98 18q0 352 232 500q20 12 55 -26z" />
    <glyph glyph-name="Itilde" unicode="&#x128;" horiz-adv-x="561" 
d="M387 8q0 -16 -102 -16q-103 0 -103 16v1485q0 16 103 16q102 0 102 -16v-1485zM590 1833q-33 -61 -84.5 -100t-112.5 -39q-47 0 -90.5 23t-77.5 46t-57 23q-56 0 -109 -76q-5 -7 -29 10.5t-44 40t-15 29.5q29 55 82.5 96t114.5 41q36 0 71 -14.5t57.5 -31.5t49.5 -31.5
t49 -14.5q14 0 28 5t24 12t21 18t16 17.5t13 17.5t9 12q5 7 28 -11t42 -41.5t14 -31.5z" />
    <glyph glyph-name="itilde" unicode="&#x129;" horiz-adv-x="516" 
d="M258 -8q-98 0 -98 16v1092q0 16 98 16t98 -16v-1092q0 -16 -98 -16zM569 1423q-35 -62 -86 -100.5t-112 -38.5q-37 0 -73 14.5t-59 31.5t-49 31.5t-45 14.5q-55 0 -108 -76q-5 -7 -28.5 10.5t-43.5 40t-16 29.5q30 56 82.5 97t113.5 41q36 0 71 -14.5t58 -32t50 -32
t49 -14.5q55 0 110 82q5 7 28 -11t42.5 -41.5t15.5 -31.5z" />
    <glyph glyph-name="uni012A" unicode="&#x12a;" horiz-adv-x="561" 
d="M387 8q0 -16 -102 -16q-103 0 -103 16v1485q0 16 103 16q102 0 102 -16v-1485zM35 1749q-17 0 -17 78q0 76 17 76h489q19 0 19 -76q0 -78 -19 -78h-489z" />
    <glyph glyph-name="imacron" unicode="&#x12b;" horiz-adv-x="516" 
d="M258 -8q-98 0 -98 16v1092q0 16 98 16t98 -16v-1092q0 -16 -98 -16zM12 1339q-16 0 -16 78q0 76 16 76h490q16 0 16 -66v-10q0 -78 -16 -78h-490z" />
    <glyph glyph-name="Iogonek" unicode="&#x12e;" horiz-adv-x="561" 
d="M387 8q0 -10 -47 -14q-68 -44 -125 -94q-86 -77 -86 -142q0 -42 29 -62t69 -20q28 0 60 15t45 28q9 6 26.5 -11.5t27.5 -41t1 -31.5q-24 -24 -76.5 -46.5t-117.5 -22.5q-33 0 -66.5 9t-67.5 28t-55.5 56.5t-21.5 88.5q0 39 12.5 72.5t39.5 62t46.5 44.5t57.5 42t48 33
q-4 4 -4 6v1485q0 16 103 16q102 0 102 -16v-1485z" />
    <glyph glyph-name="iogonek" unicode="&#x12f;" horiz-adv-x="516" 
d="M356 18q-16 -14 -51 -42.5t-57 -48.5t-47.5 -48t-38 -58.5t-12.5 -62.5q0 -73 71 -80q25 -3 51 7q22 3 46.5 14.5t31.5 19.5q14 9 43.5 -31t14.5 -53q-26 -24 -78.5 -46.5t-118.5 -22.5q-25 0 -51.5 5t-55.5 18t-51.5 33t-37.5 52.5t-15 73.5q0 38 12.5 70.5t37.5 59.5
t45 44t54.5 41t45.5 33q-35 4 -35 12v1092q0 16 98 16t98 -16v-1082zM258 1270q-98 0 -98 16v232q0 16 98 16t98 -16v-232q0 -16 -98 -16z" />
    <glyph glyph-name="Idotaccent" unicode="&#x130;" horiz-adv-x="561" 
d="M387 8q0 -16 -102 -16q-103 0 -103 16v1485q0 16 103 16q102 0 102 -16v-1485zM287 1700q-45 0 -84 7t-39 22v184q0 26 123 26t123 -28v-182q0 -15 -39.5 -22t-83.5 -7z" />
    <glyph glyph-name="dotlessi" unicode="&#x131;" horiz-adv-x="516" 
d="M246 -8q-99 0 -99 16v1092q0 16 99 16q98 0 98 -16v-1092q0 -16 -98 -16z" />
    <glyph glyph-name="Kcommaaccent" unicode="&#x136;" horiz-adv-x="1212" 
d="M379 541v-533q0 -16 -103 -16q-100 0 -100 16v1485q0 16 103 16q100 0 100 -16v-698l553 696q16 18 112 18q30 0 47 -0.5t41 -1.5t33 -4.5t4 -9.5l-526 -664l537 -821q16 -16 -121 -16q-107 0 -119 16l-438 682zM461 -584q-20 18 -26 35.5t3 26.5q78 75 97.5 147.5
t19.5 265.5q0 17 94 17q99 0 99 -17q0 -349 -232 -501q-22 -9 -55 26z" />
    <glyph glyph-name="kcommaaccent" unicode="&#x137;" horiz-adv-x="1042" 
d="M1010 1100l-424 -482l448 -610q4 -6 -5.5 -9.5t-33 -4.5t-39.5 -1.5t-43 -0.5q-108 0 -122 16l-353 481l-80 -83v-398q0 -16 -100 -16q-96 0 -96 16v1510q0 16 98 16t98 -16v-873l402 455q16 16 133 16q28 0 44 -0.5t38.5 -1.5t31 -4.5t3.5 -9.5zM379 -584
q-19 19 -25.5 36t2.5 26q78 75 97.5 147.5t19.5 265.5q0 17 94 17q99 0 99 -17q0 -348 -230 -501q-24 -10 -57 26z" />
    <glyph glyph-name="kgreenlandic" unicode="&#x138;" horiz-adv-x="1042" 
d="M1010 1100l-424 -482l448 -610q4 -6 -5.5 -9.5t-33 -4.5t-39.5 -1.5t-43 -0.5q-108 0 -122 16l-353 481l-80 -83v-398q0 -16 -100 -16q-96 0 -96 16v1092q0 16 98 16t98 -16v-455l402 455q16 16 133 16q28 0 44 -0.5t38.5 -1.5t31 -4.5t3.5 -9.5z" />
    <glyph glyph-name="Lacute" unicode="&#x139;" horiz-adv-x="1032" 
d="M1018 94q0 -94 -17 -94h-825v1493q0 16 100 16q103 0 103 -16v-1307h622q17 0 17 -92zM573 1935l-215 -282q-12 -15 -73 -15q-64 0 -64 14q0 3 2 7l176 291q6 10 22.5 13t67.5 3q88 0 89 -20q0 -5 -5 -11z" />
    <glyph glyph-name="lacute" unicode="&#x13a;" horiz-adv-x="591" 
d="M516 0h-94q-133 0 -200.5 69.5t-67.5 192.5v1256q0 16 98 16t98 -16v-1239q0 -56 28 -81.5t91 -25.5h47q19 0 25 -15t6 -69q0 -57 -6 -72.5t-25 -15.5zM539 1935l-213 -282q-12 -15 -76 -15t-64 14q0 3 2 7l177 291q6 10 22.5 13t67.5 3q88 0 89 -20q0 -5 -5 -11z" />
    <glyph glyph-name="Lcommaaccent" unicode="&#x13b;" horiz-adv-x="1032" 
d="M1018 94q0 -94 -17 -94h-825v1493q0 16 100 16q103 0 103 -16v-1307h622q17 0 17 -92zM399 -563q-43 40 -22 61q76 75 95.5 148t19.5 266q0 16 96 16q98 0 98 -16q0 -350 -231 -502q-22 -10 -56 27z" />
    <glyph glyph-name="lcommaaccent" unicode="&#x13c;" horiz-adv-x="591" 
d="M516 0h-94q-133 0 -200.5 69.5t-67.5 192.5v1256q0 16 98 16t98 -16v-1239q0 -56 28 -81.5t91 -25.5h47q19 0 25 -15t6 -69q0 -57 -6 -72.5t-25 -15.5zM184 -563q-42 41 -22 61q78 75 97.5 148t19.5 266q0 16 94 16q98 0 98 -16q0 -350 -231 -502q-22 -10 -56 27z" />
    <glyph glyph-name="Lcaron" unicode="&#x13d;" horiz-adv-x="1032" 
d="M1018 94q0 -94 -17 -94h-825v1493q0 16 100 16q103 0 103 -16v-1307h622q17 0 17 -92zM598 1018q-20 18 -26 35t3 24q76 75 95.5 148t19.5 266q0 18 94 18q101 0 101 -18q0 -352 -232 -500q-20 -11 -55 27z" />
    <glyph glyph-name="lcaron" unicode="&#x13e;" horiz-adv-x="827" 
d="M516 0h-94q-133 0 -200.5 69.5t-67.5 192.5v1256q0 16 98 16t98 -16v-1239q0 -56 28 -81.5t91 -25.5h47q19 0 25 -15t6 -69q0 -57 -6 -72.5t-25 -15.5zM516 1044q-20 18 -26 35.5t4 24.5q77 76 96.5 149t19.5 267q0 16 95 16q98 0 98 -16q0 -350 -232 -502q-22 -9 -55 26
z" />
    <glyph glyph-name="Lslash" unicode="&#x141;" horiz-adv-x="1046" 
d="M180 768v727q0 14 103 14q102 0 102 -14v-623l213 117q9 5 31.5 -28t37 -69.5t5.5 -41.5l-287 -158v-522h631q16 0 16 -82q0 -88 -16 -88h-836v588l-98 -53q-9 -6 -31 26.5t-37 69.5t-6 43z" />
    <glyph glyph-name="lslash" unicode="&#x142;" horiz-adv-x="528" 
d="M342 8q0 -16 -98 -16q-101 0 -101 16v576q-14 -7 -54 -29.5t-62 -32.5q-9 -5 -31.5 29t-38 72t-6.5 43q32 18 96.5 52t95.5 52v723q0 16 101 16q98 0 98 -16v-614q19 11 62 33.5t65 35.5q9 5 32.5 -29.5t39 -72.5t6.5 -43q-170 -93 -205 -111v-684z" />
    <glyph glyph-name="Nacute" unicode="&#x143;" horiz-adv-x="1466" 
d="M1290 8q0 -16 -129 -16q-120 0 -129 16l-459 862q-67 123 -211 414h-2q15 -208 15 -420v-856q0 -16 -99 -16q-100 0 -100 16v1485q0 16 133 16q137 0 144 -16l424 -803q79 -146 225 -440h4q-12 202 -12 430v813q0 16 100 16q96 0 96 -16v-1485zM1006 1935l-213 -282
q-12 -15 -76 -15q-65 0 -64 15l2 6l176 291q6 10 23 13t68 3q88 0 89 -20q0 -5 -5 -11z" />
    <glyph glyph-name="nacute" unicode="&#x144;" 
d="M1034 8q0 -16 -98 -16t-98 16v731q0 217 -174 217q-84 0 -169 -61t-139 -145v-742q0 -16 -98 -16t-98 16v1094q0 16 98 16q92 0 92 -16v-156q20 27 50.5 56t78 62t113 54t135.5 21q141 -1 224 -95.5t83 -246.5v-789zM874 1526l-212 -283q-11 -14 -76 -14q-64 0 -63 13
q0 3 3 7l174 291q7 10 24 13t67 3q88 0 88 -19q0 -5 -5 -11z" />
    <glyph glyph-name="Ncommaaccent" unicode="&#x145;" horiz-adv-x="1466" 
d="M1290 8q0 -16 -129 -16q-120 0 -129 16l-459 862q-67 123 -211 414h-2q15 -208 15 -420v-856q0 -16 -99 -16q-100 0 -100 16v1485q0 16 133 16q137 0 144 -16l424 -803q79 -146 225 -440h4q-12 202 -12 430v813q0 16 100 16q96 0 96 -16v-1485zM553 -563q-42 42 -23 61
q78 75 97.5 148t19.5 266q0 16 94 16q99 0 99 -16q0 -350 -232 -502q-21 -9 -55 27z" />
    <glyph glyph-name="ncommaaccent" unicode="&#x146;" 
d="M1034 8q0 -16 -98 -16t-98 16v731q0 217 -174 217q-84 0 -169 -61t-139 -145v-742q0 -16 -98 -16t-98 16v1094q0 16 98 16q92 0 92 -16v-156q20 27 50.5 56t78 62t113 54t135.5 21q141 -1 224 -95.5t83 -246.5v-789zM414 -563q-42 42 -23 61q78 75 97.5 148t19.5 266
q0 16 94 16q98 0 98 -16q0 -352 -229 -502q-21 -9 -57 27z" />
    <glyph glyph-name="Ncaron" unicode="&#x147;" horiz-adv-x="1466" 
d="M1290 8q0 -16 -129 -16q-120 0 -129 16l-459 862q-67 123 -211 414h-2q15 -208 15 -420v-856q0 -16 -99 -16q-100 0 -100 16v1485q0 16 133 16q137 0 144 -16l424 -803q79 -146 225 -440h4q-12 202 -12 430v813q0 16 100 16q96 0 96 -16v-1485zM551 1972q63 0 74 -16
l106 -184l111 184q11 16 71 16q19 0 29 -0.5t23.5 -1.5t18.5 -4.5t1 -9.5l-168 -262q-14 -19 -84 -19t-84 19l-168 262q-4 6 0 9.5t17.5 4.5t23.5 1.5t29 0.5z" />
    <glyph glyph-name="ncaron" unicode="&#x148;" 
d="M1034 8q0 -16 -98 -16t-98 16v731q0 217 -174 217q-84 0 -169 -61t-139 -145v-742q0 -16 -98 -16t-98 16v1094q0 16 98 16q92 0 92 -16v-156q20 27 50.5 56t78 62t113 54t135.5 21q141 -1 224 -95.5t83 -246.5v-789zM430 1563q62 0 74 -17l106 -184l111 184q11 17 72 17
q17 0 28.5 -0.5t24 -2t17.5 -5t1 -9.5l-168 -262q-14 -18 -84 -18t-84 18l-168 262q-4 6 0.5 9.5t17 5t24 2t28.5 0.5z" />
    <glyph glyph-name="Eng" unicode="&#x14a;" horiz-adv-x="1466" 
d="M1065 -414h-182q-17 0 -17 84q0 82 17 82h106q105 0 105 105v137q-58 3 -62 14q-51 97 -209 390.5t-262.5 493.5t-198.5 392h-2q15 -264 15 -526v-750q0 -16 -99 -16q-100 0 -100 16v1485q0 16 133 16q137 0 144 -16q133 -250 399 -754q226 -441 250 -489h4
q-12 285 -12 588v655q0 16 100 16q96 0 96 -16v-1612q0 -146 -50.5 -220.5t-174.5 -74.5z" />
    <glyph glyph-name="eng" unicode="&#x14b;" 
d="M809 -414h-182q-17 0 -17 84q0 82 17 82h108q103 0 103 105v882q0 217 -174 217q-84 0 -169 -61t-139 -145v-742q0 -16 -98 -16t-98 16v1094q0 16 98 16q92 0 92 -16v-156q20 27 50.5 56t78 62t113 54t135.5 21q141 -1 224 -95.5t83 -246.5v-934q0 -135 -52.5 -206
t-172.5 -71z" />
    <glyph glyph-name="Omacron" unicode="&#x14c;" horiz-adv-x="1409" 
d="M1257 420v-2q0 -218 -143 -333.5t-409 -115.5q-268 0 -409.5 114.5t-141.5 334.5v659q0 221 141.5 337t409.5 116q267 0 409.5 -116.5t142.5 -336.5v-657zM1053 428v641q0 291 -348 291q-349 0 -349 -291v-641q0 -289 349 -289q348 0 348 289zM459 1749q-17 0 -17 78
q0 76 17 76h489q6 0 10 -5.5t5.5 -20.5t1.5 -22v-28q0 -78 -17 -78h-489z" />
    <glyph glyph-name="omacron" unicode="&#x14d;" horiz-adv-x="1177" 
d="M588 -31q-221 0 -343 107.5t-122 310.5v334q0 202 124.5 310t340.5 108q217 0 342 -108t125 -310v-334q0 -200 -128 -309t-339 -109zM858 711q0 258 -270 258q-136 0 -202.5 -62t-66.5 -196v-314q0 -134 66.5 -196t202.5 -62q270 0 270 258v314zM344 1339q-16 0 -16 78
q0 76 16 76h490q16 0 16 -66v-10q0 -78 -16 -78h-490z" />
    <glyph glyph-name="Ohungarumlaut" unicode="&#x150;" horiz-adv-x="1409" 
d="M1257 420v-2q0 -218 -143 -333.5t-409 -115.5q-268 0 -409.5 114.5t-141.5 334.5v659q0 221 141.5 337t409.5 116q267 0 409.5 -116.5t142.5 -336.5v-657zM1053 428v641q0 291 -348 291q-349 0 -349 -291v-641q0 -289 349 -289q348 0 348 289zM1141 1935l-213 -282
q-12 -15 -74 -15q-64 0 -64 14q0 4 3 9l174 289q7 11 22 13.5t70 2.5q87 0 88 -18q0 -6 -6 -13zM815 1935l-213 -282q-12 -15 -76 -15q-63 0 -62 15l3 8l174 289q7 11 22 13.5t68 2.5q89 0 89 -19q0 -5 -5 -12z" />
    <glyph glyph-name="ohungarumlaut" unicode="&#x151;" horiz-adv-x="1177" 
d="M588 -31q-221 0 -343 107.5t-122 310.5v334q0 202 124.5 310t340.5 108q217 0 342 -108t125 -310v-334q0 -200 -128 -309t-339 -109zM858 711q0 258 -270 258q-136 0 -202.5 -62t-66.5 -196v-314q0 -134 66.5 -196t202.5 -62q270 0 270 258v314zM1026 1526l-213 -283
q-11 -14 -76 -14q-63 0 -62 14q0 3 3 8l174 289q7 11 22 13.5t68 2.5q89 0 89 -18q-1 -6 -5 -12zM700 1526l-215 -283q-11 -14 -73 -14q-64 0 -64 14q0 4 2 8l176 289q6 11 21 13.5t69 2.5q88 0 89 -18q-1 -6 -5 -12z" />
    <glyph glyph-name="OE" unicode="&#x152;" horiz-adv-x="2023" 
d="M1069 88q-130 -113 -354 -113q-120 0 -217.5 23.5t-174 72t-119 131t-42.5 193.5v707q0 89 28 161t78 120.5t120 81t151.5 47t175.5 14.5q73 0 139.5 -14t109.5 -34.5t68 -36.5t37 -28v88h807q16 0 16 -84q0 -86 -16 -86h-602v-465h500q16 0 16 -82q0 -86 -16 -86h-500
v-528h633q16 0 16 -84q0 -86 -16 -86q-139 0 -419 -1t-419 -1v90zM1067 395v707q0 57 -20 102t-52.5 73t-79 46t-95.5 25.5t-105 7.5q-52 0 -97 -5.5t-93 -22.5t-82 -44t-56 -74t-22 -108v-707q0 -250 350 -250q72 0 131 11.5t111 38.5t81 77.5t29 122.5z" />
    <glyph glyph-name="oe" unicode="&#x153;" horiz-adv-x="1882" 
d="M596 -31q-221 0 -343 107.5t-122 310.5v334q0 202 124.5 310t340.5 108q256 0 375 -150q57 71 145.5 109.5t196.5 38.5q215 0 330.5 -119t115.5 -334v-213h-694v-84q0 -121 68.5 -187.5t199.5 -66.5q167 0 336 90q9 4 31 -30t37 -71.5t6 -43.5q-188 -107 -420 -107
q-237 0 -354 146q-123 -148 -373 -148zM866 719q-3 250 -270 250q-136 0 -202 -61.5t-66 -196.5v-314q0 -135 66 -196.5t202 -61.5q267 0 270 250v330zM1569 618v91q0 128 -70 198t-184 70q-111 0 -180 -68t-72 -190v-101h506z" />
    <glyph glyph-name="Racute" unicode="&#x154;" horiz-adv-x="1249" 
d="M860 594l289 -586q3 -6 -5.5 -9.5t-30 -4.5t-37 -1.5t-44.5 -0.5q-106 0 -114 16l-261 553h-274v-553q0 -16 -102 -16q-103 0 -103 16v1493h486q224 0 334 -110.5t110 -309.5v-98q0 -147 -57.5 -244t-190.5 -145zM905 993v78q0 134 -62 197t-212 63h-248v-602h248
q150 0 212 64t62 200zM864 1935l-213 -282q-12 -15 -73 -15q-64 0 -64 14q0 3 2 7l176 291q6 10 22.5 13t67.5 3q88 0 88 -20q-1 -5 -6 -11z" />
    <glyph glyph-name="racute" unicode="&#x155;" horiz-adv-x="753" 
d="M705 913h-87q-66 0 -126 -56t-142 -179v-670q0 -16 -100 -16q-96 0 -96 16v1094q0 16 94 16t94 -16v-240q95 149 155.5 201.5t149.5 52.5h60q16 0 16 -102q0 -101 -18 -101zM702 1526l-215 -283q-11 -14 -73 -14q-64 0 -64 13q0 3 2 7l176 291q6 10 22.5 13t67.5 3
q88 0 89 -19q0 -5 -5 -11z" />
    <glyph glyph-name="Rcommaaccent" unicode="&#x156;" horiz-adv-x="1249" 
d="M860 594l289 -586q3 -6 -5.5 -9.5t-30 -4.5t-37 -1.5t-44.5 -0.5q-106 0 -114 16l-261 553h-274v-553q0 -16 -102 -16q-103 0 -103 16v1493h486q224 0 334 -110.5t110 -309.5v-98q0 -147 -57.5 -244t-190.5 -145zM905 993v78q0 134 -62 197t-212 63h-248v-602h248
q150 0 212 64t62 200zM451 -584q-20 18 -26 35.5t3 26.5q78 75 97.5 147.5t19.5 265.5q0 17 94 17q98 0 98 -17q0 -349 -231 -501q-22 -9 -55 26z" />
    <glyph glyph-name="rcommaaccent" unicode="&#x157;" horiz-adv-x="753" 
d="M705 913h-87q-66 0 -126 -56t-142 -179v-670q0 -16 -100 -16q-96 0 -96 16v1094q0 16 94 16t94 -16v-240q95 149 155.5 201.5t149.5 52.5h60q16 0 16 -102q0 -101 -18 -101zM61 -584q-20 18 -25.5 35.5t3.5 26.5q78 75 97.5 147.5t19.5 265.5q0 17 94 17q98 0 98 -17
q0 -349 -231 -501q-23 -10 -56 26z" />
    <glyph glyph-name="Rcaron" unicode="&#x158;" horiz-adv-x="1249" 
d="M860 594l289 -586q3 -6 -5.5 -9.5t-30 -4.5t-37 -1.5t-44.5 -0.5q-106 0 -114 16l-261 553h-274v-553q0 -16 -102 -16q-103 0 -103 16v1493h486q224 0 334 -110.5t110 -309.5v-98q0 -147 -57.5 -244t-190.5 -145zM905 993v78q0 134 -62 197t-212 63h-248v-602h248
q150 0 212 64t62 200zM432 1972q61 0 72 -16l108 -184l109 184q13 16 74 16q19 0 29 -0.5t23.5 -1.5t18 -4.5t0.5 -9.5l-170 -262q-12 -19 -82 -19q-72 0 -84 19l-170 262q-4 6 1 9.5t18.5 4.5t23.5 1.5t29 0.5z" />
    <glyph glyph-name="rcaron" unicode="&#x159;" horiz-adv-x="753" 
d="M705 913h-87q-66 0 -126 -56t-142 -179v-670q0 -16 -100 -16q-96 0 -96 16v1094q0 16 94 16t94 -16v-240q95 149 155.5 201.5t149.5 52.5h60q16 0 16 -102q0 -101 -18 -101zM268 1563q62 0 74 -17l107 -184l110 184q11 17 74 17q16 0 27.5 -0.5t23.5 -2t17 -5t1 -9.5
l-167 -262q-13 -18 -84 -18t-84 18l-168 262q-4 6 0 9.5t16.5 5t24 2t28.5 0.5z" />
    <glyph glyph-name="Sacute" unicode="&#x15a;" horiz-adv-x="1138" 
d="M1047 416q0 -199 -141 -322t-361 -123q-134 0 -258.5 44t-216.5 106q-9 7 9 51.5t44 84t35 32.5q72 -50 180.5 -94.5t202.5 -44.5q135 0 215 66.5t80 184.5q0 25 -5 48t-12 41.5t-22.5 37t-27 31.5t-36 30t-39.5 26.5t-46.5 25.5t-47.5 23.5t-53.5 25t-54.5 25.5
q-50 24 -80 39.5t-74.5 42t-71.5 49t-58 55.5t-48.5 67.5t-29 79t-11.5 95.5q0 165 119 274t337 109q209 0 410 -103q6 -4 4 -22t-11 -44t-20 -49.5t-22 -38.5t-18 -12q-72 38 -164.5 65.5t-180.5 27.5q-122 0 -186.5 -55t-64.5 -148q0 -29 9.5 -55t21.5 -45.5t37.5 -40.5
t43 -33.5t54.5 -31.5t55 -27t59 -26q17 -7 25 -11q80 -35 138 -66t114.5 -73t91 -87t55.5 -105t21 -130zM860 1935l-213 -282q-12 -15 -74 -15q-64 0 -64 13q0 4 3 8l174 291q7 10 23.5 13t68.5 3q88 0 88 -20q-1 -5 -6 -11z" />
    <glyph glyph-name="sacute" unicode="&#x15b;" horiz-adv-x="931" 
d="M457 -29q-106 0 -209 32.5t-164 70.5q-9 6 6 46t38 75.5t32 29.5q61 -36 142 -64t147 -28q97 0 149.5 48t52.5 118q0 51 -30 90t-77.5 65.5t-105 50.5t-115 52.5t-105 64t-77.5 92.5t-30 130q0 124 93.5 208.5t274.5 84.5q87 0 174.5 -20t143.5 -46q15 -7 -11 -82.5
t-41 -70.5q-143 57 -270 57q-85 0 -130.5 -37t-45.5 -90q0 -40 30 -71.5t78 -55t106.5 -47t116.5 -54.5t106 -70t78 -101.5t30 -141.5q0 -141 -104 -238.5t-283 -97.5zM750 1526l-213 -283q-11 -14 -76 -14q-64 0 -63 13q0 3 3 7l174 291q7 10 24 13t69 3q87 0 88 -18
q0 -5 -6 -12z" />
    <glyph glyph-name="Scedilla" unicode="&#x15e;" horiz-adv-x="1138" 
d="M557 -416q-81 0 -188 60q-6 4 1 29.5t21 47t25 15.5q83 -49 141 -49q88 0 88 61v25q0 37 -39 52t-123 9v139q-117 11 -225 52.5t-188 95.5q-9 7 9 51.5t44 84t35 32.5q72 -50 180.5 -94.5t202.5 -44.5q135 0 215 66.5t80 184.5q0 25 -5 48t-12 41.5t-22.5 37t-27 31.5
t-36 30t-39.5 26.5t-46.5 25.5t-47.5 23.5t-53.5 25t-54.5 25.5q-50 24 -80 39.5t-74.5 42t-71.5 49t-58 55.5t-48.5 67.5t-29 79t-11.5 95.5q0 165 119 274t337 109q209 0 410 -103q6 -4 4 -22t-11 -44t-20 -49.5t-22 -38.5t-18 -12q-72 38 -164.5 65.5t-180.5 27.5
q-122 0 -186.5 -55t-64.5 -148q0 -29 9.5 -55t21.5 -45.5t37.5 -40.5t43 -33.5t54.5 -31.5t55 -27t59 -26q17 -7 25 -11q80 -35 138 -66t114.5 -73t91 -87t55.5 -105t21 -130q0 -184 -121.5 -303t-315.5 -140v-55q84 -3 127 -42.5t43 -102.5v-41q0 -63 -58 -105.5
t-165 -42.5z" />
    <glyph glyph-name="scedilla" unicode="&#x15f;" horiz-adv-x="931" 
d="M459 -416q-88 0 -187 60q-6 4 0.5 29.5t20 47t24.5 15.5q83 -49 142 -49q90 0 90 61v25q0 73 -164 61v141q-88 11 -171 40t-130 59q-9 6 6 46t38 75.5t32 29.5q61 -36 142 -64t147 -28q97 0 149.5 48t52.5 118q0 51 -30 90t-77.5 65.5t-105 50.5t-115 52.5t-105 64
t-77.5 92.5t-30 130q0 124 93.5 208.5t274.5 84.5q87 0 174.5 -20t143.5 -46q15 -7 -11 -82.5t-41 -70.5q-143 57 -270 57q-85 0 -130.5 -37t-45.5 -90q0 -40 30 -71.5t78 -55t106.5 -47t116.5 -54.5t106 -70t78 -101.5t30 -141.5q0 -131 -88.5 -224t-243.5 -108v-57
q84 -3 127 -42.5t43 -102.5v-41q0 -63 -57.5 -105.5t-165.5 -42.5z" />
    <glyph glyph-name="Scaron" unicode="&#x160;" horiz-adv-x="1132" 
d="M1053 416q0 -199 -141.5 -322t-360.5 -123q-134 0 -258.5 44t-216.5 106q-11 7 6.5 51.5t44 84t37.5 32.5q70 -50 179 -94.5t204 -44.5q135 0 214 66t79 185q0 25 -5 48t-12 41.5t-22.5 37t-27.5 32t-35.5 29.5t-39 26t-46 26t-47.5 24t-53.5 25t-53.5 25q-58 28 -94 47
t-85 49.5t-79 61t-59 71t-42.5 90.5t-13.5 109q0 79 29.5 148t85 121.5t143 83t197.5 30.5q208 0 409 -103q6 -4 4.5 -22t-10.5 -44t-20 -49.5t-22.5 -38.5t-18.5 -12q-174 93 -344 93q-122 0 -187 -55t-65 -148q0 -29 9.5 -55t21.5 -45.5t37.5 -40.5t43 -33.5t54.5 -31.5
t55 -27t59 -26q17 -7 25 -11q101 -44 170.5 -84t130.5 -95t91 -125t30 -157zM381 1972q63 0 74 -16l108 -184l109 184q11 16 73 16q18 0 28 -0.5t23 -1.5t18 -4.5t1 -9.5l-168 -262q-14 -19 -82 -19q-72 0 -86 19l-168 262q-4 6 0 9.5t17.5 4.5t23.5 1.5t29 0.5z" />
    <glyph glyph-name="scaron" unicode="&#x161;" horiz-adv-x="942" 
d="M461 -29q-106 0 -209 32.5t-164 70.5q-8 6 7.5 46t38 75.5t30.5 29.5q61 -36 142 -64t147 -28q97 0 150.5 48.5t53.5 117.5q0 51 -30 90t-77.5 65.5t-105 50.5t-115 52.5t-105 64t-77.5 92.5t-30 130q0 124 93 208.5t275 84.5q86 0 175 -20t141 -46q17 -7 -9.5 -82.5
t-41.5 -70.5q-143 57 -269 57q-85 0 -131.5 -37t-46.5 -90q0 -40 30 -71.5t78 -55t106.5 -47t116.5 -54.5t106 -70t78 -101.5t30 -141.5q0 -142 -103.5 -239t-283.5 -97zM289 1563q61 0 73 -17l109 -184l109 184q14 17 73 17q17 0 28.5 -0.5t24 -2t17 -5t0.5 -9.5l-168 -262
q-11 -18 -82 -18q-73 0 -84 18l-170 262q-4 6 0.5 9.5t17.5 5t24 2t28 0.5z" />
    <glyph glyph-name="Tcommaaccent" unicode="&#x162;" horiz-adv-x="1091" 
d="M1081 1417q0 -86 -16 -86h-414v-1323q0 -16 -102 -16q-103 0 -103 16v1323h-419q-17 0 -17 86q0 84 17 84h1038q16 0 16 -84zM356 -582q-20 18 -26 35.5t4 24.5q76 75 95.5 148t19.5 265q0 19 96 19q98 0 98 -19q0 -351 -231 -499q-21 -12 -56 26z" />
    <glyph glyph-name="tcommaaccent" unicode="&#x163;" horiz-adv-x="749" 
d="M621 0h-140q-134 0 -200 69t-66 193v658h-152q-18 0 -18 79q0 80 18 80h152v264q0 17 98 17q93 0 93 -17v-264h229q16 0 16 -80q0 -79 -16 -79h-229v-648q0 -57 25.5 -81.5t86.5 -24.5h103q21 0 26.5 -13t5.5 -69t-5.5 -70t-26.5 -14zM240 -590q-20 18 -26 35.5t3 26.5
q78 75 97.5 147.5t19.5 265.5q0 17 94 17q98 0 98 -17q0 -349 -231 -501q-22 -9 -55 26z" />
    <glyph glyph-name="Tcaron" unicode="&#x164;" horiz-adv-x="1091" 
d="M1081 1417q0 -86 -16 -86h-414v-1323q0 -16 -102 -16q-103 0 -103 16v1323h-419q-17 0 -17 86q0 84 17 84h1038q16 0 16 -84zM367 1972q60 0 71 -16l109 -184l108 184q13 16 74 16q19 0 29 -0.5t23.5 -1.5t17.5 -4.5t0 -9.5l-168 -262q-12 -19 -82 -19q-72 0 -84 19
l-170 262q-4 6 1 9.5t18.5 4.5t23.5 1.5t29 0.5z" />
    <glyph glyph-name="tcaron" unicode="&#x165;" horiz-adv-x="1054" 
d="M621 0h-140q-134 0 -200 69t-66 193v658h-152q-18 0 -18 79q0 80 18 80h152v264q0 17 98 17q93 0 93 -17v-264h229q16 0 16 -80q0 -79 -16 -79h-229v-648q0 -57 25.5 -81.5t86.5 -24.5h103q21 0 26.5 -13t5.5 -69t-5.5 -70t-26.5 -14zM743 1044q-19 19 -25 36t3 24
q78 76 97.5 149.5t19.5 266.5q0 16 94 16q98 0 98 -16q0 -350 -231 -502q-23 -10 -56 26z" />
    <glyph glyph-name="Tbar" unicode="&#x166;" horiz-adv-x="1091" 
d="M1081 1417q0 -86 -16 -86h-414v-203h404q16 0 16 -65v-10q0 -78 -16 -78h-404v-967q0 -16 -102 -16q-103 0 -103 16v967h-411q-19 0 -19 78q0 75 19 75h411v203h-419q-17 0 -17 86q0 84 17 84h1038q16 0 16 -84z" />
    <glyph glyph-name="tbar" unicode="&#x167;" horiz-adv-x="749" 
d="M96 645q-16 0 -16 74t16 74h119v127h-152q-18 0 -18 79q0 80 18 80h152v264q0 17 98 17q93 0 93 -17v-264h229q16 0 16 -80q0 -79 -16 -79h-229v-127h180q6 0 9.5 -4.5t5 -16.5t1.5 -19v-24v-10q0 -74 -16 -74h-180v-373q0 -57 25.5 -81.5t86.5 -24.5h103q21 0 26.5 -13
t5.5 -69t-5.5 -70t-26.5 -14h-140q-134 0 -200 69t-66 193v383h-119z" />
    <glyph glyph-name="Utilde" unicode="&#x168;" horiz-adv-x="1366" 
d="M1202 410q0 -204 -138.5 -321.5t-383.5 -117.5q-246 0 -381 119.5t-135 335.5v1067q0 16 102 16q99 0 99 -16v-1085q0 -130 81.5 -198.5t229.5 -68.5q149 0 235 68.5t86 198.5v1085q0 16 103 16q102 0 102 -16v-1083zM993 1833q-35 -62 -86 -100.5t-112 -38.5
q-37 0 -73 14.5t-59 31.5t-49 31.5t-45 14.5q-55 0 -108 -76q-5 -7 -28.5 10.5t-43.5 40t-16 29.5q30 56 82.5 96.5t113.5 40.5q45 0 88 -23t78.5 -46t61.5 -23q55 0 110 82q5 7 28 -11t42.5 -41.5t15.5 -31.5z" />
    <glyph glyph-name="utilde" unicode="&#x169;" 
d="M147 1102q0 16 99 16q100 0 100 -16v-744q0 -98 46 -152t128 -54q54 0 109.5 26.5t96 63.5t67 68t34.5 48v744q0 16 99 16q98 0 98 -16v-1094q0 -16 -98 -16q-95 0 -95 16v154q-18 -27 -49 -56t-77.5 -62t-112 -54t-135.5 -21q-143 1 -226.5 95t-83.5 247v791zM901 1423
q-35 -62 -86.5 -100.5t-112.5 -38.5q-47 0 -90.5 23t-77.5 46t-57 23q-57 0 -106 -76q-6 -7 -30 10.5t-44 40t-16 29.5q30 56 82.5 97t113.5 41q36 0 71 -14.5t58 -32t50 -32t49 -14.5q55 0 110 82q5 7 28 -11t42.5 -41.5t15.5 -31.5z" />
    <glyph glyph-name="Umacron" unicode="&#x16a;" horiz-adv-x="1366" 
d="M1202 410q0 -204 -138.5 -321.5t-383.5 -117.5q-246 0 -381 119.5t-135 335.5v1067q0 16 102 16q99 0 99 -16v-1085q0 -130 81.5 -198.5t229.5 -68.5q149 0 235 68.5t86 198.5v1085q0 16 103 16q102 0 102 -16v-1083zM436 1749q-16 0 -16 78q0 76 16 76h490q16 0 16 -66
v-10q0 -78 -16 -78h-490z" />
    <glyph glyph-name="umacron" unicode="&#x16b;" 
d="M147 1102q0 16 99 16q100 0 100 -16v-744q0 -98 46 -152t128 -54q54 0 109.5 26.5t96 63.5t67 68t34.5 48v744q0 16 99 16q98 0 98 -16v-1094q0 -16 -98 -16q-95 0 -95 16v154q-18 -27 -49 -56t-77.5 -62t-112 -54t-135.5 -21q-143 1 -226.5 95t-83.5 247v791zM346 1339
q-16 0 -16 78q0 76 16 76h490q16 0 16 -66v-10q0 -78 -16 -78h-490z" />
    <glyph glyph-name="Uring" unicode="&#x16e;" horiz-adv-x="1366" 
d="M1202 410q0 -204 -138.5 -321.5t-383.5 -117.5q-246 0 -381 119.5t-135 335.5v1067q0 16 102 16q99 0 99 -16v-1085q0 -130 81.5 -198.5t229.5 -68.5q149 0 235 68.5t86 198.5v1085q0 16 103 16q102 0 102 -16v-1083zM846 1827q0 -71 -50 -120.5t-120 -49.5t-120 49.5
t-50 120.5t50 120.5t120 49.5t120 -49.5t50 -120.5zM764 1827q0 37 -25.5 62.5t-62.5 25.5q-35 0 -60.5 -25.5t-25.5 -62.5q0 -35 25.5 -60.5t60.5 -25.5q37 0 62.5 25.5t25.5 60.5z" />
    <glyph glyph-name="uring" unicode="&#x16f;" 
d="M147 1102q0 16 99 16q100 0 100 -16v-744q0 -98 46 -152t128 -54q54 0 109.5 26.5t96 63.5t67 68t34.5 48v744q0 16 99 16q98 0 98 -16v-1094q0 -16 -98 -16q-95 0 -95 16v154q-18 -27 -49 -56t-77.5 -62t-112 -54t-135.5 -21q-143 1 -226.5 95t-83.5 247v791zM762 1417
q0 -70 -50.5 -120t-121.5 -50q-69 0 -118.5 50t-49.5 120t49.5 120t118.5 50q71 0 121.5 -50t50.5 -120zM678 1417q0 37 -25.5 62.5t-62.5 25.5q-35 0 -60.5 -25.5t-25.5 -62.5q0 -35 25.5 -60.5t60.5 -25.5q37 0 62.5 25.5t25.5 60.5z" />
    <glyph glyph-name="Uhungarumlaut" unicode="&#x170;" horiz-adv-x="1366" 
d="M1202 410q0 -204 -138.5 -321.5t-383.5 -117.5q-246 0 -381 119.5t-135 335.5v1067q0 16 102 16q99 0 99 -16v-1085q0 -130 81.5 -198.5t229.5 -68.5q149 0 235 68.5t86 198.5v1085q0 16 103 16q102 0 102 -16v-1083zM1108 1935l-213 -282q-12 -15 -74 -15q-64 0 -63 15
l2 8l176 289q6 11 21 13.5t69 2.5q87 0 88 -18q0 -6 -6 -13zM782 1935l-213 -282q-12 -15 -73 -15q-65 0 -65 15q0 3 3 8l174 289q7 11 22.5 13.5t69.5 2.5q87 0 88 -18q0 -6 -6 -13z" />
    <glyph glyph-name="uhungarumlaut" unicode="&#x171;" 
d="M147 1102q0 16 99 16q100 0 100 -16v-744q0 -98 46 -152t128 -54q54 0 109.5 26.5t96 63.5t67 68t34.5 48v744q0 16 99 16q98 0 98 -16v-1094q0 -16 -98 -16q-95 0 -95 16v154q-18 -27 -49 -56t-77.5 -62t-112 -54t-135.5 -21q-143 1 -226.5 95t-83.5 247v791zM1001 1528
l-213 -283q-11 -14 -73 -14q-65 0 -65 14l3 8l174 289q7 12 23.5 14.5t69.5 2.5q86 0 87 -18q0 -6 -6 -13zM676 1528l-213 -283q-11 -14 -76 -14q-64 0 -63 14q0 4 2 8l176 289q6 12 22 14.5t68 2.5q88 0 89 -19q0 -5 -5 -12z" />
    <glyph glyph-name="Uogonek" unicode="&#x172;" horiz-adv-x="1366" 
d="M1202 410q0 -150 -76.5 -256t-218.5 -150q-38 -24 -56 -36t-57 -42t-59 -52.5t-37.5 -54t-17.5 -61.5q0 -42 28 -62t68 -20q28 0 60 15t45 28q9 6 26.5 -11.5t27.5 -41t1 -31.5q-24 -24 -77 -46.5t-118 -22.5q-33 0 -66.5 9t-67.5 28t-55.5 56.5t-21.5 88.5q0 24 6.5 47
t12.5 38.5t24 36t25 28.5t32.5 28t29.5 22.5t32 22.5q-52 0 -98 9q-211 18 -320.5 135t-109.5 311v59v1008q0 16 102 16q99 0 99 -16v-1085q0 -130 81.5 -198.5t229.5 -68.5q149 0 235 68.5t86 198.5v1085q0 16 103 16q102 0 102 -16v-1083z" />
    <glyph glyph-name="uogonek" unicode="&#x173;" 
d="M147 1102q0 16 99 16q100 0 100 -16v-744q0 -98 46 -152t128 -54q54 0 109.5 26.5t96 63.5t67 68t34.5 48v744q0 16 99 16q98 0 98 -16v-1094q0 -7 -37 -14q-79 -51 -125 -94q-86 -77 -86 -142q0 -42 28 -62t68 -20q28 0 61 15t44 28q14 9 43 -31t14 -53
q-27 -24 -78.5 -46.5t-117.5 -22.5q-25 0 -51.5 5t-55.5 18t-51.5 33t-37.5 52.5t-15 73.5q0 39 13.5 73t39.5 61.5t48.5 45.5t57 41.5t48.5 34.5q-3 0 -3 4v154q-18 -27 -49 -56t-77.5 -62t-112 -54t-135.5 -21q-143 1 -226.5 95t-83.5 247v791z" />
    <glyph glyph-name="Ydieresis" unicode="&#x178;" horiz-adv-x="1181" 
d="M1155 1491l-465 -877v-604q0 -18 -100 -18q-103 0 -103 18v604l-462 879q-3 5 5 8.5t26 5t36 2t43 0.5q104 0 113 -16l344 -692l346 692q9 16 115 16q25 0 42 -0.5t33.5 -2.5t23.5 -5.5t3 -9.5zM406 1681q-31 0 -60 6t-29 17v203q0 20 89 20q88 0 88 -20v-203
q0 -11 -28 -17t-60 -6zM784 1681q-33 0 -61.5 6t-28.5 17v203q0 20 90 20q86 0 86 -20v-203q0 -11 -27.5 -17t-58.5 -6z" />
    <glyph glyph-name="Zacute" unicode="&#x179;" horiz-adv-x="1142" 
d="M1077 84q0 -84 -16 -84h-995v111l739 1216h-707q-16 0 -16 90q0 84 16 84h957v-115l-729 -1212h735q16 0 16 -90zM834 1935l-213 -282q-12 -15 -74 -15q-65 0 -65 13l3 8l174 291q7 10 24 13t69 3q88 0 88 -20q-1 -5 -6 -11z" />
    <glyph glyph-name="zacute" unicode="&#x17a;" horiz-adv-x="944" 
d="M70 90l530 854h-498q-16 0 -16 82t16 82h760v-90l-530 -856h545q16 0 16 -80q0 -82 -16 -82h-807v90zM743 1526l-213 -283q-11 -14 -73 -14q-64 0 -64 13q0 3 2 7l174 291q7 10 24 13t69 3q86 0 87 -18q-1 -6 -6 -12z" />
    <glyph glyph-name="Zdotaccent" unicode="&#x17b;" horiz-adv-x="1142" 
d="M1077 84q0 -84 -16 -84h-995v111l739 1216h-707q-16 0 -16 90q0 84 16 84h957v-115l-729 -1212h735q16 0 16 -90zM571 1700q-44 0 -83 7t-39 22v184q0 26 122 26q123 0 123 -28v-182q0 -15 -39 -22t-84 -7z" />
    <glyph glyph-name="zdotaccent" unicode="&#x17c;" horiz-adv-x="944" 
d="M70 90l530 854h-498q-16 0 -16 82t16 82h760v-90l-530 -856h545q16 0 16 -80q0 -82 -16 -82h-807v90zM471 1290q-44 0 -83.5 7t-39.5 22v184q0 27 125 27q45 0 84 -7t39 -22v-182q0 -15 -40 -22t-85 -7z" />
    <glyph glyph-name="Zcaron" unicode="&#x17d;" horiz-adv-x="1142" 
d="M1077 84q0 -84 -16 -84h-995v111l739 1216h-707q-16 0 -16 90q0 84 16 84h957v-115l-729 -1212h735q16 0 16 -90zM393 1972q63 0 74 -16l108 -184l109 184q13 16 74 16q19 0 29 -0.5t23 -1.5t17 -4.5t0 -9.5l-168 -262q-12 -19 -81 -19q-72 0 -84 19l-170 262q-4 6 0 9.5
t17.5 4.5t23.5 1.5t28 0.5z" />
    <glyph glyph-name="zcaron" unicode="&#x17e;" horiz-adv-x="964" 
d="M74 90l532 854h-497q-17 0 -17 82t17 82h759v-90l-530 -856h545q16 0 16 -80q0 -82 -16 -82h-809v90zM301 1563q62 0 74 -17l106 -184l111 184q11 17 72 17q17 0 28.5 -0.5t24 -2t17.5 -5t1 -9.5l-168 -262q-13 -18 -84 -18t-84 18l-170 262q-4 6 1 9.5t18 5t24.5 2
t28.5 0.5z" />
    <glyph glyph-name="florin" unicode="&#x192;" horiz-adv-x="700" 
d="M418 -4q0 -134 -69.5 -206.5t-196.5 -72.5h-152q-7 0 -10 4.5t-4.5 22t-1.5 55.5t1.5 55t4.5 21t10 4h111q111 0 108 111v942h-141q-17 0 -17 82q0 78 17 78h141v151q0 136 70 209.5t198 73.5h152q6 0 9 -4.5t5 -23t2 -54.5t-2 -54t-5 -22t-9 -4h-113q-59 0 -84.5 -32
t-25.5 -99v-141h190q19 0 19 -78q0 -82 -19 -82h-188v-936z" />
    <glyph glyph-name="Scommaaccent" unicode="&#x218;" horiz-adv-x="1138" 
d="M1047 416q0 -199 -141 -322t-361 -123q-134 0 -258.5 44t-216.5 106q-9 7 9 51.5t44 84t35 32.5q72 -50 180.5 -94.5t202.5 -44.5q135 0 215 66.5t80 184.5q0 25 -5 48t-12 41.5t-22.5 37t-27 31.5t-36 30t-39.5 26.5t-46.5 25.5t-47.5 23.5t-53.5 25t-54.5 25.5
q-50 24 -80 39.5t-74.5 42t-71.5 49t-58 55.5t-48.5 67.5t-29 79t-11.5 95.5q0 165 119 274t337 109q209 0 410 -103q6 -4 4 -22t-11 -44t-20 -49.5t-22 -38.5t-18 -12q-72 38 -164.5 65.5t-180.5 27.5q-122 0 -186.5 -55t-64.5 -148q0 -29 9.5 -55t21.5 -45.5t37.5 -40.5
t43 -33.5t54.5 -31.5t55 -27t59 -26q17 -7 25 -11q80 -35 138 -66t114.5 -73t91 -87t55.5 -105t21 -130zM348 -584q-42 42 -22 62q77 74 96.5 147t19.5 266q0 17 95 17q98 0 98 -17q0 -349 -232 -501q-22 -9 -55 26z" />
    <glyph glyph-name="scommaaccent" unicode="&#x219;" horiz-adv-x="931" 
d="M457 -29q-106 0 -209 32.5t-164 70.5q-9 6 6 46t38 75.5t32 29.5q61 -36 142 -64t147 -28q97 0 149.5 48t52.5 118q0 51 -30 90t-77.5 65.5t-105 50.5t-115 52.5t-105 64t-77.5 92.5t-30 130q0 124 93.5 208.5t274.5 84.5q87 0 174.5 -20t143.5 -46q15 -7 -11 -82.5
t-41 -70.5q-143 57 -270 57q-85 0 -130.5 -37t-45.5 -90q0 -40 30 -71.5t78 -55t106.5 -47t116.5 -54.5t106 -70t78 -101.5t30 -141.5q0 -141 -104 -238.5t-283 -97.5zM276 -588q-20 18 -25.5 35.5t3.5 26.5q78 75 97.5 147.5t19.5 265.5q0 17 94 17q98 0 98 -17
q0 -351 -231 -499q-22 -13 -56 24z" />
    <glyph glyph-name="uni021A" unicode="&#x21a;" horiz-adv-x="1091" 
d="M1081 1417q0 -86 -16 -86h-414v-1323q0 -16 -102 -16q-103 0 -103 16v1323h-419q-17 0 -17 86q0 84 17 84h1038q16 0 16 -84zM356 -582q-20 18 -26 35.5t4 24.5q76 75 95.5 148t19.5 265q0 19 96 19q98 0 98 -19q0 -351 -231 -499q-21 -12 -56 26z" />
    <glyph glyph-name="uni021B" unicode="&#x21b;" horiz-adv-x="749" 
d="M621 0h-140q-134 0 -200 69t-66 193v658h-152q-18 0 -18 79q0 80 18 80h152v264q0 17 98 17q93 0 93 -17v-264h229q16 0 16 -80q0 -79 -16 -79h-229v-648q0 -57 25.5 -81.5t86.5 -24.5h103q21 0 26.5 -13t5.5 -69t-5.5 -70t-26.5 -14zM240 -590q-20 18 -26 35.5t3 26.5
q78 75 97.5 147.5t19.5 265.5q0 17 94 17q98 0 98 -17q0 -349 -231 -501q-22 -9 -55 26z" />
    <glyph glyph-name="circumflex" unicode="&#x2c6;" horiz-adv-x="997" 
d="M768 1260q-61 0 -72 16l-106 186l-107 -184q-11 -16 -73 -16q-19 0 -29 0.5t-23.5 1.5t-17.5 4.5t0 9.5l166 260q13 21 82 21q71 0 84 -21l168 -262q4 -6 -1 -9.5t-18.5 -4.5t-23.5 -1.5t-29 -0.5z" />
    <glyph glyph-name="caron" unicode="&#x2c7;" horiz-adv-x="997" 
d="M408 1563q61 0 73 -17l107 -184l110 184q11 17 72 17q17 0 28.5 -0.5t24.5 -2t18 -5t1 -9.5l-168 -262q-14 -18 -84 -18t-84 18l-168 262q-4 6 0.5 9.5t17 5t24 2t28.5 0.5z" />
    <glyph glyph-name="breve" unicode="&#x2d8;" horiz-adv-x="997" 
d="M840 1544q-9 -102 -78.5 -174t-173.5 -72q-102 0 -170.5 72.5t-77.5 173.5q1 12 72 12q47 0 47 -10q6 -59 42.5 -98t88.5 -39t90 39t43 98q0 13 59 13q58 0 58 -15z" />
    <glyph glyph-name="dotaccent" unicode="&#x2d9;" horiz-adv-x="997" 
d="M520 1290q-45 0 -84 7t-39 22v184q0 27 125 27q44 0 83.5 -7t39.5 -22v-182q0 -15 -40 -22t-85 -7z" />
    <glyph glyph-name="ring" unicode="&#x2da;" horiz-adv-x="1173" 
d="M758 1417q0 -70 -50.5 -120t-121.5 -50q-70 0 -120 49.5t-50 120.5t50 120.5t120 49.5q71 0 121.5 -50t50.5 -120zM674 1417q0 37 -25.5 62.5t-62.5 25.5q-35 0 -60.5 -25.5t-25.5 -62.5q0 -35 25.5 -60.5t60.5 -25.5q37 0 62.5 25.5t25.5 60.5z" />
    <glyph glyph-name="ogonek" unicode="&#x2db;" horiz-adv-x="997" 
d="M688 33q-3 -2 -39 -27t-68.5 -49t-52.5 -41q-86 -77 -86 -141q0 -44 28.5 -64t68.5 -20q28 0 60.5 15t45.5 28q9 7 26.5 -10.5t27.5 -40.5t1 -31q-25 -25 -77.5 -48.5t-118.5 -23.5q-25 0 -51.5 5t-55.5 18t-51.5 33t-37.5 53.5t-15 74.5t14.5 76.5t43.5 64.5t53.5 47.5
t63.5 44t54 36.5h166z" />
    <glyph glyph-name="tilde" unicode="&#x2dc;" horiz-adv-x="997" 
d="M819 1423q-35 -62 -86 -100.5t-112 -38.5q-47 0 -90.5 23t-77.5 46t-56 23q-59 0 -108 -76q-6 -7 -30 10.5t-44 40t-16 29.5q30 56 82.5 97t113.5 41q36 0 71 -14.5t58 -32t50 -32t49 -14.5q55 0 110 82q5 7 28 -11t42.5 -41.5t15.5 -31.5z" />
    <glyph glyph-name="hungarumlaut" unicode="&#x2dd;" horiz-adv-x="1193" 
d="M1053 1526l-213 -283q-11 -14 -76 -14q-63 0 -62 14q0 3 3 8l174 289q6 11 21.5 13.5t68.5 2.5q89 0 89 -18q-1 -6 -5 -12zM725 1526l-213 -283q-11 -14 -74 -14q-64 0 -63 14q0 4 2 8l176 289q6 11 21.5 13.5t68.5 2.5q87 0 88 -18q0 -5 -6 -12z" />
    <glyph glyph-name="pi" unicode="&#x3c0;" horiz-adv-x="1583" 
d="M1032 940v-686q0 -41 18 -64.5t66 -23.5h135q17 0 17 -82q0 -84 -17 -84h-211q-115 0 -159.5 57t-44.5 168v715h-283v-932q0 -16 -100 -16q-101 0 -101 16v932h-196q-17 0 -17 84t17 84h1089q17 0 17 -84t-17 -84h-213z" />
    <glyph glyph-name="endash" unicode="&#x2013;" horiz-adv-x="1175" 
d="M172 530q-16 0 -16 78q0 76 16 76h829q17 0 17 -76q0 -78 -17 -78h-829z" />
    <glyph glyph-name="emdash" unicode="&#x2014;" horiz-adv-x="2199" 
d="M172 530q-16 0 -16 78q0 76 16 76h1853q17 0 17 -76q0 -78 -17 -78h-1853z" />
    <glyph glyph-name="afii00208" unicode="&#x2015;" horiz-adv-x="2199" 
d="M172 530q-16 0 -16 78q0 76 16 76h1853q17 0 17 -76q0 -78 -17 -78h-1853z" />
    <glyph glyph-name="quoteleft" unicode="&#x2018;" horiz-adv-x="552" 
d="M430 1513q20 -18 26 -35t-3 -24q-78 -75 -97.5 -148.5t-19.5 -267.5q0 -16 -94 -16q-99 0 -99 16q0 354 232 502q21 9 55 -27z" />
    <glyph glyph-name="quoteright" unicode="&#x2019;" horiz-adv-x="552" 
d="M137 1032q-19 19 -25 36t3 24q54 52 78 101t31 113.5t7 200.5q0 17 95 17q98 0 98 -17q0 -351 -229 -501q-22 -10 -58 26z" />
    <glyph glyph-name="quotesinglbase" unicode="&#x201a;" horiz-adv-x="522" 
d="M84 -256q-45 41 -25 61q78 75 97.5 148t19.5 266q0 17 94 17q99 0 99 -17q0 -351 -230 -502q-21 -9 -55 27z" />
    <glyph glyph-name="quotedblleft" unicode="&#x201c;" horiz-adv-x="929" 
d="M807 1520q20 -18 26 -35.5t-4 -24.5q-76 -75 -95 -147.5t-19 -265.5q0 -19 -97 -19q-98 0 -98 19q0 351 232 499q20 12 55 -26zM430 1520q20 -18 26 -35.5t-3 -24.5q-78 -75 -97.5 -147.5t-19.5 -265.5q0 -19 -94 -19q-99 0 -99 19q0 351 232 499q20 12 55 -26z" />
    <glyph glyph-name="quotedblright" unicode="&#x201d;" horiz-adv-x="927" 
d="M137 1020q-42 42 -22 59q77 74 96.5 147t19.5 267q0 18 95 18q98 0 98 -18q0 -357 -229 -504q-17 -10 -58 31zM516 1020q-20 19 -26 35t4 24q76 74 95 147.5t19 266.5q0 18 94 18q99 0 99 -18q0 -189 -63 -313.5t-167 -190.5q-17 -10 -55 31z" />
    <glyph glyph-name="quotedblbase" unicode="&#x201e;" horiz-adv-x="933" 
d="M137 -256q-41 40 -22 59q77 74 96.5 147t19.5 267q0 16 95 16q98 0 98 -16q0 -353 -229 -500q-21 -12 -58 27zM516 -256q-44 40 -22 59q76 74 95 147.5t19 266.5q0 16 94 16q99 0 99 -16q0 -353 -230 -500q-21 -12 -55 27z" />
    <glyph glyph-name="dagger" unicode="&#x2020;" horiz-adv-x="1105" 
d="M920 1012l-293 22l-17 -643q0 -16 -61 -16q-60 0 -60 16l-16 645l-295 -24q-6 -1 -9.5 6.5t-4.5 23t-1.5 26.5t-0.5 30q0 18 0.5 28.5t2 26t5.5 23t10 6.5l291 -27l-8 334q0 20 88 20q86 0 86 -20l-8 -334l291 27q16 0 16 -84v-10v-28t-1.5 -23.5t-5 -19.5t-9.5 -5z" />
    <glyph glyph-name="daggerdbl" unicode="&#x2021;" horiz-adv-x="1105" 
d="M920 698l-297 27l-9 -344q0 -16 -57 -16t-57 16l-8 344l-302 -27q-16 0 -16 86q0 18 0.5 29t1.5 26t4.5 22.5t9.5 6.5l299 -24l-6 192l-290 -24q-6 -1 -10 6.5t-5.5 25t-1.5 25.5v29q0 15 0.5 27t2 27t5 23t9.5 7l288 -27l-12 336q0 18 88 18t88 -18l-12 -336l287 27
q6 1 9.5 -7t4.5 -23.5t1.5 -26t0.5 -27.5v-18.5t-0.5 -18.5t-1.5 -19.5t-2.5 -15t-4.5 -11t-7 -3.5l-289 24l-6 -192l295 24q4 0 7 -3t4.5 -10.5t2.5 -15t1.5 -19t0.5 -18v-18.5q0 -86 -16 -86z" />
    <glyph glyph-name="bullet" unicode="&#x2022;" horiz-adv-x="942" 
d="M188 653q0 117 83 200t200 83q118 0 200.5 -83t82.5 -200q0 -118 -82 -200t-201 -82q-117 0 -200 82t-83 200z" />
    <glyph glyph-name="ellipsis" unicode="&#x2026;" horiz-adv-x="1435" 
d="M248 -8q-90 0 -90 16v256q0 17 90 17t90 -17v-256q0 -16 -90 -16zM719 -8q-90 0 -90 16v256q0 17 90 17t90 -17v-256q0 -16 -90 -16zM1190 -8q-90 0 -90 16v256q0 17 90 17t90 -17v-256q0 -16 -90 -16z" />
    <glyph glyph-name="perthousand" unicode="&#x2030;" horiz-adv-x="2304" 
d="M393 774q-278 0 -278 217v322q0 113 75.5 167t204.5 54q128 0 204.5 -54t76.5 -167v-322q0 -114 -76 -165.5t-207 -51.5zM1204 -33q-128 0 -202 52.5t-74 166.5v322q0 219 278 219q130 0 205.5 -52.5t75.5 -166.5v-322q0 -114 -76.5 -166.5t-206.5 -52.5zM1915 -33
q-129 0 -204 52.5t-75 166.5v322q0 114 75.5 166.5t205.5 52.5t205.5 -52.5t75.5 -166.5v-322q0 -114 -76.5 -166.5t-206.5 -52.5zM1274 1493l-787 -1485q-7 -14 -98 -14q-90 0 -96 9q-1 2 0 5l786 1485q8 16 99 16h21t22 -0.5t22.5 -1.5t17 -2.5t12 -4.5t1.5 -7zM516 1313
q0 53 -31 71.5t-92 18.5q-59 0 -89 -18.5t-30 -71.5v-322q0 -51 29.5 -68.5t89.5 -17.5q62 0 92.5 17t30.5 69v322zM2036 508q0 52 -30.5 71t-90.5 19q-58 0 -88.5 -19t-30.5 -71v-322q0 -53 29.5 -70.5t89.5 -17.5t90.5 17.5t30.5 70.5v322zM1325 508q0 52 -30.5 71
t-90.5 19q-58 0 -88.5 -19t-30.5 -71v-322q0 -53 29.5 -70.5t89.5 -17.5t90.5 17.5t30.5 70.5v322z" />
    <glyph glyph-name="guilsinglleft" unicode="&#x2039;" horiz-adv-x="741" 
d="M92 651l324 469q7 12 46 -7t72.5 -46t26.5 -37l-266 -379l266 -379q7 -10 -26.5 -37t-72.5 -45.5t-46 -5.5z" />
    <glyph glyph-name="guilsinglright" unicode="&#x203a;" horiz-adv-x="741" 
d="M305 1120l324 -469l-324 -467q-7 -13 -46 5.5t-72.5 45.5t-26.5 37l266 379l-266 379q-7 10 26.5 37t72.5 46t46 7z" />
    <glyph glyph-name="fraction" unicode="&#x2044;" horiz-adv-x="866" 
d="M889 1493l-666 -1485q-6 -16 -98 -16q-22 0 -34.5 0.5t-31 1.5t-26 4.5t-4.5 9.5q110 248 331 742.5t332 742.5q8 16 99 16h22t22.5 -0.5t22.5 -1.5t17 -2.5t12 -4.5t2 -7z" />
    <glyph glyph-name="Euro" unicode="&#x20ac;" horiz-adv-x="1343" 
d="M1202 1442q6 -4 4.5 -22t-10.5 -44t-20 -50t-22.5 -39.5t-18.5 -12.5q-187 84 -326 84q-167 0 -253.5 -62.5t-86.5 -216.5v-108h434q17 0 17 -76q0 -80 -17 -80h-434v-149l434 2q17 0 17 -78q0 -76 -17 -76l-434 -2v-100q0 -150 86 -210.5t252 -60.5q156 0 340 68
q7 3 16 -12.5t17 -39t14 -49t6.5 -43.5t-4.5 -22q-61 -27 -178.5 -49.5t-216.5 -22.5q-122 0 -217.5 24.5t-168.5 76.5t-112 140t-39 208v92h-139q-16 0 -16 76q0 78 16 78h139v149h-139q-16 0 -16 78t16 78h139v110q0 119 39.5 207t113 140t169 77t215.5 25
q103 0 209.5 -24t191.5 -64z" />
    <glyph glyph-name="trademark" unicode="&#x2122;" horiz-adv-x="1304" 
d="M834 909q-36 0 -41 15q-20 66 -62 198t-63 197q0 -4 1 -23.5t1 -29.5v-344q0 -13 -52 -13q-49 0 -49 13v571q0 10 64 10q65 0 67 -10q98 -329 134 -451q26 86 72 244t61 207q3 10 67 10q68 0 68 -10v-571q0 -13 -51 -13q-54 0 -54 13v372v23q-19 -65 -60 -196t-60 -197
q-4 -15 -43 -15zM307 1417v-495q0 -13 -51 -13t-51 13v495h-156q-10 0 -10 41q0 43 10 43h418q10 0 10 -43q0 -41 -10 -41h-160z" />
    <glyph glyph-name="Omega" unicode="&#x2126;" horiz-adv-x="1517" 
d="M913 0v162q74 43 137.5 108.5t63.5 130.5v691q0 73 -31.5 124.5t-86 77.5t-110 36.5t-120.5 10.5q-51 0 -95.5 -6t-92 -22.5t-81.5 -43t-55.5 -72t-21.5 -105.5v-691q0 -67 65 -132.5t142 -106.5v-162h-465q-6 20 -6 84q0 66 6 86h186q-2 4 -27 24.5t-49 43.5t-44.5 66
t-20.5 91v707q0 89 29 161t79.5 120.5t121.5 81t153 47t176 14.5q120 0 219 -24t177.5 -73t122.5 -132.5t44 -194.5v-707q0 -48 -20 -91t-43.5 -66t-48.5 -44t-27 -24h184q6 -20 6 -86q0 -64 -6 -84h-461z" />
    <glyph glyph-name="partialdiff" unicode="&#x2202;" horiz-adv-x="1359" 
d="M1085 434q0 -210 -131.5 -335.5t-347.5 -125.5q-237 0 -362 119.5t-125 315.5v249q0 198 130.5 315.5t350.5 117.5q57 0 104.5 -14.5t78.5 -33t32 -18.5q-1 1 -14.5 31t-39 73.5t-59.5 85.5q-31 35 -72 73t-87.5 78t-65.5 58q-15 14 51 89.5t84 62.5q47 -35 117 -101
t107 -110q99 -114 174.5 -288t74.5 -384v-258zM889 432v205q0 135 -84.5 213t-204.5 78q-116 0 -197 -70.5t-81 -208.5v-229q0 -72 25 -127.5t66 -87t88 -47t97 -15.5q78 0 141.5 28t106.5 95t43 166z" />
    <glyph glyph-name="Delta" unicode="&#x2206;" horiz-adv-x="1517" 
d="M109 0l616 1491q7 18 98 18q94 0 101 -18l622 -1491h-1437zM807 1253l-445 -1089h891z" />
    <glyph glyph-name="product" unicode="&#x220f;" horiz-adv-x="1517" 
d="M1520 729q0 -148 -58 -283.5t-156.5 -233.5t-234 -156t-283.5 -58t-284 58t-234 156t-156.5 233.5t-58.5 283.5t58.5 284t156.5 234t234 156.5t284 58.5t283.5 -58.5t234 -156.5t156.5 -234t58 -284zM1393 731q0 122 -48 233.5t-129 192.5t-193 128.5t-235 47.5
q-122 0 -233.5 -47.5t-191.5 -128.5t-127.5 -192.5t-47.5 -233.5t47.5 -233.5t127.5 -192.5t191.5 -128.5t233.5 -47.5q123 0 235 47.5t193 128.5t129 192.5t48 233.5zM860 602h-147v-254q0 -12 -60 -12h-10h-10h-22t-17 1t-14.5 4t-4.5 7v754h267q258 0 258 -221v-60
q0 -10 -0.5 -20.5t-5.5 -33.5t-13.5 -43t-26.5 -43.5t-42.5 -40t-63.5 -27.5t-88 -11zM967 881q0 59 -31 77.5t-100 18.5h-125v-250h151q55 0 80 21t25 73v60z" />
    <glyph glyph-name="summation" unicode="&#x2211;" horiz-adv-x="1517" 
d="M1145 0h-1026v115l547 661l-527 610v115h977q17 0 17 -84q0 -86 -17 -86h-672l476 -555l-496 -606h721q16 0 16 -84q0 -86 -16 -86z" />
    <glyph glyph-name="minus" unicode="&#x2212;" horiz-adv-x="1517" 
d="M180 543q-16 0 -16 82q0 80 16 80h719q16 0 16 -80q0 -82 -16 -82h-719z" />
    <glyph glyph-name="radical" unicode="&#x221a;" horiz-adv-x="1087" 
d="M1022 1493l-430 -1483q-6 -18 -111 -18q-101 0 -108 18l-275 772q-7 16 85 19h16q98 0 106 -19l178 -540l344 1251q6 16 97 16h23t22 -0.5t22 -1.5t16.5 -2.5t12 -4.5t2.5 -7z" />
    <glyph glyph-name="infinity" unicode="&#x221e;" horiz-adv-x="1830" 
d="M1145 221q-83 0 -172.5 52t-200.5 155q-103 -98 -194 -152.5t-181 -54.5q-132 0 -209 87t-77 216q0 135 84 225.5t211 90.5q88 0 178.5 -52.5t197.5 -154.5q221 207 373 207q131 0 210 -92t79 -224q0 -134 -82 -218.5t-217 -84.5zM1147 688q-28 0 -62.5 -16t-75 -47.5
t-61 -49.5t-55.5 -51q158 -149 260 -149q64 0 101.5 40.5t37.5 108.5q0 72 -39.5 118t-105.5 46zM401 688q-60 0 -98.5 -48t-38.5 -116q0 -71 38.5 -110t105.5 -39q98 0 256 149q-86 83 -148 123.5t-115 40.5z" />
    <glyph glyph-name="integral" unicode="&#x222b;" horiz-adv-x="729" 
d="M256 6v1254q0 121 66.5 181t166.5 60h152q16 0 16 -84q0 -82 -16 -82h-94q-96 0 -96 -92l2 -1182q0 -139 -48.5 -213.5t-173.5 -74.5h-165q-17 0 -17 84t17 84h124q40 0 53 18t13 47z" />
    <glyph glyph-name="approxequal" unicode="&#x2248;" horiz-adv-x="1144" 
d="M930 705q-32 -55 -100.5 -107.5t-143.5 -52.5q-48 0 -93.5 18.5t-73.5 40t-60.5 40t-57.5 18.5q-72 0 -147 -99q-7 -8 -31.5 10.5t-44.5 43.5t-14 34q25 47 93.5 98.5t143.5 51.5q45 0 89.5 -18t74 -39.5t64 -39.5t61.5 -18q16 0 31 4t28.5 12.5t24 16.5t21.5 19.5
t16.5 18.5t13.5 17.5t9 11.5q7 10 33 -5.5t47.5 -39.5t15.5 -36zM934 373q-32 -53 -103 -106.5t-145 -53.5q-48 0 -93.5 18.5t-73.5 40t-60.5 40t-57.5 18.5q-23 0 -44.5 -8.5t-41 -26t-30.5 -29.5t-27 -33q-7 -9 -31.5 9.5t-44.5 44.5t-14 35q29 49 94 99t139 50
q45 0 89.5 -18.5t74 -40t64 -40t61.5 -18.5q76 0 148 103q12 14 58.5 -26t37.5 -58z" />
    <glyph glyph-name="notequal" unicode="&#x2260;" horiz-adv-x="1105" 
d="M967 354q0 -75 -17 -75h-481q-26 -31 -78.5 -96t-79.5 -97q-8 -8 -40 14t-58 50t-18 36l69 93h-98q-16 0 -16 75q0 80 16 80h237q20 23 57.5 70t57.5 71h-352q-16 0 -16 78v27q0 51 16 51h487q27 33 81.5 98.5t82.5 98.5q7 9 39 -12t58 -50.5t18 -38.5q-54 -67 -76 -96
h94q17 0 17 -78v-24q0 -54 -17 -54h-229q-19 -24 -57 -71t-58 -70h344q17 0 17 -80z" />
    <glyph glyph-name="lessequal" unicode="&#x2264;" horiz-adv-x="1124" 
d="M178 670l744 260q6 1 9.5 -6.5t4.5 -24.5t1.5 -28.5t0.5 -30.5q0 -88 -16 -92l-512 -175l512 -161q16 -6 16 -90q0 -19 -0.5 -30.5t-1.5 -29t-4.5 -25.5t-9.5 -6l-744 258q-18 6 -18 91q0 84 18 90zM174 166h754q16 0 16 -82q0 -84 -16 -84h-754q-16 0 -16 82q0 84 16 84
z" />
    <glyph glyph-name="greaterequal" unicode="&#x2265;" horiz-adv-x="1101" 
d="M182 926l744 -254q16 -7 16 -90q0 -86 -16 -93l-746 -258q-6 -2 -9.5 6t-4.5 25.5t-1.5 29t-0.5 30.5q0 84 16 90l512 166l-512 165q-16 6 -16 93q0 15 1 30.5t3 30.5t5.5 23t8.5 6zM174 166h754q16 0 16 -84q0 -82 -16 -82h-754q-16 0 -16 82q0 84 16 84z" />
    <glyph glyph-name="lozenge" unicode="&#x25ca;" horiz-adv-x="1517" 
d="M1421 756l-590 -746q-14 -18 -61 -18q-49 0 -63 18l-598 752l593 731q14 16 62 16q51 0 63 -16zM760 1272l-408 -508l420 -537l410 523z" />
    <glyph glyph-name="fi" unicode="&#xfb01;" horiz-adv-x="1167" 
d="M625 1001q0 -81 -19 -81h-188v-910q0 -18 -99 -18q-100 0 -100 18v910h-141q-17 0 -17 81q0 78 17 78h141v164q0 136 70 209.5t198 73.5h152q6 0 9 -4.5t5 -23t2 -54.5t-2 -54t-5 -22t-9 -4h-113q-59 0 -84.5 -32t-25.5 -99v-154h190q19 0 19 -78zM940 -8q-98 0 -98 16
v1092q0 16 98 16t98 -16v-1092q0 -16 -98 -16zM940 1270q-98 0 -98 16v232q0 16 98 16t98 -16v-232q0 -16 -98 -16z" />
    <glyph glyph-name="fl" unicode="&#xfb02;" horiz-adv-x="1243" 
d="M625 1001q0 -81 -19 -81h-188v-910q0 -18 -99 -18q-100 0 -100 18v910h-141q-17 0 -17 81q0 78 17 78h141v164q0 136 70 209.5t198 73.5h152q6 0 9 -4.5t5 -23t2 -54.5t-2 -54t-5 -22t-9 -4h-113q-59 0 -84.5 -32t-25.5 -99v-154h190q19 0 19 -78zM1188 0h-94
q-133 0 -201 69.5t-68 192.5v1256q0 16 101 16q98 0 98 -16v-1239q0 -56 28 -81.5t89 -25.5h47q21 0 27 -15t6 -69q0 -57 -6 -72.5t-27 -15.5z" />
    <glyph glyph-name="CR" horiz-adv-x="440" 
 />
    <glyph glyph-name="dummy1" horiz-adv-x="0" 
 />
    <glyph glyph-name="dummy2" horiz-adv-x="0" 
 />
    </font>
</defs>
</svg>
